<svg xmlns="http://www.w3.org/2000/svg" viewBox="0 0 139.16 172.83"><defs><style>.cls-1,.cls-12,.cls-7{fill:#d1d3d4;}.cls-19,.cls-2{fill:#fff;}.cls-3,.cls-9{fill:#bcbec0;}.cls-4,.cls-6,.cls-8{fill:#a7a9ac;}.cls-17,.cls-5{fill:none;}.cls-10,.cls-12,.cls-13,.cls-14,.cls-16,.cls-17,.cls-18,.cls-19,.cls-5,.cls-6,.cls-7,.cls-8,.cls-9{stroke:#000;}.cls-10,.cls-12,.cls-13,.cls-14,.cls-16,.cls-18,.cls-19,.cls-5,.cls-6,.cls-7,.cls-8,.cls-9{stroke-miterlimit:10;}.cls-10,.cls-12,.cls-13,.cls-14,.cls-16,.cls-17,.cls-18,.cls-5,.cls-6,.cls-9{stroke-width:2px;}.cls-10,.cls-11{fill:#4b81e2;}.cls-13{fill:#939598;}.cls-15{fill:#e6e7e8;}.cls-16,.cls-20{fill:#2859c6;}.cls-17{stroke-linecap:round;stroke-linejoin:round;}.cls-18{fill:#e0c2a4;}.cls-19{stroke-width:0.5px;}</style></defs><g id="Layer_2" data-name="Layer 2"><g id="Main_Assets" data-name="Main Assets"><g id="Allies"><g id="Warrior"><g id="Torso_copy" data-name="Torso copy"><path class="cls-1" d="M92,129.31a4.67,4.67,0,0,1,.26,3.68l-4.66,10.83,0,4.47H69.81V115.84L89.07,113a1.62,1.62,0,0,1,1.85,1.44L91,125.65a7,7,0,0,0,.78,3.17Z"/><path class="cls-1" d="M91.93,157.35a.68.68,0,0,1-.38,1l-9.75,2.66a10.69,10.69,0,0,1-1.67.32l-3.89-12h2.11a46.29,46.29,0,0,0,6.86-.52l2.45-.38v1.29Z"/><polygon class="cls-2" points="88.72 148.29 87.66 148.46 87.66 148.29 88.72 148.29"/><path class="cls-2" d="M87.66,148.29v.17l-2.45.38a46.29,46.29,0,0,1-6.86.52H76.24l-6.43-1.07H87.66Z"/><path class="cls-3" d="M76.24,149.36l3.89,12a11.34,11.34,0,0,1-1.3.08H61.93a10.25,10.25,0,0,1-1.46-.11l3.77-12Z"/><polygon class="cls-2" points="76.24 149.36 64.24 149.36 69.81 148.81 69.81 148.29 76.24 149.36"/><path class="cls-2" d="M69.81,148.29v.52l-5.57.55h-2a42.47,42.47,0,0,1-6-.41l-4.13-.54v-.14H69.81Z"/><path class="cls-3" d="M69.81,115.84v32.44H52.16v-4.19l-4.78-10.86a4.73,4.73,0,0,1,.14-3.47l.48-1.08a7.13,7.13,0,0,0,.61-2.81l.08-11.4A1.62,1.62,0,0,1,50.54,113Z"/><path class="cls-4" d="M64.24,149.36l-3.77,12a12.14,12.14,0,0,1-1.23-.22l-11.15-2.74a.69.69,0,0,1-.4-1l4.47-7.26v-1.66l4.13.54a42.47,42.47,0,0,0,6,.41Z"/><polygon class="cls-2" points="52.16 148.27 52.16 148.41 51.07 148.27 52.16 148.27"/><path class="cls-5" d="M52.16,148.41v1.66l-4.47,7.26a.69.69,0,0,0,.4,1l11.15,2.74a12.14,12.14,0,0,0,1.23.22,10.25,10.25,0,0,0,1.46.11h16.9a11.34,11.34,0,0,0,1.3-.08,10.69,10.69,0,0,0,1.67-.32l9.75-2.66a.68.68,0,0,0,.38-1l-4.26-7.6v-1.29"/><path class="cls-5" d="M87.66,148.29l0-4.47L92.28,133a4.67,4.67,0,0,0-.26-3.68l-.24-.49a7,7,0,0,1-.78-3.17l-.08-11.19A1.62,1.62,0,0,0,89.07,113l-19.26,2.82L50.54,113a1.62,1.62,0,0,0-1.85,1.44l-.08,11.4a7.13,7.13,0,0,1-.61,2.81l-.48,1.08a4.73,4.73,0,0,0-.14,3.47l4.78,10.86v4.19"/><path class="cls-6" d="M87.63,151.44l-.45.15a40.16,40.16,0,0,1-12.44,2h-9.3a39.93,39.93,0,0,1-10.92-1.52l-2.94,1.26a10.53,10.53,0,0,1-.51-3,21.46,21.46,0,0,1,1.09-5.75l4.92.69a39.13,39.13,0,0,0,5.62.4H77.87a39.81,39.81,0,0,0,6.45-.53l3.31-.53s.36,3.66.36,5.15S87.63,151.44,87.63,151.44Z"/></g><g id="Arm_-_Shield_copy" data-name="Arm - Shield copy"><path class="cls-7" d="M90.05,113.57l3.5,15.87h17.74S109.41,114.63,90.05,113.57Z"/><path class="cls-8" d="M90.45,113.4l3.33,15.31h17.63a2,2,0,0,1,1.91,1.42c.25.88.44,1.67.55,2.17a.49.49,0,0,1-.48.58h-22a1.6,1.6,0,0,1-1.56-1.25l-4.28-19.45a.49.49,0,0,1,.51-.59c.93.06,1.82.15,2.68.26A2,2,0,0,1,90.45,113.4Z"/><path class="cls-9" d="M90.05,113.57l3.5,15.87h17.74S109.41,114.63,90.05,113.57Z"/><path class="cls-10" d="M91.78,113.4l2.93,10.65a3.09,3.09,0,0,0,3,2.29l13.59.36a2,2,0,0,1,1.91,1.42c.25.88.56,3.68.67,4.18a.49.49,0,0,1-.48.58h-22a1.6,1.6,0,0,1-1.56-1.25l-4.28-19.45a.49.49,0,0,1,.51-.59c.93.06,3.15.15,4,.26A2,2,0,0,1,91.78,113.4Z"/><path class="cls-11" d="M116.75,124l4.77,25.54a1.18,1.18,0,0,1-.28,1l-15,16.89a1.21,1.21,0,0,1-1.46.27L84.7,157.42a1.23,1.23,0,0,1-.64-.86L79.29,131a1.22,1.22,0,0,1,1-1.41l35.08-6.55A1.21,1.21,0,0,1,116.75,124Z"/><path class="cls-12" d="M111.76,132.25l3.06,16.35a1.2,1.2,0,0,1-.29,1l-9.61,10.82a1.19,1.19,0,0,1-1.45.27L90.6,154.09a1.19,1.19,0,0,1-.63-.85l-3.06-16.35a1.21,1.21,0,0,1,1-1.41l22.48-4.2A1.2,1.2,0,0,1,111.76,132.25Z"/><path class="cls-5" d="M116.75,124l4.77,25.54a1.18,1.18,0,0,1-.28,1l-15,16.89a1.21,1.21,0,0,1-1.46.27L84.7,157.42a1.23,1.23,0,0,1-.64-.86L79.29,131a1.22,1.22,0,0,1,1-1.41l35.08-6.55A1.21,1.21,0,0,1,116.75,124Z"/></g><g id="Arm_-_Sword_copy" data-name="Arm - Sword copy"><path class="cls-9" d="M27.19,142.28l-1.66,6.65a.58.58,0,0,0,.81.65l5.58-.42c.79-.38.46,1.61,1.32,1.44l5.19-1.25c.45-.09.48-4.1.52-4.56l.52-5.51"/><path class="cls-9" d="M28.47,132.88l-2.69,8.39a.64.64,0,0,0,.81.83l4.85-1.67a12.17,12.17,0,0,1,2.86-.62l5.86-.52a1.18,1.18,0,0,0,1-.93l1.26-6.05"/><path class="cls-13" d="M40.87,147.25c-2.45-1.15-7.72-.68-7.72-.68a5.4,5.4,0,0,0-3,.94l-.51.36a5.35,5.35,0,0,0-2.33,4.42v3a5.33,5.33,0,0,0,5.3,5.36c2.45,0,5.23-.53,7.13-2.46"/><path class="cls-14" d="M42.79,150.07a4.75,4.75,0,0,0-1.85-4c-2.13-1.66-3.14,1-4.69,5.84-2.2,6.8-1.12,8.8.49,9.83s3.46-.38,4.28-3.45"/><polygon class="cls-15" points="128.23 163.68 127.88 163.83 109.89 160.32 111.94 155.02 128.23 163.68"/><polygon class="cls-1" points="127.88 163.83 110.1 171.97 109.62 171.87 109.77 160.62 109.89 160.32 127.88 163.83"/><path class="cls-15" d="M111.94,155l-2,5.3L39.76,152a2.44,2.44,0,0,1,.1-.24l.94-1.61L111.92,155Z"/><path class="cls-3" d="M109.77,160.62l-.15,11.25L38.89,158l.51-4.73a5,5,0,0,1,.36-1.31l70.13,8.37Z"/><path class="cls-9" d="M48.3,113.57l-3.49,15.87H27.06S28.94,114.63,48.3,113.57Z"/><path class="cls-16" d="M46.28,113.4l-2.75,11.53a2.19,2.19,0,0,1-2.11,1.69l-14.36.12a2,2,0,0,0-1.91,1.43c-.25.87-.56,3.63-.66,4.13a.47.47,0,0,0,.47.58H45.65a3.18,3.18,0,0,0,3.1-2.5l4-18.2a.49.49,0,0,0-.51-.59c-.93.06-3.44.15-4.3.26A2,2,0,0,0,46.28,113.4Z"/><path class="cls-17" d="M38.9,158l70.22,13.79a3.16,3.16,0,0,0,1.89-.23l17.22-7.87-15.55-8.27A4.23,4.23,0,0,0,111,155L40.81,150.1l-.94,1.61a4.73,4.73,0,0,0-.48,1.55Z"/><path class="cls-5" d="M28.47,132.88l-2.69,8.39a.64.64,0,0,0,.81.83l4.85-1.67a12.17,12.17,0,0,1,2.86-.62l5.86-.52a1.18,1.18,0,0,0,1-.93l1.26-6.05"/></g><g id="Head_copy" data-name="Head copy"><g id="Face_-_Proper_copy" data-name="Face - Proper copy"><path class="cls-18" d="M97,115.47l-18,2.94a57,57,0,0,1-18.16,0l-18-2.94-30-28.74,6.06-29.21,100.48,2.21,5.87,41.07"/><path d="M34.16,88.77a14,14,0,0,1,.09-3A5.67,5.67,0,0,1,41,81l1.18.24a5.74,5.74,0,0,1,4.44,4.31c.15.6.28,1.24.41,1.92C50.46,105.64,35.24,101.9,34.16,88.77Z"/><path d="M76.37,107.69c-.1.21-1.65-.28-3.23-.54a21.2,21.2,0,0,0-2.19-.28c-.6-.07-1-.07-1-.08s-.43-.08-1-.15-1.4-.16-2.2-.22c-1.6-.11-3.22,0-3.27-.24s1.55-.76,3.23-1a18.72,18.72,0,0,1,2.34-.15c.65,0,1.09,0,1.12,0s.47.07,1.1.22a17,17,0,0,1,2.25.67C75.06,106.58,76.47,107.49,76.37,107.69Z"/><path class="cls-19" d="M38,83c-2.82.56-2.3,4.37-.8,4.69.65.13,1.34-1,2.39-1.76.75-.55,2-.63,2-1.36C41.69,82.82,39.63,82.69,38,83Z"/><g id="Layer_930" data-name="Layer 930"><path d="M103.32,88.59a13.84,13.84,0,0,0-.18-3,5.67,5.67,0,0,0-6.92-4.49l-1.17.27a5.75,5.75,0,0,0-4.3,4.45c-.13.6-.24,1.25-.35,1.93C87.58,106,102.66,101.75,103.32,88.59Z"/><path class="cls-19" d="M94.78,83.34C92,83.9,92.48,87.71,94,88c.65.13,1.34-1,2.39-1.75.75-.56,2-.64,2-1.37C98.43,83.15,96.37,83,94.78,83.34Z"/></g></g><g id="Helmet_copy" data-name="Helmet copy"><path class="cls-5" d="M97,115.47l-18,2.94a57,57,0,0,1-18.16,0l-18-2.94-30-28.74,6.06-29.21,100.48,2.21,5.87,41.07"/><path class="cls-1" d="M125.8,93.64,119.3,64,19.23,62.82l-6,30.82,42.81,8.23-7.3,14c-1.5,2.46-5.11,3.83-10.71,4.77L6,114.43c-.29-1.83-7-4.51-5-5.48l4-3.83c3.09-2,3.61-5.33,4.27-8.29L21.39,42c2.19-9.87,8.69-19.09,19.15-25.45L66.63,1.7a4.94,4.94,0,0,1,4.88,0L97.94,16.38c10.46,6.35,16.69,15.7,18.88,25.57l12.09,55.57c.66,3,1,4.08,4.05,6l3.74,4.85c2,1-1.95,5.68-4.26,6l-29.88,5.91c-3.58.55-10.4-1.54-11.9-4l-5.94-13.82-1.55-4.76Z"/><path class="cls-3" d="M68.73,38c0-3.82.38-23.75-1.39-28.16-1.59-4-2.5-2.93-2.26-7.26L40.54,16.5C30.08,22.86,23.58,32.08,21.39,42L9.23,96.83c-.66,3-1.18,6.34-4.27,8.29L1,109c-1.95,1,4.72,3.65,5,5.48l32.07,6.18c5.6-.94,9.21-2.31,10.71-4.77l7.3-14L13.28,93.64l6-30.82,55.94.64C68.55,56,68.73,42.48,68.73,38Z"/><path class="cls-5" d="M99.73,61.16l20.49-5-4.28-17.65c-2.19-9.07-9.17-17.28-19.62-23.12L71.51,1.59a5.32,5.32,0,0,0-4.88,0L41.83,15.43C31.37,21.27,24.39,29.48,22.2,38.55L17.44,58.22l16.66,4Z"/><path class="cls-20" d="M82.54,106.86V100a2.8,2.8,0,0,1,2.33-2.71L121.16,90a1.41,1.41,0,0,0,1.15-1.67L119.63,73.4A1.48,1.48,0,0,0,118,72.29L83.61,77.24a102.65,102.65,0,0,1-29.08,0L20.17,72.29a1.48,1.48,0,0,0-1.66,1.11L15.83,88.32A1.41,1.41,0,0,0,17,90l36.28,7.34A2.79,2.79,0,0,1,55.6,100v6.82a2.36,2.36,0,0,1-2.77,2.07l-1.55-.17-.17,0L7.73,99.85a1.48,1.48,0,0,1-1.29-1.68l8.42-42.54a1.65,1.65,0,0,1,1.79-1.22L60,57.35a133.62,133.62,0,0,0,18.12,0l43.37-2.94a1.64,1.64,0,0,1,1.78,1.22l8.43,42.54a1.49,1.49,0,0,1-1.3,1.68L87,108.73l-.17,0-1.55.17A2.36,2.36,0,0,1,82.54,106.86Z"/><path class="cls-11" d="M72.14,78.23c4.23-.22,7.67-.45,11.47-1L118,72.29a1.48,1.48,0,0,1,1.66,1.11l2.68,14.92A1.41,1.41,0,0,1,121.16,90L84.87,97.33A2.8,2.8,0,0,0,82.54,100v6.82a2.36,2.36,0,0,0,2.77,2.07l1.55-.17.17,0,43.38-8.88a1.49,1.49,0,0,0,1.3-1.68l-8.43-42.54a1.64,1.64,0,0,0-1.78-1.22L78.13,57.35q-4.11.28-8.24.31S69.07,74.41,72.14,78.23Z"/><path class="cls-5" d="M82.54,106.86V100a2.8,2.8,0,0,1,2.33-2.71L121.16,90a1.41,1.41,0,0,0,1.15-1.67L119.63,73.4A1.48,1.48,0,0,0,118,72.29L83.61,77.24a102.65,102.65,0,0,1-29.08,0L20.17,72.29a1.48,1.48,0,0,0-1.66,1.11L15.83,88.32A1.41,1.41,0,0,0,17,90l36.28,7.34A2.79,2.79,0,0,1,55.6,100v6.82a2.36,2.36,0,0,1-2.77,2.07l-1.55-.17-.17,0L7.73,99.85a1.48,1.48,0,0,1-1.29-1.68l8.42-42.54a1.65,1.65,0,0,1,1.79-1.22L60,57.35a133.62,133.62,0,0,0,18.12,0l43.37-2.94a1.64,1.64,0,0,1,1.78,1.22l8.43,42.54a1.49,1.49,0,0,1-1.3,1.68L87,108.73l-.17,0-1.55.17A2.36,2.36,0,0,1,82.54,106.86Z"/><path class="cls-5" d="M8.31,100a23.56,23.56,0,0,1-6.59,8.31c-5.85,4.67,25.6,12.26,38.86,12.24,5.7,0,9.35-7.21,11.06-11.88"/><path class="cls-5" d="M130.85,100a23.56,23.56,0,0,0,6.59,8.31c5.85,4.67-25.6,12.26-38.86,12.24-5.84,0-9.52-7.56-11.17-12.21"/></g></g></g></g></g></g></svg>