<svg xmlns="http://www.w3.org/2000/svg" viewBox="0 0 94.44 89.78"><defs><style>.cls-1{fill:#939598;}.cls-2{fill:#a7a9ac;}.cls-3{fill:#d1d3d4;}.cls-11,.cls-4{fill:none;}.cls-10,.cls-11,.cls-4{stroke:#000;stroke-miterlimit:10;}.cls-4{stroke-width:2px;}.cls-5{opacity:0.1;}.cls-6{fill:#754c29;}.cls-7{fill:#684023;}.cls-8{fill:#080705;}.cls-9{fill:#bcbec0;}.cls-10{fill:#e8c587;}.cls-10,.cls-11{stroke-width:1.5px;}</style></defs><g id="Layer_2" data-name="Layer 2"><g id="Main_Assets" data-name="Main Assets"><g id="Enemies"><g id="Orc_-_Grave" data-name="Orc - Grave"><g id="Layer_720" data-name="Layer 720"><path class="cls-1" d="M25,47.29s-7.88,3.8-6.79,29.35a2.34,2.34,0,0,0,1.7,2.16c7.1,2,36.32,9.25,62-1.92a2.33,2.33,0,0,0,1.39-2.23c-.21-5.07-1.26-20.93-6.39-28.31a7.74,7.74,0,0,0-3.44-2.75,21.23,21.23,0,0,0-3.59-1,4.31,4.31,0,0,0-2.3.28,9.34,9.34,0,0,1-3.65.9c-2,0-2.18-2-4.69-1.77a12.53,12.53,0,0,1-4.7-.72,31.77,31.77,0,0,0-5.44.26c-2.66.19-5.19,1.76-7.35,2-2.63.33-4.77-.66-6.71-.21C27.77,45.06,25,47.29,25,47.29Z"/><path class="cls-2" d="M29.06,46.37s-3,1.36-4.86,8.18C20.3,68.74,25.42,76.67,40,76c9.94-.47,22.83,1.14,35.37-2.76a8.38,8.38,0,0,0,6.15-8.64c-.55-5.89-1.94-14.5-5.37-19.14A6.88,6.88,0,0,0,73,43.1a20.46,20.46,0,0,0-3.23-.87,4.16,4.16,0,0,0-2,.21,9.06,9.06,0,0,1-3.37.81c-1.82,0-2-1.69-4.25-1.49a12,12,0,0,1-4.25-.6,30.06,30.06,0,0,0-4.93.24c-2.41.17-4.71,1.51-6.67,1.74-2.38.3-4.32-.54-6.08-.15C31.55,44.47,29.06,46.37,29.06,46.37Z"/><path class="cls-3" d="M61.37,74.46a1.59,1.59,0,0,0-1.48.5c-1,1.26-1,3.05,1.1,3a1.87,1.87,0,0,0,1.7-2.54A1.92,1.92,0,0,0,61.37,74.46Z"/><path class="cls-3" d="M77.15,70.88a1.52,1.52,0,0,0-1.42.5c-1,1.26-1,3,1.06,3a1.84,1.84,0,0,0,1.62-2.52A1.87,1.87,0,0,0,77.15,70.88Z"/><path class="cls-3" d="M75.83,58.12a1.24,1.24,0,0,0-1.17.41c-.8,1-.81,2.4.87,2.39a1.48,1.48,0,0,0,1.35-2A1.56,1.56,0,0,0,75.83,58.12Z"/><path class="cls-3" d="M72.11,46.09a1.06,1.06,0,0,0-1,.34c-.69.85-.69,2,.74,2A1.25,1.25,0,0,0,73,46.76,1.29,1.29,0,0,0,72.11,46.09Z"/><path d="M62.64,75.51s.33.19.42.72A2,2,0,0,1,62.3,78a2.41,2.41,0,0,1-.95.5,2.69,2.69,0,0,1-1,.07,2.79,2.79,0,0,1-.7-.16,2,2,0,0,1-.28-.15L59.16,78a1.66,1.66,0,0,1-.4-.7,2.47,2.47,0,0,1,.4-2,2.87,2.87,0,0,1,.69-.75,2,2,0,0,1,.85-.31c.57-.05.83.33.75.36s-.31-.09-.67.07a1.6,1.6,0,0,0-.53.37,2.67,2.67,0,0,0-.4.65A1.7,1.7,0,0,0,59.74,77a.71.71,0,0,0,.3.32,1.43,1.43,0,0,0,.51.21,1.62,1.62,0,0,0,1.28-.18,1.59,1.59,0,0,0,.79-1.08C62.68,75.85,62.56,75.55,62.64,75.51Z"/><path d="M78.54,71.91s.33.19.42.72a2,2,0,0,1-.76,1.73,2.31,2.31,0,0,1-1,.51,2.92,2.92,0,0,1-1,.06,2.41,2.41,0,0,1-.7-.16l-.29-.14-.25-.22a1.64,1.64,0,0,1-.4-.71,2.49,2.49,0,0,1,.39-2,3,3,0,0,1,.7-.76,1.82,1.82,0,0,1,.84-.3c.58-.06.84.33.76.36s-.31-.09-.67.07a1.88,1.88,0,0,0-.54.36,3,3,0,0,0-.39.65,1.65,1.65,0,0,0-.11,1.26.72.72,0,0,0,.29.32,1.45,1.45,0,0,0,.52.21,1.69,1.69,0,0,0,2.07-1.26C78.58,72.25,78.46,72,78.54,71.91Z"/><path d="M76.82,59s.25.16.31.57a1.54,1.54,0,0,1-.6,1.34,1.94,1.94,0,0,1-1.47.43,2.07,2.07,0,0,1-.54-.12l-.22-.11-.2-.17a1.37,1.37,0,0,1-.3-.54,1.93,1.93,0,0,1,.3-1.53,2.27,2.27,0,0,1,.53-.59,1.52,1.52,0,0,1,.66-.24c.44,0,.64.24.59.26s-.24-.09-.53,0a1.26,1.26,0,0,0-.44.28,2,2,0,0,0-.32.52,1.3,1.3,0,0,0-.1,1,.56.56,0,0,0,.24.28,1.21,1.21,0,0,0,.43.17,1.38,1.38,0,0,0,1.67-1C76.87,59.23,76.77,59,76.82,59Z"/><path d="M73,46.8s.2.13.24.48a1.28,1.28,0,0,1-.51,1.1,1.54,1.54,0,0,1-1.22.35,1.59,1.59,0,0,1-.45-.1l-.18-.09-.15-.14a1,1,0,0,1-.25-.43,1.62,1.62,0,0,1,.24-1.27,1.89,1.89,0,0,1,.44-.5,1.26,1.26,0,0,1,.54-.21c.37,0,.54.2.5.21s-.2-.09-.46,0a1.15,1.15,0,0,0-.67.68,1.18,1.18,0,0,0-.1.91c.07.21.23.25.22.27a1.21,1.21,0,0,0,.39.15,1.14,1.14,0,0,0,.91-.16,1.07,1.07,0,0,0,.53-.78C73,47,72.93,46.82,73,46.8Z"/><path class="cls-4" d="M25,47.29s-7.88,3.8-6.79,29.35a2.34,2.34,0,0,0,1.7,2.16c7.1,2,36.32,9.25,62-1.92a2.33,2.33,0,0,0,1.39-2.23c-.21-5.07-1.26-20.93-6.39-28.31a7.74,7.74,0,0,0-3.44-2.75,21.23,21.23,0,0,0-3.59-1,4.31,4.31,0,0,0-2.3.28,9.34,9.34,0,0,1-3.65.9c-2,0-2.18-2-4.69-1.77a12.53,12.53,0,0,1-4.7-.72,31.77,31.77,0,0,0-5.44.26c-2.66.19-5.19,1.76-7.35,2-2.63.33-4.77-.66-6.71-.21C27.77,45.06,25,47.29,25,47.29Z"/><path class="cls-3" d="M56.35,46.75c-1.73-.18-1.88,1-4.9,1.37s.25,2.85,3.94,2.22,5.12-.13,6.32.51,4.67,3.58,5.45,2.07,1.23-6.57-1.59-5.56C62.33,48.52,58.54,47,56.35,46.75Z"/><path class="cls-5" d="M58.24,64.1c-.86.33-1.7.67-2.41,1-.33-.34-.65-.66-.93-.91-.43-.4-.74-.64-.76-.66s-.33-.24-.8-.54a25.68,25.68,0,0,0,3.41-1.49,12.73,12.73,0,0,0-3.84.8l-.46.15c-.3-.18-.63-.36-1-.53a7.59,7.59,0,0,0-2.83-1.05,16.55,16.55,0,0,0,2.42,1.73l.3.21-1,.38-1.21.49-.8.42-1-.61a11.05,11.05,0,0,0-3-1.55,16.89,16.89,0,0,0,2.59,2.2l.55.45c-.55.32-1.19.71-1.8,1.12a11,11,0,0,0-3,2.58c.1.12,1.67-1,3.38-1.89.8-.43,1.6-.82,2.25-1.12l.4.34.85.71.89.66.66.51c-.34.21-.69.41-1,.63a15.94,15.94,0,0,0-3.57,2.65,36.91,36.91,0,0,0,4-2l1.43-.7c.13.11.26.2.38.31a19.88,19.88,0,0,0,2.66,2.1,10,10,0,0,0-2.12-2.69l-.1-.11.49-.23,1.32-.6,1.27-.65h0a23.2,23.2,0,0,0,2.22,2,6.25,6.25,0,0,0-1.5-2.36l2-1a28.89,28.89,0,0,0,3.93-2A18.32,18.32,0,0,0,58.24,64.1ZM54,65.84l-1.3.69L52,67c-.31-.3-.61-.58-.87-.81l-.85-.74-.89-.64.24-.1,1.14-.56,1.5-.69.46.36c.44.34.73.59.75.6s.33.23.77.57c.2.14.44.32.67.51Z"/></g><g id="Layer_719" data-name="Layer 719"><path class="cls-3" d="M20.17,69.37a1.82,1.82,0,0,0-1.72.5c-1.23,1.38-1.33,3.43,1.09,3.52a2.14,2.14,0,0,0,2.1-2.81A2.24,2.24,0,0,0,20.17,69.37Z"/><path class="cls-3" d="M25,43.49a1.25,1.25,0,0,0-1.16.33c-.83.94-.89,2.31.74,2.37A1.43,1.43,0,0,0,26,44.31,1.47,1.47,0,0,0,25,43.49Z"/><path class="cls-3" d="M21.34,55.42a1.47,1.47,0,0,0-1.37.4c-1,1.09-1,2.71.87,2.79a1.69,1.69,0,0,0,1.65-2.23A1.76,1.76,0,0,0,21.34,55.42Z"/><path class="cls-3" d="M40.64,73.68a1.83,1.83,0,0,0-1.73.5c-1.23,1.39-1.33,3.43,1.1,3.53A2.14,2.14,0,0,0,42.1,74.9,2.22,2.22,0,0,0,40.64,73.68Z"/><path d="M21.58,70.65c.05,0,.34.24.4.84a2.26,2.26,0,0,1-1,1.89,2.64,2.64,0,0,1-1.1.51,3.15,3.15,0,0,1-1.06,0,2.63,2.63,0,0,1-.77-.22l-.31-.17-.27-.25a2.06,2.06,0,0,1-.41-.8,2.79,2.79,0,0,1,.54-2.19,3.36,3.36,0,0,1,.82-.82,2.2,2.2,0,0,1,1-.31,1.06,1.06,0,0,1,.7.19c.14.11.17.21.14.23s-.34-.14-.77,0a1.88,1.88,0,0,0-.66.39,2.77,2.77,0,0,0-.51.73,2,2,0,0,0-.22,1.49.86.86,0,0,0,.34.42,1.49,1.49,0,0,0,.61.28,2.25,2.25,0,0,0,.73.09,2.12,2.12,0,0,0,.8-.25,1.88,1.88,0,0,0,1-1.24C21.62,71,21.49,70.68,21.58,70.65Z"/><path d="M25.94,44.35s.2.17.23.56a1.51,1.51,0,0,1-.65,1.22,1.79,1.79,0,0,1-1.39.32,1.67,1.67,0,0,1-.49-.15l-.2-.11L23.27,46a1,1,0,0,1-.25-.49,1.79,1.79,0,0,1,.33-1.41,2.05,2.05,0,0,1,.52-.54,1.5,1.5,0,0,1,.62-.22c.42,0,.6.24.56.25a.89.89,0,0,0-.52,0,1.35,1.35,0,0,0-.47.25,2,2,0,0,0-.37.5,1.38,1.38,0,0,0-.17,1.06.7.7,0,0,0,.25.34,1.33,1.33,0,0,0,.45.2,1.41,1.41,0,0,0,1.08-.14,1.27,1.27,0,0,0,.65-.9C26,44.59,25.89,44.36,25.94,44.35Z"/><path d="M22.43,56.45s.26.2.3.67A1.74,1.74,0,0,1,22,58.58a2.12,2.12,0,0,1-.85.39,2.33,2.33,0,0,1-.83,0,2.21,2.21,0,0,1-.59-.17l-.24-.14-.21-.19a1.45,1.45,0,0,1-.31-.61,2.17,2.17,0,0,1,.41-1.7,2.39,2.39,0,0,1,.63-.64,1.63,1.63,0,0,1,.75-.25c.5,0,.72.3.66.31s-.26-.12-.62,0a1.59,1.59,0,0,0-.53.3,2.31,2.31,0,0,0-.41.58,1.61,1.61,0,0,0-.19,1.21.78.78,0,0,0,.28.37,1.43,1.43,0,0,0,.51.23,1.57,1.57,0,0,0,1.23-.15,1.53,1.53,0,0,0,.77-1C22.48,56.74,22.37,56.48,22.43,56.45Z"/><path d="M42,75c.05,0,.34.24.41.84a2.26,2.26,0,0,1-1,1.89,2.66,2.66,0,0,1-1.09.51,3.21,3.21,0,0,1-1.07,0,3,3,0,0,1-.77-.21l-.31-.18L38,77.57a1.93,1.93,0,0,1-.4-.8,2.8,2.8,0,0,1,.54-2.19,3.15,3.15,0,0,1,.81-.82,2.24,2.24,0,0,1,1-.31,1.12,1.12,0,0,1,.7.19c.14.11.17.21.15.23s-.34-.14-.78,0a1.87,1.87,0,0,0-.66.38,2.92,2.92,0,0,0-.5.73,1.93,1.93,0,0,0-.22,1.49.76.76,0,0,0,.34.42,1.48,1.48,0,0,0,.61.29,2.45,2.45,0,0,0,.72.08A1.91,1.91,0,0,0,41,77a1.85,1.85,0,0,0,1-1.24C42.09,75.34,42,75,42,75Z"/><path class="cls-6" d="M52.82,47C52.09,37.67,48,33.3,48,33.3l-2.1,1.42.21-4.26S41.42,26.07,36.44,25a26.75,26.75,0,0,1-3.93,5.09l-2.79-2.94-6.09-.43s-4,5.24-4.58,5.56h0l-1.71-3.07-5.26,4.55L5.66,44l-4,13.33L1.11,68.62,5.1,76l-.46,2a16.67,16.67,0,0,0,3.75,4c1.61,1,5,1.24,5.7,1.28L14.5,85l5.18,3.21,7,.87,1.78-3.49.22,1v1.51c4.54-.87,7-4,10.46-7,1.54-1.36,3.74-4.65,5.07-6.62,5.09-7.6,5.11-14.43,7.71-19C53.22,53.07,53,49.25,52.82,47Z"/><path class="cls-7" d="M37.54,81.38l-2.61-1.57L32.27,78l-.79-2.21-1.89,4.65-3-1.9L25,72.06l-5.77-6-1.74,6-5.78-3.13L9,63.69,7.46,67.51,8,63.78,5.55,59l.8-16.43-5,15L1.27,69.07l4.25,7.1L4.59,79S9,83.83,14,83.29c0,0-.27,2.95,5.64,4.93s8.08-1.85,8.08-1.85L29,88l5-3"/><polyline class="cls-7" points="12.48 50.5 23.04 57.67 22.21 59.58 12.16 54.9"/><polygon class="cls-7" points="23.85 51.19 27.93 56.16 35.81 61.4 34.44 63.93 27.8 59.49 23.35 57.38 24.11 55.51 23.85 51.19"/><polyline class="cls-7" points="19.16 33.08 26.6 38.5 28.58 39.52 28.14 40.37 18.54 36.17"/><polyline class="cls-4" points="13.73 82.52 14.33 84.95 19.51 88.16 25.82 88.74 28.08 85.98"/><path d="M23.87,50.47A9.14,9.14,0,0,1,24,52.55q0,1,0,2.34c0,.47,0,.86,0,1.46a1.51,1.51,0,0,1-.14.44l-.15.35c-.1.24-.21.48-.31.73-.87,2-1.85,4.19-2.86,6.49-.25.56-.51,1.13-.76,1.71l0,.12s0,.15-.05.22l-.08.46-.17.93c-.22,1.26-.45,2.5-.66,3.7-2.14,5.58-3.89,10.16-4,10.37a.94.94,0,0,1-1.14.65.93.93,0,0,1-.37-1.25l4.18-10.15c.24-1.15.5-2.35.76-3.55l.2-.93.1-.46c0-.08,0-.14,0-.24l.11-.33.84-1.71,3.14-6.36.36-.7.17-.35a1.06,1.06,0,0,0,.1-.26c.05-.39.06-.94.09-1.36.06-.89.11-1.68.15-2.33A8.64,8.64,0,0,1,23.87,50.47Z"/><path d="M27.55,41.89a6.76,6.76,0,0,1,.61-2.13c.45-1.28,1.16-2.81,1.74-4.48s1.17-3.31,1.62-4.57l.76-2.18c.09-.23.5-.29.92-.13s.69.47.6.7l-.88,2.15c-.52,1.24-1.22,2.87-2,4.48S29.32,38.91,28.73,40,27.66,41.93,27.55,41.89Z"/><path d="M42.39,42.16c-.2-.08.43-2.2,1.12-4.31l1-2.92c.28-.8.48-1.34.49-1.38s.44-.12.85.05.71.42.65.57l-.6,1.33c-.36.76-.84,1.77-1.31,2.78C43.61,40.28,42.6,42.24,42.39,42.16Z"/><path class="cls-4" d="M32.34,30.06a26.12,26.12,0,0,0,3.84-4.94.25.25,0,0,1,.26-.11c4.13.92,7.83,4,8.9,4.92a.92.92,0,0,1,.3.69l.14,3.6"/><path class="cls-4" d="M28.17,86.51,28.45,88s0,0,.06,0C33,87.18,36.66,82,36.66,82l5.46-3.62,3.71-8.47,3-5.63,2.83-8.82L53,43.81,48,33.4a.15.15,0,0,0-.22-.06l-2.14.55"/><path d="M40.44,47.56s0,.21-.11.57-.2.89-.37,1.55c-.34,1.34-.83,3.2-1.44,5.44L36.76,60c-.73,1.61-.07,3.42-.48,5.63a5.09,5.09,0,0,1-.67,1.51l-.8,1.24-1.6,2.47c-.26.39-.51.78-.76,1.17a1,1,0,0,0-.12.41l0,.71c0,1-.09,2-.14,2.88-1.44,3.57-2.7,6.67-3.5,8.63.38,1.25.6,2,.63,2.09.2.7,0,1.37-.42,1.49s-.94-.34-1.14-1L27,84.53c.86-2,2.23-5.19,3.8-8.85.06-.86.13-1.75.19-2.65l.05-.71a2.33,2.33,0,0,1,.29-1c.32-.49.56-.82.85-1.24l1.67-2.42.84-1.22a4.12,4.12,0,0,0,.55-1.16A4.58,4.58,0,0,0,35.38,64c0-.49,0-1,0-1.45a9.67,9.67,0,0,1,.09-1.49,6.43,6.43,0,0,1,.43-1.43l1.94-4.74C39.28,50.54,40.26,47.5,40.44,47.56Z"/><path class="cls-4" d="M4.93,76,1.55,69.69A4.5,4.5,0,0,1,1,67.28l.49-9.84a1.17,1.17,0,0,1,0-.26L5,45.54a12.11,12.11,0,0,1,1.33-2.93l5.48-8.74a1.27,1.27,0,0,1,.21-.25l5-4.34a.12.12,0,0,1,.19,0l1.85,3.06"/><path class="cls-4" d="M19.08,32.32a3.32,3.32,0,0,1,.52-.78c1-1.17,2.76-3.41,3.51-4.38a1.15,1.15,0,0,1,.94-.46l4.84.1a1.66,1.66,0,0,1,1.24.6l2.21,2.66"/><path d="M16.45,40.3a7.41,7.41,0,0,1,.77-2.61l.43-1.1a2.07,2.07,0,0,0,.24-1L18,33.36a3,3,0,0,1,.3-.89l.26-.49.24-.43c.08-.13.43,0,.84.17s.65.52.56.66l-.28.42-.27.41c-.08.13-.19.36-.19.34-.11.64-.23,1.41-.37,2.2a2.8,2.8,0,0,1-.18.72c-.12.27-.23.42-.32.6l-.59,1C17.25,39.38,16.6,40.37,16.45,40.3Z"/><path d="M14.37,45c.07,0-.38,1.31-.76,2.63l-.77,2.69-.08.25-.08.26a.88.88,0,0,0,0,.3c-.05.52-.11,1.21-.17,1.89a18.48,18.48,0,0,1-.35,2.72,17.25,17.25,0,0,1,0-2.74c0-.69,0-1.38,0-1.9a2.35,2.35,0,0,1,0-.42l.07-.27.07-.25.29-.86c.17-.5.4-1.15.64-1.8A12.12,12.12,0,0,1,14.37,45Z"/><path d="M10.75,59.48a19.57,19.57,0,0,1-1,3.43L7.64,69.79s0,.12,0,.25v.36l0,.69a11.85,11.85,0,0,1-.16,1.35,5.56,5.56,0,0,1-.35,1.27,4.12,4.12,0,0,1-.29.6c-.21.31-.07,0-.15.27L6,76.66c-.1.29-.52.4-1,.26s-.68-.51-.58-.8l.76-2a2.34,2.34,0,0,1,.15-.36l.13-.17,0-.06a2.43,2.43,0,0,0,.2-.36,4.7,4.7,0,0,0,.32-1A10,10,0,0,0,6.27,71l.06-.63,0-.33c0-.1,0-.2,0-.43l.71-1.89c.23-.6.46-1.2.69-1.78.46-1.17.92-2.29,1.34-3.25A12.15,12.15,0,0,1,10.75,59.48Z"/><path class="cls-4" d="M14,83.29s-4-.2-5.82-1.29a15.56,15.56,0,0,1-3.6-3.77.53.53,0,0,1-.07-.46l.78-2.33"/><path class="cls-8" d="M35.6,60.48c-.3,1.29-1,1.82-2.07,2.84-2.12,1.95-.64,6.08-2.29,8.21l.19,1.33,4.83-8.2"/></g><g id="Layer_718" data-name="Layer 718"><path class="cls-6" d="M64.57,61.19,72.8,82.28c-4.34,3.91-7.64,2.47-7.64,2.47L57.93,63.41"/><path class="cls-7" d="M57.93,63.41,37.54,3a6.21,6.21,0,0,1,4.71-2L64.57,61.19"/><path class="cls-6" d="M53.62,53.13c2,4.08,5.6,3.4,3.62-2.69s-6.56-8.26-3.61.8"/><path class="cls-4" d="M42.25,1,72.8,82.28c-4.34,3.91-7.64,2.47-7.64,2.47L37.54,3A6.21,6.21,0,0,1,42.25,1Z"/><path class="cls-2" d="M66.33,72.45A59.61,59.61,0,0,1,84.46,81l.62,1.29c2.21,1.81,3.82,2.79,5.14,5,0,0,1.94-29.38-22.34-44.76l-.07,4.95.67.59s-2.35,11.44-6.06,14.23C62.42,62.36,60.63,67.06,66.33,72.45Z"/><path class="cls-9" d="M85.3,82.51S84.2,57.92,68.48,48.13l-.06-4.76A40,40,0,0,1,85.78,64c5.28,14.43,4.8,23.36,4.8,23.36Z"/><path d="M79.83,61.14a3.55,3.55,0,0,1-.4-.64c-.24-.41-.57-1-1-1.7a45,45,0,0,0-3.29-5A26.62,26.62,0,0,0,71,49.54c-1.29-1-2.22-1.7-2.28-1.75-.24-.18-.36-.44-.25-.58s.39-.12.64.06c0,0,1,.72,2.27,1.81a26.4,26.4,0,0,1,4.18,4.46,38.69,38.69,0,0,1,3.14,5.13c.38.73.68,1.34.88,1.77A3.29,3.29,0,0,1,79.83,61.14Z"/><path d="M82.28,68.44a2.26,2.26,0,0,1,.33.48,9.25,9.25,0,0,1,.66,1.39,30,30,0,0,1,1.32,4.48c.37,1.67.66,3.36.85,4.64s.29,2.17.3,2.23c0,.24-.1.44-.28.46s-.35-.16-.37-.39c0-.06-.1-.94-.24-2.22s-.4-3-.71-4.62A33.46,33.46,0,0,0,83,70.4C82.64,69.2,82.23,68.47,82.28,68.44Z"/><path class="cls-10" d="M56.43,61.54s-2.55,2.88.83,7.43,11.86,8.81,13.2,7.32-.66-2.61-.66-2.61A21.19,21.19,0,0,1,59,65.08C56.9,61.73,56.43,61.54,56.43,61.54Z"/><path class="cls-10" d="M65.19,57.48s-.28-3.85-2.88-2.06-5.22,10-5,15a5.85,5.85,0,0,0,4.89,5.69s-2.16-6.56-.1-12.19S65.19,57.48,65.19,57.48Z"/><polyline class="cls-8" points="63.58 70.18 61.28 68.28 62.26 65.6"/><path class="cls-11" d="M90.57,86.55c-.11-6.84-2-30.86-22.69-44l-.07,4.95.67.59S66.78,56.39,64,60.59a8.31,8.31,0,0,0,.06,9.22l.1.15A8.19,8.19,0,0,0,68.44,73a61,61,0,0,1,16,8l.62,1.29a26.65,26.65,0,0,1,4.21,4.22"/><path class="cls-1" d="M67.84,62.73a4.36,4.36,0,0,0-.09,3.45,5.6,5.6,0,0,0,2,2.49l9.88,4.89a.76.76,0,0,0,1.11-.69c0-2.68-1.14-9.69-9.42-18.22a.29.29,0,0,0-.47.09C70.37,56.09,68.89,60.33,67.84,62.73Z"/><path d="M73.83,57.47a.85.85,0,0,1,.15.15l.38.43c.33.36.77.92,1.28,1.6A29.51,29.51,0,0,1,78.8,65a31.23,31.23,0,0,1,2,6,4.61,4.61,0,0,1,.11,2.21.8.8,0,0,1-.52.6,1,1,0,0,1-.34,0c-.32.11-4.4-1.87-8.42-4L70.11,69a5.07,5.07,0,0,1-1.36-1A4.58,4.58,0,0,1,67.4,65.5a5,5,0,0,1,.16-2l.2-.54.08-.18a6.38,6.38,0,0,0-.27,2.74,4.38,4.38,0,0,0,1.36,2.43,4.63,4.63,0,0,0,1.31.88l1.51.77c2,1,4.06,2,5.63,2.77.78.36,1.44.65,1.92.84a6.89,6.89,0,0,0,.76.25s.27.1.4-.32a4.33,4.33,0,0,0-.1-2A30,30,0,0,0,75.5,59.75c-.49-.69-.9-1.26-1.21-1.65A6,6,0,0,1,73.83,57.47Z"/><path d="M94.44,86.26c.08.23-1,.78-2.19,1a14.31,14.31,0,0,1-1.65.3c-.45.05-.77.08-.79.07L89,87.59c-.45-.07-1-.17-1.62-.32-1.17-.29-2.26-.74-2.21-1s1.21-.19,2.34-.22c.57,0,1.14,0,1.57,0l.73,0,.73.06c.42,0,1,.06,1.55.07C93.24,86.16,94.36,86.05,94.44,86.26Z"/></g></g></g></g></g></svg>