<svg xmlns="http://www.w3.org/2000/svg" viewBox="0 0 162.11 195.22"><defs><style>.cls-1,.cls-10{fill:#1d9932;}.cls-2{fill:#068744;}.cls-3,.cls-4,.cls-9{fill:none;}.cls-10,.cls-3,.cls-4,.cls-9{stroke:#000;stroke-miterlimit:10;}.cls-3{stroke-width:1.5px;}.cls-10,.cls-4{stroke-width:2px;}.cls-5{fill:#ddb97f;}.cls-6{fill:#efcc95;}.cls-7{fill:#754c29;}.cls-8{fill:#684023;}.cls-11{fill:#a7a9ac;}.cls-12{fill:#939598;}.cls-13{fill:#d1d3d4;}.cls-14{opacity:0.8;}.cls-15{fill:#ff96a7;}.cls-16{fill:#c98d85;}.cls-17{fill:#d59c91;}.cls-18{fill:#fff;}</style></defs><g id="Layer_2" data-name="Layer 2"><g id="Enemies_copy_2" data-name="Enemies copy 2"><g id="Layer_310_copy_2" data-name="Layer 310 copy 2"><g id="Layer_312_copy_2" data-name="Layer 312 copy 2"><path class="cls-1" d="M68.38,156.58l2.16-6.07c-.28-.88,5-1.53,5-1.53l10.13-2.49,5.15,2.45,11.37-.68,5.64,1.1v6.39l-3.49,6.18a12.54,12.54,0,0,1-5.44,3.47,94.63,94.63,0,0,1-19.33.89A11.63,11.63,0,0,1,68.38,156.58Z"/><path class="cls-1" d="M87.8,182.81a9.09,9.09,0,0,0,2.4-.46c3,2.06,7.45,10.14,8.23,11.75a.09.09,0,0,0,.16,0c2.61-12.42-4-15.68-4-15.68"/><path class="cls-2" d="M80.34,178.4s-6.64,3.26-4,15.68a.09.09,0,0,0,.16,0c.78-1.61,3.34-8.58,8.51-11.79a5.68,5.68,0,0,0,2.82.5"/><path class="cls-1" d="M77.75,164.32s-.7,3.28,2.06,8a27.08,27.08,0,0,0,1.06,6.78H94a27.08,27.08,0,0,0,1.06-6.78c2.3-3.95,2.2-6.85,2.1-7.73"/><path class="cls-1" d="M64.06,147.75S51,158.09,60.94,173.51L66,171.3s-4.21-9.76,3.16-13.66L75.5,149"/><path class="cls-1" d="M104.55,159.45c.94,1.2,1,10.15,3.89,14.76a5.26,5.26,0,0,0,8,.82c2.27-2,4.68-8.41.31-9-.55-2.83-1.19-5.83-.76-8.84.93-6.41-3.32-9.41-3.32-9.41l-10,1.23"/><path class="cls-2" d="M65,170.82s-1.47-9.64,4.38-12.7c2.9,7,8.16,7.24,8.16,7.24l1.29,7.8,9.82-.12a18.12,18.12,0,0,1-.17-5.47c.42-2.4,9.64-.47,11.09-2.51-9.86,1.72-13.69-3.05-14.53-2.93-1.67.23-11-.23-12.56-5.22s-3.54-7.55-6.15-8.44l-2.5-1.19s-11,7.07-3.65,25.88"/><path class="cls-2" d="M106.26,156.47s2.93.44,3.21,5.54a32.28,32.28,0,0,0,2.81,10.31l4.9.84s-.41,5.78-7.3,2.52C104.55,173.16,106.26,156.47,106.26,156.47Z"/><path d="M84.17,165.94c0,.21-2.66.73-5.46.33a11.8,11.8,0,0,1-2-.48l-.91-.3-.8-.36-.68-.31-.5-.3-.47-.28A12.53,12.53,0,0,1,71.89,163a13,13,0,0,1-2.29-3.18c-1.34-2.52-1.48-5.33-1.22-5.34s.76,2.6,2.25,4.74A12.92,12.92,0,0,0,73,161.87a14,14,0,0,0,1.33,1l.4.28.42.3.57.32.69.38.8.34a9.84,9.84,0,0,0,1.78.63C81.45,165.77,84.16,165.69,84.17,165.94Z"/><path d="M91.44,165.88c0-.24,2.68-.09,5.14-.72a9.15,9.15,0,0,0,1.74-.61,10.67,10.67,0,0,0,1.44-.74,26.14,26.14,0,0,0,2.6-1.92,13.27,13.27,0,0,0,2.18-2.68c1.37-2.16,1.9-4.74,2.1-4.72s.16,2.76-1,5.28a13.14,13.14,0,0,1-2.13,3.22,8.33,8.33,0,0,1-3,2.19,9.78,9.78,0,0,1-1.68.68,9.89,9.89,0,0,1-2,.47C94,166.7,91.41,166.09,91.44,165.88Z"/><path class="cls-3" d="M97.49,165.59a31.68,31.68,0,0,1-4,12.27s7.76,4.38,5.15,16.55a.09.09,0,0,1-.16,0c-.77-1.58-5.24-9.49-8.23-11.52a8.1,8.1,0,0,0-5.22,0c-5.17,3.15-7.73,10-8.5,11.56,0,.06-.16,0-.17,0-2.61-12.17,4.06-15.15,5.4-16.18a27.43,27.43,0,0,1-3.64-12.64"/><path class="cls-4" d="M63.84,147.28S51,158.09,60.94,173.51L66,171.3s-4.21-9.76,3.16-13.66"/><path class="cls-4" d="M112.66,146.73A12.53,12.53,0,0,1,116,157.16c-.43,3,.21,6,.76,8.84,4.37.62,2,7.05-.31,9a5.26,5.26,0,0,1-8-.82c-2.91-4.61-1.77-13.8-3.89-14.76"/><path class="cls-5" d="M79.39,178.08s-5.24,1-6.29,5.44c2.75-.65,4.91-1.79,8.32-1.34-1,1.77.24,4.58,2.55,5.35.46-3.2,3.64-4.83,3.64-4.83a6.67,6.67,0,0,1,3.31,5.38c3.57-2.16,3.29-5.2,3.29-5.2s3-1.68,8.86,1.43a8.56,8.56,0,0,0-6.64-6.64c-1.15-.39-2.27-1.9.25-3.7a28.09,28.09,0,0,0-5.24-.93,14,14,0,0,1-3.76.93,20.27,20.27,0,0,0-3.19.36,14.77,14.77,0,0,0-8.6.82C78.94,175.85,79.39,178.08,79.39,178.08Z"/><path class="cls-6" d="M96.6,173.57c-2.12,2.31-1,4-1,4-3.3-1.53-2.72,3.49-5.47,2.69.52-2.47-2.35-2.52-3.78-1.61a2.64,2.64,0,0,0-1,2.41c-2.17-.21-1.85-2.67-1.85-2.67C81.89,176,80,179.63,80,179.63l-.77-3.18"/><path class="cls-3" d="M79.39,178.08s-5.24,1-6.29,5.44c2.75-.65,4.91-1.79,8.32-1.34-1,1.77.24,4.58,2.55,5.35.46-3.2,3.64-4.83,3.64-4.83a6.67,6.67,0,0,1,3.31,5.38c3.57-2.16,3.29-5.2,3.29-5.2s3-1.68,8.86,1.43a8.56,8.56,0,0,0-6.64-6.64c-1.15-.39-2.27-1.9.25-3.7a28.09,28.09,0,0,0-5.24-.93,14,14,0,0,1-3.76.93,20.27,20.27,0,0,0-3.19.36,14.77,14.77,0,0,0-8.6.82C78.94,175.85,79.39,178.08,79.39,178.08Z"/><g id="Layer_313_copy_2" data-name="Layer 313 copy 2"><path class="cls-7" d="M34.09,184.08l105.3-17.82c1.12-5.69-1.43-4-1.43-4L33.54,180.29S32.5,181.61,34.09,184.08Z"/><path class="cls-8" d="M34.09,184.08l105.3-17.82c1.12-5.69.83-2.06.83-2.06L33.59,182.49S32.5,181.61,34.09,184.08Z"/><path class="cls-9" d="M34.09,184.08l105.3-17.82c.82-3.86-1.43-4-1.43-4L33.54,180.29S32.5,181.61,34.09,184.08Z"/><path class="cls-10" d="M61.79,171.56c-2.7,1.1-6.42,4.87-2.14,7.83s8.63-.47,9.49-2.43S68.82,168.67,61.79,171.56Z"/><path class="cls-10" d="M118.23,171.58c-2.47,1.55-7.7,2.39-7.62-2.82s5.4-6.74,7.49-6.31S124.67,167.54,118.23,171.58Z"/><path class="cls-11" d="M133.1,159.24c3.32,2.37,3.07,1.72,5.62,3.79.89.73-1.64,4.54-3.65,7.79,11.48-2.51,17.33-5.84,21.53-11.15C149.38,156.12,139.74,157.12,133.1,159.24Z"/><path class="cls-12" d="M138.88,163.36s12.43-1.37,16.12-3.7c0,0-1.12,6.41-18.38,10.8"/><path class="cls-3" d="M133.1,159.24c3.32,2.37,3.07,1.72,5.62,3.79.89.73-1.64,4.54-3.65,7.79,11.48-2.51,17.33-5.84,21.53-11.15C149.38,156.12,139.74,157.12,133.1,159.24Z"/><path class="cls-13" d="M144.72,159.81c-2-.11,3.45-1.14,7.55.22a23.44,23.44,0,0,1-4.84,1S147.28,160,144.72,159.81Z"/><path class="cls-2" d="M60.19,173.16s-6,3.86,1.44,6.87,7.76-4.71,7.76-4.71-7.22,4.27-8.8-2.81L65,170.82"/><path class="cls-2" d="M112,165s-5.8,3.86,1.39,6.87,7.45-4.71,7.45-4.71-6.94,4.27-8.46-2.81l4.25-1.69"/><path class="cls-4" d="M61.79,171.56c-2.7,1.1-6.42,4.87-2.14,7.83s8.63-.47,9.49-2.43S68.82,168.67,61.79,171.56Z"/><path class="cls-4" d="M118.23,171.58c-2.47,1.55-7.7,2.39-7.62-2.82s5.4-6.74,7.49-6.31S124.67,167.54,118.23,171.58Z"/></g></g><g id="Layer_311_copy_2" data-name="Layer 311 copy 2"><g id="Layer_309_copy_3" data-name="Layer 309 copy 3"><path class="cls-1" d="M131.1,130.07s1.69,9.3,5.7,7.65c2.38-1,4.85-7.86,11.17-18.14,5.21-8.47,8.16-17.18,10.2-28.7,8.6-48.7-4.42-66.48-4.42-66.48s-.68,7.35-1.59,10.36c0,0-8-25.2-28.65-32.68,0,0,32,42.64,7.84,78.74"/><path class="cls-2" d="M133.91,127.17c4.36-1,8.65-6.54,12.3-10.51s7.62-9.09,7.62-9.09-5.22,11.67-9.26,17.83-7.22,16.77-11.47,10.39-4.93-11.19-4.93-11.19"/><g class="cls-14"><path class="cls-15" d="M151.27,82.3c-5.78,32-15.23,41.88-23.1,32.35l5.08-17.43C141,89.29,145,80.23,147.52,68a73,73,0,0,0,1-23.75c-.21-1.31-.35-3.17-.72-4.64,1.51,2.27,4.26,6.76,5,21.16A99.88,99.88,0,0,1,151.27,82.3Z"/></g><path class="cls-16" d="M139.57,101.44C150,80.06,149,62.61,149,62.61S145.8,84.4,133.91,96"/><path class="cls-4" d="M131.1,130.07s1.69,9.3,5.7,7.65c2.38-1,4.85-7.86,11.17-18.14,5.21-8.47,8.16-17.18,10.2-28.7,8.6-48.7-4.42-66.48-4.42-66.48s-.68,7.35-1.59,10.36c0,0-8-25.2-28.65-32.68,0,0,32,42.64,7.84,78.74"/><path d="M153,64.5a13.79,13.79,0,0,1-.21-2c0-.65-.1-1.43-.19-2.34s-.17-2-.3-3.11A75.14,75.14,0,0,0,151,49a27,27,0,0,0-3.57-9.21l.81-.35c.39,1.54.51,3.14.76,4.68s.41,3.23.5,4.87a73.77,73.77,0,0,1-.1,10,82.2,82.2,0,0,1-3.65,18.66,52.44,52.44,0,0,1-6.27,13.22,46.43,46.43,0,0,1-3.81,4.95c-1,1.11-2.09,1.71-2.4,1.4s.24-1.41,1.18-2.48A44.4,44.4,0,0,0,138.15,90a51,51,0,0,0,6.23-12.78,82.37,82.37,0,0,0,3.81-18.31,76.81,76.81,0,0,0,.24-9.82A46.4,46.4,0,0,0,148,44.3c-.23-1.61-.32-3.17-.66-4.62l-.59-2.49,1.4,2.14a20.68,20.68,0,0,1,2.27,4.82,38.14,38.14,0,0,1,1.23,4.74A69.72,69.72,0,0,1,152.74,57c.1,1.16.16,2.2.19,3.12s.07,1.71.08,2.36A13.51,13.51,0,0,1,153,64.5Z"/><path d="M152.4,73.91a10.54,10.54,0,0,1-.07,2.35c-.12,1.49-.35,3.62-.76,6.16a136.6,136.6,0,0,1-4.19,18.42,60.8,60.8,0,0,1-3.76,9.5c-1.51,2.92-3.3,5.58-5.65,7.22a6.87,6.87,0,0,1-3.75,1.33,6.18,6.18,0,0,1-3.08-.72,8.85,8.85,0,0,1-1.72-1.11,8.19,8.19,0,0,1-.63-.56c-.75-.7-1-1.58-.62-1.85s1.09.08,1.74.67a8,8,0,0,0,1.94,1.43,4.65,4.65,0,0,0,2.33.59,5.36,5.36,0,0,0,2.95-1c2-1.34,3.8-3.81,5.3-6.6a60.8,60.8,0,0,0,3.86-9.23A153.8,153.8,0,0,0,151,82.3c.5-2.5.83-4.6,1.06-6.08A16,16,0,0,1,152.4,73.91Z"/></g><g id="Layer_309_copy_3-2" data-name="Layer 309 copy 3"><path class="cls-1" d="M35.1,133.37s-1.69,9.3-5.69,7.64c-2.38-1-4.85-7.86-11.18-18.14C13,114.4,10.08,105.7,8,94.17c-1.55-8.8-6.28-24.65-6.63-31.5,0-.67,4.77,3.34,4.75,2.69C5,35.73,12.46,27.69,12.46,27.69a19.15,19.15,0,0,1,3.79,6.1S22.08,12.85,42.7,5.38c0,0-32,42.64-7.84,78.74"/><path class="cls-2" d="M6,58.35s.32,9.64,3.87,28,20.26,60.15,25.3,33.92c3.64-19,1.5,20.12-5.75,20.75-3.45.2-6.93-10.09-11.18-18.14S-.23,71.24,1.92,59.65l4,5.65"/><path class="cls-17" d="M14.94,85.59c5.78,32,15.73,40.52,23.6,31L33,100.51c-7.76-7.93-11.78-17-14.27-29.25a72.64,72.64,0,0,1-1-23.74c.21-1.32.34-3.17.71-4.65-1.5,2.27-4.26,6.77-5,21.17A99.11,99.11,0,0,0,14.94,85.59Z"/><path class="cls-16" d="M23.37,98.15c1.88,3.33,3.51,11.58,6.16,14.49,5.82,6.42,13.35,2.92,16.75-4l-11.65-4.86C27.89,96.49,23,88,19.78,76.05A84,84,0,0,1,17.37,52.3c0-1.32.39-6.74.51-8.24-3.44,5.81-3.34,10.65-2.35,25C16.18,78.61,17.33,87.47,23.37,98.15Z"/><path class="cls-4" d="M36.1,128.6S33.48,142.49,29.41,141c-5.51-2-4.85-7.86-11.18-18.14C13,114.4,12.21,105.11,8,94.17,3.51,82.3,1.37,65.73,1.13,58.22,3,61.42,2.87,62,5.89,65.3c-.44-27.32,8.85-41,8.85-41A53.11,53.11,0,0,0,16,33.08S23.85,15.41,39,8.19c0,0-26.11,40.08-2,76.18"/><path d="M14.74,52.92a3.18,3.18,0,0,1,.08-.77c.08-.5.22-1.23.43-2.15a23.5,23.5,0,0,1,2.91-7.3l1-1.55L18.73,43a33.11,33.11,0,0,0-.53,3.78c-.19,1.37-.36,2.73-.44,4.19a74.45,74.45,0,0,0,0,9.2,82.56,82.56,0,0,0,3.5,18.8A52.37,52.37,0,0,0,27.86,93a46.22,46.22,0,0,0,4.21,5.36c.8.87,1.21,1.82.89,2.14s-1.27-.15-2.1-1.05a46.26,46.26,0,0,1-4.29-5.59A53.22,53.22,0,0,1,20,79.31a81.62,81.62,0,0,1-3.24-19.13,73.37,73.37,0,0,1,.16-9.32c.12-1.46.33-2.91.54-4.22a33.9,33.9,0,0,1,.66-3.85l.57.25a24.64,24.64,0,0,0-3.12,7C15,51.88,14.81,52.94,14.74,52.92Z"/><path d="M13.81,57.3a28,28,0,0,1-.24,3.08,76.06,76.06,0,0,0-.26,8.12,72.08,72.08,0,0,0,1.15,11.43c.36,2.06.88,4.21,1.3,6.39s.94,4.38,1.47,6.57a104.77,104.77,0,0,0,3.9,12.67,36.15,36.15,0,0,0,5.52,10,10,10,0,0,0,3.4,2.74,4.92,4.92,0,0,0,3.13.34,7.1,7.1,0,0,0,2.73-1.47c.88-.74,1.77-1.28,2.13-1s0,1.35-1.1,2.23a9,9,0,0,1-.89.66,8,8,0,0,1-2.52,1.11,6.5,6.5,0,0,1-4.12-.47,11.55,11.55,0,0,1-3.9-3.19A37.51,37.51,0,0,1,19.87,106a105.36,105.36,0,0,1-3.76-12.88c-.49-2.22-1-4.44-1.36-6.64s-.85-4.32-1.19-6.44a69.32,69.32,0,0,1-.88-11.57,65.1,65.1,0,0,1,.56-8.17c.13-1,.28-1.73.37-2.25A2.73,2.73,0,0,1,13.81,57.3Z"/></g><g id="Layer_289_copy_2" data-name="Layer 289 copy 2"><path class="cls-18" d="M133.1,128.77s-5.69,23.4-49,21.8c-34.19-1.26-45-20-45-20"/><path class="cls-1" d="M30,84.25c-4,15.21-2.25,41.65,9.12,46.32,12.68,5.21,27.07,6.09,43.58,7,16.31.86,43.26-1.14,52.55-10.65s2.59-47.4,2.59-47.4"/><path class="cls-2" d="M42.25,89c-9.29,10.64,2.23,13.24,3.26,21.52,0,0,1.44-.38,5.51,1.36s5.15,4.72,3.22,11.23,3.86,10.72,15.66,12.92c-9.19-.23-22.79.18-33.8-7.47s-6.71-44.74-6.71-44.74"/><path class="cls-4" d="M30,84.25c-4,15.21-2.25,41.65,9.12,46.32,12.68,5.21,27.07,6.09,43.58,7,16.31.86,43.26-1.14,52.55-10.65s2.59-47.4,2.59-47.4"/><path class="cls-3" d="M133.1,128.77s-5.69,23.4-49,21.8c-34.19-1.26-45-20-45-20"/><path d="M88.63,144.33a6.57,6.57,0,0,1-1.79.32l-2.08.24c-.8.06-1.71.09-2.71.14a83.36,83.36,0,0,1-14.6-.84A110.91,110.91,0,0,1,53,141.11c-3.92-1.13-6.55-2.11-6.72-2.18-.71-.26-1.12-.87-.92-1.34s-.18-.93.51-.67c.16.06,3.78,1.36,7.62,2.56a115.36,115.36,0,0,0,14.18,3.42A94.51,94.51,0,0,0,82,144.31l2.69,0,2.08-.06A7.78,7.78,0,0,1,88.63,144.33Z"/><path d="M98.48,143.65a19.84,19.84,0,0,1,3.19-.6c1-.17,2.15-.38,3.43-.65l1-.22a1.67,1.67,0,0,1,.68-.06,1.41,1.41,0,0,1,.7.32,5.25,5.25,0,0,1,.82.89,4.83,4.83,0,0,1,.32.44c0,.1.1,0,.14-.05a1,1,0,0,0,.13-.16l.11-.16.18-.35a6.41,6.41,0,0,0,.34-.86,1.45,1.45,0,0,1,1.15-1,71.87,71.87,0,0,0,11.6-3.34c3.18-1.18,6.34-2.46,6.47-2.51.52-.22.1.3.3.77a1,1,0,0,1-.59,1.25c-.14.06-2.36,1-5.62,2.08a69.13,69.13,0,0,1-11.92,3,.28.28,0,0,0-.25.23,8.53,8.53,0,0,1-.45,1c-.1.18-.15.28-.3.51a4.21,4.21,0,0,1-.48.6,3.62,3.62,0,0,1-.53.45c-.17.11-.4.33-.53.29-.29-.52-.64-1.14-.89-1.5a4.27,4.27,0,0,0-.62-.75.38.38,0,0,0-.24-.14.89.89,0,0,0-.35,0l-1,.17c-1.32.19-2.51.32-3.51.4A12.15,12.15,0,0,1,98.48,143.65Z"/><path class="cls-1" d="M78.77,119.58c-3.16,5.36-5.82,8.73-4.13,13.22s4.37,5.85,6.25,14.36c1.4,6.33,4.74,13.4,6.36,16.61a.81.81,0,0,0,1.48-.12,72.48,72.48,0,0,0,2.69-16.44c.22-9.3,4.54-12.9,4.56-16.12C96,123.63,92.21,120,92.21,120"/><path class="cls-2" d="M76.06,124.14c1.61,9.57,7.76,6.24,7.18,12.46s2.89,18.33,5.25,26.46c-3.08,2.17-5.31-13.81-10.14-23.35S73.34,128.71,76.06,124.14Z"/><path d="M92.21,120c.05-.06.65.41,1.42,1.47a15.51,15.51,0,0,1,2.27,4.93,18.52,18.52,0,0,1,.59,3.61l.05,1a5.07,5.07,0,0,1-.09,1.09,9.94,9.94,0,0,1-.67,2.06c-.56,1.31-1.19,2.57-1.71,3.89a25.26,25.26,0,0,0-1.23,4.11,24.4,24.4,0,0,0-.5,4.25l-.06,2.17c0,.73-.08,1.45-.13,2.15a69,69,0,0,1-1.08,7.7c-.22,1.12-.44,2.15-.65,3.07-.11.45-.22.88-.31,1.28s-.14.53-.21.78-.25.61-.37.89A1,1,0,0,1,89,165a1.81,1.81,0,0,1-.64.28,1.88,1.88,0,0,1-1.12-.06,1.58,1.58,0,0,1-.83-.67l-.2-.25-.66-1.36c-.22-.46-.49-1-.81-1.75-.63-1.41-1.43-3.26-2.26-5.44a60.57,60.57,0,0,1-2.3-7.45,35.81,35.81,0,0,0-2.43-8c-1.15-2.5-3-4.84-3.8-7.52a8.26,8.26,0,0,1-.3-4,12.25,12.25,0,0,1,1.21-3.32,47.31,47.31,0,0,1,2.7-4.33,7.5,7.5,0,0,1,1.17-1.52,6.18,6.18,0,0,1-.79,1.75c-.56,1.08-1.46,2.59-2.31,4.47a12.13,12.13,0,0,0-1,3.11,7.27,7.27,0,0,0,.43,3.48c.85,2.39,2.68,4.58,4,7.24A35.64,35.64,0,0,1,82,147.84,58.79,58.79,0,0,0,84.43,155c.86,2.11,1.68,3.91,2.33,5.27l.83,1.69.28.56h0s0,0,0,0h0s0,.05,0-.06l.08-.28.33-1.25c.23-.88.47-1.88.71-3a70.7,70.7,0,0,0,1.25-7.45c.08-.68.13-1.37.18-2.08s.09-1.44.13-2.17a25.9,25.9,0,0,1,.69-4.51,26.22,26.22,0,0,1,1.46-4.3c.59-1.36,1.3-2.64,1.88-3.85a9.63,9.63,0,0,0,.68-1.78,4.13,4.13,0,0,0,.11-.86V130a18.6,18.6,0,0,0-.38-3.46,16.65,16.65,0,0,0-1.79-4.88C92.63,120.56,92.15,120,92.21,120Z"/><path d="M97,96.61a7.87,7.87,0,0,1-2,.6c-1.23.27-2.9.56-4.59.75s-3.39.31-4.69.36-2.17.05-2.23.05-.94,0-2.23-.09-3-.22-4.67-.41c-3.37-.39-6.66-1.09-6.63-1.26s3.34.28,6.7.47c1.68.09,3.36.15,4.64.16s2.15,0,2.2,0,.93,0,2.21,0,3,0,4.63-.11,3.34-.25,4.59-.39A9.16,9.16,0,0,1,97,96.61Z"/><path d="M109.17,100.84a4.39,4.39,0,0,1-1,.43l-2.81.93c-1.16.41-2.56.74-4.06,1.1l-2.31.55c-.79.17-1.61.28-2.42.42l-2.43.41c-.81.13-1.61.17-2.38.26-1.55.15-3,.33-4.26.34l-3.08.11-1.27,0-1.26-.05c-.76,0-1.82,0-3.07-.19s-2.71-.22-4.24-.48l-2.37-.36-2.42-.47a65.08,65.08,0,0,1-8.69-2.45c-1.16-.42-2.1-.81-2.75-1.11a3.73,3.73,0,0,1-1-.55,5.44,5.44,0,0,1,1.07.34c.68.23,1.64.55,2.81.91a78,78,0,0,0,8.7,2.08l2.41.4,2.35.29c1.52.21,3,.27,4.2.37s2.28.1,3,.12l1.24,0,1.25,0,3-.05c1.24,0,2.68-.12,4.21-.23.77-.06,1.56-.08,2.36-.2l2.42-.32c.8-.12,1.62-.2,2.41-.35l2.31-.46c1.5-.29,2.9-.55,4.07-.9l2.87-.73A4.67,4.67,0,0,1,109.17,100.84Z"/><path d="M128.93,116.12c1.85.41,3,2.31,2.06,4.79-.9,2.23-4.08,3.25-5.41.9a4.52,4.52,0,0,1-.52-1.65C124.64,117.22,126.18,115.53,128.93,116.12Z"/><path d="M43.63,116.12c2,.41,3.35,2.31,2.26,4.79-1,2.23-4.47,3.25-5.93.9a4.33,4.33,0,0,1-.57-1.65C38.93,117.22,40.62,115.53,43.63,116.12Z"/><path d="M33.44,109.36c7.45,2.9,18.72,6.58,19.17,4.85s-.07-6.12-1.21-6.57-1,1.43-6.56,1S29.78,107.94,33.44,109.36Z"/><path d="M134.25,108.94c-7.45,2.89-18.72,6.58-19.18,4.84s.08-6.11,1.21-6.57,1,1.44,6.57,1.06S137.91,107.51,134.25,108.94Z"/></g><g id="Layer_290_copy_2" data-name="Layer 290 copy 2"><path class="cls-11" d="M138.46,80.4a1.42,1.42,0,0,0,.59-1.43,58.16,58.16,0,0,0-9.59-21.92,46.43,46.43,0,0,0-13.77-13c-10.32-2-9.49-4.3-13.06-5.56a50,50,0,0,0-20.79-3,70.52,70.52,0,0,0-25.78,6.68c-5.66,4-11,9.87-18,15.12-10,13.35-9.51,22.76-9.29,25.49a1.35,1.35,0,0,0,.64,1.07c3.19,2,20,11.19,58,8.12C123.36,89.06,135.58,82.37,138.46,80.4Z"/><path class="cls-12" d="M28.75,82.79c30.53,19.49,85,5.77,100.28,1.88s9-10,9-10S106.14,84,70.7,81.57,44.44,53.16,44.44,53.16,29.25,59.77,28.75,82.79Z"/><path class="cls-12" d="M55.68,43s2.7,7.12,0,8.06-.58-3.48-6.24-3.33"/><path class="cls-4" d="M138.46,80.4a1.42,1.42,0,0,0,.59-1.43,58.16,58.16,0,0,0-9.59-21.92,46.72,46.72,0,0,0-15-13.74c-5.89.49-8.15-1.81-10.86-4.81a62.61,62.61,0,0,0-21.75-3,70.24,70.24,0,0,0-26.58,7.08c-2.37,1.19-3,4.81-5.74,5.41-4.35,1-4.65,3.33-7.48,7.1-.72,1-4.91,3-5.53,3.93-8,12-8,21.24-7.76,23.77a1.35,1.35,0,0,0,.64,1.07c3.19,2,20,11.19,58,8.12C123.36,89.06,135.58,82.37,138.46,80.4Z"/><path class="cls-11" d="M69.55,36.85l-.9-1.41a1.45,1.45,0,0,1-.19-1.11L74.75,9.09a.14.14,0,0,1,.27,0L87,32.52a1.47,1.47,0,0,1,.12.8l-.21,1.58-1.8,8.41-10.9,0"/><path d="M81.19,43.8c0-.16.71-.34,1.66-.8a4.44,4.44,0,0,0,1.35-1c.08-.12.1-.14.11-.23l.1-.5.23-1.09c.33-1.45.67-2.91.92-4s.45-1.86.46-1.91.54-.23,1.08-.08.94.45.89.64-.26.79-.62,1.87-.85,2.49-1.33,3.9c-.13.35-.25.7-.38,1l-.19.55a1.46,1.46,0,0,1-.46.63,4.57,4.57,0,0,1-1.89.94C82,44,81.21,43.92,81.19,43.8Z"/><g id="Layer_926" data-name="Layer 926"><path class="cls-13" d="M34.53,76.82a1.79,1.79,0,0,0-1.71.5c-1.23,1.38-1.33,3.41,1.09,3.5A2.13,2.13,0,0,0,36,78,2.23,2.23,0,0,0,34.53,76.82Z"/><path d="M35.91,78.11s.29.26.34.84a2.22,2.22,0,0,1-1,1.79,2.74,2.74,0,0,1-1,.46,3.1,3.1,0,0,1-1,0,2.7,2.7,0,0,1-.72-.21l-.28-.16L32,80.6a1.72,1.72,0,0,1-.37-.73,2.6,2.6,0,0,1,.49-2.07,3,3,0,0,1,.76-.8,2,2,0,0,1,.91-.32c.61-.06.89.34.83.36a1.34,1.34,0,0,0-.78-.06,1.79,1.79,0,0,0-.7.38,2.8,2.8,0,0,0-.55.73,2.13,2.13,0,0,0-.27,1.58,1,1,0,0,0,.39.52,1.93,1.93,0,0,0,.68.3A2.05,2.05,0,0,0,35,80.27a1.91,1.91,0,0,0,1-1.33C36,78.47,35.84,78.14,35.91,78.11Z"/><path class="cls-13" d="M55.75,82.33a1.82,1.82,0,0,0-1.72.5c-1.22,1.38-1.32,3.41,1.09,3.5a2.12,2.12,0,0,0,2.08-2.79A2.21,2.21,0,0,0,55.75,82.33Z"/><path d="M57.12,83.62s.3.26.34.84a2.17,2.17,0,0,1-1,1.79,2.56,2.56,0,0,1-1,.46,2.84,2.84,0,0,1-1,0,2.49,2.49,0,0,1-.72-.21l-.28-.16-.25-.23a1.72,1.72,0,0,1-.38-.73,2.68,2.68,0,0,1,.49-2.07,3.25,3.25,0,0,1,.77-.8,2,2,0,0,1,.91-.32c.61-.06.88.34.83.36a1.39,1.39,0,0,0-.78,0,1.65,1.65,0,0,0-.7.37,2.59,2.59,0,0,0-.55.73,2.11,2.11,0,0,0-.27,1.59,1,1,0,0,0,.39.51,1.93,1.93,0,0,0,.68.3,2,2,0,0,0,1.6-.22,1.91,1.91,0,0,0,1-1.33C57.21,84,57.06,83.65,57.12,83.62Z"/><path class="cls-13" d="M84.69,83.5A1.83,1.83,0,0,0,83,84c-1.22,1.38-1.32,3.42,1.09,3.51a2.13,2.13,0,0,0,2.08-2.79A2.21,2.21,0,0,0,84.69,83.5Z"/><path d="M86.06,84.79s.3.26.34.84a2.2,2.2,0,0,1-1,1.78,2.58,2.58,0,0,1-1,.47,3.16,3.16,0,0,1-1,0,2.89,2.89,0,0,1-.71-.21l-.29-.17-.25-.23a1.67,1.67,0,0,1-.37-.72,2.68,2.68,0,0,1,.49-2.07,2.9,2.9,0,0,1,.76-.8,2.08,2.08,0,0,1,.91-.32c.61-.06.89.34.83.35a1.48,1.48,0,0,0-.78,0,2,2,0,0,0-.7.37,3.1,3.1,0,0,0-.55.74,2.12,2.12,0,0,0-.26,1.58.9.9,0,0,0,.39.52,1.63,1.63,0,0,0,.67.29A2,2,0,0,0,85.13,87a1.91,1.91,0,0,0,1-1.33C86.15,85.15,86,84.82,86.06,84.79Z"/><path class="cls-13" d="M111.81,79.52a1.8,1.8,0,0,0-1.72.5c-1.22,1.38-1.33,3.41,1.09,3.5a2.12,2.12,0,0,0,2.08-2.79A2.24,2.24,0,0,0,111.81,79.52Z"/><path d="M113.18,80.81s.3.26.34.84a2.22,2.22,0,0,1-1,1.79,2.68,2.68,0,0,1-1,.46,3.1,3.1,0,0,1-1,0,2.51,2.51,0,0,1-.71-.21l-.29-.16-.25-.23a1.72,1.72,0,0,1-.37-.73,2.68,2.68,0,0,1,.49-2.07,3,3,0,0,1,.76-.8,2.08,2.08,0,0,1,.91-.32c.61-.06.89.34.83.36a1.44,1.44,0,0,0-.78-.06,1.87,1.87,0,0,0-.7.38,3,3,0,0,0-.55.73,2.12,2.12,0,0,0-.26,1.58.9.9,0,0,0,.39.52,1.71,1.71,0,0,0,.67.3,2.05,2.05,0,0,0,1.61-.22,1.89,1.89,0,0,0,1-1.33C113.27,81.17,113.12,80.84,113.18,80.81Z"/><path class="cls-13" d="M133.75,73.91a1.83,1.83,0,0,0-1.72.5c-1.22,1.38-1.33,3.41,1.09,3.5a2.12,2.12,0,0,0,2.08-2.79A2.24,2.24,0,0,0,133.75,73.91Z"/><path d="M135.12,75.21s.3.26.34.83a2.22,2.22,0,0,1-1,1.79,2.54,2.54,0,0,1-1.05.46,2.84,2.84,0,0,1-1,0,2.51,2.51,0,0,1-.71-.21l-.29-.16-.25-.23a1.72,1.72,0,0,1-.37-.73,2.66,2.66,0,0,1,.49-2.07,3.2,3.2,0,0,1,.76-.8,2.08,2.08,0,0,1,.91-.32c.61-.06.89.35.83.36s-.32-.19-.78,0a1.71,1.71,0,0,0-.7.37,3,3,0,0,0-.55.73,2.15,2.15,0,0,0-.26,1.59.9.9,0,0,0,.39.51,1.55,1.55,0,0,0,.67.3,2.09,2.09,0,0,0,1.61-.21,1.93,1.93,0,0,0,1-1.34C135.21,75.56,135.06,75.23,135.12,75.21Z"/></g><path class="cls-13" d="M95.21,44.72c-1.74,2-4.35,6.08,8.21,8.7s11.48,6.15,15.58,7.3,4.2-6.15-4.34-11.4a43.26,43.26,0,0,0-3.86-2.11c-3.08.79-3.08.66-6.38-2.46C99.9,43.47,96.31,43.48,95.21,44.72Z"/><path class="cls-13" d="M77.3,20.32s2.85,9.44,2.5,11.93,4.76,1.39,4,.22C80.56,27.45,77.59,17.9,77.3,20.32Z"/><path class="cls-12" d="M73.22,19.61S73.29,33,75.5,36.19a10.74,10.74,0,0,0,1.8,8l-3.71-.91L68,34.18"/><path class="cls-4" d="M86.88,34.9l.21-1.58a1.47,1.47,0,0,0-.12-.8L75,9.06a.14.14,0,0,0-.27,0L68.46,34.33a1.45,1.45,0,0,0,.19,1.11l.9,1.41"/><path d="M79.49,44.1c0,.12-.83.43-2.22.51a7.82,7.82,0,0,1-2.39-.27,5.79,5.79,0,0,1-1.32-.53,3.61,3.61,0,0,1-.7-.5l-.44-.62-2.83-4-1.34-1.93c-.13-.21.15-.62.63-.93s1-.38,1.1-.17l1.2,2,2.46,4.26.16.29.09.15s0,0,0,.06a1.59,1.59,0,0,0,.34.3,4.4,4.4,0,0,0,1,.55,8.48,8.48,0,0,0,2,.55C78.58,44,79.47,44,79.49,44.1Z"/><path d="M82.57,35.15s-.17.14-.51.33a8,8,0,0,1-1.46.61,15,15,0,0,1-4.81.52A25.34,25.34,0,0,1,71,35.92c-1.31-.31-2.19-.61-2.25-.63a.42.42,0,0,1-.28-.53.44.44,0,0,1,.55-.24s.89.33,2.17.67a27,27,0,0,0,4.68.85,15.77,15.77,0,0,0,4.68-.26A9.64,9.64,0,0,0,82,35.33,2.44,2.44,0,0,1,82.57,35.15Z"/></g></g></g></g></g></svg>