<svg xmlns="http://www.w3.org/2000/svg" viewBox="0 0 78.52 105.56"><defs><style>.cls-1{fill:#a7a9ac;}.cls-2{fill:#939598;}.cls-3,.cls-7{fill:none;stroke:#000;stroke-miterlimit:10;}.cls-3{stroke-width:2px;}.cls-4{fill:#d1d3d4;}.cls-5{fill:#754c29;}.cls-6{fill:#684023;}.cls-7{stroke-width:1.5px;}</style></defs><g id="Layer_2" data-name="Layer 2"><g id="Main_Assets" data-name="Main Assets"><g id="Enemies"><g id="Goblin_-_Grave" data-name="Goblin - Grave"><g id="Layer_715" data-name="Layer 715"><path class="cls-1" d="M77.07,93.29a1.08,1.08,0,0,0,.44-1.05,45.21,45.21,0,0,0-6.16-16.56,33.3,33.3,0,0,0-9.27-10C55,64,55.6,62.29,53.16,61.28a32.25,32.25,0,0,0-14.34-2.65,45.84,45.84,0,0,0-18,4.47C16.81,65.94,13,70.24,8,74,.77,83.79.92,90.83,1,92.87a1,1,0,0,0,.43.81c2.16,1.57,13.64,8.76,40,7.23C66.42,99.46,75,94.7,77.07,93.29Z"/><path class="cls-2" d="M1,92.87c20.73,15.17,58.77,6,69.44,3.43S76.89,89,76.89,89,54.61,95.34,30.1,92.8,12.53,71.06,12.53,71.06,1.86,75.69,1,92.87Z"/><path class="cls-2" d="M20.54,63.72s1.71,5.37-.21,6-.33-2.62-4.25-2.62"/><path class="cls-3" d="M77.07,93.29a1.08,1.08,0,0,0,.44-1.05,45.21,45.21,0,0,0-6.16-16.56,33.56,33.56,0,0,0-10.1-10.57c-4.1.25-5.62-1.51-7.43-3.81a40.42,40.42,0,0,0-15-2.67,45.89,45.89,0,0,0-18.57,4.75c-1.66.84-2.2,3.53-4.09,3.92-3,.64-3.29,2.39-5.34,5.15-.51.7-3.47,2.15-3.92,2.83C1.09,84.07.93,91,1,92.87a1,1,0,0,0,.43.81c2.16,1.57,13.64,8.76,40,7.23C66.42,99.46,75,94.7,77.07,93.29Z"/><path class="cls-4" d="M5.15,88.53a1.21,1.21,0,0,0-1.2.33c-.88,1-1,2.53.68,2.64a1.52,1.52,0,0,0,.52-3Z"/><path d="M6.07,89.52s.23.19.27.61a1.7,1.7,0,0,1-.66,1.37,1.94,1.94,0,0,1-.78.37,2,2,0,0,1-.78,0,2.07,2.07,0,0,1-.55-.19,1.46,1.46,0,0,1-.21-.15s-.08-.07-.18-.2a1.6,1.6,0,0,1-.24-.57,2.13,2.13,0,0,1,.41-1.54,2.45,2.45,0,0,1,.56-.6,1.51,1.51,0,0,1,.69-.24c.47,0,.65.31.59.32s-.24-.12-.54,0a1.11,1.11,0,0,0-.47.28,2.44,2.44,0,0,0-.35.53,1.6,1.6,0,0,0-.18,1.1.67.67,0,0,0,.23.34.89.89,0,0,0,.41.22A1.22,1.22,0,0,0,5.36,91,1.37,1.37,0,0,0,6,90.12C6.09,89.79,6,89.54,6.07,89.52Z"/><path class="cls-4" d="M19.73,93.07a1.19,1.19,0,0,0-1.2.34c-.88,1-1,2.52.68,2.64a1.52,1.52,0,0,0,.52-3Z"/><path d="M20.65,94.06s.23.19.27.62A1.68,1.68,0,0,1,20.26,96a1.81,1.81,0,0,1-.78.37,2,2,0,0,1-.78,0,2.07,2.07,0,0,1-.55-.19.91.91,0,0,1-.21-.15,1.09,1.09,0,0,1-.18-.19,1.43,1.43,0,0,1-.24-.58,2.14,2.14,0,0,1,.41-1.54,2.44,2.44,0,0,1,.56-.6,1.38,1.38,0,0,1,.69-.23c.47,0,.65.3.59.31s-.24-.12-.55,0a1.19,1.19,0,0,0-.46.28,2.44,2.44,0,0,0-.35.53,1.62,1.62,0,0,0-.18,1.1.57.57,0,0,0,.23.34,1,1,0,0,0,.41.23,1.23,1.23,0,0,0,1.07-.12,1.37,1.37,0,0,0,.67-.92C20.67,94.33,20.6,94.09,20.65,94.06Z"/><path class="cls-4" d="M39.75,94.53a1.19,1.19,0,0,0-1.2.33c-.87,1-1,2.52.68,2.64a1.56,1.56,0,0,0,1.5-2A1.51,1.51,0,0,0,39.75,94.53Z"/><path d="M40.68,95.52s.22.19.26.61a1.67,1.67,0,0,1-.66,1.36,1.9,1.9,0,0,1-.78.38,2.23,2.23,0,0,1-.78,0,1.61,1.61,0,0,1-.54-.2L38,97.52s-.08-.08-.17-.2a1.3,1.3,0,0,1-.24-.58A2.15,2.15,0,0,1,38,95.2a2.6,2.6,0,0,1,.56-.59,1.4,1.4,0,0,1,.69-.24c.47,0,.65.31.59.32s-.23-.13-.54,0a1.36,1.36,0,0,0-.47.28,2.52,2.52,0,0,0-.35.54,1.6,1.6,0,0,0-.18,1.1.57.57,0,0,0,.23.33.84.84,0,0,0,.41.23A1.22,1.22,0,0,0,40,97a1.44,1.44,0,0,0,.68-.92C40.69,95.79,40.62,95.54,40.68,95.52Z"/><path class="cls-4" d="M58.63,92.1a1.18,1.18,0,0,0-1.2.34c-.88,1-1,2.52.68,2.64a1.52,1.52,0,0,0,.52-3Z"/><path d="M59.55,93.09s.23.19.27.62a1.71,1.71,0,0,1-.66,1.36,1.8,1.8,0,0,1-.79.37,2,2,0,0,1-.77,0,1.84,1.84,0,0,1-.55-.19c-.13-.08-.21-.13-.21-.15a1.09,1.09,0,0,1-.18-.19,1.43,1.43,0,0,1-.24-.58,2.17,2.17,0,0,1,.4-1.54,2.49,2.49,0,0,1,.57-.6,1.38,1.38,0,0,1,.68-.23c.47,0,.66.3.6.31s-.24-.12-.55,0a1.19,1.19,0,0,0-.46.28,2.45,2.45,0,0,0-.36.53,1.6,1.6,0,0,0-.17,1.1.57.57,0,0,0,.23.34,1,1,0,0,0,.41.23,1.2,1.2,0,0,0,1.06-.12,1.38,1.38,0,0,0,.68-.92C59.57,93.36,59.49,93.12,59.55,93.09Z"/><path class="cls-4" d="M74,88.36a1.19,1.19,0,0,0-1.2.33c-.88,1-1,2.52.68,2.64a1.57,1.57,0,0,0,1.5-2A1.53,1.53,0,0,0,74,88.36Z"/><path d="M74.87,89.35s.23.19.27.61a1.67,1.67,0,0,1-.66,1.36,1.93,1.93,0,0,1-.79.38,2.18,2.18,0,0,1-.77,0,1.67,1.67,0,0,1-.55-.2l-.21-.14-.18-.2a1.43,1.43,0,0,1-.24-.58A2.16,2.16,0,0,1,72.15,89a2.23,2.23,0,0,1,.56-.59,1.4,1.4,0,0,1,.68-.24c.48,0,.66.31.6.32s-.24-.13-.55,0a1.33,1.33,0,0,0-.46.28,2.19,2.19,0,0,0-.35.54,1.6,1.6,0,0,0-.18,1.1.67.67,0,0,0,.23.34.89.89,0,0,0,.41.22,1.22,1.22,0,0,0,1.07-.11,1.42,1.42,0,0,0,.67-.92C74.89,89.62,74.81,89.37,74.87,89.35Z"/><path class="cls-4" d="M47.89,65.78c-1.25,1.45-3.15,4.45,5.49,6.66S61.2,77.27,64,78.21s3-4.51-2.76-8.6A28,28,0,0,0,58.63,68c-2.15.53-2.15.44-4.37-2C51.16,64.94,48.67,64.88,47.89,65.78Z"/></g><g id="Layer_714" data-name="Layer 714"><path class="cls-5" d="M59.78.79,10.39,94.13c3.78,4.31,4,1.3,4,1.3L63.08,2.64S62.68,1,59.78.79Z"/><path class="cls-6" d="M59.78.79,10.39,94.13C14.17,98.44,11.5,96,11.5,96L61.33,1.36S62.68,1,59.78.79Z"/><path class="cls-7" d="M59.78.79,10.39,94.13c2.52,3,4,1.3,4,1.3L63.08,2.64S62.68,1,59.78.79Z"/><path class="cls-1" d="M19.68,93.42c-3.86,1.18-3.2,1.38-6.36,2.12-1.11.27-2.58-4-3.91-7.54C6.46,94.26,5,99.14,4.55,103.43c3.4,1.89,5.61,1.45,8.61,1.57A40.43,40.43,0,0,0,19.68,93.42Z"/><path class="cls-2" d="M13,95.48s-2.66,4.4-4.66,8.68c-1.26,1-1.58.15-3.44-.7.21-3.22,1.21-7.77,3.89-14"/><path class="cls-7" d="M13.26,104.88a40.31,40.31,0,0,0,6.42-11.46c-3.86,1.18-3.2,1.38-6.36,2.12-1.11.27-2.58-4-3.91-7.54C6.48,94.24,5,99.1,4.56,103.38"/><path d="M17.82,103.71c.1.23-1.94,1.22-4.21,1.6a15.22,15.22,0,0,1-3.17.24,10.63,10.63,0,0,1-1.54-.15A9.33,9.33,0,0,1,7.42,105a24.15,24.15,0,0,0-2.8-.93,9,9,0,0,0-2.85-.27c-.78,0-1.26.26-1.33.18s.35-.55,1.2-.83a8,8,0,0,1,3.17-.26,18.29,18.29,0,0,1,3.09.64c.75.2,1.29.25,1.32.27s.55.13,1.34.25a16.56,16.56,0,0,0,2.92.12C15.63,104.07,17.74,103.51,17.82,103.71Z"/></g><g id="Layer_716" data-name="Layer 716"><path class="cls-1" d="M29.5,59.37l-.64-1.07a1.13,1.13,0,0,1-.12-.84L34,38.75a.11.11,0,0,1,.21,0L42.6,56.51a1,1,0,0,1,.07.6l-.19,1.18L41,64.52l-8.14-.26"/><path d="M38,64.81c0-.16.53-.31,1.22-.66a3.12,3.12,0,0,0,1-.71c.07-.1,0-.17.12-.5l.18-.81c.26-1.08.52-2.17.72-3s.36-1.39.37-1.43.52-.12,1.06,0,.93.42.89.57-.22.58-.52,1.37L41.9,62.57l-.32.77-.17.43a1.22,1.22,0,0,1-.39.48,3.28,3.28,0,0,1-1.51.65C38.62,65.06,38.06,64.93,38,64.81Z"/><path class="cls-4" d="M35.65,47.19s1.92,7.11,1.6,9,3.53,1.14,3,.25C37.92,52.59,35.92,45.39,35.65,47.19Z"/><path class="cls-2" d="M32.62,46.57S32.37,56.58,34,59a8,8,0,0,0,1.17,6l-2.75-.76-4-6.94"/><path class="cls-3" d="M42.48,58.29l.19-1.18a1,1,0,0,0-.07-.6L34.19,38.74a.11.11,0,0,0-.21,0L28.74,57.46a1.13,1.13,0,0,0,.12.84l.64,1.07"/><path d="M36.77,65c0,.12-.63.37-1.68.43a5.89,5.89,0,0,1-1.82-.22,4.4,4.4,0,0,1-1-.42,3.09,3.09,0,0,1-.55-.42l-.34-.49-2.08-3-1-1.46c-.09-.16.22-.52.71-.81s1-.4,1.05-.24l.83,1.54,1.7,3.27c.06.13.18.35.18.36s.1.12.2.21a4,4,0,0,0,.69.43,6.11,6.11,0,0,0,1.48.49C36.08,64.81,36.75,64.84,36.77,65Z"/><path d="M39.26,58.38s-.13.11-.38.25a5.45,5.45,0,0,1-1.11.45,10.91,10.91,0,0,1-3.61.32,18.91,18.91,0,0,1-3.61-.61c-1-.25-1.63-.5-1.68-.51a.37.37,0,0,1-.16-.5.39.39,0,0,1,.45-.26s.66.27,1.59.55a19.27,19.27,0,0,0,3.46.75,12.14,12.14,0,0,0,3.49,0C38.64,58.6,39.22,58.31,39.26,58.38Z"/></g></g></g></g></g></svg>