<svg xmlns="http://www.w3.org/2000/svg" viewBox="0 0 107.27 29.65"><defs><style>.cls-1{opacity:0.5;}.cls-2{fill:#ef0000;}.cls-3{opacity:0.2;}.cls-4{fill:#843434;}.cls-5{fill:#9f3030;}</style></defs><g id="Layer_2" data-name="Layer 2"><g id="Main_Assets" data-name="Main Assets"><g id="Selection_Borders" data-name="Selection Borders"><g id="Red"><g class="cls-1"><path class="cls-2" d="M87.48,3.75,88.66,4c-1.3-.29-2.67-.57-4.1-.83l-.12,0,.1,0A187,187,0,0,0,51.86.64c-53.64,0-62.55,17-37.44,23.55,21,5.47,54.39,6.77,79.18-.52C112.74,18,111.29,8.85,87.48,3.75ZM84,18.52c-18.8,5-44.09,4.14-60,.36-19-4.52-12.28-16.26,28.4-16.26A156.24,156.24,0,0,1,77.13,4.35h-.08l.1,0c1.08.18,2.12.36,3.11.57l-.9-.17C97.42,8.28,98.51,14.63,84,18.52Z"/></g><g class="cls-3"><path class="cls-2" d="M84,18.52c-18.8,5-44.11,4.14-60.06.36C4.91,14.36,11.66,2.61,52.36,2.61A155,155,0,0,1,77.14,4.35l-.08,0,.1,0c1.08.18,2.12.37,3.11.57l-.9-.17C97.44,8.28,98.53,14.63,84,18.52Z"/></g><path class="cls-4" d="M87.48,3.75a5.2,5.2,0,0,1,1.27.17c.83.14,2,.39,3.55.77a53.28,53.28,0,0,1,5.41,1.63,25.44,25.44,0,0,1,6.59,3.37A7.68,7.68,0,0,1,107,13.12a4.21,4.21,0,0,1,.1,2.44,6,6,0,0,1-1.13,2.2,13.6,13.6,0,0,1-3.82,3.08A32,32,0,0,1,97.64,23a106.23,106.23,0,0,1-20.57,5A177.88,177.88,0,0,1,37.26,29,157.63,157.63,0,0,1,18.47,26.3c-.2,0-1.68-.4-4.17-1a34.31,34.31,0,0,1-9.9-4.1,12.66,12.66,0,0,1-2.74-2.4A6.53,6.53,0,0,1,0,14.94a6.35,6.35,0,0,1,1.5-4.19A12.54,12.54,0,0,1,3,9.17,17.06,17.06,0,0,1,4.77,7.89a33.66,33.66,0,0,1,8-3.57,68.84,68.84,0,0,1,8.85-2.15C33.79,0,46.78-.2,58.05.13A162.17,162.17,0,0,1,84.58,2.92l-.09.48-.1,0,.09-.47c1.87.42,3.3.75,4.2,1l0,.22a5.17,5.17,0,0,1-1.16-.35,4.89,4.89,0,0,1,1.2.13l0,.22c-.93-.15-2.37-.39-4.25-.73l.09-.47.11,0-.1.48A186.74,186.74,0,0,0,58,1.31C46.8,1.2,33.87,1.57,22,3.88a68.21,68.21,0,0,0-8.61,2.21,31.45,31.45,0,0,0-7.5,3.44,14.83,14.83,0,0,0-1.53,1.14A8.69,8.69,0,0,0,3.1,12a4.33,4.33,0,0,0-1.05,2.87,4.53,4.53,0,0,0,1.21,2.62,10.67,10.67,0,0,0,2.31,2,32.28,32.28,0,0,0,9.28,3.71l4.1,1A161,161,0,0,0,37.44,27a180.1,180.1,0,0,0,39.4-.58A107,107,0,0,0,97.19,21.8a31,31,0,0,0,4.42-2,12.44,12.44,0,0,0,3.55-2.75,3.77,3.77,0,0,0,.94-3.66,6.7,6.7,0,0,0-2.35-3.05A25.52,25.52,0,0,0,97.47,7c-2-.8-3.8-1.38-5.29-1.82s-2.67-.77-3.48-1A5.59,5.59,0,0,1,87.48,3.75Z"/><path class="cls-5" d="M79.37,4.63a8.23,8.23,0,0,1,.95.14c.62.1,1.52.28,2.66.53s2.52.61,4.08,1.12a20,20,0,0,1,5,2.3,5,5,0,0,1,2.08,2.46A2.6,2.6,0,0,1,94,13,4.09,4.09,0,0,1,93,14.4a18.18,18.18,0,0,1-6.51,3.33A93.86,93.86,0,0,1,71,20.92a153.09,153.09,0,0,1-29.77.62,135.34,135.34,0,0,1-14.06-1.83c-.15,0-1.26-.27-3.13-.67a27.71,27.71,0,0,1-7.43-2.72,9.23,9.23,0,0,1-2.1-1.63,3.91,3.91,0,0,1-1.17-2.78,4.39,4.39,0,0,1,1.42-2.83,12.18,12.18,0,0,1,2.58-1.8c3.76-2,8.2-2.9,12.72-3.66A156.52,156.52,0,0,1,57.26,2.29a142.88,142.88,0,0,1,19.9,1.82l0,.24H77l0-.24,3.19.64,0,.11a4.82,4.82,0,0,1-.88-.22,7.49,7.49,0,0,1,.9.11l0,.11L77,4.34l0-.24h.08l0,.25A152.82,152.82,0,0,0,57.24,2.89,159.17,159.17,0,0,0,30.16,4.48c-4.46.79-8.85,1.77-12.39,3.66A10.69,10.69,0,0,0,15.43,9.8,3.33,3.33,0,0,0,14.32,12a2.9,2.9,0,0,0,.92,2,8.24,8.24,0,0,0,1.86,1.43A27.1,27.1,0,0,0,24.25,18c1.85.38,2.94.62,3.09.64a132.83,132.83,0,0,0,13.93,1.9,153.49,153.49,0,0,0,29.59-.37,93.6,93.6,0,0,0,15.39-3A17.92,17.92,0,0,0,92.59,14a2.72,2.72,0,0,0,1.08-2.69,4.64,4.64,0,0,0-1.86-2.25A20.67,20.67,0,0,0,87,6.73c-1.53-.53-2.89-.92-4-1.21s-2-.5-2.63-.64A5.59,5.59,0,0,1,79.37,4.63Z"/></g></g></g></g></svg>