<svg xmlns="http://www.w3.org/2000/svg" viewBox="0 0 112.81 130.12"><defs><style>.cls-1{fill:#95c931;}.cls-2{fill:#aadb3e;}.cls-3,.cls-6{fill:none;stroke:#000;stroke-miterlimit:10;}.cls-3{stroke-width:1.5px;}.cls-4{fill:#a7a9ac;}.cls-5{fill:#d1d3d4;}.cls-6{stroke-width:2px;}</style></defs><g id="Layer_2" data-name="Layer 2"><g id="Enemies_copy_2" data-name="Enemies copy 2"><g id="Layer_288_copy_2" data-name="Layer 288 copy 2"><g id="Layer_272_copy_2" data-name="Layer 272 copy 2"><path class="cls-1" d="M92.89,92.09l-1.19-.92A23.14,23.14,0,0,0,88,92.82L84.87,94l-4.75-3.8a4.63,4.63,0,0,0-1.8-1.45l-6.26-5L63,84.46l-4.11-2.69-8.1,2.73s-4.18.71-4,1.67l-4.08.55c-4-.37-6.93,4.86-4.7,8.71,0,0-3.32,4.35-2.59,8.11a8.6,8.6,0,0,0,.17,8s-1,5,2.55,6.52,7.14,2.77,7.05-2.62c-.08-4.17-3-5-3-5s.08-1.07.12-5.36A27.58,27.58,0,0,0,46.8,97.7h0a10.61,10.61,0,0,0,4.52,4.58h0s-.66,2.23,1.92,5.46a13.69,13.69,0,0,0,1,4.62s-5.73,3.52-3.48,17a.07.07,0,0,0,.14,0c.67-1.74,2.87-9.27,7.34-12.75,2,1.24,4.5.05,4.5.05,2.58,2.23,6.43,11,7.1,12.7a.07.07,0,0,0,.14,0c2.25-13.43-3.48-17-3.48-17a13.69,13.69,0,0,0,1-4.62c2.14-2.69,2-4.66,2-5.26a10.43,10.43,0,0,0,4.35-3.79l1.35.17a13.37,13.37,0,0,0,2.51,3.42s-.26,2.23,2.51,2.69,7.28-1.39,10.74-6.47S92.89,92.09,92.89,92.09Z"/><path class="cls-2" d="M87.41,93.74,85,94.8l-6.7-7H45.57l-1,1.32c-.82.82,1.84,2.65,3,5.25,1.45,3.23,5.18,6.66,9.47,7.06s2.69-1.15,3.44-1.8c.39.71-.19,1.3.22,1.8l0,0-.26,0c1.11,1,1.61,4,.22,5.14s-1.45,4.95.59,7.13,1.21,3,4.8,7.88,4.35,3.34,4.35,3.34L66.93,111.1l2.5-8.63-.89-.1c3-1.88,5.85-6,7.34-9.14,0,0,0,4.27,3.15,5.53s2.38,2.75,5.87.84,4-4.08,4-4.08Z"/><path class="cls-3" d="M42.72,86.72c-4-.37-7.38,4.49-5.16,8.34,0,0-2.58,3.45-1.84,7.21a12.61,12.61,0,0,0-.12,9.29s-.56,4.23,2.55,6.52c2.32,1.71,7.14,2.77,7.05-2.62-.08-4.17-3-5-3-5a25.37,25.37,0,0,0,.53-6.56,15.59,15.59,0,0,0,4.48-5.94"/><path d="M57.92,103.38c0,.21-2.26.74-4.68.28a11.44,11.44,0,0,1-3.15-1.2,12.55,12.55,0,0,1-1.33-.92,11.48,11.48,0,0,1-1.09-1.2A11,11,0,0,1,46,97.43c-.92-2.23-1-4.61-.7-4.61s.67,2.2,1.78,4.1a10.89,10.89,0,0,0,1.76,2.4,10.54,10.54,0,0,0,1,.94,12.49,12.49,0,0,0,1.07.89,11.4,11.4,0,0,0,2.62,1.35C55.6,103.21,57.92,103.13,57.92,103.38Z"/><path d="M62.72,103.33c0-.25,2.4-.11,4.55-.74a6.81,6.81,0,0,0,1.5-.6l.67-.33.56-.37a11.2,11.2,0,0,0,1.13-.86,14,14,0,0,0,1.07-1A11.4,11.4,0,0,0,74,97c1.16-2,1.63-4.25,1.84-4.22s.21,2.45-.77,4.74a11.4,11.4,0,0,1-1.75,3,11.24,11.24,0,0,1-1.15,1.21,13.69,13.69,0,0,1-1.41.9l-.69.35-.8.31a8,8,0,0,1-1.79.47C65,104.14,62.69,103.54,62.72,103.33Z"/><path d="M60.53,102.74a17.69,17.69,0,0,1,0-6.27,17.69,17.69,0,0,1,0,6.27Z"/><path class="cls-3" d="M69.39,102.27s.66,2.23-1.92,5.46a13.69,13.69,0,0,1-1,4.62s5.73,3.52,3.48,17a.07.07,0,0,1-.14,0c-.67-1.74-4.52-10.47-7.1-12.7,0,0-2.52,1.19-4.5-.05-4.47,3.48-6.67,11-7.34,12.75a.07.07,0,0,1-.14,0c-2.25-13.43,3.48-17,3.48-17a13.69,13.69,0,0,1-1-4.62c-2.58-3.23-1.92-5.46-1.92-5.46"/><path d="M82.26,97.77c-.2-.12.67-1.82,2.07-3.15a16.58,16.58,0,0,1,2-1.7c.59-.42,1-.68,1-.7s.38.2.6.6.3.76.2.82-.45.22-1,.54a21.94,21.94,0,0,0-2.08,1.31C83.6,96.5,82.45,97.88,82.26,97.77Z"/><path class="cls-3" d="M74.35,97.77a18.49,18.49,0,0,0,3.29,4.5s-.26,2.23,2.51,2.69,7.28-1.39,10.74-6.47,2-6.4,2-6.4l-1.19-.92A23.14,23.14,0,0,0,88,92.82"/><path class="cls-3" d="M76.16,87.87s3.42-1,4.9,3c0,0,2.52,1,3.22,5.13"/><g id="Layer_287_copy_2" data-name="Layer 287 copy 2"><path class="cls-4" d="M99,98.13l3.61-1s1.39,14.32-2.48,25.34L93.52,98.93"/><path class="cls-5" d="M98.72,99.12a152,152,0,0,1,1.62,20.75c-.13,9.33,3.22-23.4,3.22-23.4l-4.23.7"/><path class="cls-3" d="M99.77,97.17l3.06-.89s1.14,15.21-2.73,26.23L93.52,98.93"/><path class="cls-2" d="M97.44,88.92c-2.44-2-6.15,0-6.15,0l.1.25c-1.56-.51-4.45,1.62-2.87,5.59,1.74,4.36,5.72,6,5.65,2.34,0-.12,0-.24,0-.36l.49,1.36a7.52,7.52,0,0,0,4.57,0C102.06,97.4,99.88,91,97.44,88.92Z"/><path class="cls-3" d="M91.29,88.92s3.71-2,6.15,0,4.62,8.48,1.78,9.21a7.52,7.52,0,0,1-4.57,0"/><path class="cls-3" d="M91.81,89.4c-1.36-1.16-5,1-3.29,5.36s4.19,5.35,6.72,2.72"/><path d="M94.17,99.6c-.12-.06.16-.71.26-1.71a9.22,9.22,0,0,0-.51-3.62,14.64,14.64,0,0,0-1.65-3.34,11.86,11.86,0,0,0-.73-1l-.32-.35c-.11-.09,0-.46.33-.8s.66-.49.84-.32a10,10,0,0,1,1.16,1.67A14.29,14.29,0,0,1,95,94a8.65,8.65,0,0,1,0,4.05C94.74,99.08,94.25,99.65,94.17,99.6Z"/></g></g><g id="Layer_286_copy_2" data-name="Layer 286 copy 2"><path class="cls-1" d="M108.22,24.58c-1.23,23.93-6.64,27.26-6.64,27.26l0,.06c1.87-16.09-4.39-29.1-10.23-37.35C85.34,6.1,77.25,1,58.59,1,38.34,1,13.72,10.85,10.73,43.06a56,56,0,0,0-.19,8.11c-1.5-1.81-5-8-5.95-26.59C-.33,32-1.82,61.36,10.9,73S24,79.78,24,79.78l-1.14-2.5C29.66,83.1,38,86,44,87.76c12.84,3.87,13.37,5.45,25.34,1.93,7.11-2.09,13.89-4,19.68-9.5.5.86,2.76,2,12.91-7.21C114.64,61.36,113.15,32,108.22,24.58Z"/><path class="cls-2" d="M21,16.13c-8.8,8.8-13.2,53.09,5.37,54,8.64.44,12.91,12.16,22,11.24S51.84,79.82,61,80.08c2.62.08,6.66.66-3,2.85a88.49,88.49,0,0,0,13.62-1.16c9.21-1.41,13.36,2.78,19.76-4.23.71-.78,26.16-4.21,17.71-46.45-2.11,9.15-7.4,27.07-7.12,15.24.29-12-3.5-24.6-17.61-39.08C51.62-10.26,21,16.13,21,16.13Z"/><path d="M54.61,75.85A5.56,5.56,0,0,1,56.83,75c.58-.14,1.17-.25,1.61-.33s.76-.12.78-.12H60c.45,0,1,0,1.63.06,1.19.08,2.35.3,2.33.47a8.78,8.78,0,0,1-2.32.33l-1.58.18-.75.1-.76,0L57,75.81A7.66,7.66,0,0,1,54.61,75.85Z"/><path d="M55.91,82.72a20.66,20.66,0,0,1,2.29-.37c.57-.11,1.13-.22,1.56-.33s.71-.19.73-.19.31-.06.73-.18,1-.3,1.5-.5a17.48,17.48,0,0,0,2-1.07,4.73,4.73,0,0,1-1.87,1.43,12.32,12.32,0,0,1-1.51.63,6.78,6.78,0,0,1-.74.23s-.32.09-.77.16-1,.16-1.61.21A9.24,9.24,0,0,1,55.91,82.72Z"/><path d="M74.26,41.48a4.4,4.4,0,0,1-.71,0l-1.84,0c-1.52,0-3.56,0-5.61,0l-5.66.1-2.69.06-8.34.15-5.61.14-1.85,0a4.84,4.84,0,0,1-.7,0,3,3,0,0,1,.7-.1l1.84-.15c1.52-.11,3.56-.22,5.6-.32l5.66-.23L57.74,41l2.69,0c1.57,0,3.62,0,5.67,0s4.09.09,5.62.18c.76.05,1.4.09,1.84.15A3.23,3.23,0,0,1,74.26,41.48Z"/><path d="M67,35.28a8.91,8.91,0,0,1-1.51,0l-3.32,0c-1.21,0-2.42,0-3.35.07l-1.59,0-1.58,0-3.35.1L49,35.66a8.66,8.66,0,0,1-1.51,0A8.41,8.41,0,0,1,49,35.44c.9-.09,2.11-.2,3.32-.29s2.42-.18,3.34-.22l1.6-.08h1.6c.92,0,2.14,0,3.36.06s2.42.11,3.32.19A8.16,8.16,0,0,1,67,35.28Z"/><path class="cls-6" d="M101.58,51.84s5.41-3.33,6.64-27.26c4.93,7.39,6.42,36.78-6.3,48.4s-13.06,6.8-13.06,6.8"/><path class="cls-6" d="M11.23,51.84S5.82,48.51,4.59,24.58C-.33,32-1.82,61.36,10.9,73S24,79.78,24,79.78"/><path class="cls-6" d="M58.59,1C38.34,1,13.72,10.85,10.73,43.06S31.14,83.89,44,87.76s13.37,5.45,25.34,1.93,23-6.33,29.92-27.27-.85-37.89-7.92-47.87C85.34,6.1,77.25,1,58.59,1Z"/><path d="M43.81,65.5a2.8,2.8,0,0,0-2.18,4.22c1.13,2.33,5.62,3.17,6.27-.66C48.34,66.46,46.72,65,43.81,65.5Z"/><path d="M72.34,64.92a2.8,2.8,0,0,1,2.18,4.23c-1,2-4.31,2.87-5.72.79a3.6,3.6,0,0,1-.55-1.45C67.81,65.89,69.44,64.4,72.34,64.92Z"/></g></g></g></g></svg>