<svg xmlns="http://www.w3.org/2000/svg" viewBox="0 0 192.2 185.97"><defs><style>.cls-1{fill:#239e2c;}.cls-2{fill:#2fb235;}.cls-10,.cls-3{fill:none;}.cls-10,.cls-19,.cls-3,.cls-8{stroke:#000;stroke-miterlimit:10;}.cls-19,.cls-3{stroke-width:2px;}.cls-4{fill:#754c29;}.cls-5{fill:#684023;}.cls-6{fill:#a7a9ac;}.cls-7{fill:#bcbec0;}.cls-14,.cls-8{fill:#e8c587;}.cls-10,.cls-8{stroke-width:1.5px;}.cls-9{fill:#080705;}.cls-11{fill:#939598;}.cls-12{fill:#e2b771;}.cls-13{fill:#d8ab6a;}.cls-15{fill:#8b5e3c;}.cls-16{fill:#825537;}.cls-17{opacity:0.74;}.cls-18{fill:#ba4762;}.cls-19,.cls-20{fill:#f4e4cb;}.cls-21{fill:#d1d3d4;}.cls-22{opacity:0.1;}</style></defs><g id="Layer_2" data-name="Layer 2"><g id="Enemies_copy_2" data-name="Enemies copy 2"><g id="Layer_269_copy_2" data-name="Layer 269 copy 2"><g id="Torso_copy_4" data-name="Torso copy 4"><g id="Legs_copy_2" data-name="Legs copy 2"><path class="cls-1" d="M71.06,163.43l-1.15,3.48c-2.21,4.87-1.4,12.15-1.4,12.15l0,.06c-5.37.38-7.81,5.84-2.92,5.84H67c5.65-.05,12.16-.33,12.16-.33a29.25,29.25,0,0,0,5.69-13.95l.76-7.6Z"/><path class="cls-2" d="M78.59,165.75c-.35,4.07,1.27,4-.81,9.39s.08,8.43-1.71,9.61c4.18,1,6.62-4.15,8.67-13.3s-3.49-9.22-3.49-9.22"/><path class="cls-3" d="M68.51,179.06s-.81-7.28,1.4-12.15"/><path d="M72.15,179.63a20,20,0,0,1-2.38-.11A7.41,7.41,0,0,0,65.16,181a3.7,3.7,0,0,0-1.34,1.86c-.1.63.09.79.52,1a3.79,3.79,0,0,0,1.4.15l.74,0c.27,0,.49.45.5,1s-.22,1-.49,1l-.75,0a5.46,5.46,0,0,1-2.15-.42,2.48,2.48,0,0,1-1.38-3.14,5.07,5.07,0,0,1,2.13-2.56,7.78,7.78,0,0,1,5.5-1.09C71.34,179,72.2,179.52,72.15,179.63Z"/><path class="cls-3" d="M84.83,170.68a29.25,29.25,0,0,1-5.69,13.95s-7.06.31-12.84.33"/><path class="cls-1" d="M108,163.43l1.15,3.48c2.21,4.87,1.4,12.15,1.4,12.15l0,.06c5.37.38,7.81,5.84,2.92,5.84h-1.41c-5.65-.05-12.16-.33-12.16-.33a29.25,29.25,0,0,1-5.69-13.95l-.76-7.6Z"/><path class="cls-2" d="M97.16,163.66s2.88,14.26,5,16.42,15.17,4.92,14,1.95l-5.25-3.31-1.73-16.49"/><path class="cls-3" d="M110.52,179.06s.81-7.28-1.4-12.15"/><path d="M106.88,179.63c0-.11.81-.64,2.31-.89a7.78,7.78,0,0,1,5.5,1.09,5.07,5.07,0,0,1,2.13,2.56,2.48,2.48,0,0,1-1.38,3.14,5.46,5.46,0,0,1-2.15.42l-.75,0c-.27,0-.49-.45-.49-1s.23-1,.5-1l.74,0a3.79,3.79,0,0,0,1.4-.15c.43-.19.62-.35.52-1a3.7,3.7,0,0,0-1.34-1.86,7.41,7.41,0,0,0-4.61-1.47A20,20,0,0,1,106.88,179.63Z"/><path class="cls-3" d="M93.9,168.65a35.32,35.32,0,0,0,6,16s7.06.31,12.84.33"/></g><g id="Arm_copy_2" data-name="Arm copy 2"><path class="cls-1" d="M142.93,154a2.14,2.14,0,0,0-1.35-.26c-1.09-2-3.21-5.86-3.62-6.48a4.57,4.57,0,0,0-1.79-1.57s0-.09,0-.13c1-4,.58-7.16-.88-9,.58-1.26.9-6-2-8.48-3.58-3.15-12.15-1-12.15-1l-8.31,15.37,7.37-2s-.67,3.87,5.31,9.05a10.5,10.5,0,0,0,2.24,3.72c1,.85,5.57,4.1,7.76,5.65a1,1,0,0,0,.47,1.11"/><path class="cls-2" d="M122.17,128.67s1.72,5.32,4.48,6.91c0,0-2.27,5.56,3.94,10.32,0,0-2.86,1.4,1.4,4.8a34,34,0,0,1,5.87,5.61l3.48-2.85-5.32-8.7-.46-11.9S136.48,123.65,122.17,128.67Z"/><path class="cls-3" d="M121.18,127.47s8.57-2.14,12.15,1c3.06,2.69,2.49,7.84,1.86,8.67"/><path d="M132.82,135.33c0-.14.87-.21,2,.44a5.43,5.43,0,0,1,1.55,1.52,8.12,8.12,0,0,1,1,2.26,13.45,13.45,0,0,1,.33,4.52,18.68,18.68,0,0,1-.3,2.11c-.06.22-.63.26-1.28.09s-1.14-.47-1.09-.66.23-.77.45-1.84a13.08,13.08,0,0,0,.2-3.88,7.81,7.81,0,0,0-.5-1.93,5.62,5.62,0,0,0-.95-1.44C133.5,135.79,132.77,135.51,132.82,135.33Z"/><path class="cls-3" d="M120.24,140.83s-.67,3.87,5.31,9a10.5,10.5,0,0,0,2.24,3.72c1.33,1.13,7.71,5.32,7.71,5.32"/><path d="M133.46,145.58c0-.16.77-.45,2-.26a4.72,4.72,0,0,1,2,.84,4.86,4.86,0,0,1,.95.87,7.42,7.42,0,0,1,.67,1l2.28,3.65,1.06,1.76c.11.19-.29.6-.89.91s-1.16.42-1.26.23l-.87-1.8c-.48-1-1.13-2.43-1.77-3.82a10.24,10.24,0,0,0-.47-1,3.24,3.24,0,0,0-.57-.74,4.11,4.11,0,0,0-1.41-1C134.25,145.81,133.47,145.75,133.46,145.58Z"/><path class="cls-3" d="M135.19,137.15c.63-.83,1.2-6-1.86-8.67-3.58-3.15-12.15-1-12.15-1"/><path d="M132.82,135.33c0-.09.84-.1,1.89.57a5.46,5.46,0,0,1,1.44,1.5,8.14,8.14,0,0,1,.93,2.2,13.38,13.38,0,0,1,.24,4.42,18.43,18.43,0,0,1-.33,2.06c-.05.22-.44.3-.88.19s-.74-.37-.7-.57c0,0,.23-.78.43-1.88a13.35,13.35,0,0,0,.11-4,7.85,7.85,0,0,0-.59-2,5.75,5.75,0,0,0-1-1.46C133.53,135.68,132.78,135.46,132.82,135.33Z"/><path class="cls-3" d="M120.24,140.83s-.67,3.87,5.31,9a10.5,10.5,0,0,0,2.24,3.72c1.33,1.13,7.71,5.32,7.71,5.32"/><path d="M133.46,145.58c0-.16.77-.45,2-.26a4.72,4.72,0,0,1,2,.84,4.86,4.86,0,0,1,.95.87,7.42,7.42,0,0,1,.67,1l2.28,3.65,1.06,1.76c.11.19-.29.6-.89.91s-1.16.42-1.26.23l-.87-1.8c-.48-1-1.13-2.43-1.77-3.82a10.24,10.24,0,0,0-.47-1,3.24,3.24,0,0,0-.57-.74,4.11,4.11,0,0,0-1.41-1C134.25,145.81,133.47,145.75,133.46,145.58Z"/></g><g id="Axe_copy_2" data-name="Axe copy 2"><path class="cls-4" d="M160.73,143.12l13.62-14.26c-2.2-4.58-5.34-4.52-5.34-4.52l-12.89,14.8"/><path class="cls-5" d="M156.12,139.14l-23.5,27a5.44,5.44,0,0,0,3.14,3.17l25-26.16"/><path class="cls-4" d="M149.25,146c3-2.62,5.63-.88,2,3.37s-8,4.48-2.64-1.84"/><path class="cls-3" d="M135.76,169.28l38.59-40.42c-2.2-4.58-5.34-4.52-5.34-4.52l-36.39,41.77A5.44,5.44,0,0,0,135.76,169.28Z"/><path class="cls-6" d="M165.88,134.64a51.74,51.74,0,0,0,17.45-.92l.92-.83a20.56,20.56,0,0,0,6.42-3.08s-8.78,25-33.43,29.4l1.58-4,.74-.25s1.9-10-.17-13.47C159.39,141.47,159.51,137.09,165.88,134.64Z"/><path class="cls-7" d="M184.49,132.82s-9,19.44-24.93,22.12l-1.62,3.81a34.8,34.8,0,0,0,20.81-10.86c9-9.88,11.92-17.69,11.92-17.69Z"/><path d="M173,148.22s-.15.19-.45.47-.75.68-1.29,1.14a32.56,32.56,0,0,1-4.23,3.11,22.59,22.59,0,0,1-4.84,2.22c-1.4.46-2.37.69-2.43.71-.26.06-.5,0-.55-.2s.13-.37.39-.43c.06,0,1-.23,2.41-.65a23.4,23.4,0,0,0,4.79-2,39.76,39.76,0,0,0,4.3-2.91C172.24,148.78,173,148.18,173,148.22Z"/><path d="M177.4,143.15s.54-.5,1.24-1.34a31.41,31.41,0,0,0,2.37-3.25c.8-1.24,1.54-2.52,2.09-3.5s.9-1.66.93-1.7a.35.35,0,0,1,.46-.18.34.34,0,0,1,.11.48c0,.05-.4.73-1,1.7s-1.38,2.24-2.23,3.45a25.57,25.57,0,0,1-2.56,3.17,9.63,9.63,0,0,1-1,.9C177.56,143.07,177.41,143.17,177.4,143.15Z"/><path class="cls-8" d="M154.29,140.15s-1.1-3.16,3.13-5.71,12.47-3.17,13.06-1.53-1.4,1.88-1.4,1.88a18.46,18.46,0,0,0-11.52,3.37C154.74,140.15,154.29,140.15,154.29,140.15Z"/><path class="cls-8" d="M160,146.32s-1.49,3-3,.7-.91-9.73,1-13.73a5.09,5.09,0,0,1,5.82-3s-3.91,4.57-4.11,9.79S160,146.32,160,146.32Z"/><polyline class="cls-9" points="162.91 135.56 160.44 136.32 160.33 138.81"/><path class="cls-2" d="M136,159.92a3.24,3.24,0,0,0,1.82.34l-.19.17a2.72,2.72,0,0,0-.69,3.08c.8,1.79,1.83,2.94,4.23,2.66s1.9-2.17,1.9-2.17,3.71.16,3.41-3.05c0,0,3.32.41,2.39-2.94s-4.79-3.12-5.27-3.07a1.51,1.51,0,0,0-.69-1l-3.82,1.18-2.79,3.13"/><path class="cls-3" d="M141.36,154.17s-4.67,2.15-5.73,4.76,4.86,2.23,6.94-.44S143.58,153.81,141.36,154.17Z"/><path class="cls-3" d="M137.65,160.86A2.73,2.73,0,0,0,137,164c.8,1.79,1.83,2.94,4.23,2.66s1.9-2.17,1.9-2.17,3.71.16,3.41-3.05c0,0,3.32.4,2.39-2.94-1-3.64-5.32-3.06-5.32-3.06"/><path class="cls-10" d="M163.3,135.92a7.36,7.36,0,0,1,4.56-1,53.08,53.08,0,0,0,15.47-1.15l.92-.83a20.56,20.56,0,0,0,6.42-3.08s-8.78,25-33.43,29.4l1.58-4,.74-.25s1.37-7.22.51-11.52a7.26,7.26,0,0,1,3.1-7.41Z"/><path class="cls-11" d="M163.88,143a3.79,3.79,0,0,1,1.07-2.81,5,5,0,0,1,2.42-1.35l9.58-.67a.66.66,0,0,1,.66.92c-.89,2.16-4.13,7.43-13.62,11.56a.24.24,0,0,1-.34-.23C163.72,149.16,163.93,145.25,163.88,143Z"/><path d="M167,149.18a4.59,4.59,0,0,1,.57-.36c.37-.21.89-.53,1.51-.92a26.52,26.52,0,0,0,7.67-7.55,3.86,3.86,0,0,0,.73-1.55c0-.36-.19-.32-.2-.36a3.89,3.89,0,0,0-.69-.05c-.44,0-1.07,0-1.82,0-1.5.07-3.48.2-5.45.36l-1.47.12a4,4,0,0,0-1.35.27,3.77,3.77,0,0,0-1.89,1.5,5.62,5.62,0,0,0-.7,2.29,3.94,3.94,0,0,1,0-.68,4.61,4.61,0,0,1,.55-1.71,4,4,0,0,1,1.95-1.63,4.21,4.21,0,0,1,1.42-.33l1.46-.15c4-.4,7.88-.65,8.12-.46a1,1,0,0,1,.27.15.75.75,0,0,1,.24.68,4.25,4.25,0,0,1-.83,1.75,27.2,27.2,0,0,1-3.58,4.17,25.46,25.46,0,0,1-4.33,3.28c-.64.38-1.18.68-1.57.86A2.77,2.77,0,0,1,167,149.18Z"/></g><g id="Chest_copy_2" data-name="Chest copy 2"><g id="Shirt_copy_2" data-name="Shirt copy 2"><path class="cls-12" d="M70.38,159.37s-.89,1.25-3.57,4.73-2.19,6.11-2.19,6.11,3.32-4.52,5.25-3.05a7.14,7.14,0,0,1,2.46,3.05s3.34-2.29,4.14-4.69c3,.54,3.1,5.16,3.1,5.16l7,.46,2.9-3.78,2.62,3.78s1.59-3.52,4.12-3.65,2.66,4.12,2.66,4.12h5.25l2.66-4.59,6,4.65s.27-8.26-4.58-12.3l2.75-4.64s9.67-4.2,10.15-10.23l-1.54-3.7a6.38,6.38,0,0,0,3.68-1.69,5.56,5.56,0,0,1-3.5-2.39s3.23-2.7,5.73-2.26c-.28-2.43-3.32-2.83-3.32-2.83a8.34,8.34,0,0,1,2.86-2.88c-1.13-2.29-5.72-1.6-5.72-1.6l-60.47-.09-2.72,15.38L66.47,151Z"/><path class="cls-13" d="M76.6,133c-2.33,3.1,4.27,6.82,4.84,13.31s6.22,11.6,6.22,11.6l21.11,1.73s-7.48-.91-9.25.79,1.63,2.84-.07,3.64-1.32,3.62-1.32,3.62-3.79-1.41-6,3.49l-2.62-3.78-2.74,4.07-7-.6s-2-7.56-3.92-4.78-.33,3.44-3.41,4.2c0,0-.8-2.81-3.14-3.34l-.3-35.83"/><path class="cls-10" d="M70.38,159.37s-.89,1.25-3.57,4.73-2.19,6.11-2.19,6.11,2.84-3.23,5.25-3.05,2.46,3.05,2.46,3.05,2.41.84,3.52-4c.54-2.34,3.9.46,3.72,4.45,1.33,1,6.18.93,7,.46s2-3.65,2.9-3.78,2.62,3.78,2.62,3.78,2.46-3.92,4.12-3.65a3.24,3.24,0,0,1,2.66,4.12c1,.41,4.71.93,5.25,0s.36-4.19,2.66-4.59,6,4.65,6,4.65.27-8.26-4.58-12.3"/><path class="cls-10" d="M111,154.73s9.67-4.2,10.15-10.23l-1.67-3.3a10.42,10.42,0,0,0,3.81-2.09,5.56,5.56,0,0,1-3.5-2.39s3.23-2.7,5.73-2.26c-.28-2.43-3.32-2.83-3.32-2.83a8.34,8.34,0,0,1,2.86-2.88c-1.13-2.29-5.72-1.6-5.72-1.6"/><path class="cls-14" d="M114.14,143.1a6.06,6.06,0,0,0,.45-2.78,16.47,16.47,0,0,0-1.19,2.5l-.2.4c-.24-.3-.48-.59-.69-.82s-.52-.56-.54-.57-.25-.21-.61-.48-.84-.62-1.34-.94l-.47-.29c.18-.54.38-1.19.55-1.84a9.29,9.29,0,0,0,.52-3.24,17.55,17.55,0,0,0-1.28,3c-.22.56-.46,1.12-.67,1.6-.42-.21-.73-.33-.78-.26s.21.34.59.69v0c-.25.55-.43.93-.44.95l-.39,1c-.24.56-.56,1.3-.92,2s-.76,1.41-1.07,1.92-.54.86-.48.91.37-.21.82-.64a13.66,13.66,0,0,0,1.41-1.78c.46-.7.88-1.42,1.17-2s.49-.95.49-1l.24-.65.23.21,1.16,1.1.53.52.57.48c.28.24.64.56,1,.89l-.26.44c-.27.44-.44.74-.46.75l-.44.77c-.22.36-.52.81-.86,1.26a5.11,5.11,0,0,0-.54-.48c-.62-.53-1.44-.81-1.49-.63s.5.58.93,1.19c.18.24.34.48.48.69-.73.81-1.48,1.39-1.41,1.51s.9-.26,1.77-.93l.29.34c.19.22.42.52.65.81.47.59.93,1.2,1.08,1.13s-.08-.81-.39-1.53c-.16-.36-.33-.72-.48-1a5.24,5.24,0,0,0-.26-.46l0,0a13.55,13.55,0,0,0,1.14-1.29c.33-.44.53-.76.54-.78a9.05,9.05,0,0,0,.42-.84,1.54,1.54,0,0,0,.08-.19c.56.6,1,1.13,1.07,1.08s-.2-.94-.77-1.8C113.93,143.74,114,143.43,114.14,143.1Z"/><path class="cls-14" d="M92.7,144l-.24-.15c.17-.29.31-.51.32-.52l.58-1.15a4.43,4.43,0,0,0,.51-1.17c-.07,0-.48.45-.85,1l-.5.72-.23.36-.19.38-.07.15-.47-.25-.57-.25-.6-.17-.9-.18c.2-.45.42-.89.59-1.22l.34-.61.31-.63c.19-.36.45-.83.73-1.28.54-.92,1.2-1.76,1.15-1.8a5.79,5.79,0,0,0-1.48,1.58,14.72,14.72,0,0,0-.85,1.25l-.36.62s-.13.27-.3.65-.37.87-.54,1.37a4.85,4.85,0,0,0-1.83,0A16.16,16.16,0,0,0,89,143a6.59,6.59,0,0,0-.4,1.77,10.5,10.5,0,0,0,.75-1.67c.35.09.68.19.94.28l.55.2.56.2.48.2a2.14,2.14,0,0,0-.1.22,3.44,3.44,0,0,0-.38,1.23c.07,0,.39-.51.73-1l.14-.22.26.13c.8.41,1.44,1.07,1.5,1A3.57,3.57,0,0,0,92.7,144Z"/></g><g id="Belt_copy_2" data-name="Belt copy 2"><path class="cls-15" d="M93.9,160.31s4.12.43,14.87-.71a8.07,8.07,0,0,0,2.26-4.87c-3.55,1.27-15.54,1.08-15.54,1.08H83.66s-12,.19-15.54-1.08a8.07,8.07,0,0,0,2.26,4.87c10.75,1.14,14.87.71,14.87.71"/><path class="cls-16" d="M93.5,160.65s4.31-.14,15-.73c2.2-1.27,1.56-1.84,1.56-1.84-10.81.84-14-.08-14-.08l-12.4-.19s-11.82,0-15.25-.81a3.85,3.85,0,0,0,2,3,132.29,132.29,0,0,0,14.62.58"/><path class="cls-6" d="M89.11,151.47c-3.74,0-6.88,4.65-5.13,8.64s9.93,6,11.41-1.75C96.3,153.59,92.86,151.47,89.11,151.47Z"/><path class="cls-7" d="M85.2,153.35c-.37.94,1.2,2.32,2.11,1.7s.36-1,2.35-.83c-.85-.18-2.6,2.09-.71,3.74s3.89.93,3.87-.4c0,0-.23,2.13-1.21,2.68s1.37,1.47,2.71.69,3.76-5.06-1.19-8.63S85.2,153.35,85.2,153.35Z"/><path class="cls-10" d="M89.11,151.47c-3.74,0-6.88,4.65-5.13,8.64s9.93,6,11.41-1.75C96.3,153.59,92.86,151.47,89.11,151.47Z"/><path d="M92.84,157.2s.06.13.07.38,0,.27,0,.44-.06.36-.09.57a4,4,0,0,1-.55,1.37,3,3,0,0,1-1.36,1.14,3.9,3.9,0,0,1-3.29-.22,3.8,3.8,0,0,1-1.28-1,1.91,1.91,0,0,1-.26-.42,3.33,3.33,0,0,1-.36-1.13,4,4,0,0,1,1-3.15,3.51,3.51,0,0,1,1.43-1A3,3,0,0,1,89.6,154c.85.12,1.34.42,1.31.48s-.55-.07-1.33,0a2.8,2.8,0,0,0-2.28,1.22,3.17,3.17,0,0,0-.55,2.48,2.37,2.37,0,0,0,.49,1.05s.07.11.22.26a3.33,3.33,0,0,0,.68.54,3.14,3.14,0,0,0,2.5.38,3,3,0,0,0,1.77-1.9c.07-.18.13-.35.18-.5l.1-.4C92.75,157.33,92.8,157.2,92.84,157.2Z"/><path class="cls-10" d="M83.66,155.81s-12,.19-15.54-1.08a8.07,8.07,0,0,0,2.26,4.87,99.17,99.17,0,0,0,13.93.77"/><path class="cls-10" d="M95.49,155.81s12,.19,15.54-1.08a8.07,8.07,0,0,1-2.26,4.87,99.94,99.94,0,0,1-14.16.75"/></g></g></g><g id="Head_copy_4" data-name="Head copy 4"><g id="Face_copy_2" data-name="Face copy 2"><g id="Ear_1_copy_2" data-name="Ear 1 copy 2"><path class="cls-1" d="M18.91,73A55.89,55.89,0,0,1,2.23,48.83a.38.38,0,0,0-.74.07C-.1,61.44,1.73,71.53,13.72,95.51c3,6,7.09,3.51,11.56-3.77"/><path class="cls-2" d="M18.91,73A55.89,55.89,0,0,1,2.23,48.83a.38.38,0,0,0-.74.07,46,46,0,0,0-.07,13.41c.37,2.26,2.07.15,4,4.85s15,15.14,15,15.14"/><g class="cls-17"><path class="cls-18" d="M23,83.73S15.15,77.56,10.74,72.1c-4.64-5.73-8.83-14.89-3.81.08,1,3,6.55,14.44,10,16.75s7.59-2.66,7.59-2.66"/></g><path d="M6,69.12a4.79,4.79,0,0,1-.56-1.25l-.25-.7-.34-1a9.4,9.4,0,0,1-.48-2.25,2.12,2.12,0,0,1,0-.44c0-.06,0-.19.17-.18a.58.58,0,0,1,.21.07,3.79,3.79,0,0,1,.73.6,10.1,10.1,0,0,1,1,1.35l1,1.48c1.05,1.53,2.19,3.16,3.44,4.68a68.68,68.68,0,0,0,7.77,7.68c2.29,2,3.92,3.26,4,3.35a.83.83,0,1,1-1,1.26c-.11-.09-1.74-1.42-4-3.49a66.92,66.92,0,0,1-7.67-8.09c-1.23-1.62-2.31-3.31-3.3-4.89L6,65.82c-.14-.21-.28-.44-.45-.66L5.38,65c-.08,0-.09,0-.1.08a1.31,1.31,0,0,0,0,.28C5.45,66.67,6.2,69.22,6,69.12Z"/><path d="M7,72.18a29.55,29.55,0,0,1,2.11,3.68c1.21,2.23,2.83,5.21,4.66,8.06a24.44,24.44,0,0,0,3,3.87,3.34,3.34,0,0,0,1.65.95,3.61,3.61,0,0,0,1.7-.12,8.18,8.18,0,0,0,2.46-1.46c.56-.48.87-.81.91-.84a.87.87,0,0,1,1.16-.06.82.82,0,0,1,0,1.21c-.05,0-.4.4-1.05.92a9.41,9.41,0,0,1-3,1.66,4.89,4.89,0,0,1-2.45.08,4.67,4.67,0,0,1-2.28-1.39,24,24,0,0,1-3-4.22,91.17,91.17,0,0,1-4.25-8.38A20.72,20.72,0,0,1,7,72.18Z"/><path class="cls-3" d="M18.91,73A55.89,55.89,0,0,1,2.23,48.83a.38.38,0,0,0-.74.07C-.1,61.44,1.73,71.53,13.72,95.51c3,6,7.09,3.51,11.56-3.77"/></g><g id="Ear_2_copy_2" data-name="Ear 2 copy 2"><path class="cls-6" d="M159.91,102.46c-1.95.05-6-2.34-4.73-4.46l-2.8-2.89-.5,2.2c-2.51,3.2,2,10.77,10.33,8.93"/><path class="cls-2" d="M156.44,73a55.89,55.89,0,0,0,16.68-24.16.38.38,0,0,1,.74.07c1.59,12.54-.23,22.63-12.23,46.61-3,6-7.09,3.51-11.56-3.77"/><g class="cls-17"><path class="cls-18" d="M151.77,83.5s7.89-6.14,12.33-11.58c4.66-5.71,8.9-14.85,3.81.1-1,3-6.62,14.41-10.1,16.7S150.24,86,150.24,86"/></g><path d="M168.9,69c-.17.1.59-2.45.76-3.74a1.22,1.22,0,0,0,0-.27s0-.12-.1-.08a.62.62,0,0,0-.14.14,5.07,5.07,0,0,0-.45.65l-.87,1.43c-1,1.59-2.09,3.27-3.32,4.88A67.29,67.29,0,0,1,157.08,80c-2.28,2-3.91,3.37-4,3.47a.92.92,0,0,1-1.29,0,.93.93,0,0,1,.27-1.26c.11-.09,1.75-1.36,4.05-3.33a68.26,68.26,0,0,0,7.8-7.65c1.25-1.51,2.4-3.13,3.46-4.66l1-1.47a11,11,0,0,1,1-1.35,3.63,3.63,0,0,1,.74-.59.58.58,0,0,1,.21-.07c.12,0,.15.12.17.18a2.12,2.12,0,0,1,0,.44,9,9,0,0,1-.49,2.25c-.12.37-.24.71-.34,1s-.18.49-.26.7A4.79,4.79,0,0,1,168.9,69Z"/><path d="M167.91,72a20.38,20.38,0,0,1-1.56,4,92.73,92.73,0,0,1-4.3,8.36,24.34,24.34,0,0,1-3,4.21,4.87,4.87,0,0,1-2.3,1.38,5.09,5.09,0,0,1-2.44-.1,9.34,9.34,0,0,1-3-1.67,12.93,12.93,0,0,1-1-.93.81.81,0,0,1,0-1.2.86.86,0,0,1,1.16,0s.35.37.9.85a7.86,7.86,0,0,0,2.46,1.47,3.44,3.44,0,0,0,1.69.13,3.35,3.35,0,0,0,1.66-.94,24,24,0,0,0,3-3.86c1.84-2.83,3.48-5.81,4.7-8A28.83,28.83,0,0,1,167.91,72Z"/><path class="cls-3" d="M156.44,73a55.89,55.89,0,0,0,16.68-24.16.38.38,0,0,1,.74.07c1.59,12.54-.23,22.63-12.23,46.61-3,6-7.09,3.51-11.56-3.77"/><path class="cls-7" d="M161.7,104.94c6.54-4.8.39-13.13-4.17-11.59,0,0-2.16,1.3-.44,2.8,4.14.57,4.38,4.39,1.83,5.82-.17.09.34,1.3-.27,2.18-.71,1-2.37,2.32.42,2.09A5.32,5.32,0,0,0,161.7,104.94Z"/><path class="cls-10" d="M151.88,97.31c-3.15,4,3.36,13.2,10.16,7.91s.7-13.32-3.85-12.13a1,1,0,0,0-.47.3,2.27,2.27,0,0,0-.4,2.76.55.55,0,0,0,.37.24c3.9.67,3.73,4.18,1.23,5.58a2.86,2.86,0,0,1-3.74-4"/></g><g id="Back_copy_2" data-name="Back copy 2"><path class="cls-1" d="M150.83,32.08A46.92,46.92,0,0,0,133,14c-5-3-16.89-10.48-20-2.63-15.47-4.6-25.26,2.45-25.26,2.45A44.43,44.43,0,0,0,60.85,12C58.44,7,52,9.25,47.57,11.33c-9,4.26-17.52,10.79-22.91,20.75-16.66,30.84.66,73.39,4.25,79.39,6.21,10.37,40.36,22.32,59.9,22.32s53.16-11.42,57.77-22.32C149.3,105,167.48,62.92,150.83,32.08Z"/><path class="cls-2" d="M122,9.67c13.51,1.31,40.64,20,35.27,64.06s-20.06,46.65-28.81,50.94,6.83-6.58,7.26-12.34-9.16-4.69-9.44-6.63,7.89-4,11.54-9.22,4.72-10.36-.78-9.7-21.92,2.84-30.27,2.12-8.29-4.84-10.12-10.62-3.34,1.21-7.54,1.17c-5.89-.06-5.6-6.81-8.37-2.12s-.77,3.17-.77,3.17,2.1,3.67-11,3.08S32.09,81,35.65,72.56,35.55,48.68,32.39,53c0,0-1.36.25-.46-4.37,1.46-7.5-4.32-8.27-7.89-4.08s-5,4.19-3.35-1.26,8.65-27.33,30.22-33.05"/><path class="cls-3" d="M150.83,32.08A46.92,46.92,0,0,0,133,14c-5-3-16.89-10.48-20-2.63-15.47-4.6-25.26,2.45-25.26,2.45A44.43,44.43,0,0,0,60.85,12C58.44,7,52,9.25,47.57,11.33c-9,4.26-17.52,10.79-22.91,20.75-16.66,30.84.66,73.39,4.25,79.39,6.21,10.37,40.36,22.32,59.9,22.32s53.16-11.42,57.77-22.32C149.3,105,167.48,62.92,150.83,32.08Z"/><path class="cls-2" d="M88.6,91.81c-3.89-.36-5.36,2.32-7.14,2.91-4.22,1.41-8.19,4-7.36,6.94,1.17,4.15,9.63,1.38,15.23,1.88s13,1.5,14.56-1.16c1.36-2.25-2.23-5.95-8.36-7.73C92.94,93.9,92.5,92.17,88.6,91.81Z"/></g><g id="Detail_copy_2" data-name="Detail copy 2"><path class="cls-19" d="M65.88,113.81s-4.12-7.17,0-14c1.46-2.41,2.73,7.91,10.72,11.33"/><path d="M119.82,117.14a10.06,10.06,0,0,1-2.42-.69l-2.7-.93-.81-.29L113,115l-1.88-.52a80.71,80.71,0,0,0-19.63-3,89.26,89.26,0,0,0-19.92,1.68,70.16,70.16,0,0,0-9.19,2.44c-.94.3-1.86.08-2.12-.55s.36-1.45,1.35-1.77a72.06,72.06,0,0,1,9.54-2.33,88.58,88.58,0,0,1,20.42-1.19c1.85.1,3.69.35,5.49.52s3.56.6,5.26.88a74.24,74.24,0,0,1,9.08,2.45l1.87.63.86.29.79.35,2.64,1.16A10.31,10.31,0,0,1,119.82,117.14Z"/><path d="M28.38,64.69c-.23-.12,1.18-3.3,2.08-6.66a43.73,43.73,0,0,0,1-4.66c.21-1.3.34-2.19.33-2.25s.17-.93.33-2.24a44.63,44.63,0,0,0,.33-4.76c0-1.73-.06-3.46-.17-4.75a9,9,0,0,1-.13-2.19c.11,0,.46.79.78,2.08a29.29,29.29,0,0,1,.71,4.82,37.3,37.3,0,0,1,0,4.94c-.08,1.36-.22,2.29-.21,2.35s-.17,1-.47,2.3A39,39,0,0,1,31.6,58.4C30.38,61.76,28.56,64.79,28.38,64.69Z"/><path d="M28.38,78.16c.13-.15,1.86,1.32,4.93,2.71a57.45,57.45,0,0,0,11.81,3.64c4.44.91,9,1.54,12.4,2l5.95.7c.15,0,2.49.42,5.87.65a19.77,19.77,0,0,0,5.58-.28,4.5,4.5,0,0,0,2.39-1.31,7.1,7.1,0,0,0,1.32-2.73,38,38,0,0,0,1.83-12.12c0-3.37-.48-5.59-.34-5.63s.92,2.14,1.22,5.59A35.92,35.92,0,0,1,80.16,84a8.52,8.52,0,0,1-1.53,3.4,6.16,6.16,0,0,1-3.22,2,21.16,21.16,0,0,1-6.16.55c-3.56-.13-5.92-.5-6.06-.49s-2.5-.34-6-.87-8-1.34-12.47-2.47a51.11,51.11,0,0,1-11.84-4.41C29.87,80,28.29,78.23,28.38,78.16Z"/><path d="M146.09,81.83c.08.08-1.29,1.64-4,3.23a35.3,35.3,0,0,1-10.56,4,79,79,0,0,1-11.26,1.5c-3.12.2-5.25.24-5.38.24s-2.24,0-5.38-.14a39.39,39.39,0,0,1-5.35-.6,15.43,15.43,0,0,1-3-.89,6.7,6.7,0,0,1-2.74-2.05,8.47,8.47,0,0,1-1.31-3c-.27-1-.49-2-.67-2.9a35.43,35.43,0,0,1-.56-5.22c-.09-3.07.27-5.09.41-5.07s.11,2,.46,5a41.68,41.68,0,0,0,.92,5c.23.91.49,1.83.81,2.76a7.36,7.36,0,0,0,1.19,2.45c1.09,1.3,3,1.79,4.82,2.08a38.13,38.13,0,0,0,5.1.37c3,0,5.15-.05,5.28,0s2.23,0,5.3-.06a85.52,85.52,0,0,0,11.05-1,39,39,0,0,0,10.46-3.16C144.41,83,146,81.69,146.09,81.83Z"/><path d="M147.15,68.54c-.18.09-1.88-3.23-2.86-6.87-.24-.91-.5-1.82-.65-2.7s-.34-1.69-.4-2.41c-.19-1.42-.27-2.41-.26-2.47s0-1,0-2.48a35.89,35.89,0,0,1,.61-5.17,30.23,30.23,0,0,1,1.37-5c.5-1.31,1-2.12,1.09-2.07a10.81,10.81,0,0,1-.46,2.26,44.5,44.5,0,0,0-.82,4.94,42.28,42.28,0,0,0-.24,5c0,1.38.11,2.32.1,2.38s0,1,.11,2.38c0,.7.15,1.49.25,2.34s.26,1.76.42,2.66C146.11,65,147.39,68.44,147.15,68.54Z"/><path d="M92,69.85c.08,0,.11.31,0,.72a2.73,2.73,0,0,1-1,1.25,3.8,3.8,0,0,1-1.55.56,3.91,3.91,0,0,1-.76.07,6.31,6.31,0,0,1-.75-.1,5.12,5.12,0,0,1-1.51-.56,2.44,2.44,0,0,1-1.07-1.21c-.16-.43-.09-.73,0-.73s.16.24.39.52a2.4,2.4,0,0,0,1,.71,5.07,5.07,0,0,0,1.3.24h.64a5.34,5.34,0,0,0,.63,0,3.31,3.31,0,0,0,1.26-.23,2.53,2.53,0,0,0,1-.76C91.77,70.07,91.88,69.84,92,69.85Z"/><path d="M93.28,63.58c.07,0,.09.41-.14,1a3.56,3.56,0,0,1-1.42,1.64,5.2,5.2,0,0,1-2.09.73,5.88,5.88,0,0,1-1,.07,8.37,8.37,0,0,1-1-.12,6.79,6.79,0,0,1-2.06-.72A3.44,3.44,0,0,1,84,64.55c-.22-.56-.16-1-.08-1s.17.34.47.76a3.23,3.23,0,0,0,1.46,1.09,6.5,6.5,0,0,0,1.85.4c.53,0,.89,0,.91,0a9,9,0,0,0,.91,0,4.71,4.71,0,0,0,1.81-.38,3.63,3.63,0,0,0,1.42-1.16C93.07,63.9,93.2,63.56,93.28,63.58Z"/><path d="M50,86.32s-4.81,8.06,3.49,11.24,14.35-5.14,11.07-9.13"/><path d="M126.39,88.64s4.27,7.66-3.56,10.41-13.27-5.18-10.1-8.82"/><path class="cls-20" d="M73.11,110s-4,3-7.67,1.23S73.11,110,73.11,110Z"/><path class="cls-3" d="M76.6,111.17c-8-3.42-9.26-13.74-10.72-11.33-4.12,6.8,0,14,0,14"/></g></g><g id="Skullplate_copy_2" data-name="Skullplate copy 2"><path class="cls-11" d="M55.85,7S45.66,11.34,45.48,43.69a3,3,0,0,0,2,2.85c8.85,3,45.35,13.89,78.53,1.33a2.93,2.93,0,0,0,1.88-2.74c0-6.41-.32-26.52-6.35-36.16a9.79,9.79,0,0,0-4.19-3.69,26.7,26.7,0,0,0-4.47-1.53A5.62,5.62,0,0,0,110,4a11.71,11.71,0,0,1-4.66.92c-2.55-.11-2.64-2.65-5.83-2.52s-5.29-1.15-5.89-1.2a40.51,40.51,0,0,0-6.89,0c-3.37.08-6.67,1.91-9.41,2.13-3.35.26-6-1.13-8.48-.67C59.45,4.36,55.85,7,55.85,7Z"/><path class="cls-6" d="M61,6.1s-3.85,1.54-6.63,10c-5.79,17.7.2,28,18.65,28,12.59,0,28.78,2.82,44.87-1.35a10.62,10.62,0,0,0,8.31-10.54c-.35-7.48-1.58-18.45-5.64-24.53a8.66,8.66,0,0,0-3.8-3.13,25.38,25.38,0,0,0-4-1.29,5.17,5.17,0,0,0-2.59.14,11.46,11.46,0,0,1-4.31.82c-2.31-.1-2.39-2.26-5.28-2.15a14.75,14.75,0,0,1-5.34-1,39.29,39.29,0,0,0-6.25,0c-3,.07-6,1.62-8.52,1.8-3,.23-5.43-.95-7.69-.56C64.27,3.85,61,6.1,61,6.1Z"/><g id="Layer_271_copy_2" data-name="Layer 271 copy 2"><path class="cls-21" d="M53.75,38.2a2,2,0,0,0-1.9.56c-1.36,1.53-1.47,3.78,1.21,3.89a2.37,2.37,0,0,0,2.31-3.1A2.48,2.48,0,0,0,53.75,38.2Z"/><path class="cls-21" d="M59.07,9.65a1.37,1.37,0,0,0-1.28.37c-.91,1-1,2.55.81,2.62a1.59,1.59,0,0,0,1.55-2.09A1.64,1.64,0,0,0,59.07,9.65Z"/><path class="cls-21" d="M55,22.82a1.59,1.59,0,0,0-1.51.43c-1.07,1.21-1.16,3,1,3.08a1.86,1.86,0,0,0,1.82-2.45A1.92,1.92,0,0,0,55,22.82Z"/><path class="cls-21" d="M76.33,43a2,2,0,0,0-1.9.55C73.07,45,73,47.3,75.64,47.4A2.36,2.36,0,0,0,78,44.3,2.49,2.49,0,0,0,76.33,43Z"/><path class="cls-21" d="M100.14,43.56a2,2,0,0,0-1.9.55c-1.36,1.53-1.47,3.79,1.21,3.89a2.36,2.36,0,0,0,2.31-3.1A2.49,2.49,0,0,0,100.14,43.56Z"/><path class="cls-21" d="M120.3,40a1.86,1.86,0,0,0-1.81.55c-1.3,1.52-1.41,3.77,1.15,3.87A2.24,2.24,0,0,0,120.3,40Z"/><path class="cls-21" d="M119.41,23.79a1.6,1.6,0,0,0-1.5.44c-1.08,1.21-1.17,3,1,3.07a1.86,1.86,0,0,0,1.83-2.45A2,2,0,0,0,119.41,23.79Z"/><path class="cls-21" d="M115.44,8.35a1.38,1.38,0,0,0-1.28.37c-.91,1-1,2.55.82,2.62a1.59,1.59,0,0,0,1.55-2.08A1.7,1.7,0,0,0,115.44,8.35Z"/><path d="M55.3,39.61c.05,0,.37.28.43.94a2.5,2.5,0,0,1-1.07,2.05,3,3,0,0,1-1.19.55,3.45,3.45,0,0,1-1.16,0,2.87,2.87,0,0,1-.83-.23l-.33-.19-.3-.27a2.09,2.09,0,0,1-.43-.86A3,3,0,0,1,51,39.22a3.42,3.42,0,0,1,.88-.9,2.35,2.35,0,0,1,1-.34,1.15,1.15,0,0,1,.76.19c.16.12.19.23.17.25s-.37-.18-.86,0a2.06,2.06,0,0,0-.74.42,3.44,3.44,0,0,0-.58.81,2.23,2.23,0,0,0-.25,1.68.9.9,0,0,0,.39.5,1.82,1.82,0,0,0,.7.32,3.13,3.13,0,0,0,.82.09,2.44,2.44,0,0,0,.89-.29,2.06,2.06,0,0,0,1.07-1.41C55.37,40,55.22,39.65,55.3,39.61Z"/><path d="M60.11,10.6s.22.19.25.62a1.62,1.62,0,0,1-.72,1.33,1.94,1.94,0,0,1-1.52.34,1.86,1.86,0,0,1-.53-.16l-.21-.12-.19-.17a1.29,1.29,0,0,1-.27-.54,1.93,1.93,0,0,1,.36-1.53,2.45,2.45,0,0,1,.56-.6,1.64,1.64,0,0,1,.68-.24c.45,0,.66.25.62.26s-.24-.14-.59,0A1.33,1.33,0,0,0,58,10a1.84,1.84,0,0,0-.41.55,1.58,1.58,0,0,0-.21,1.18.74.74,0,0,0,.3.4,1.34,1.34,0,0,0,.51.22,1.51,1.51,0,0,0,1.2-.17,1.41,1.41,0,0,0,.72-1C60.18,10.86,60.07,10.61,60.11,10.6Z"/><path d="M56.24,24s.28.23.32.74a1.93,1.93,0,0,1-.84,1.59,2.24,2.24,0,0,1-.93.42,2.73,2.73,0,0,1-.9,0,2.67,2.67,0,0,1-.65-.19L53,26.37l-.23-.21a1.58,1.58,0,0,1-.33-.65,2.37,2.37,0,0,1,.44-1.85,2.86,2.86,0,0,1,.68-.71,1.73,1.73,0,0,1,.82-.27c.54-.05.78.31.73.33s-.29-.16-.69,0a1.63,1.63,0,0,0-.6.33,2.47,2.47,0,0,0-.47.64,1.8,1.8,0,0,0-.21,1.36.82.82,0,0,0,.32.43A1.57,1.57,0,0,0,54,26a1.73,1.73,0,0,0,1.38-.17,1.66,1.66,0,0,0,.84-1.14C56.31,24.27,56.18,24,56.24,24Z"/><path d="M77.88,44.37c.05,0,.36.28.43.93a2.5,2.5,0,0,1-1.07,2.06,2.93,2.93,0,0,1-1.19.54,3.48,3.48,0,0,1-1.16,0,2.85,2.85,0,0,1-.83-.24l-.34-.18-.29-.28a2,2,0,0,1-.43-.86A3,3,0,0,1,73.58,44a3.27,3.27,0,0,1,.88-.9,2.2,2.2,0,0,1,1-.34,1.1,1.1,0,0,1,.76.19c.16.11.19.23.17.25s-.37-.18-.86,0a2.06,2.06,0,0,0-.74.42,3.17,3.17,0,0,0-.58.8A2.25,2.25,0,0,0,74,46.07a1,1,0,0,0,.4.51,1.73,1.73,0,0,0,.7.31,2.46,2.46,0,0,0,.82.09,2.24,2.24,0,0,0,.89-.28,2.09,2.09,0,0,0,1.07-1.41C78,44.78,77.8,44.41,77.88,44.37Z"/><path d="M101.69,45s.36.27.43.93A2.5,2.5,0,0,1,101.05,48a3.07,3.07,0,0,1-1.19.54,3.48,3.48,0,0,1-1.16,0,2.85,2.85,0,0,1-.83-.24l-.34-.19-.29-.27a2,2,0,0,1-.43-.86,3,3,0,0,1,.57-2.37,3.46,3.46,0,0,1,.89-.9,2.22,2.22,0,0,1,1-.35,1.15,1.15,0,0,1,.76.2c.16.11.19.22.17.25s-.37-.18-.86,0a1.92,1.92,0,0,0-.74.42,3.17,3.17,0,0,0-.58.8,2.25,2.25,0,0,0-.26,1.68,1.05,1.05,0,0,0,.4.51,1.92,1.92,0,0,0,.7.31,2.46,2.46,0,0,0,.82.09,2.12,2.12,0,0,0,.89-.29,2.07,2.07,0,0,0,1.07-1.4C101.76,45.38,101.61,45,101.69,45Z"/><path d="M122,41.39s.37.27.43.93a2.46,2.46,0,0,1-1.06,2,3,3,0,0,1-1.2.55,3.48,3.48,0,0,1-1.16,0,3.32,3.32,0,0,1-.83-.24l-.33-.19-.29-.27a2,2,0,0,1-.44-.86A3,3,0,0,1,117.7,41a3.28,3.28,0,0,1,.88-.9,2.25,2.25,0,0,1,1-.35,1.23,1.23,0,0,1,.76.19c.15.12.19.23.16.25s-.37-.17-.86,0a2,2,0,0,0-.74.43,2.93,2.93,0,0,0-.57.8,2.21,2.21,0,0,0-.26,1.68,1,1,0,0,0,.39.5,1.82,1.82,0,0,0,.7.32A2.75,2.75,0,0,0,120,44a2,2,0,0,0,.89-.29,2.07,2.07,0,0,0,1.07-1.4C122.07,41.8,121.92,41.43,122,41.39Z"/><path d="M120.62,24.93s.27.22.31.73a1.93,1.93,0,0,1-.84,1.6,2.38,2.38,0,0,1-.93.42,3,3,0,0,1-.9,0,2.46,2.46,0,0,1-.64-.19l-.26-.14-.22-.21a1.46,1.46,0,0,1-.34-.66,2.38,2.38,0,0,1,.44-1.85,2.7,2.7,0,0,1,.69-.7,1.79,1.79,0,0,1,.81-.28c.54,0,.79.32.73.33s-.29-.15-.68,0a1.8,1.8,0,0,0-.6.33,2.53,2.53,0,0,0-.47.65,1.8,1.8,0,0,0-.22,1.35.81.81,0,0,0,.33.43,1.45,1.45,0,0,0,.57.26,1.73,1.73,0,0,0,1.38-.18,1.63,1.63,0,0,0,.85-1.14C120.68,25.24,120.56,25,120.62,24.93Z"/><path d="M116.49,9.3s.22.19.25.62a1.65,1.65,0,0,1-.72,1.33,2.11,2.11,0,0,1-2.06.18l-.21-.12-.18-.17a1.15,1.15,0,0,1-.28-.53,2,2,0,0,1,.36-1.54,2.5,2.5,0,0,1,.57-.6,1.42,1.42,0,0,1,.67-.23c.46-.05.66.25.62.26a1,1,0,0,0-.58-.05,1.37,1.37,0,0,0-.53.28,2,2,0,0,0-.41.55,1.59,1.59,0,0,0-.2,1.19.82.82,0,0,0,.29.39,1.68,1.68,0,0,0,1.72.06,1.43,1.43,0,0,0,.72-1C116.56,9.56,116.44,9.32,116.49,9.3Z"/></g><path class="cls-3" d="M55.85,7S45.66,11.34,45.48,43.69a3,3,0,0,0,2,2.85c8.85,3,45.35,13.89,78.53,1.33a2.93,2.93,0,0,0,1.88-2.74c0-6.41-.32-26.52-6.35-36.16a9.79,9.79,0,0,0-4.19-3.69,26.7,26.7,0,0,0-4.47-1.53A5.62,5.62,0,0,0,110,4a11.71,11.71,0,0,1-4.66.92c-2.55-.11-2.64-2.65-5.83-2.52s-5.29-1.15-5.89-1.2a40.51,40.51,0,0,0-6.89,0c-3.37.08-6.67,1.91-9.41,2.13-3.35.26-6-1.13-8.48-.67C59.45,4.36,55.85,7,55.85,7Z"/><path class="cls-21" d="M95.48,8.23C93.31,7.9,93,9.32,89.2,9.67s.15,3.61,4.86,3,6.47.15,7.94,1,5.69,4.81,6.77,3,2-8.24-1.67-7.13C102.93,10.83,98.23,8.65,95.48,8.23Z"/><path class="cls-22" d="M96.81,30.28c-1.1.36-2.18.74-3.09,1.07-.4-.46-.79-.88-1.13-1.22-.51-.53-.9-.85-.92-.88s-.4-.32-1-.73c2.23-.82,4.44-1.49,4.4-1.67s-2.48.16-4.9.78l-.58.16-1.2-.73c-1.66-1-3.43-1.68-3.52-1.49a22.73,22.73,0,0,0,3,2.33l.36.29-1.33.41-1.55.55-1,.48-1.18-.84c-1.79-1.23-3.65-2.3-3.77-2.13s1.54,1.51,3.15,2.93l.67.6c-.73.37-1.55.83-2.35,1.31-2.17,1.28-4,2.93-3.92,3.08s2.17-1.17,4.4-2.19c1-.49,2.07-.93,2.9-1.27l.5.45,1,1,1.08.89c.25.2.53.44.82.69-.45.23-.9.47-1.35.73-2.49,1.35-4.78,3-4.68,3.14s2.56-1.13,5.13-2.24c.62-.28,1.25-.55,1.85-.8l.47.41c1.6,1.41,3.07,2.94,3.23,2.82s-1.06-1.91-2.51-3.53l-.13-.14.64-.27,1.7-.68,1.64-.75,0,0c1.36,1.27,2.51,2.74,2.69,2.63s-.63-1.62-1.76-3.07l2.62-1.14c2.57-1.11,5.15-2.14,5.09-2.33S99.49,29.41,96.81,30.28ZM91.4,32.23,89.72,33l-1,.5-1-1.08-1-1s-.45-.37-1.08-.86l.3-.12,1.47-.63c.56-.24,1.23-.51,2-.78.2.16.39.32.55.47.54.46.89.79.91.81s.42.31,1,.76c.25.2.53.44.82.7Z"/></g></g><g id="Shield_copy_2" data-name="Shield copy 2"><path class="cls-4" d="M69.24,134.22c-3.6-8.53-8.78-11.36-8.78-11.36l-1.53,2-1.14-4.08s-5.83-2.63-10.83-2a26.68,26.68,0,0,1-2.09,6l-3.55-1.89-5.85,1.51s-2.11,6.17-2.56,6.66h0l-2.57-2.35-3.51,5.93L24,146.26,24.45,160l3,10.75,6.07,5.71.22,2.06a16.46,16.46,0,0,0,4.77,2.57c1.81.42,5.12-.42,5.75-.59l.91,1.45,5.88,1.38L57.86,182l.59-3.83.52.9.46,1.42c4-2.24,5.34-5.91,7.64-9.87a42.84,42.84,0,0,0,2.67-7.81c2.41-8.74.28-15.16,1.28-20.3C71.53,139.82,70.12,136.29,69.24,134.22Z"/><path class="cls-5" d="M65.69,171.33l-2.95-.65-3.06-.83L58.25,168l-.32,5-3.37-.86L51,166.52l-7.3-3.8.25,6.16-6.42-1.13-4.14-4.09-.29,4.09-.67-3.68-3.78-3.68-4.4-15.69v15.7l3.54,10.75L34,176.49v2.91s5.64,3.2,10.24,1.1c0,0,.68,2.86,6.85,2.86s7-4.27,7-4.27l1.62,1.12,3.76-4.35"/><polyline class="cls-5" points="32.45 150.19 44.62 153.6 44.44 155.66 33.53 154.42"/><polygon class="cls-5" points="43.34 147.26 48.73 150.65 57.79 153.1 57.3 155.91 49.66 153.82 44.81 153.24 44.95 151.24 43.34 147.26"/><polyline class="cls-5" points="33.25 131.72 41.95 134.48 44.13 134.82 43.98 135.75 33.64 134.82"/><g id="Layer_928" data-name="Layer 928"><polyline class="cls-3" points="43.67 179.88 44.99 181.98 50.87 183.36 56.98 181.93 58.24 178.62"/><path d="M43.13,146.58a8.16,8.16,0,0,1,.8,1.91c.21.61.47,1.35.77,2.18.14.45.3.81.45,1.38a2.39,2.39,0,0,1,0,.46l0,.38q0,.38-.06.78c-.2,2.11-.42,4.52-.65,7-.06.62-.12,1.23-.17,1.85v.12c0,.05,0,.15,0,.22l.07.46.13.93.53,3.68c-.25,5.92-.45,10.77-.46,11a.83.83,0,1,1-1.62-.09c0-.21.34-5,.74-10.85-.13-1.16-.26-2.36-.4-3.58l-.1-.92,0-.47a1.69,1.69,0,0,1,0-.25v-.34l.24-1.87,1-7,.12-.77.05-.38a.9.9,0,0,0,0-.28c-.07-.38-.23-.9-.34-1.3-.22-.86-.42-1.61-.58-2.24A9.3,9.3,0,0,1,43.13,146.58Z"/><path d="M43.91,137.36a5.88,5.88,0,0,1-.1-2.19c0-1.34.19-3,.22-4.75s.06-3.48.09-4.8,0-2.24,0-2.3c0-.24.38-.42.82-.4s.81.22.8.46c0,.06-.07,1-.16,2.3s-.24,3.08-.44,4.82-.54,3.51-.74,4.75A6.43,6.43,0,0,1,43.91,137.36Z"/><path d="M57.93,133c-.22,0-.29-2.2-.3-4.41,0-1.1,0-2.2,0-3s0-1.42,0-1.46.38-.25.83-.22.8.18.79.33-.06.61-.15,1.44l-.36,3C58.49,130.81,58.16,133,57.93,133Z"/><path class="cls-3" d="M44.69,124.75a26.53,26.53,0,0,0,2.06-5.85.22.22,0,0,1,.21-.18c4.17-.44,8.6,1.27,9.9,1.83a.88.88,0,0,1,.5.55l1.26,3.34"/><path class="cls-3" d="M58.49,179.09l.74,1.35a.06.06,0,0,0,.07,0c4-2.26,5.74-8.31,5.74-8.31L69,167l.83-9.13L71,151.67l-.11-9.17-2.43-11.32-8-8.19a.15.15,0,0,0-.23,0l-1.84,1.19"/><path d="M57.79,138.65s.05.2.08.56.09.9.14,1.58c.1,1.36.22,3.26.36,5.56,0,1.56-.09,3.29-.14,5.11s1,3.23,1.32,5.44a5,5,0,0,1-.15,1.63L59,160c-.24.94-.49,1.89-.73,2.82-.11.45-.23.9-.34,1.34a.85.85,0,0,0,0,.42l.19.68c.27.94.53,1.86.78,2.75-.24,3.81-.45,7.11-.58,9.2l1.24,1.77c.41.59.44,1.28.07,1.53s-1,0-1.41-.61l-1.52-2.25c.18-2.16.47-5.57.8-9.51-.22-.82-.43-1.67-.66-2.54l-.17-.69a2.36,2.36,0,0,1,0-1c.15-.56.27-.94.41-1.43.26-.93.53-1.86.8-2.8l.41-1.41a3.85,3.85,0,0,0,.15-1.26,4.7,4.7,0,0,0-.26-1.28l-.44-1.37a10.85,10.85,0,0,1-.38-1.42,6.2,6.2,0,0,1-.05-1.48c.12-1.81.24-3.52.34-5.07C57.64,141.81,57.6,138.64,57.79,138.65Z"/><path class="cls-3" d="M33.35,176.49l-5.15-4.84a4.57,4.57,0,0,1-1.27-2.09l-2.63-9.4c0-.09,0-.18,0-.26l-.38-12a12,12,0,0,1,.33-3.17l2.4-9.94a1.88,1.88,0,0,1,.12-.3l3.35-5.65a.12.12,0,0,1,.19,0l2.7,2.3"/><path class="cls-3" d="M32.94,131a3.64,3.64,0,0,1,.24-.9c.59-1.41,1.52-4.07,1.92-5.21a1.16,1.16,0,0,1,.75-.73l4.58-1.42a1.65,1.65,0,0,1,1.35.17l2.91,1.81"/><path d="M33,139.35a7.36,7.36,0,0,1-.1-2.69c0-.37,0-.76.06-1.16a1.92,1.92,0,0,0-.08-1l-.59-2.15a2.75,2.75,0,0,1,0-.94l.09-.55.09-.48c0-.14.4-.14.84-.1s.78.29.74.45l-.12.48-.13.47c0,.15-.07.41-.07.38.1.63.22,1.4.34,2.19a2.76,2.76,0,0,1,.05.73,5.61,5.61,0,0,1-.11.66l-.24,1.14A6.86,6.86,0,0,1,33,139.35Z"/><path d="M32.48,144.38a25.22,25.22,0,0,1,.11,2.72c.06,1.36.12,2.72.13,2.76v.54s0,.16.06.29l.44,1.83a17.33,17.33,0,0,1,.52,2.67,16.51,16.51,0,0,1-.91-2.57l-.55-1.8a1.25,1.25,0,0,1-.09-.4l0-.28,0-.26V149c0-.52,0-1.2.05-1.89A11.92,11.92,0,0,1,32.48,144.38Z"/><path d="M33.64,159.16a18.54,18.54,0,0,1,.16,3.53c.05,2.05.1,4.69.16,7.13l.08.24.11.34.19.66a12.42,12.42,0,0,1,.28,1.32,6.3,6.3,0,0,1,.06,1.3,3.5,3.5,0,0,1-.08.65c-.1.37-.05.08-.06.31,0,1.27,0,2.1,0,2.16,0,.31-.37.55-.82.54s-.81-.25-.81-.56c0-.06,0-.89.08-2.16a1.46,1.46,0,0,1,0-.38l.06-.21,0-.07a2.18,2.18,0,0,0,.08-.4,5,5,0,0,0,0-1,10.65,10.65,0,0,0-.17-1.17l-.15-.61-.08-.32c0-.09,0-.18-.12-.41,0-.65,0-1.32.07-2l.09-1.89c.07-1.24.15-2.44.24-3.47A11.84,11.84,0,0,1,33.64,159.16Z"/><path class="cls-3" d="M44.2,180.5s-3.85,1.08-5.87.62a15.22,15.22,0,0,1-4.56-2.41.53.53,0,0,1-.21-.42v-2.43"/><path class="cls-9" d="M57.3,152.3c.13,1.31-.33,2-1,3.33-1.38,2.49,1.31,5.91.42,8.43l.6,1.18,2-9.22"/></g></g></g></g></g></svg>