<svg xmlns="http://www.w3.org/2000/svg" viewBox="0 0 130.33 98.25"><defs><style>.cls-1{fill:#6d6e71;}.cls-2{fill:#78787a;}.cls-3{fill:#58595b;}.cls-4{fill:#4e4f51;}.cls-5{fill:#494849;}.cls-6{fill:#414042;}.cls-7{fill:#a7a9ac;}.cls-8{fill:#939598;}.cls-9{fill:none;stroke:#000;stroke-miterlimit:10;stroke-width:2px;}.cls-10{fill:#0d0c0c;}.cls-11{fill:#51361d;}.cls-12{fill:#5e4028;}</style></defs><g id="Layer_2" data-name="Layer 2"><g id="Main_Assets" data-name="Main Assets"><g id="Enemies"><g id="Ogre_-_Grave" data-name="Ogre - Grave"><path d="M5.85,84.31c25.51-.46,58.07,7,79.31,12.87,10.59-1.39,15.27-2.42,15.27-2.42l9.12-.69,8.11-34.19L67,26.78,12.37,37.48Z"/><path class="cls-1" d="M53.25,63.14,36.79,67.92a1.91,1.91,0,0,1-.92,0A77.51,77.51,0,0,1,11,58.32l-2.07-.47L6.55,77.57l1.88.84S16.24,88.33,31.24,94L42.09,78.28,59.64,75l15.14,8.8,3.55,13.77,33.17-3.81L114,74.52l-3.28-.65C100.45,79,85.6,76.76,82.81,76.27a1.77,1.77,0,0,1-.83-.36L68.9,66"/><path class="cls-2" d="M17.15,61.85c3.44,1.76-5.28,9.13-.53,16.34S29.56,87.87,33,90.58c5.29-7.54,7.58-9.86,9.32-12.34L59.47,75l15.15,8.68,2.53,8.87c.74,2.59,2.49,2.31,5.18,2.41,5.22.19,6.49-.2,9.53-1.35,4.15-1.57,7.69-.34,9.37-5.85s2.48-9.62-1.72-10.68-.42,1.79-10.25-.06-8.15-1.77-8.15-1.77L66.93,64.81,65.4,70.38s-1.1,3.39-5.64,2.27c-2.84-.7-6.43-.26-6.59-3.13-.09-1.47-1.32-3-1.35-5.73-3.51.49-12.53,3.4-12.53,3.4L35.87,68s-12.11-2.84-15-4.28"/><path class="cls-3" d="M114.33,94.32a138,138,0,0,0,2.79-22.65l.1,0a.5.5,0,0,0,.72-.39,45,45,0,0,0-4-23.84c-5.44-1.19-12.13-10-12.42-14.26a45.49,45.49,0,0,0-12.89-6.59h0c-.08-.29-.15-.58-.23-.88a.81.81,0,0,0-.42-.5c-18-8.82-36.28-7.75-38.49-7.58a.8.8,0,0,0-.42.16,8.71,8.71,0,0,0-.9.86h0a54.6,54.6,0,0,0-13.48,1.93l-1.52.62c-.57,2-4.6,5.14-5.38,5.46-4.89,2.06-6.78,3.21-11,3.37A34.11,34.11,0,0,0,5,48.52a.51.51,0,0,0,.53.64l.37,0C5.6,50.58.46,72.32,1.05,82.47c0,0,1.41,1.88,7,4.17,0,0,0,0,0,0,0-1,.43-23,4.58-37.56H7.12l7.16-.48L17,44.2a.93.93,0,0,1,.71-.44A171.64,171.64,0,0,1,49.16,44l.56.1L48.81,46a.56.56,0,0,0,0,.4l5.74,21.48a.59.59,0,0,0,.47.43L65.2,70.16a.58.58,0,0,0,.59-.25L78,51.81a.64.64,0,0,0,.1-.38l-.19-2.27.47.09A111.75,111.75,0,0,1,107,61.08a1,1,0,0,1,.45.59l1.71,6.16,1.79.87c-.09,8.3-1.66,18.19-3.11,25.61"/><path class="cls-4" d="M101.48,58.08c-10.22-4.82-3.08-4.29-14.06-11.94-7.16-5-5.63-8.73-3.78-11l-8.37-1.64-.19,14.65S91.43,52.78,101.48,58.08Z"/><path class="cls-4" d="M59.31,30.41,52.55,43.76s-25.87-.25-31.68-.21-4.69,1.79-5.75,3.69-2.18,1.69-10,1.76c.9-8.44,7.74-16.83,10.91-18.81-7.07,6-2.21,10.44,2,8.51,7.94-3.62,15.61,1.82,23-.31,2.28-.65,3.73-3.86.73-5.72s2.93-13.3,2.93-13.3l4.62-.8,6.95,2.82"/><path class="cls-5" d="M55.52,31.72,48.81,46a.56.56,0,0,0,0,.4l5.74,21.48a.59.59,0,0,0,.47.43L65.2,70.16a.58.58,0,0,0,.59-.25L78,51.81a.64.64,0,0,0,.1-.38L76.84,35.9"/><path class="cls-6" d="M48.81,46l5.71,21.88,11.27,2,3.63-5.31S66.89,67.18,61.93,66,55.76,64.76,55.67,59c0-2.46-1-5.28-1.63-8.13,2.31-.27,5.47-.65,6.22-2.85-.6-2.45-5.64-6.4-3.92-8L59,35.57S71.47,36,72.7,36.69s4,.49,4,.49l-.28-1.32L55.52,31.72,48.81,46"/><path d="M60.91,32.43,56.22,40.7a.3.3,0,0,0,0,.23l4,6.61a.43.43,0,0,0,.32.26l6.93,1.26a.44.44,0,0,0,.4-.14l5.34-4.87a.27.27,0,0,0,.06-.21L72.09,34.9"/><path class="cls-6" d="M88,25.25c-18-8.82-36.28-7.75-38.49-7.58a.8.8,0,0,0-.42.16c-.88.69-4.41,3.94-5.07,12.23a.79.79,0,0,0,.79.84c3.65,0,19,.34,43,8.43a.78.78,0,0,0,1-.5c.54-1.7,1.53-6.26-.38-13.08A.81.81,0,0,0,88,25.25Z"/><path class="cls-5" d="M55.43,17.61s-4.63.66-5.71,8.68c-.15,1.07,2.15,2.68,3.39,2.88,6.44,1,17.15,1.47,32.6,6.93,3,1,2.63-1,3.68-2.48l-.65-6.11-.32-2.09S71.78,17.33,55.43,17.61Z"/><path class="cls-7" d="M107.89,94.1c1.44-7.39,3-17.17,3.07-25.4l6.16,3a137.7,137.7,0,0,1-2.77,22.52"/><path class="cls-8" d="M110.13,94.32a5.26,5.26,0,0,0,.21-2.41c-.09-1.15-.47-3.17.08-4.12s1.26-4.08.78-5.61,1-3.23,1.13-5.78c.15-2-.42-2.35.76-4.62S114.71,70,114.71,70L111,68.7A253.89,253.89,0,0,1,108,94.3"/><path class="cls-7" d="M6,49.06S.44,72,1.05,82.47c0,0,1.41,1.88,7,4.17,0,0,0,0,0,0,0-1,.43-23,4.58-37.56"/><path class="cls-8" d="M5.7,85.06c.33-1.49-2.33-4.47-1.32-5.85.64-.87-1.29-3.38-.31-5A5.11,5.11,0,0,0,4.7,71c-.06-1.15-1-3.68-.44-4.63s1.81-3.57,1.41-5.08.92-3.24,1.14-5.78c.17-2-.33-2.33.77-4.62s-.17-2.14-.17-2.14l-1.66.45s-6.14,27-4.44,33.3"/><path class="cls-9" d="M88,25.25c-18-8.82-36.28-7.75-38.49-7.58a.8.8,0,0,0-.42.16c-.88.69-4.41,3.94-5.07,12.23a.79.79,0,0,0,.79.84c3.65,0,19,.34,43,8.43a.78.78,0,0,0,1-.5c.54-1.7,1.53-6.26-.38-13.08A.81.81,0,0,0,88,25.25Z"/><path class="cls-9" d="M88,25.25c-18-8.82-36.28-7.75-38.49-7.58a.8.8,0,0,0-.42.16c-.88.69-4.41,3.94-5.07,12.23a.79.79,0,0,0,.79.84c3.65,0,19,.34,43,8.43a.78.78,0,0,0,1-.5c.54-1.7,1.53-6.26-.38-13.08A.81.81,0,0,0,88,25.25Z"/><path class="cls-9" d="M6,49.06S.44,72,1.05,82.47c0,0,1.41,1.88,7,4.17,0,0,0,0,0,0,0-1,.43-23,4.58-37.56"/><path class="cls-9" d="M55.52,31.72,48.81,46a.56.56,0,0,0,0,.4l5.74,21.48a.59.59,0,0,0,.47.43L65.2,70.16a.58.58,0,0,0,.59-.25L78,51.81a.64.64,0,0,0,.1-.38L76.84,35.9"/><path class="cls-9" d="M107.89,94.07c1.44-7.39,3-17.16,3.07-25.37"/><path class="cls-9" d="M117.12,71.67a138.52,138.52,0,0,1-2.85,22.9"/><path class="cls-9" d="M6,49.06S.44,72,1.05,82.47c0,0,1.41,1.88,7,4.17,0,0,0,0,0,0,0-1,.43-23,4.58-37.56"/><path class="cls-9" d="M15.12,84.57c-2.27-.12-4.48-.17-6.6-.16"/><path class="cls-9" d="M78.15,95.52s-20.31-5.44-41.94-8.71"/><path class="cls-9" d="M68.9,66,82,75.91a1.77,1.77,0,0,0,.83.36c2.79.49,17.64,2.71,27.93-2.4"/><path class="cls-9" d="M8.43,78.41S16,88,30.5,93.74a1,1,0,0,0,1.19-.37L42,78.43a.42.42,0,0,1,.29-.19L59.47,75a.47.47,0,0,1,.31,0l14.84,8.63a.46.46,0,0,1,.21.28l3.56,13.8"/><path class="cls-9" d="M53.25,63.14,36.79,67.92a1.91,1.91,0,0,1-.92,0A77.51,77.51,0,0,1,11,58.32"/><path class="cls-9" d="M48.16,18.68A55,55,0,0,0,33.64,20.9a.94.94,0,0,0-.65.67L31.7,26.44l-8.2,4.49-6.41-1.08a1,1,0,0,0-.78.21A36.91,36.91,0,0,0,5,48.52a.51.51,0,0,0,.53.64l8.71-.58L17,44.2a.93.93,0,0,1,.71-.44,183,183,0,0,1,32,.33"/><path class="cls-9" d="M60.91,32.43,56.22,40.7a.3.3,0,0,0,0,.23l4,6.61a.43.43,0,0,0,.32.26l6.93,1.26a.44.44,0,0,0,.4-.14l5.34-4.87a.27.27,0,0,0,.06-.21L72.09,34.9"/><path class="cls-9" d="M88.62,26.63a49.19,49.19,0,0,1,12.83,6.31.68.68,0,0,1,.29.67l-.7,5.33,5.89,7.26,6.68,1.27a.74.74,0,0,1,.51.4,45.13,45.13,0,0,1,3.82,23.44.5.5,0,0,1-.72.4l-8-3.88-1.71-6.16a.91.91,0,0,0-.45-.58A111.42,111.42,0,0,0,78.39,49.25"/><path class="cls-9" d="M101.64,34.37s1.1,6.24,10.1,12.37l-1.69,0a.59.59,0,0,1-.36-.2l-8.21-8.81"/><path class="cls-9" d="M18.79,30.16s8.31-1.2,13.93-7.6"/><path class="cls-10" d="M130.33,97.35c-.05.15-1.87-.35-4.65-.88a77.91,77.91,0,0,0-10.25-1.34,61.86,61.86,0,0,0-10.36.19c-1.41.17-2.59.32-3.43.5l-1.4.26-4.93.85a88.09,88.09,0,0,1-10.55,1.25,104.22,104.22,0,0,1-10.49-.31c-2.84-.19-4.72-.37-4.72-.52s1.89-.28,4.73-.36,6.64,0,10.37-.39a96.36,96.36,0,0,0,10.28-1.71l4.88-1,1.48-.22c.88-.16,2.12-.28,3.6-.39a59.64,59.64,0,0,1,10.68.28,62.64,62.64,0,0,1,10.32,2.08C128.64,96.42,130.39,97.2,130.33,97.35Z"/><g id="Layer_728" data-name="Layer 728"><path class="cls-8" d="M20.17,75.39a36.34,36.34,0,0,1-8.14.37,0,0,0,0,0,0,.08s5.4,3.86,5.72,5.59"/><path class="cls-11" d="M67.54,1.18C61,2.08,56.77,8.52,57.67,13s15.89,10.2,18.88,1.8S77.27-.17,67.54,1.18Z"/><path class="cls-12" d="M63.43,2.59c-3.39,1.25,1-1.27-2.16,2.35C56.49,10.36,71,16.49,72.79,16.33c4.09-.38,3.39,0,4.34-2.46C77.38,11.35,80.23-3.62,63.43,2.59Z"/><path class="cls-11" d="M60.38,12.11S49.81,40.44,37.07,52.43,14.68,82.55,16.61,91.24a9.33,9.33,0,0,0,2.73,4.53c4.13-.25.65,0,6-.25,3.43-.16,14.62,3.82,17.56,1.4a17.21,17.21,0,0,0,3.53-4c8.18-12.61,3.79-26,11.14-43.8S66.3,21.78,70.38,17.66"/><path class="cls-12" d="M21.56,72.66C14,89,27,74.83,32.1,77.67s11.7,10.64,16.27,3.84,3.76-18,6.8-26S65.49,27.36,65.85,26.36s4.75-8.42-.25-7.79a5.8,5.8,0,0,1-6-2.91A158.31,158.31,0,0,1,40.47,49.9C38.91,49.2,26.88,62.11,21.56,72.66Z"/><path class="cls-10" d="M48.37,95.79c.14.31-3.75,2-8,2.35a21.21,21.21,0,0,1-6-.25c-1.69-.38-2.6-.63-2.68-.65s-1.05-.31-2.54-.62a29.07,29.07,0,0,0-5.52-.55c-4-.06-8.09.79-8.17.46s3.85-1.68,8.11-2a28.55,28.55,0,0,1,5.91.09c1.62.21,2.71.49,2.78.5l2.57.8a21.26,21.26,0,0,0,5.43.68C44.31,96.62,48.28,95.53,48.37,95.79Z"/><path class="cls-9" d="M42.88,96.92c0-.18.21-.17.31-.26a17.4,17.4,0,0,0,3.22-3.73c8.18-12.61,3.79-26,11.14-43.8,6.58-16,8.39-25.29,11.64-30"/><path class="cls-9" d="M59.14,15.26C56,23,47.22,42.89,37.07,52.43c-12.74,12-22.39,30.12-20.46,38.81a8.74,8.74,0,0,0,1.92,3.67,6.48,6.48,0,0,1,.81.86"/><path class="cls-8" d="M21.42,88.52A4.88,4.88,0,0,1,21.07,92a.21.21,0,0,1-.19.13,80.78,80.78,0,0,0-12,.7.19.19,0,0,1-.12-.36,50.83,50.83,0,0,0,9.1-7.32A.23.23,0,0,1,18,85.1a4.57,4.57,0,0,1,1.73,1A6.59,6.59,0,0,1,21.42,88.52Z"/><path class="cls-8" d="M43.56,89a6.65,6.65,0,0,0-.22,3.73.21.21,0,0,0,.19.17c1.13,0,8,.11,11.5.61a.19.19,0,0,0,.12-.36,34.7,34.7,0,0,1-8.4-7.3.2.2,0,0,0-.23-.06,3.42,3.42,0,0,0-1.56,1A8.33,8.33,0,0,0,43.56,89Z"/><path class="cls-8" d="M29.14,82.5c-.78-1.35.52-3,.52-3l6-4.48a.07.07,0,0,1,.12.06,43.66,43.66,0,0,0,0,6.74c-.18,2.25-1.46,2.79-2.82,2.79A5.35,5.35,0,0,1,29.14,82.5Z"/><path class="cls-9" d="M69.19,19.11c3.24.09,6.2-1.05,7.36-4.3,3-8.39.72-15-9-13.63C61,2.08,56.77,8.52,57.67,13a4.46,4.46,0,0,0,1.46,2.25"/><path d="M67.91,16.33c.16-.16.85.26,1.38,1A3.56,3.56,0,0,1,70,19c0,.08-.36.13-.81.11a2.88,2.88,0,0,1-.81-.08,3.23,3.23,0,0,0-.11-1.22C68.1,17.15,67.75,16.48,67.91,16.33Z"/><path d="M66.12,14.92c-.1.19-1.75-.53-3.38-.32a5.85,5.85,0,0,0-2.09.65,7.45,7.45,0,0,0-.88.56c-.09.06-.37-.19-.64-.55s-.38-.72-.26-.8A6.82,6.82,0,0,1,60,13.88a6.51,6.51,0,0,1,2.68-.43C64.73,13.55,66.26,14.75,66.12,14.92Z"/><path d="M19.67,86c-.05.06-.28,0-.67-.16a4.15,4.15,0,0,0-.63-.2c-.1,0-.2,0-.3-.06s-.15.17-.23.24a39.43,39.43,0,0,1-5.65,5.43c-.3.35.18.12.12.14a.12.12,0,0,0,0,0,0,0,0,0,0,0,0l0,0h0l.32,0c.84,0,1.8-.07,2.82-.08s2.06,0,3.09,0c.52,0,1,0,1.51.08.22,0,.29,0,.42.06s.19-.09.23-.17l.09-.18a3,3,0,0,0,.11-.29q.1-.31.18-.6a7.87,7.87,0,0,0,.17-1c.05-.59,0-1,.11-1s.31.29.45.94a5.11,5.11,0,0,1,.08,1.16,6.08,6.08,0,0,1-.07.71,3.63,3.63,0,0,1-.07.39c0,.17-.09.35-.14.53s-.13.28-.2.42a.63.63,0,0,1-.39.23,6.77,6.77,0,0,1-1,.06l-1.47.1c-1,.08-2,.18-3,.29L9,93.91l-.55,0c-.16,0-.14-.06-.2-.09l-.14-.1-.19-.17-.2-.19s-.2-.46-.15-.52a4.24,4.24,0,0,1,.11-.41l.07-.23S7.88,92,8,92l.28-.22c.38-.3.74-.6,1.18-.93l1.52-1A64.59,64.59,0,0,0,17.37,85c.2-.15.34-.31.57-.3a2,2,0,0,1,.57.22,3.39,3.39,0,0,1,.72.48C19.57,85.68,19.72,85.9,19.67,86Z"/><path class="cls-9" d="M30.73,96.31A.57.57,0,0,1,31,96c.9-.76,3.56-2.43,6.28,1a.67.67,0,0,1,.06.74"/><path d="M44.8,86.92c-.06,0,.07-.32.43-.7a4.07,4.07,0,0,1,.79-.64,1.65,1.65,0,0,1,.64-.27c.26,0,.4.19.61.38l.38.4.3.29.65.6c.46.41.93.83,1.44,1.24s1,.82,1.54,1.21l.78.57,1,.67,1.45,1c.37.3.69.59,1,.87s.37.42.42.56a3.42,3.42,0,0,1,.09.38,1.23,1.23,0,0,1-.16.49l-.1.15a.34.34,0,0,1-.16.16l-.21.12-.23.11a5.08,5.08,0,0,1-.62,0c-.9-.13-2-.24-3.13-.36L49.61,94,45,93.57l-1.34-.1a1.12,1.12,0,0,1-.38-.09.49.49,0,0,1-.31-.17.92.92,0,0,1-.14-.32,1.27,1.27,0,0,1-.09-.36c0-.25,0-.49-.06-.7s0-.34,0-.5a8,8,0,0,1,.1-.9c.22-1.1.64-1.68.75-1.63s0,.7,0,1.69c0,.25,0,.52.07.81s0,.28.08.43a2.83,2.83,0,0,0,.07.28.74.74,0,0,0,.1.22c.08,0,.18,0,.26,0l.13,0h.2l.58,0c1.53-.06,3.18-.09,4.65-.09l1.95,0c.05,0,.05,0,0,0a.07.07,0,0,0,0,0s.38.19.14-.12l0,0-.16-.14-.37-.32-.75-.67c-.5-.46-1-.94-1.46-1.43s-.91-1-1.32-1.47l-.58-.72-.26-.36-.14-.22c-.08-.09-.11-.26-.23-.29a1.57,1.57,0,0,0-.31.08,4,4,0,0,0-.66.29C45.11,86.84,44.86,87,44.8,86.92Z"/><path class="cls-9" d="M20.17,75.39a36.34,36.34,0,0,1-8.14.37,0,0,0,0,0,0,.08s5.4,3.86,5.72,5.59"/><path d="M29.18,82.65c-.11.09-.67-.69-.46-2a4.82,4.82,0,0,1,.24-1,2.54,2.54,0,0,1,.29-.62l.49-.42,1.7-1.47,1.72-1.46,1.4-1.11a3.32,3.32,0,0,1,.72-.51,1.39,1.39,0,0,1,.53-.12,1.41,1.41,0,0,1,.33,0,.59.59,0,0,1,.2.08l.1.07a1.31,1.31,0,0,1,.37.45,2.66,2.66,0,0,1,.08,1c0,.05,0,.47-.09,1.18,0,.4,0,1-.09,1.64s-.05,1.24-.06,2v1.23a2.09,2.09,0,0,1,0,.25l-.09.41a3.39,3.39,0,0,1-.28.71,3.54,3.54,0,0,1-2.2,1.64,4.29,4.29,0,0,1-2.19,0c-1.25-.33-1.79-1-1.7-1.11s.78.22,1.82.24a3.88,3.88,0,0,0,1.66-.35,2.18,2.18,0,0,0,1.18-1.15,1.17,1.17,0,0,0,.08-.36v-.16a0,0,0,0,0,0,0V81.6c-.05-.38-.09-.76-.13-1.12-.07-.73-.12-1.42-.15-2,0-.3,0-.57,0-.82s0-.23,0-.33v0s0,0,0,0,0,0,0,0,.06-.12,0-.13a.08.08,0,0,0-.06,0H34.5l0,0s-.12.08-.18.11l-1.89,1.24-1.9,1.21c-.4.26-.38.16-.55.47a4.4,4.4,0,0,0-.37.76C29.16,81.86,29.34,82.59,29.18,82.65Z"/><path class="cls-11" d="M29.42,66.94c.65-4.43,5.24,1.47,7.11-.35,0,0,1.11,3.09-3.55,4S28.29,67.84,29.42,66.94Z"/><path class="cls-11" d="M48.37,53.49A3.78,3.78,0,0,1,44,53s-1.25,2.51,1.21,2.91S48.37,53.49,48.37,53.49Z"/></g></g></g></g></g></svg>