<svg xmlns="http://www.w3.org/2000/svg" viewBox="0 0 78.01 48.89"><defs><style>.cls-1{fill:#aadb3e;}.cls-2{fill:#95c931;}.cls-3{fill:#a7a9ac;}.cls-4{fill:#a97c50;}.cls-5{fill:#d1d3d4;}.cls-6{fill:#0d0c0c;}.cls-7{fill:none;stroke:#000;stroke-miterlimit:10;stroke-width:2px;}</style></defs><g id="Layer_2" data-name="Layer 2"><g id="Main_Assets" data-name="Main Assets"><g id="Enemies"><g id="Gremlin_-_Grave" data-name="Gremlin - Grave"><path class="cls-1" d="M75.16,43.9c-5.69.76-27.74,2-37.71-.22-14.2-3.12-18.13-.2-27-.35,0,0-2.41-7.22,6.31-7.22,0,0,1.16-7.16,11.25-4.28,0,0,5.53-8.4,15.35-.63l8.7,2s9.46-5.83,13.84,4.16C65.93,37.34,74.05,36.41,75.16,43.9Z" transform="translate(-0.11)"/><path class="cls-2" d="M20.9,32.17s-2.23,3.41,3.83,5.14,5.6.53,7.83.6,1.88-2,4-3.52c0,0-2.42,2.69,1.8,4s9.45.2,10.56-1.92l2.63-2.77s-3.75,5.73,1.52,6.9a22.62,22.62,0,0,0,10.81-.75s-.08,4.22,6.35,4.22c0,0-13.33,2.36-22.86,3.82-16.8-3.2-23.92-.38-37.79-3.82,0,0,0-3.82,1.61-5.66,0,0,0,3,4.66,2.91s4.91-2.91,4.91-2.91A6.71,6.71,0,0,0,16.93,37l1.42-4.44,2.45-1,6.12-.05,2.94-1.63a3.62,3.62,0,0,0,2.78,2.72c2.36.5.8,2.88.8,2.88s-2.22-2.34-3.54-2.64-5.15-1-5.15-1Z" transform="translate(-0.11)"/><path class="cls-3" d="M40.94,31.63,37.46,15.32a.42.42,0,0,1,.34-.5l8.68-1.61a88.9,88.9,0,0,1-1,18.42" transform="translate(-0.11)"/><path class="cls-4" d="M42.6,13.54a45.44,45.44,0,0,1-2-8.33C43.24,1.78,40,.07,36.78,1.52c-.61.28-1.53,1.31-.77,3.33.64,3.19,1.26,6.89,2,9.57" transform="translate(-0.11)"/><path class="cls-5" d="M43.39,31.2c0-10.87-1.56-16.42-1.56-16.42l4.44-1s.39,12.86-1,17.15" transform="translate(-0.11)"/><path class="cls-6" d="M78.11,45.47a8.65,8.65,0,0,1-1.61-.42,18.22,18.22,0,0,0-4.3-.5,52,52,0,0,0-13.09,2.16c-1.17.34-2.34.66-3.49,1-.58.18-1.12.37-1.73.53a13.65,13.65,0,0,1-1.83.4,25.49,25.49,0,0,1-6.6,0c-3.8-.48-6.28-1.06-6.44-1.06s-2.65-.65-6.24-1.14l-1.39-.13c-.47,0-1,0-1.47,0-.94,0-2.09.16-3.26.27a49.2,49.2,0,0,1-7.33.21,27.17,27.17,0,0,1-7.23-1.33,20.34,20.34,0,0,0-6-1.3,31.6,31.6,0,0,0-4.35.22,4.83,4.83,0,0,1-1.68.09,5.15,5.15,0,0,1,1.6-.53,22,22,0,0,1,4.43-.65c.47,0,1,0,1.47,0s1,.08,1.57.19c1.08.16,2.16.48,3.27.76a26.71,26.71,0,0,0,6.93,1,51.13,51.13,0,0,0,7.08-.47c1.13-.15,2.21-.3,3.38-.4.57,0,1.11,0,1.64,0L33,44.4c3.84.41,6.31,1,6.47,1s2.66.64,6.27,1.2a23.09,23.09,0,0,0,6.06.21,10.21,10.21,0,0,0,1.62-.29c.54-.12,1.15-.31,1.73-.46,1.17-.33,2.38-.61,3.58-.9a47.33,47.33,0,0,1,13.51-1.49,15.49,15.49,0,0,1,4.41.93A3.69,3.69,0,0,1,78.11,45.47Z" transform="translate(-0.11)"/><path d="M48.92,37.91c-.37,0-.58-1.68.18-3.23a7.15,7.15,0,0,1,1.32-2,7.58,7.58,0,0,1,.83-.75c.1-.07.48.33.84.9s.6,1.06.53,1.11-.32.16-.72.44a7.13,7.13,0,0,0-1.34,1.16C49.64,36.55,49.22,37.9,48.92,37.91Z" transform="translate(-0.11)"/><path class="cls-7" d="M75.14,44.66c.38-2.41-2.13-8.74-9.21-7.32,0,0-3.41-7.65-10.49-5.57a14,14,0,0,0-3.66,1.59" transform="translate(-0.11)"/><path class="cls-7" d="M28,31.41S29,28,37.2,28a10.23,10.23,0,0,1,3,.44" transform="translate(-0.11)"/><path d="M32.05,34.55c-.1.07-.36-.18-.75-.48a5,5,0,0,0-1.52-.81A13.64,13.64,0,0,0,28,32.84l-.87-.14c-.09,0-.09-.4,0-.84s.25-.77.34-.75.39.1.91.28a10,10,0,0,1,1.86.84,4.25,4.25,0,0,1,1.51,1.42C32.07,34.14,32.14,34.49,32.05,34.55Z" transform="translate(-0.11)"/><path class="cls-7" d="M9.58,44.11s-1.43-7.6,7.21-8c1-3.87,4-5.84,11.25-4.28" transform="translate(-0.11)"/><path d="M34.86,36.28c-.07-.05,0-.32.29-.77a7.27,7.27,0,0,1,1.24-1.75,9.64,9.64,0,0,1,2.38-2,8.44,8.44,0,0,1,1.6-.77,8.26,8.26,0,0,1,1.78-.51,14.76,14.76,0,0,1,6.75.32A19.25,19.25,0,0,1,52,31.92c.31.15.31.78,0,1.36s-.79.95-1.05.82A20.09,20.09,0,0,0,48.25,33a13.6,13.6,0,0,0-5.84-.77A10,10,0,0,0,37,34.45a12.91,12.91,0,0,0-1.5,1.36C35.18,36.15,34.93,36.32,34.86,36.28Z" transform="translate(-0.11)"/><path class="cls-7" d="M40.94,31.63,37.46,15.32a.42.42,0,0,1,.34-.5l8.68-1.61a88.9,88.9,0,0,1-1,18.42" transform="translate(-0.11)"/><path class="cls-7" d="M42.6,13.54a45.44,45.44,0,0,1-2-8.33C43.24,1.78,40,.07,36.78,1.52c-.61.28-1.53,1.31-.77,3.33.64,3.19,1.26,6.89,2,9.57" transform="translate(-0.11)"/><path class="cls-1" d="M28.24,39.15A5.29,5.29,0,0,0,24,40.32c4-1,2.79,3.09,7.47,2C31.91,40.74,28.89,39.24,28.24,39.15Z" transform="translate(-0.11)"/><path class="cls-1" d="M43.52,41a7.27,7.27,0,0,0-5.8,1.61c2.59-.42,2.86,1.12,4.9,1.36s3.93,0,5.36,1.36C47.1,41.34,44.41,41.15,43.52,41Z" transform="translate(-0.11)"/></g></g></g></g></svg>