<svg xmlns="http://www.w3.org/2000/svg" viewBox="0 0 208.27 229.31"><defs><style>.cls-1{fill:#b78c62;}.cls-2,.cls-5{fill:#c49a6c;}.cls-3,.cls-8{fill:none;}.cls-19,.cls-3,.cls-5,.cls-6,.cls-8{stroke:#000;stroke-miterlimit:10;}.cls-3,.cls-5,.cls-6{stroke-width:2px;}.cls-4,.cls-6{fill:#6d4524;}.cls-7{fill:#939598;}.cls-19,.cls-8{stroke-width:1.5px;}.cls-9{fill:#6d6e71;}.cls-10{fill:#58595b;}.cls-11{fill:#414042;}.cls-12{fill:#484a4c;}.cls-13{fill:#646566;}.cls-14{fill:#797a7c;}.cls-15{fill:#78787a;}.cls-16{fill:#4e4f51;}.cls-17{fill:#494849;}.cls-18{fill:#a7a9ac;}.cls-19{fill:#fff;}.cls-20{fill:#e8e1c4;}.cls-21{fill:#d8d1b4;}</style></defs><g id="Layer_2" data-name="Layer 2"><g id="Enemies_copy_2" data-name="Enemies copy 2"><g id="Layer_508_copy" data-name="Layer 508 copy"><g id="Layer_512_copy" data-name="Layer 512 copy"><g id="Layer_516_copy" data-name="Layer 516 copy"><path class="cls-1" d="M44.1,156.32s-4.62,21.18-2.6,39.09a30.72,30.72,0,0,0,2.17,8.18,3.51,3.51,0,0,0,2.91,2.16L60.15,207a3.49,3.49,0,0,0,3.48-2l2.71-5.68A3.49,3.49,0,0,0,65.23,195l-6-4.33s1.18-6.8-.42-12.58a24.43,24.43,0,0,0,10.06-15.22c1.79-8.13-1.55-9.23-1.55-9.23"/><path class="cls-2" d="M63.66,161.9c-4,3.2-8.26,12-7,14.89a10.25,10.25,0,0,0-1,9.87s-4.36,1.36-.86,3.43,5.77,5.46,8.5,4.33-.8-6.28-3.75-6.58l-.3-10.67s8.39-7.81,9-11a21.49,21.49,0,0,0,0-6.51"/><path class="cls-3" d="M59.53,187.84a30.18,30.18,0,0,0-.74-9.71,24.43,24.43,0,0,0,10.06-15.22c1.79-8.13-1.55-9.23-1.55-9.23"/><path class="cls-3" d="M44.1,156.32s-4.62,21.18-2.6,39.09a30.72,30.72,0,0,0,2.17,8.18,3.51,3.51,0,0,0,2.91,2.16L60.15,207a3.49,3.49,0,0,0,3.48-2l2.71-5.68A3.49,3.49,0,0,0,65.23,195l-1.45-1"/><path d="M54.29,186.64a7.18,7.18,0,0,1,2.67-.4,3,3,0,0,1,.73,0,2.61,2.61,0,0,1,.76.26l1.3.68,1.38.73.35.19a2,2,0,0,1,.26.17l.16.13.65.51a9,9,0,0,1,2.35,2.58,4,4,0,0,1,.47,1.83,4.56,4.56,0,0,1-.28,1.62,6.46,6.46,0,0,1-1.14,2.1,7.13,7.13,0,0,1-.7.71,5.25,5.25,0,0,1-.82.55,6.52,6.52,0,0,1-2.24.78,6.73,6.73,0,0,1-1.57,0,7,7,0,0,1-.87-.17l-.73-.23-3-1-1.52-.49c-.28-.1-.45-.14-.8-.27a2.67,2.67,0,0,1-.85-.58,2.38,2.38,0,0,1-.52-.82c-.12-.33-.14-.49-.21-.73-.11-.45-.21-.87-.31-1.26-.38-1.57-.57-2.62-.42-2.67s.62.91,1.25,2.39c.16.37.32.77.5,1.2a2,2,0,0,0,.58,1,1.22,1.22,0,0,0,.44.22l.71.16,1.57.34,3.09.69.71.16a3.31,3.31,0,0,0,.54.06,5,5,0,0,0,1.05-.11,4.58,4.58,0,0,0,1.49-.63,4.85,4.85,0,0,0,.51-.39,4.15,4.15,0,0,0,1.33-1.78,2.31,2.31,0,0,0,.08-1.94,7.53,7.53,0,0,0-1.73-2.2l-.57-.55-.14-.13-.07-.06-.32-.22-1.27-.87-1.18-.83a1.54,1.54,0,0,0-1-.33C55.35,187,54.29,186.8,54.29,186.64Z"/></g><g id="Layer_515_copy" data-name="Layer 515 copy"><path class="cls-4" d="M183.39,201.39c3.92-1.74,12.51,2.21,15.47,5.5s-1.27,10.78-3.44,14.23c-1.78,2.83-8.43,3.36-14,2.44s-5.1-3.07-7.64-4.9-4.59-5.57-3.06-11l-8.86-9.16L172,190.87Z"/><path class="cls-1" d="M166,150.86s7.77,20.23,8.47,38.24a31.36,31.36,0,0,1-1.08,9.13,2.4,2.4,0,0,1-1.77,1.71l-14.52,3.65a2.46,2.46,0,0,1-2.63-1L150,196.06a2.46,2.46,0,0,1,.31-3.12l5.92-5.81s-2.19-6.54-1.49-12.49a24.48,24.48,0,0,1-12.24-13.53c-3-7.77.13-9.36.13-9.36"/><path class="cls-2" d="M152.59,160.31s3.35,9,9.43,13.28c0,0,.59,6.2,1.19,10.35.35,2.46,2.17,5.38-1.1,6.93s-5.81,6.13-1.21,6.81-1.88,4.38,6.06,2.85,6.74.39,7.5-9.66-4.39-27.54-4.39-27.54"/><path class="cls-5" d="M150,193.25l-2.84-5.32a2.73,2.73,0,0,1,1.16-3.7l6.54-3.38,2.07,2,1.33.8"/><path class="cls-6" d="M163,184.73a8.14,8.14,0,0,1-1.55-1.88c-1.72-4.88-8.41-6.73-11.8-2.66-2.63,3.14-3,6.86,2.15,8.87a19.09,19.09,0,0,0,5.32,3.61S164.62,192.49,163,184.73Z"/><path class="cls-7" d="M182.27,200.88l.83-6.83a.05.05,0,0,1,.1,0l4.68,6.93"/><path class="cls-7" d="M171.42,217.83l-1.93,5.25a.16.16,0,0,0,.18.19l6.44-1.71"/><path class="cls-7" d="M199.07,213.58l4.84,6.72s0,.07,0,.07l-7.54-.65"/><path d="M175.23,213.71c-.32.17-2.26-3.16-4.89-5.91a30.64,30.64,0,0,0-3.84-3.49,16.74,16.74,0,0,0-2-1.36c-.21-.14-.08-.69.24-1.29s.82-.93,1.07-.77a18.85,18.85,0,0,1,2.12,1.69,27.47,27.47,0,0,1,3.73,4.12C174.09,209.9,175.51,213.59,175.23,213.71Z"/><path d="M188.92,204.48c-.06.16-1.13-.07-2.67-.66a32.23,32.23,0,0,1-5.4-2.73,33.53,33.53,0,0,1-4.95-3.71,18.35,18.35,0,0,1-2.09-2.2c-.21-.26.08-.82.65-1.18s1.13-.5,1.29-.29a19.59,19.59,0,0,0,1.73,2.07,37.17,37.17,0,0,0,4.34,3.89,54.07,54.07,0,0,0,4.84,3.3C188,203.8,189,204.32,188.92,204.48Z"/><path class="cls-3" d="M183.39,201.39c3.92-1.74,12.51,2.21,15.47,5.5s-1.27,10.78-3.44,14.23c-1.78,2.83-8.43,3.36-14,2.44s-5.1-3.07-7.64-4.9-4.27-5.85-2.74-11.24"/><path class="cls-3" d="M154.66,178.87a24,24,0,0,1,.08-4.23,24.48,24.48,0,0,1-12.24-13.53c-3-7.77.13-9.36.13-9.36"/><path class="cls-3" d="M166,150.86s7.77,20.23,8.47,38.24c.12,3.07,1.29,9.52-2.85,10.84s-10.47,3.58-14.52,3.65-6.91-5.41-7.07-6.61-.53-3.21.31-4l2.95-2.9"/><path d="M158.26,187.16c.08,0,.09.58-.42,1.23a4.53,4.53,0,0,1-2.54,1.35,10.15,10.15,0,0,1-2.85.14,11.18,11.18,0,0,1-1.36-.21c-.15,0-.16-.42,0-.85s.33-.75.45-.72a9.61,9.61,0,0,0,1.14.3,11,11,0,0,0,2.48.2,4.32,4.32,0,0,0,2.26-.67C157.92,187.56,158.14,187.12,158.26,187.16Z"/><path class="cls-7" d="M189.79,218.58a4.17,4.17,0,0,0-1.66,3.58l8.26,6a0,0,0,0,0,.07-.05,61.91,61.91,0,0,1-2.38-9.41A3.55,3.55,0,0,0,189.79,218.58Z"/><path class="cls-7" d="M193.23,206.74c-1.74-1.64-.94-2.65-.94-2.65l8.49-2.88a0,0,0,0,1,0,.06l-3.81,7a3.69,3.69,0,0,1-1.85-.09A7.69,7.69,0,0,1,193.23,206.74Z"/><path d="M191.85,217.89c0-.07.2-.18.61-.22a2.29,2.29,0,0,1,1.7.56l.26.26a1.71,1.71,0,0,1,.17.33,7.34,7.34,0,0,0,.19.8l.21.77c.16.52.33,1.07.51,1.63.42,1.29.86,2.61,1.25,3.8.16.5.32,1,.48,1.46a1.91,1.91,0,0,1,.13.6l0,.5a2,2,0,0,1-.17.46.58.58,0,0,1-.22.26,1.29,1.29,0,0,1-.7.21,8.84,8.84,0,0,1-.86-.46L193.08,227l-3.57-2.91-1-.76-.24-.19-.37-.26-.38-.28s-.07,0-.08-.07v-.35a7.76,7.76,0,0,1,.08-.84,3.72,3.72,0,0,1,.65-1.63c.84-1.13,1.69-1.42,1.75-1.33s-.53.72-1,1.75a3.22,3.22,0,0,0-.23.85,3.59,3.59,0,0,0,0,.47,1.09,1.09,0,0,0,0,.31c0,.1.08.13.16.16a.39.39,0,0,1,.14.06l.27.16,1.09.65c1.44.89,2.84,1.83,3.89,2.55.15.07.1,0,.12,0l0,0c0-.06.18.34.2,0v-.1l0-.21c-.07-.28-.13-.56-.19-.85l-.36-1.76c-.11-.59-.2-1.18-.28-1.74,0-.29-.07-.56-.09-.83a5,5,0,0,1,0-.71c0-.05,0-.12,0-.15l-.1-.12a2.1,2.1,0,0,0-1.09-.71C192.07,218,191.85,218,191.85,217.89Z"/><path class="cls-8" d="M199.15,213.38c.38,1.77,4.76,6.92,4.76,6.92s0,.07,0,.07-6.19-.9-8-.45"/><path d="M194.85,208c0-.07.22-.09.53-.07a2.41,2.41,0,0,0,1.07,0,1.36,1.36,0,0,0,.21-.1,1.22,1.22,0,0,0,.09-.27l0-.13.09-.23.18-.46c.25-.63.54-1.29.84-1.95.15-.33.31-.65.46-1l.11-.24s0,0,0-.06v-.08c0-.1,0-.13-.05-.12a.55.55,0,0,0-.14.09l0,0s.09-.06-.05-.07c-1,.32-2.45.74-3.88,1-.35.08-.73.15-1.06.21h-.21c-.08,0-.17,0-.2.08-.15.26-.08.54.17,1,.46.87.93,1.45.81,1.57s-.75-.23-1.54-1.08a3.18,3.18,0,0,1-.57-.9,1.9,1.9,0,0,1-.07-1.37c.05-.1.06-.27.17-.31l.34-.14a6.53,6.53,0,0,1,.73-.29c.35-.11.66-.22,1-.35,1.32-.48,2.61-1,3.62-1.46l2.41-1,.7-.25c.18-.07.18,0,.21,0l.16,0a.58.58,0,0,1,.3.11,1.79,1.79,0,0,1,.26.2.65.65,0,0,1,.18.39,1,1,0,0,1,0,.33v.2l-.13.32-.12.33-.26.4-.5.81c-.17.26-.34.53-.5.8l-.24.39-.15.22-.57.89-1.12,1.76c-.19.31-.38.6-.55.89a2.64,2.64,0,0,1-.34.49l-.58.09a2.39,2.39,0,0,1-1.46-.37C195,208.22,194.83,208.1,194.85,208Z"/><path class="cls-8" d="M182.27,200.88c.31-1.56.83-6.83.83-6.83a.05.05,0,0,1,.1,0s2.39,5.24,4.68,6.93"/><path class="cls-8" d="M172,216.87c-.11,1.83-2.51,6.21-2.51,6.21a.16.16,0,0,0,.18.19s4.61-2,6.44-1.71"/></g><g id="Layer_514_copy" data-name="Layer 514 copy"><path class="cls-1" d="M74.24,214.79a2.27,2.27,0,0,0-.14,1c-.08,5,5.44,5.24,8.68,5.4s16.67.48,16.71-2,2.24-8,.28-19.44-19.42-2.1-19.42-2.1-2.18,10.44-.21,15.39C80.14,213,75.49,212.23,74.24,214.79Z"/><path class="cls-2" d="M94.38,202.08c-.35,4.08,2.37,4.64.28,10s3.06,7.06,1.27,8.24c4.18,1,3.08-3,5.13-12.19s-1.43-8.91-1.43-8.91"/><path class="cls-2" d="M135,213.24c1.78-5.08,0-14.85,0-14.85s-17.17-9.88-19.46,1.55-.24,16.92-.27,19.44,13.4,2.59,16.64,2.51,8.76-.11,8.83-5.15a3,3,0,0,0-.57-2"/><path class="cls-1" d="M114.5,203.32s0,14.36,2,16.52,21.65,2.5,22.39,0-16.21.13-15.58-4.82-3.22-3.75-1.82-13.06"/><path class="cls-3" d="M80.16,212.8c-2-5,.19-15.19.19-15.19s17.45-9.38,19.42,2.1-.25,16.92-.28,19.44-13.47,2.21-16.71,2-8.76-.36-8.68-5.4a3.45,3.45,0,0,1,.14-1"/><path class="cls-3" d="M135,213.24c1.78-5.08,0-14.85,0-14.85s-17.17-9.88-19.46,1.55-.24,16.92-.27,19.44,13.4,2.59,16.64,2.51,8.76-.11,8.83-5.15a3,3,0,0,0-.57-2"/><path d="M84.56,213.16c0,.27-2.81-.18-5.47.09a6.55,6.55,0,0,0-3.21,1,2,2,0,0,0-.75,1c0,.11-.51.09-1,0s-.89-.45-.8-.7a4.5,4.5,0,0,1,.35-.63,3.93,3.93,0,0,1,1.23-1.14,7.57,7.57,0,0,1,4.17-.86C82,211.94,84.63,212.9,84.56,213.16Z"/><path d="M132.32,213.5c0-.27,2-.91,4.19-.91a7.75,7.75,0,0,1,3.14.6,3.79,3.79,0,0,1,1.4,1c.13.16-.14.53-.6.82s-.89.49-.94.42a2.2,2.2,0,0,0-.72-.66,6.58,6.58,0,0,0-2.4-.82C134.44,213.64,132.36,213.77,132.32,213.5Z"/><g id="Layer_929" data-name="Layer 929"><path class="cls-9" d="M76.93,187a28.87,28.87,0,0,1-1.39,13.09l32.37,8.15,32.58-7.61s-3.35-6.7-1.79-12.75"/><path class="cls-10" d="M71.66,167.75s4.53,10.68,1.21,19.1l34,9.48,35.72-9.3s-3.89-10.22.24-17.37"/><polygon class="cls-11" points="62.86 150.86 69.58 171.37 106.45 180.66 145.1 172.59 149 156.99 151.91 132.65 58.19 125.98 62.86 150.86"/><line class="cls-7" x1="106.45" y1="180.66" x2="105.74" y2="157.7"/><path d="M105.74,157.7c.44,0,1.49,21.86,1.5,22.25a.75.75,0,0,1-.79.71.76.76,0,0,1-.84-.66C105.6,179.61,105.29,157.71,105.74,157.7Z"/><line class="cls-7" x1="106.74" y1="196.33" x2="106.56" y2="186.43"/><path d="M106.56,186.43c.45,0,1,9.42,1,9.59s-.36.3-.81.31-.81-.12-.81-.28S106.11,186.44,106.56,186.43Z"/><line class="cls-7" x1="107.74" y1="207.23" x2="107.51" y2="200.06"/><path d="M107.51,200.06c.45,0,1,6.8,1,6.92s-.36.23-.8.25-.82-.08-.82-.2S107.06,200.07,107.51,200.06Z"/><path class="cls-12" d="M110.72,149c.82,4.3,1.49,8.69,2,12.36a10.14,10.14,0,0,0,10.22,8.74l23.22-2.48,5.53-33.15-42,4"/><path class="cls-13" d="M108.18,180.12c.84,5.06,1.47,7.42,8,6.76s20.11-2.11,24.61-7.31c1-1.22-1-4-.13-6.63"/><path class="cls-14" d="M112.3,194.42c.71,4.11.89,6.07,7.12,5.64,5-.35,14.57-1.94,20.25-4.38-.89-1.49-2-6.27-1.15-7.06"/><path class="cls-3" d="M77.05,188a29.21,29.21,0,0,1-1.18,11.12.87.87,0,0,0,.61,1.14l31.22,7.87a.82.82,0,0,0,.41,0l31.35-7.33a.87.87,0,0,0,.62-1.18c-.85-2.05-2.59-7.13-1.38-11.81"/><path class="cls-3" d="M72.92,171.58c1,3.65,1.91,9.33.27,14.39a.87.87,0,0,0,.59,1.13l32.83,9.17a.9.9,0,0,0,.46,0l34.57-9a.88.88,0,0,0,.62-1.11c-.68-2.16-2.19-8-.78-13.25"/><path class="cls-3" d="M62.87,150.91l6.56,20a.85.85,0,0,0,.62.57l36.2,9.14a.9.9,0,0,0,.4,0l37.91-7.92a.87.87,0,0,0,.67-.65L149,157s0-.07,0-.11l2.79-23.36a.87.87,0,0,0-.81-1l-91.67-6.52a.87.87,0,0,0-.92,1l4.45,23.7A.36.36,0,0,0,62.87,150.91Z"/></g></g><g id="Layer_511_copy" data-name="Layer 511 copy"><polygon class="cls-10" points="42.57 148.07 31.3 149.68 32.52 163.15 42.7 162.11 42.57 148.07"/><path class="cls-9" d="M31.81,151.35c.46,2.19,3.43.51,6,.09a1.83,1.83,0,0,0-.77-2.73l-5.43.71"/><path class="cls-3" d="M41.79,148.18,32,149.59a.68.68,0,0,0-.59.75l1.1,12.11a.69.69,0,0,0,.76.63l8.85-.91a.69.69,0,0,0,.63-.69l-.12-12.62A.7.7,0,0,0,41.79,148.18Z"/><polygon class="cls-11" points="70.74 137.82 37.18 143.16 39.73 163.89 72.93 161.13 70.74 137.82"/><path class="cls-12" d="M37.72,144.26s1.52,6.06,6.54,5.36S72,146.73,72,146.73l-.64-11.62-8.14,4.19"/><path class="cls-3" d="M70,137.93l-32.17,5.12a.7.7,0,0,0-.58.77l2.39,19.41a.69.69,0,0,0,.75.61l31.83-2.66a.69.69,0,0,0,.63-.75l-2-21.87A.71.71,0,0,0,70,137.93Z"/></g><g id="Layer_513_copy" data-name="Layer 513 copy"><polygon class="cls-10" points="168.34 147.5 179.56 149.44 177.96 162.86 167.81 161.53 168.34 147.5"/><path class="cls-9" d="M171.55,158.69s3.92,1.44,6.77,1.18l1.17-9.78-6.39-1.94"/><path class="cls-3" d="M169.12,147.64l9.79,1.68a.71.71,0,0,1,.58.77L178,162.17a.69.69,0,0,1-.78.6l-8.82-1.16a.69.69,0,0,1-.61-.71l.48-12.61A.69.69,0,0,1,169.12,147.64Z"/><polygon class="cls-11" points="140.48 136.46 173.87 142.75 170.73 163.4 137.63 159.69 140.48 136.46"/><path class="cls-12" d="M142.8,140l1.83,8.11a8,8,0,0,0,6.44,6.11l20.53,3.48,1.61-15.08-26.77-4.52"/><path class="cls-3" d="M141.2,136.59l32,6a.7.7,0,0,1,.56.79l-2.94,19.33a.69.69,0,0,1-.76.59l-31.75-3.56a.69.69,0,0,1-.61-.78l2.68-21.8A.69.69,0,0,1,141.2,136.59Z"/></g></g><g id="Layer_510_copy" data-name="Layer 510 copy"><path class="cls-11" d="M14.67,136.45c72-15.48,183.47-.73,183.47-.73l3.13-15L10,117.71Z"/><path class="cls-2" d="M147.43,138.53c-48.65,16.25-82.49,0-82.49,0L8.78,97.67l4.08-43.52L104.14,37l86,13.2,12.58,42.71Z"/><path class="cls-1" d="M60.92,131c4.77-3.71-15.58,5.62,25.68,13.47-11.82-6.33-9.69-14.22-7.71-18.65s7.07-11.66,25.25-12.26c19.39-.64,32,7.21,38.16,12.54,26.74,9.62-15.46-25.52-17.58-31-12.52-7.2-11.39-30.38-1.34-28.69,1.52.26-.9,10.06,1.86,14.16,4.67,6.93,19,9.11,35.13,5.76,19-4,26.19-9.41,34-.36s5.53-13.24,5.53-13.24L176.5,54.06l-47.05-7.84-24.4,17.4L58.38,47.5,11.92,61.39v24.3s9.64,12,28,16.11c-26.72-17.06-20.49-23.33-15.53-22C29.86,81.35,30.93,85,55,85.41c14,0,23.43-.43,28.29-6.32s6.67,7.32,5.38,9.5C78.23,106.14,60.92,131,60.92,131Z"/><path class="cls-9" d="M90.07,83.31,63,97.28a3.52,3.52,0,0,1-1.59.39,137.9,137.9,0,0,1-46.75-8.29l-3.77-.12,2.68,35.2,3.56.82s17,14.62,45.13,19.42L75.8,113.52l29.46-11.78,29.43,10.17,15.69,32.79s28.74-.72,45.5-17.47l6.81-1.58-2.75-43.31H194C177.81,94.76,151.16,96,146.11,96.09a3.43,3.43,0,0,1-1.57-.35l-26.2-12.81"/><path class="cls-15" d="M26.69,93.42c6.6,1.89-6.09,17.73,4.66,28.67s25.87,12.45,32.73,16c6.66-15,9.85-19.79,12-24.7L105,101.86l29.38,9.94,7.46,14.61c2.17,4.26,5.14,3.17,9.87,2.43,9.15-1.45,11.24-2.58,16.14-5.62,6.71-4.16,13.3-3.21,14.34-13.4s1-17.63-6.65-18-.12,3.27-17.89,3.41-14.83-.29-14.83-.29L114.5,81.54l-.77,10.23s-.75,6.29-9,5.9c-5.19-.25-11.29,1.74-12.57-3.21-.65-2.53-3.32-4.75-4.31-9.52-5.94,2-20.68,10.22-20.68,10.22l-5.7,2.51s-22.1-.82-27.57-2.34"/><path class="cls-10" d="M204.38,76.31l.18,0a.89.89,0,0,0,1.12-.93c-.37-4.91-2.57-23.55-15.14-40.19-7.21-4-23.8-13.39-25.76-20.64a86.63,86.63,0,0,0-25.53-7.06h0c-.23-.48-.45-1-.7-1.45a1.43,1.43,0,0,0-.91-.74c-34.44-9.2-65.91-1.08-69.7,0a1.38,1.38,0,0,0-.68.42A14.33,14.33,0,0,0,66,7.53h0a97,97,0,0,0-22.84,8C24.11,27.94,3.3,41.53,1,74.32a.92.92,0,0,0,1.14.94l.64-.17c-.1,2.63-1.62,42.3,2.88,59.8,0,0,3.1,2.8,13.62,4.87,0,0,.07,0,.06,0-.32-1.79-7.1-40.16-4.86-67.05L4.81,74.55l12.31-3.29,3.31-8.58a1.66,1.66,0,0,1,1.09-1A306.2,306.2,0,0,1,76.39,51.31l1,0L76.48,55a1.08,1.08,0,0,0,.07.71L93.93,91.19a1,1,0,0,0,.95.58l18.43-.3a1.06,1.06,0,0,0,1-.64l15.11-35.76a1,1,0,0,0,0-.69l-1.1-3.9h.85c18.34.88,36.61,5,54,10.85a1.68,1.68,0,0,1,1,.86l5.09,10.16,3.42.9c4.92,26.52,3,64,2.88,65.74a0,0,0,0,0,.06.05c10.26-3.12,11-7.29,11-7.29A245,245,0,0,0,204.38,76.31Z"/><path class="cls-1" d="M39.92,26.69l.58-8.89h0A74.35,74.35,0,0,0,16,37.62l11.19-.29Z"/><path class="cls-16" d="M172.44,58c-19.47-4.9-6.84-6.41-28.59-16-14.21-6.26-12.81-13.28-10.36-17.8H118.34L123,49.76S153.11,52.16,172.44,58Z"/><path class="cls-16" d="M89.43,24.15,82.21,49.76S37,58.18,26.9,60.23,19.33,65,18.13,68.64s-3.21,3.69-16.75,6.47C0,60.08,9.11,43.11,14,38.58c-10.28,12.88-.27,19,6.45,14.15,12.62-9,27.86-2.19,40.09-8.44,3.74-1.91,5.17-8-.7-10.22s.56-24.2.56-24.2l7.79-3L81.22,9.44"/><path class="cls-17" d="M83.27,27.73,76.48,55a1.08,1.08,0,0,0,.07.71L93.93,91.19a1,1,0,0,0,.95.58l18.43-.3a1.06,1.06,0,0,0,1-.64l15.11-35.76a1,1,0,0,0,0-.69l-7.53-26.65"/><path class="cls-11" d="M76.48,55l17.45,36.2,20.33-.36,4.52-10.52s-3.54,5.38-12.6,5-11.17,0-13.29-10C92,71,89.33,66.44,87.25,61.67c3.94-1.25,9.33-3,9.89-7.1-1.89-4.06-12-9.22-9.58-12.62l3.08-8.69s21.92-3.48,24.3-2.73S122,30,122,30l-.94-2.2-37.82-.08L76.48,55"/><path class="cls-11" d="M137.64,5.34c-34.44-9.2-65.91-1.08-69.7,0a1.38,1.38,0,0,0-.68.42c-1.3,1.5-6.34,8.39-4.65,23.06A1.38,1.38,0,0,0,64.26,30c6.36-1.32,33.33-5.92,77.86,0a1.4,1.4,0,0,0,1.58-1.22c.36-3.15.52-11.44-5.15-22.67A1.43,1.43,0,0,0,137.64,5.34Z"/><path class="cls-17" d="M78.29,3.16s-7.84,2.74-7,17.09c.12,1.92,4.67,3.95,6.9,3.87,11.6-.41,30.41-3.31,59.24.91,5.53.81,4.22-2.69,5.56-5.58L139.76,9l-1.27-3.54S106.7-2.92,78.29,3.16Z"/><path class="cls-18" d="M204.38,76.31a245,245,0,0,1,2.19,55.43s-.75,4.17-11,7.29a0,0,0,0,1-.06-.05c.09-1.75,2-39.22-2.88-65.74"/><path class="cls-7" d="M200.87,137.4c.08-2.72-1.44-6-.54-8.89s-2.15-5.63-.85-8.77c.89-2.16.55-3.82,0-5.8s-1.91-5.38-1.28-7.22.81-7.54-.55-10,.55-6,0-10.47c-.45-3.6-1.54-4-.26-8.32s2.22-3.67,2.22-3.67l-7-1s6,44.47,2.61,65.4"/><path class="cls-18" d="M2.79,74.94S1,116.79,5.66,134.89c0,0,3.1,2.8,13.62,4.87,0,0,.07,0,.06,0-.32-1.79-7.1-40.16-4.86-67.05"/><path class="cls-7" d="M14.67,137.82c.06-2.73-5.6-7-4.31-9.76.81-1.74-3.41-5.45-2.26-8.59a9,9,0,0,0,0-5.8c-.49-2-2.91-6.09-2.35-7.93s1.94-6.83.73-9.33.49-6,0-10.47c-.4-3.6-1.37-4-.23-8.32s-1-3.67-1-3.67L2.48,75.29S1,124.53,6.14,134.89"/><g id="Layer_509_copy" data-name="Layer 509 copy"><path class="cls-3" d="M137.64,5.34c-34.44-9.2-65.91-1.08-69.7,0a1.38,1.38,0,0,0-.68.42c-1.3,1.5-6.34,8.39-4.65,23.06A1.38,1.38,0,0,0,64.26,30c6.36-1.32,33.33-5.92,77.86,0a1.4,1.4,0,0,0,1.58-1.22c.36-3.15.52-11.44-5.15-22.67A1.43,1.43,0,0,0,137.64,5.34Z"/><path class="cls-3" d="M137.64,5.34c-34.44-9.2-65.91-1.08-69.7,0a1.38,1.38,0,0,0-.68.42c-1.3,1.5-6.34,8.39-4.65,23.06A1.38,1.38,0,0,0,64.26,30c6.36-1.32,33.33-5.92,77.86,0a1.4,1.4,0,0,0,1.58-1.22c.36-3.15.52-11.44-5.15-22.67A1.43,1.43,0,0,0,137.64,5.34Z"/><path class="cls-3" d="M204.38,76.31a245,245,0,0,1,2.19,55.43s-.75,4.17-11,7.29a0,0,0,0,1-.06-.05c.09-1.75,2-39.22-2.88-65.74"/><path class="cls-3" d="M2.79,74.94S1,116.79,5.66,134.89c0,0,3.1,2.8,13.62,4.87,0,0,.07,0,.06,0-.32-1.79-7.1-40.16-4.86-67.05"/><path class="cls-3" d="M83.27,27.73,76.48,55a1.08,1.08,0,0,0,.07.71L93.93,91.19a1,1,0,0,0,.95.58l18.43-.3a1.06,1.06,0,0,0,1-.64l15.11-35.76a1,1,0,0,0,0-.69l-7.53-26.65"/><path class="cls-3" d="M204.38,76.31a245,245,0,0,1,2.19,55.43s-.75,4.17-11,7.29a0,0,0,0,1-.06-.05c.09-1.75,2-39.22-2.88-65.74"/><path class="cls-3" d="M2.79,74.94S1,116.79,5.66,134.89c0,0,3.1,2.8,13.62,4.87,0,0,.07,0,.06,0-.32-1.79-7.1-40.16-4.86-67.05"/><path class="cls-3" d="M32,134.71s-2.58-.9-12.68,1"/><path class="cls-3" d="M195.53,135.43a69.81,69.81,0,0,0-10.83.15"/><path class="cls-19" d="M116.24,126.07a37,37,0,0,0,2.69-5,.51.51,0,0,1,.84-.16,11.51,11.51,0,0,1,3.26,6.24"/><path class="cls-3" d="M118.34,82.93l26.2,12.81a3.43,3.43,0,0,0,1.57.35c5-.12,31.7-1.33,47.89-13.75"/><path class="cls-3" d="M17.14,125.28s16.45,14.14,43.73,19.17a1.8,1.8,0,0,0,2-1l12.84-29.58a.78.78,0,0,1,.44-.43L105,101.86a.8.8,0,0,1,.57,0l28.81,10a.78.78,0,0,1,.47.42l15,31.42a1.75,1.75,0,0,0,1.7,1c5.59-.35,29.58-2.69,44.31-17.41"/><path class="cls-3" d="M90.07,83.31,63,97.28a3.52,3.52,0,0,1-1.59.39,137.9,137.9,0,0,1-46.75-8.29"/><path d="M176.82,70.18c0,.31-6.07.59-12.2.79l-8.47.24-4,.09-4-.09L139.64,71l-1.15,0-.57,0h-.43a1.66,1.66,0,0,1-.22,0,1.85,1.85,0,0,1-1.39-1,1.53,1.53,0,0,1-.14-.41,1.43,1.43,0,0,1-.05-.35l0-.55a26.06,26.06,0,0,1,0-4c.19-2.32.68-3.8.82-3.76s0,1.53.05,3.78a33.79,33.79,0,0,0,.35,3.83L137,69a.59.59,0,0,0,0,.18.37.37,0,0,0,0,.11.48.48,0,0,0,.38.22l2.19-.08,8.46-.24,4-.09,4,.09,8.47.24C170.75,69.58,176.82,69.87,176.82,70.18Z"/><path d="M140.46,70.18s-6.84,14.63,9.9,16.61,18.36-12.71,14.22-16.61"/><path d="M29.86,70.75c0-.31,6.08-.59,12.2-.79l8.47-.24,4-.09,4,.09,8.47.24,2.19.07a.45.45,0,0,0,.37-.21.6.6,0,0,0,.06-.11s0-.08,0-.18l.08-.53a35.66,35.66,0,0,0,.34-3.82,35.53,35.53,0,0,1,.05-3.79c.14,0,.63,1.45.83,3.77a27.29,27.29,0,0,1,0,4l0,.56c0,.07,0,.2,0,.35a1.56,1.56,0,0,1-.15.41,1.83,1.83,0,0,1-1.38,1,.9.9,0,0,1-.23,0h-.43l-.57,0-1.14,0-8.47.24-4,.09-4-.09-8.47-.24C35.94,71.34,29.86,71.06,29.86,70.75Z"/><path d="M66.22,70.75s5.54,16-10.88,16.64C38.5,88,38,74.65,42.1,70.75"/><path class="cls-3" d="M64.94,138.53s33.84,16.25,82.49,0"/><path class="cls-2" d="M90.07,142.14s3.17,7.12,16.74,6.88S123,142.14,123,142.14"/><path d="M123,142.14c.15.05-.2,1.26-1.43,2.6a12.27,12.27,0,0,1-2.35,2,16.63,16.63,0,0,1-3.15,1.6,26.6,26.6,0,0,1-6.43,1.57c-1.8.18-3,.26-3.12.24l-.91,0a19.26,19.26,0,0,1-2.22-.16A23.71,23.71,0,0,1,97,148.39a14.83,14.83,0,0,1-5.44-3.66c-1.21-1.36-1.6-2.53-1.45-2.59s.76.89,2.05,2a16,16,0,0,0,5.38,2.79,24,24,0,0,0,6.07,1c.85.07,1.57,0,2.09,0h.86c.07,0,1.24,0,3-.06a28.08,28.08,0,0,0,6.09-1,15.23,15.23,0,0,0,5.41-2.72C122.3,143.06,122.88,142.08,123,142.14Z"/><path d="M130.43,128.2c-.07.38-5.37-.31-10.72-.64-2.67-.19-5.35-.28-7.39-.34l-3.5,0-3.5-.16c-2,0-4.72-.12-7.39-.06-5.35,0-10.62.66-10.7.34s5.17-1.72,10.58-2.24c2.71-.31,5.44-.44,7.51-.53l3.57,0c.09,0,1.5.1,3.57.26s4.78.49,7.46.92C125.3,126.49,130.5,127.85,130.43,128.2Z"/><path class="cls-3" d="M66,7.53a97.53,97.53,0,0,0-24.56,8.84,1.67,1.67,0,0,0-.91,1.37l-.58,9L27.17,37.33l-11.56.3a1.67,1.67,0,0,0-1.28.65A65.42,65.42,0,0,0,1,74.32a.92.92,0,0,0,1.14.94l15-4,3.31-8.58a1.66,1.66,0,0,1,1.09-1A326.43,326.43,0,0,1,77.4,51.29"/><path class="cls-3" d="M40.57,18.17S38.69,19.66,34,20.25"/><path class="cls-3" d="M17.72,30.87a9.91,9.91,0,0,1-1.27,6.4"/></g><g id="Layer_530_copy" data-name="Layer 530 copy"><g id="Layer_528_copy" data-name="Layer 528 copy"><path class="cls-1" d="M92.91,27.14,87.58,44.28a.61.61,0,0,0,0,.44l9.19,9a.71.71,0,0,0,.65.35L110,53.88a.73.73,0,0,0,.64-.39l7.65-9.16a.51.51,0,0,0,0-.42l-5-16.27"/><path class="cls-3" d="M92.91,27.14l-5.33,16a.51.51,0,0,0,0,.4l9.19,10.17a.72.72,0,0,0,.65.33L110,53.89a.73.73,0,0,0,.64-.37l7.65-10.32a.47.47,0,0,0,0-.4l-5-15.19"/><path class="cls-20" d="M116.77,41S117.42,34,114,28.89A19,19,0,0,0,108.15,15a24.31,24.31,0,0,0-4.68-10.65.47.47,0,0,0-.69,0A28.18,28.18,0,0,0,97.7,15a17.71,17.71,0,0,0-5.45,13.89C88.83,34,89.48,41,89.48,41S91.85,47.5,104,47.5,116.77,41,116.77,41Z"/><path class="cls-21" d="M100.25,9.44s-1.48,5.45,1.06,7.29c0,0-1.24-.31-2.12-.5-1,2.8-2.59,16,6.25,16.42a58.57,58.57,0,0,1-6.86-.57s-4.91,13.3,6.27,15.42c0,0-16.2.21-15.07-9s2.39-8.19,2.47-12S100.25,9.44,100.25,9.44Z"/><path class="cls-3" d="M116.77,41S117.42,34,114,28.89A19,19,0,0,0,108.15,15a24.31,24.31,0,0,0-4.68-10.65.47.47,0,0,0-.69,0A28.18,28.18,0,0,0,97.7,15a17.71,17.71,0,0,0-5.45,13.89C88.83,34,89.48,41,89.48,41S91.85,47.5,104,47.5,116.77,41,116.77,41Z"/><path d="M110.94,30.52c0,.05-.22.23-.67.52a10.1,10.1,0,0,1-2,1,15.17,15.17,0,0,1-6.76,1.08,20.59,20.59,0,0,1-6.78-1.62,23.71,23.71,0,0,1-3-1.53.71.71,0,0,1-.06-1,.76.76,0,0,1,1-.34,20.13,20.13,0,0,0,2.71,1.53A20.1,20.1,0,0,0,101.61,32a16.18,16.18,0,0,0,6.46-.53,16.45,16.45,0,0,0,2.05-.72C110.61,30.56,110.91,30.47,110.94,30.52Z"/><path d="M105.44,16.66a7.68,7.68,0,0,1-3.87.41,10.72,10.72,0,0,1-2.66-.69,7.59,7.59,0,0,1-1.19-.6c-.13-.07-.12-.29,0-.47s.32-.28.42-.21a9.38,9.38,0,0,0,1.06.59,10.5,10.5,0,0,0,2.45.81A20.48,20.48,0,0,0,105.44,16.66Z"/></g><g id="Layer_529_copy_2" data-name="Layer 529 copy 2"><path class="cls-20" d="M35.63,22.15c-1.22-4.43-7.48-5.3-7.48-5.3a12.65,12.65,0,0,0-8.62-6.16c-1.1-3.25-5.13-2.58-6.19-7.52a.28.28,0,0,0-.54,0c-3.34,9.3-.88,12.07-.88,12.07-1.4,7.41,2.87,9.6,2.87,9.6a9.63,9.63,0,0,0,5.52,7.85S31.76,33.4,35.63,22.15Z"/><path class="cls-21" d="M29.73,28.47c-7.08,4.52-10.31-3.12-7.1-5.86C14,22.88,16,14.4,16,14.4c-4.19-.41-4.06-5.81-4.06-5.81S9,20.9,19.23,32.07c0,0,4.79,2.67,10-2.28"/><path class="cls-3" d="M35.63,22.15c-1.22-4.43-7.48-5.3-7.48-5.3a12.65,12.65,0,0,0-8.62-6.16c-1.1-3.25-5.13-2.58-6.19-7.52a.28.28,0,0,0-.54,0c-3.34,9.3-.88,12.07-.88,12.07-1.4,7.41,2.87,9.6,2.87,9.6a9.63,9.63,0,0,0,5.52,7.85"/><path class="cls-3" d="M17.55,34.4c2.42-3.53,6.23.24,13.08-5.72,2.53-2.21,4.95-6.94,8.72-9.3"/><path d="M17.72,13.09a1.76,1.76,0,0,1-.58.8A5.73,5.73,0,0,1,15.27,15a9.93,9.93,0,0,1-2.11.52,8.8,8.8,0,0,1-1,.1c-.12,0-.21-.18-.2-.4s.08-.41.18-.41.41,0,1,0a10.55,10.55,0,0,0,2-.33A6.48,6.48,0,0,0,17,13.64C17.41,13.34,17.66,13.05,17.72,13.09Z"/><path d="M26,19.66c.16.1-1.67,2.72-4.54,4.26a13.54,13.54,0,0,1-4.18,1.51,10.38,10.38,0,0,1-2.16.21c-.23,0-.42-.39-.35-.84S15,24,15.2,24A10.09,10.09,0,0,0,17.08,24,13.41,13.41,0,0,0,21,22.89C23.73,21.75,25.84,19.48,26,19.66Z"/></g><g id="Layer_529_copy_2-2" data-name="Layer 529 copy 2"><path class="cls-2" d="M165.12,24.74l-.57-8.89h0c8.65,4.56,18,10.16,25.42,19.53H177.88Z"/><path class="cls-3" d="M164.48,16.22s1.87,1.5,6.58,2.08"/><path class="cls-3" d="M187.33,28.92a9.83,9.83,0,0,0,1.27,6.4"/><path class="cls-20" d="M169.42,20.2c1.22-4.43,7.48-5.3,7.48-5.3a12.65,12.65,0,0,1,8.62-6.16c1.1-3.25,5.13-2.58,6.19-7.52a.28.28,0,0,1,.54,0c3.34,9.3.88,12.07.88,12.07,1.4,7.41-2.87,9.6-2.87,9.6a9.65,9.65,0,0,1-5.52,7.85S173.29,31.45,169.42,20.2Z"/><path class="cls-21" d="M184,30.33c-5.61-2.45-3.14-5.8-7.44-7.59-5.3-2.21-4.91-4-3.83-5.48,0,0-4.19,1.29-2.59,4.7S179.33,31.23,184,30.33Z"/><path class="cls-21" d="M190.64,22.74c-5.61-2.45-2.23-4.1-6.85-4.71s-4.39-5.38-3.3-6.9a16.88,16.88,0,0,1-3,3.72c-.54,1.29,1.59,2.88,2.59,3.82C182.83,21.22,187.22,23.39,190.64,22.74Z"/><path class="cls-21" d="M192.48,13.25c.38-.37,2.6-1.05-.21-1.22-1.51-.2-2.05-1.38-3-1.55-3-.52-2.63-2.33-1.9-3.35,0,0-2.55-.7-1,2.71S190.53,12.79,192.48,13.25Z"/><path class="cls-3" d="M169.42,20.2c1.22-4.43,7.48-5.3,7.48-5.3a12.65,12.65,0,0,1,8.62-6.16c1.1-3.25,5.13-2.58,6.19-7.52a.28.28,0,0,1,.54,0c3.34,9.3.88,12.07.88,12.07,1.4,7.41-2.87,9.6-2.87,9.6a9.65,9.65,0,0,1-5.52,7.85"/><path class="cls-3" d="M187.5,32.45c-2.42-3.53-6.23.24-13.08-5.72-2.53-2.21-5-7.11-8.82-9.47"/><path d="M187.33,11.15c.06-.05.3.24.77.54a6.36,6.36,0,0,0,1.85.79,10.43,10.43,0,0,0,2,.33c.57,0,.95,0,1,0s.18.19.19.41-.09.41-.2.4a8.62,8.62,0,0,1-1-.1,10.15,10.15,0,0,1-2.12-.52,6,6,0,0,1-1.87-1.09C187.46,11.53,187.3,11.17,187.33,11.15Z"/><path d="M179,17.72c.18-.18,2.29,2.08,5.05,3.22A13.24,13.24,0,0,0,188,22a10.1,10.1,0,0,0,1.88.06c.19,0,.35.35.41.79s-.12.83-.36.84a10.38,10.38,0,0,1-2.16-.21A13.63,13.63,0,0,1,183.56,22C180.7,20.43,178.87,17.81,179,17.72Z"/><path class="cls-3" d="M139.25,7.53a87.17,87.17,0,0,1,24.54,6.61,1.26,1.26,0,0,1,.74,1.08l.59,9.52,12.76,10.64L190,35.32a1.25,1.25,0,0,1,1,.52c12.17,16.47,14.32,34.7,14.69,39.57a.89.89,0,0,1-1.12.94l-15.36-4-5.09-10.16a1.69,1.69,0,0,0-1-.86c-17.36-5.89-35.63-10-54-10.85"/></g></g></g></g></g></g></svg>