<svg xmlns="http://www.w3.org/2000/svg" viewBox="0 0 215.15 135.93"><defs><style>.cls-1{fill:#c9c9c9;}.cls-2{fill:#a7a9ac;}.cls-3{fill:none;stroke:#000;stroke-miterlimit:10;stroke-width:2px;}</style></defs><g id="Layer_2" data-name="Layer 2"><g id="Obstacles"><g id="Rocks"><g id="Rock_2" data-name="Rock 2"><path class="cls-1" d="M192,73.45A10.05,10.05,0,0,0,186.71,68l-7.3-3.19a9.44,9.44,0,0,0-.1-1.59s-3.84-34.43-5.79-36.08L148.23,3.79C145.92,1.84,122.89.53,119.9,1L84.09,7.9a10.42,10.42,0,0,0-7.84,6L66.5,35.75c-1,2.22,1.2,7.65-1,8.72L59.29,42,33.93,54.41a10.41,10.41,0,0,0-5.64,7.44L22.12,95.14,11.2,111.43l15.14,8c4.11.23,10.05,2.34,14.9,2.06,14.57-.82,30.22,8.14,41.41,11.16,25.46,6.87,32.64-6.36,58.27.73,17.14,4.74,38.74-2.84,50.17-15.23a37.83,37.83,0,0,1,17.78-5.4Z" transform="translate(-0.03)"/><path class="cls-2" d="M179.42,99.8l-42.75,6.48-27.59-9.11-15.25-5,14.58-21.66,52.16-12.71,20,7.53-1.12-.49a9.44,9.44,0,0,0-.1-1.59l-4.58-32.15a10.42,10.42,0,0,0-1.3-3.74L135.73,38,120.61,57.76l-9-8.27L66.5,35.75,65.76,44,104,61.18,84,76.5,78.41,95.56,69.7,106.28l-36.81-1.41-15.18,10,8.63,4.57c4.11.23,10.05,2.34,14.9,2.06,14.57-.82,30.22,8.14,41.41,11.16,25.46,6.87,32.64-6.36,58.27.73,17.14,4.74,38.74-2.84,50.17-15.23A37.93,37.93,0,0,1,202,113.73L190.49,102ZM112.27,120l-42.51-6,18.16-10.48L120.25,108l12.35,6.91Z" transform="translate(-0.03)"/><path class="cls-3" d="M65.78,45.38c0-1.46.72-9.63.72-9.63L79.39,9.94,119.9,1l28.33,2.78,25.64,23.53,5.44,35.89a10.62,10.62,0,0,1,.11,1.59" transform="translate(-0.03)"/><path d="M104,61.18c-.22.52-38.5-15.48-39.17-15.77A1.21,1.21,0,0,1,64,44a1.19,1.19,0,0,1,1.61-.42C66.26,43.82,104.18,60.66,104,61.18Z" transform="translate(-0.03)"/><path class="cls-3" d="M11.2,111.43l9-11.92,8.72-41C46.45,48.7,57.77,41.56,57.77,41.56s2.63,1,8,3.23" transform="translate(-0.03)"/><path d="M93.83,92.13c-.18-.12,2.08-3.83,5-8.43l4.6-7.23c1.63-2.52,3.18-4.91,4.42-6.84l5.09-1.33a1,1,0,0,1,.49,2l-4.42,1-4.26,6-5,7C96.59,88.76,94,92.25,93.83,92.13Z" transform="translate(-0.03)"/><polyline class="cls-3" points="208.84 112.77 189.77 69.33 165.16 58.6 112.24 69.52"/><path d="M215.17,112.56a26.82,26.82,0,0,1-3.5.21,40.48,40.48,0,0,0-7.52,1.38,74.71,74.71,0,0,0-7.34,2.51c-2,.79-3.33,1.39-3.42,1.42-.37.15-.83-.15-1-.68s-.1-1.06.27-1.21c.1,0,1.48-.59,3.55-1.3a67.33,67.33,0,0,1,7.65-2.15,33.79,33.79,0,0,1,7.84-.77A8.73,8.73,0,0,1,215.17,112.56Z" transform="translate(-0.03)"/><path class="cls-3" d="M14.45,112.77c6.75,6.48,19,9.09,23.89,8.82,18.46-1,33.12,8.06,44.31,11.08,25.46,6.87,33.78-4.72,60.84,1.26,11.24,2.48,30.64-.9,37.14-7.53s8.2-7.11,13.54-9.74" transform="translate(-0.03)"/><path d="M0,109.22c0-.22,4-1.14,8.24-.27a17,17,0,0,1,5.46,2.22A20.76,20.76,0,0,1,16,112.82c.22.19.09.69-.29,1.11s-.85.62-1.05.44a23.6,23.6,0,0,0-2-1.63,16.23,16.23,0,0,0-4.77-2.39C4.15,109.19,0,109.55,0,109.22Z" transform="translate(-0.03)"/><path d="M127.69,48.76A20.66,20.66,0,0,1,130,45.42l2.73-3.56c1.08-1.39,2.29-2.92,3.57-4.56l23.27-7.09,12.71-3.81a1.45,1.45,0,0,1,1.88.73c.19.65-.35,1.37-1.21,1.61l-12.8,3.5-11.6,3.13L137,38.42l-3.54,4.07-3,3.36A19.36,19.36,0,0,1,127.69,48.76Z" transform="translate(-0.03)"/><path d="M145.11,83.8c-.2-.64,42.88-14.67,43.64-14.9a1.23,1.23,0,1,1,.73,2.32C188.72,71.46,145.31,84.44,145.11,83.8Z" transform="translate(-0.03)"/></g></g></g></g></svg>