<svg xmlns="http://www.w3.org/2000/svg" viewBox="0 0 197.81 152.43"><defs><style>.cls-1{fill:#c9c9c9;}.cls-2{fill:#a7a9ac;}.cls-3{fill:none;stroke:#000;stroke-miterlimit:10;stroke-width:2px;}</style></defs><g id="Layer_2" data-name="Layer 2"><g id="Obstacles"><g id="Rocks"><g id="Rock_1" data-name="Rock 1"><path class="cls-1" d="M43.54,142.81c24-3,29.73,4.4,45.63,7.35,30.69,5.69,21.63-12.55,57.87-5.58,21.89,4.21,33.07-4.69,40.94-8.26l-15.51-70.4-21.74-3.21-6.84,2L140,54.9l-1-46.13L93.53,1,72.22,5.38,70.1,23.66,55.75,20.88,26.69,30.57l-16,103.66C18.41,137.67,26.93,144.88,43.54,142.81Z" transform="translate(-0.06)"/><path class="cls-2" d="M141.29,79.69,126.62,76.5l-13.3-2.89,2.77-.81,3.32-16-1.73-39.87L70.81,8.14,70.13,23.4,87.59,28l4.85,40.81,9.83,10.69L111.82,83l-.31,20.71L89.9,114.11l-15.43-5.29L71.21,94.27l-3.84-13-3.9-41.38L35.4,33.28l-8.71-2.71-16,103.66c7.77,3.44,16.29,10.57,32.9,8.51,24-3,29.73,4.47,45.63,7.42,30.69,5.69,21.63-12.55,57.87-5.58,3.61.69,9,.76,12.05,1.09ZM55.33,118,44.92,90.34V79.69L28.1,74.24l12.42-3.6,18,5.72L59,88.65l12.7,24.41Zm48.56,22.24-32.22-7.68,6.61-11.34,27.24,7L130.45,107l16.44,23.17Z" transform="translate(-0.06)"/><path d="M197.86,135.49c0,.34-2.82.17-5.42.65a22.53,22.53,0,0,0-3.55,1c-1,.35-1.6.63-1.65.65s-.48-.32-.68-.84-.22-1,0-1.08.75-.26,1.81-.54a21.13,21.13,0,0,1,3.93-.63,17,17,0,0,1,3.9.27C197.2,135.16,197.87,135.35,197.86,135.49Z" transform="translate(-0.06)"/><path class="cls-3" d="M10.23,134.05c7.88,3.47,17.12,10.86,34,8.76,24-3,29,4.56,44.91,7.51,30.69,5.69,21.63-12.71,57.87-5.74,21.88,4.21,33.07-4.69,40.94-8.26" transform="translate(-0.06)"/><path d="M.06,130.59c0-.3,2.89,0,5.64.85,1.37.4,2.72.87,3.74,1.25l1.75.67c.18.08.14.56-.08,1.08s-.56.87-.74.79l-1.66-.8c-1-.47-2.23-1.07-3.51-1.63C2.67,131.64,0,130.85.06,130.59Z" transform="translate(-0.06)"/><polyline class="cls-3" points="143.84 64.7 150.68 62.71 172.41 65.92 187.91 136.26"/><path d="M112.35,80.57a7.25,7.25,0,0,1,.05-2l.2-2.22.14-1.35.19-1.77,9.43-3,9.89-3.08,11.47-3.51a1,1,0,1,1,.58,2l-11.57,3.2-10,2.72-4.89,1.3-2.28.6c-.69.18-1.59.42-1.85.47l-.45,2.54-.41,2.19A6.93,6.93,0,0,1,112.35,80.57Z" transform="translate(-0.06)"/><polyline class="cls-3" points="70.04 23.66 70.75 7.32 93.47 1.02 138.99 8.77 139.82 54.42 143.84 64.7"/><path d="M97.1,74a8.36,8.36,0,0,1-1.38-1.28c-.42-.43-.94-1-1.53-1.58l-2.07-2.17c-.34-2.48-.76-5.5-1.22-8.84S90,53.17,89.48,49.42c-.94-7.28-2-15-2.81-21.63l-16.4-3.05c-1.12-.22-1.94-.84-1.84-1.4s1.11-.83,2.23-.61l17.62,3.56c.76,7,1.65,15.24,2.49,23,.4,3.76.78,7.4,1.12,10.71s.62,6.24.86,8.67c1.35,1.61,2.45,2.91,3.22,3.81A9.07,9.07,0,0,1,97.1,74Z" transform="translate(-0.06)"/><polyline class="cls-3" points="12.26 135.04 11.46 125.63 26.64 30.57 55.7 20.88 70.75 23.8"/><path d="M120.9,15.77c-.21-.53,16.93-7.62,17.23-7.74s.72.21.92.74.12,1.05-.18,1.17S121.1,16.3,120.9,15.77Z" transform="translate(-0.06)"/><path d="M25.79,123.53a12.42,12.42,0,0,1-1-2.54l-1-2.94c-.38-1.17-.79-2.48-1.25-3.91.3-2.86.66-6.17,1-9.69s.79-7.17,1.2-10.82c.86-7.56,1.71-15,2.32-20.22l7.67-2.29,5.72-1.6,18.78,6.2c.11,4.25.22,8.62.32,12.75,1.22,2.45,2.39,4.8,3.45,7L66,101.29a40.18,40.18,0,0,1,2.48,5.55,41.35,41.35,0,0,1-3.12-5.22l-3.16-5.71L58.3,88.82c-.21-3.83-.44-7.89-.65-11.83L40.5,71.76l-5.06,1.52-6.38,1.78c-.68,4.88-1.63,11.76-2.61,18.78-.51,3.63-1,7.3-1.53,10.77s-1,6.67-1.39,9.46c.36,1.38.69,2.65,1,3.78l.76,3A12.25,12.25,0,0,1,25.79,123.53Z" transform="translate(-0.06)"/></g></g></g></g></svg>