<svg xmlns="http://www.w3.org/2000/svg" viewBox="0 0 262.59 287.73"><defs><style>.cls-1{fill:#eddabe;}.cls-2{fill:#fff1d7;}.cls-3{fill:none;stroke:#000;stroke-miterlimit:10;stroke-width:2px;}.cls-4{opacity:0.17;}.cls-5{fill:#e0d72d;}.cls-6{fill:#eae428;}</style></defs><g id="Layer_2" data-name="Layer 2"><g id="Obstacles"><g id="Trees"><g id="Birch"><g id="Tree_3" data-name="Tree 3"><g id="Layer_245" data-name="Layer 245"><path class="cls-1" d="M98.21,203.41s10.48,11.29,9.45,33.65c-.91,19.63-8.77,36.49-10.68,40.32a1.31,1.31,0,0,0,.29,1.55c2.82,2.61,35.57,12.15,50,4.3,21.1,6,30.09-1.58,32.3-4.28a1.31,1.31,0,0,0,.08-1.53c-17.64-28-5.84-53.33,4-63.28l-6.24-20.25a41.11,41.11,0,0,0-22.53,24.42c-4.89,0-5.61-18.53,0-30.91-19.36-12.44-68.28-7.83-68.28-7.83Z"/><path class="cls-2" d="M154.25,218.72c-7.94,14.76-4,15.24-5.45,18.42.63,8.18-20.91,11.68-28.79-9.12-1.46-3.84-2.79-8.07.58-11.57-15.94-6.61-.88-25.13-.88-25.13l30.2-6.89,3.25,12.7s-4.36,12.13,1.09,21.59"/><path class="cls-2" d="M183.69,214.14c-26.88,30.94-3.79,64.06-3.79,64.06s-2.88,5.24-12.76,6.34c-5.45-2.18-5.73-7.71-3.87-12.44-4.63-5-6.15-9.92-8.51-16.89-1.8-5.32.16-11.11,3.12-16.62-2.48-16.64,7.17-29.33,7.17-29.33L157,202.33"/><path class="cls-3" d="M183.69,214.14c-9.84,10-21.64,35.25-4,63.28a1.31,1.31,0,0,1-.08,1.53c-1.56,1.9-5.48,8.62-17.47,6.53-4.3-.75-9.62-.48-15.83-2.25-17,5.41-23,3.69-31.87.59-4.3-1.5-16.25-4-17.17-4.89a1.31,1.31,0,0,1-.29-1.55c1.91-3.83,9.77-20.69,10.68-40.32,1-22.36-9.45-33.65-9.45-33.65"/><path d="M148.13,247.74c-.18,0-.62-1.91-.6-4.87a52.4,52.4,0,0,1,1.28-10.76,78.72,78.72,0,0,1,3.09-10.49c.51-1.42,1-2.6,1.34-3.44s.56-1.35.59-1.41a1.1,1.1,0,0,1,1.5-.4,1.13,1.13,0,0,1,.72,1.4l-.62,1.36c-.38.8-.88,1.94-1.43,3.3a85.29,85.29,0,0,0-3.52,10.1,64.73,64.73,0,0,0-2,10.39C148.17,245.79,148.28,247.71,148.13,247.74Z"/><path class="cls-3" d="M160.85,206.11a81.45,81.45,0,0,0-5.93,12.2"/><path class="cls-3" d="M152.67,199s-4.44,12.16,2.2,20.62"/><g class="cls-4"><path d="M122.19,216.37c0,.25-4,.47-7.77,1.82a26.62,26.62,0,0,0-5,2.26,16.62,16.62,0,0,0-2.12,1.43c-.22.16-.59,0-.89-.33s-.34-.79-.1-1a17,17,0,0,1,2.38-1.45,25.68,25.68,0,0,1,5.35-2C118.09,216,122.2,216.18,122.19,216.37Z"/></g><g class="cls-4"><path d="M135.14,225.88c0-.19,3.78-1,7.75-.77a22.71,22.71,0,0,1,5.42.95,14.55,14.55,0,0,1,2.5,1c.26.14.29.59,0,1s-.59.58-.81.46a15.09,15.09,0,0,0-2.2-1,24.1,24.1,0,0,0-5.05-1.23C139,225.7,135.17,226.13,135.14,225.88Z"/></g><g class="cls-4"><path d="M122.19,271.65a11.55,11.55,0,0,1-3.27.13,30.74,30.74,0,0,1-7.14-1.15,26.07,26.07,0,0,1-6.77-3,17.22,17.22,0,0,1-2.86-2.16.71.71,0,0,1,.11-1.05.79.79,0,0,1,1-.11,17.35,17.35,0,0,0,2.55,2.07,26,26,0,0,0,6.29,3.11C117,271.28,122.21,271.38,122.19,271.65Z"/></g><g class="cls-4"><path d="M157.88,271.65c0-.25,4.23.23,8.38-.19a20.63,20.63,0,0,0,5.51-1.23A8.43,8.43,0,0,0,174,269c.2-.15.56,0,.9.29a.65.65,0,0,1,.1,1,9.43,9.43,0,0,1-2.71,1.35,20.9,20.9,0,0,1-5.95,1C162,272.74,157.85,271.84,157.88,271.65Z"/></g><g class="cls-4"><path d="M160.85,239c0,.2-3.11.21-6.18-.58a16.17,16.17,0,0,1-4.13-1.63,8.11,8.11,0,0,1-1.77-1.36c-.17-.19,0-.61.36-.84s.73-.38.84-.25.13.15.36.37a7.59,7.59,0,0,0,1,.82,16.33,16.33,0,0,0,3.65,1.79C157.83,238.34,160.88,238.74,160.85,239Z"/></g><g class="cls-4"><path d="M166.39,220.43c0-.21,2.74-.39,5.53-.19a30.9,30.9,0,0,1,3.85.51,15.18,15.18,0,0,1,1.84.49c.2.08.23.49,0,.89s-.44.69-.6.63-.65-.27-1.63-.55a33.91,33.91,0,0,0-3.63-.82C169.11,220.9,166.39,220.67,166.39,220.43Z"/></g><g class="cls-4"><path d="M140.27,251.85a4.54,4.54,0,0,1-1.38.37l-1.6.31c-.62.12-1.33.17-2.1.27a52.3,52.3,0,0,1-11.44-.08,65,65,0,0,1-11.33-2.35,52.47,52.47,0,0,1-5.23-1.88.93.93,0,0,1-.62-1.17,1,1,0,0,1,1.27-.32c.13.05,2.06.95,5,1.94a67.32,67.32,0,0,0,11,2.64,58,58,0,0,0,11.24.59c.77,0,1.47,0,2.09-.12l1.62-.15A5.35,5.35,0,0,1,140.27,251.85Z"/></g><path d="M148.13,264.46c.31,0,1.21,4.59,1.16,9.39a41.3,41.3,0,0,1-.54,6.62,27.1,27.1,0,0,1-.69,3.16c-.11.33-.73.44-1.36.19s-1.06-.64-1-.93a26,26,0,0,0,.82-2.86,48.63,48.63,0,0,0,1-6.27C148.06,269.15,147.77,264.5,148.13,264.46Z"/></g><g id="Layer_244" data-name="Layer 244"><g id="Layer_243" data-name="Layer 243"><path class="cls-5" d="M260.85,167.9c-1.16-7.15-4.05-11.87-7.32-15l.05,0-.17-.14c-.17-.15-.33-.32-.49-.46l-.22-.8a26.1,26.1,0,0,0-3.17-17.24l-.39-2.82c18.88-10.62,14.14-43.24-.37-53.94-12.5-9.22-23.07-7.43-26-6.66l-.68-.28c-.67-14.38-7.78-48.31-58.22-63.31-63.83-19-121.95,7.28-125,50.18l-1.41,1.71c-4.23-1.27-17.76-3.72-24.66,14.12-5.08,13.15,0,18.72,4.61,21.08l.39,1.52c-19.25,17.93-20.91,56.85-9.94,80.6,16.78,36.31,67.1,46.93,93.9,28l5-.36c4.29,3.44,10.7,5.38,19.57,3.71,13.06-2.46,16.36-11.4,17.15-16.76l1.83-.84c12.14,21.28,42.29,29.54,60,20l2.08-.22c7.89,9.65,25.81,7.9,36.14,1.23C256,203.11,264.17,188.46,260.85,167.9Z"/><path class="cls-6" d="M18.55,63.54c-4.06,7.86-4,18.88,7.5,26.65,0,0-10.17,7.29,1.21,13.59s23.49-1.7,23.49-1.7S36.47,129.2,74.48,147.24s58.6-13,58.6-13-3.87,9,7.51,13a13.65,13.65,0,0,0,7.54.51s-5.85-6.44-1.37-13.1c0,0-.72,7.15,5.45,9.57S164,142.28,164,142.28a8.53,8.53,0,0,0-.46,4.26,22.74,22.74,0,0,0-15.85,5.61c-7.54,6.48,7.35,26.57,31.2,14.47,0,0-4.91,16.1,21.79,18,0,0-5.42-16.71,4.92-23.25,0,0-7.58,20.11,10.1,28.58s42.12,9,45.9-11.36c3-16.25-9-26.43-9-26.43s2.86-14.48-4.44-20.19c0,0,20.79-10.55,11.7-37-5.48-16-11-26.41-37.1-24.12,0,0,.46-56.41-77.65-67.92S37,37.91,38.92,58.8C38.92,58.8,22.34,56.21,18.55,63.54Z"/></g><g id="Layer_242" data-name="Layer 242"><path class="cls-3" d="M222.09,71.33c-.45-13.9-6.9-48.8-58.25-64.07C98.94-12,40,15.43,38.69,59.6c0,0-17.72-7.64-26,13.67-5.59,14.47,1.11,19.78,6,21.7"/><path d="M220.2,84c-.24-.08.6-3.49.85-7a43.12,43.12,0,0,0,.13-4.81c-.06-1.32-.16-2.21-.17-2.27,0-.24.41-.47,1-.52s1,.12,1,.37c0,.07.06,1,0,2.42a37.28,37.28,0,0,1-.56,5C221.8,80.75,220.47,84.08,220.2,84Z"/><path class="cls-3" d="M19,94.72C-1.45,112.08-3.42,152.21,7.79,176.47c17.42,37.69,71,47.71,96.86,25.71"/><path d="M31,88c0,.14-.8.52-2,1.16a49,49,0,0,0-4.33,2.54c-1.54,1-3,2.1-4.1,3s-1.79,1.5-1.84,1.54-.63,0-1-.45-.47-.88-.26-1.05c.05,0,.82-.66,2-1.48A44.13,44.13,0,0,1,24,90.56a30.09,30.09,0,0,1,4.73-2.06A5.13,5.13,0,0,1,31,88Z"/><path class="cls-3" d="M143.77,187.4c11.13,23.66,43.88,33,62.26,22.38"/><path d="M162.14,130.54a9,9,0,0,1-1.41-.56,11.38,11.38,0,0,0-3.81-.81,9.24,9.24,0,0,0-5.15,1.36,14,14,0,0,0-4.33,4.43,9.47,9.47,0,0,0-1.77,5.71,9.26,9.26,0,0,0,1.84,4.86,17.51,17.51,0,0,0,4,3.82c.48.34-1.4,1.54-1.69,1.33a18.65,18.65,0,0,1-3.88-4.05,10.19,10.19,0,0,1,.28-12.49,15,15,0,0,1,5-4.62,9.94,9.94,0,0,1,5.79-1.16,10.19,10.19,0,0,1,3.92,1.24C161.77,130.08,162.18,130.48,162.14,130.54Z"/><path d="M156.57,147.24a17.37,17.37,0,0,1-1.91.89,28.77,28.77,0,0,0-4.73,2.76,23.82,23.82,0,0,0-5.44,5.42,21.37,21.37,0,0,0-3.48,8,27.26,27.26,0,0,0-.36,8.8,39.69,39.69,0,0,0,1.62,7.64c.17.55.33,1.08.49,1.58s.35.95.53,1.39l1,2.3c.57,1.29.92,2.06,1,2.16.34.78.24,1.58-.25,1.81s-1.18-.22-1.53-1c-.05-.1-.39-.89-.95-2.21-.27-.66-.6-1.45-1-2.36-.17-.46-.36-.95-.54-1.49l-.48-1.66a41.16,41.16,0,0,1-1.5-8,28,28,0,0,1,.63-9.25,22.32,22.32,0,0,1,4-8.35,23.55,23.55,0,0,1,5.88-5.39,24.86,24.86,0,0,1,5-2.51A6.37,6.37,0,0,1,156.57,147.24Z"/><path class="cls-3" d="M247.59,131.21c4.52,6.3,6.42,13.47,5,21"/><path d="M186.11,118.37a8.14,8.14,0,0,1,1.94-2.25,23.08,23.08,0,0,1,6.63-4.2,29.37,29.37,0,0,1,10.91-2.23,42.27,42.27,0,0,1,12.69,1.83,74.5,74.5,0,0,1,12,4.6,56.94,56.94,0,0,1,9.67,5.95,42.05,42.05,0,0,1,8.2,8.27c.7,1,.89,2.09.43,2.38s-1.36-.27-2-1.23a40.47,40.47,0,0,0-7.73-8,55.4,55.4,0,0,0-9.29-5.92,74,74,0,0,0-11.68-4.73,42,42,0,0,0-12.28-2.06A29,29,0,0,0,195,112.62a24.85,24.85,0,0,0-6.66,3.79C186.85,117.58,186.17,118.41,186.11,118.37Z"/><path d="M203.86,202.33c.25,0,.9,1.8,1.9,3.49.48.86,1,1.68,1.43,2.29s.72,1,.74,1-.23.45-.67.76-.87.46-.95.34-.31-.51-.67-1.21a23.64,23.64,0,0,1-1.14-2.64C203.77,204.45,203.58,202.37,203.86,202.33Z"/><path class="cls-3" d="M252.75,152.15c3.59,3.12,6.85,8,8.1,15.75,3.32,20.56-4.83,35.21-17.34,43.29-10.66,6.89-29.43,8.56-36.89-2.15"/><path d="M239.88,146.71c0-.3,3.73.06,7.24,1.42a27.24,27.24,0,0,1,4.68,2.29c1.22.78,2,1.41,2,1.45s.08.64-.27,1-.8.61-1,.46-.72-.66-1.81-1.46a29.05,29.05,0,0,0-4.21-2.51C243.37,147.77,239.84,146.94,239.88,146.71Z"/><path class="cls-3" d="M221.91,71.09s12.09-4.48,26.86,6.42S268.2,122,248.14,132"/><path d="M100.84,185.14c.15.07-.29,1.11-.4,2.76a17.2,17.2,0,0,0,.73,5.95,20.47,20.47,0,0,0,2.54,5.47,17.6,17.6,0,0,0,1.74,2.25c.19.23,0,.71-.37,1.07s-.89.46-1.11.2a16.85,16.85,0,0,1-1.79-2.58,20.51,20.51,0,0,1-2.34-6.07,15.68,15.68,0,0,1-.15-6.4A4.88,4.88,0,0,1,100.84,185.14Z"/><path class="cls-3" d="M143.62,186.9s1.66,17.32-17.35,20.91c-10.41,2-17.44-1-21.62-5.62"/></g></g></g></g></g></g></g></svg>