<svg xmlns="http://www.w3.org/2000/svg" viewBox="0 0 183.12 386.76"><defs><style>.cls-1{fill:#8a5546;stroke:#a16d45;}.cls-1,.cls-3{stroke-miterlimit:10;}.cls-2{fill:#7a4537;}.cls-3{fill:none;stroke:#000;stroke-width:2px;}.cls-4{fill:#007c32;}.cls-5{fill:#00873a;}.cls-6{fill:#009444;}.cls-7{opacity:0.07;}</style></defs><g id="Layer_2" data-name="Layer 2"><g id="Obstacles"><g id="Trees"><g id="Pine"><g id="Tree_1" data-name="Tree 1"><g id="Layer_233" data-name="Layer 233"><path class="cls-1" d="M63.46,320.49a1.39,1.39,0,0,0-1,2.43c15.68,14.76,6.28,17.57,7.09,31.26.58,10-1.71,17.09-8.85,22a1.39,1.39,0,0,0,.23,2.45c2.31.92,1.89,3.4,8.4,4.38,4.38.67,7,2.59,13.71,2.77,8.44.23,11.16-2.37,23.58-1,7.12.79,10.94-3.67,12.72-4.27a1.39,1.39,0,0,0,.48-2.35c-4.9-4.47-6.91-8-8.38-16.26-1.63-9.09,2.31-8.45-.12-22.81-.91-5.4,2.46-11.62,4.5-14.78a1.39,1.39,0,0,0-1.12-2.15Z"/><path class="cls-2" d="M89.91,349.8c1.48,17.05-4.09,32.86-6.83,35.94-6.74-.18-9.33-2.1-13.71-2.77-6.51-1-6.09-3.46-8.4-4.38a1.39,1.39,0,0,1-.23-2.45c7.14-4.87,9.43-11.95,8.85-22-.81-13.69,8.59-16.5-7.09-31.26a1.39,1.39,0,0,1,1-2.43s17.13-11.58,25.26.81S88.43,332.75,89.91,349.8Z"/><path d="M89.37,363.17a3.33,3.33,0,0,1,.22,1,14.78,14.78,0,0,1,.07,2.62,37.11,37.11,0,0,1-1.4,7.84,50,50,0,0,1-2.76,7.58,19,19,0,0,1-2,3.4.66.66,0,0,1-1,.14.73.73,0,0,1,0-1,17,17,0,0,0,1.93-3.11,51.88,51.88,0,0,0,3-7.31,41.09,41.09,0,0,0,1.77-7.62C89.43,364.61,89.26,363.19,89.37,363.17Z"/><path d="M102.31,359.4a6.73,6.73,0,0,1-.79-1.4,23.16,23.16,0,0,1-1.58-4,16,16,0,0,1-.5-6,23.88,23.88,0,0,1,.6-3.39c.24-1.12.54-2.26.74-3.41.9-4.56,1.39-9.33.35-12.63a16.44,16.44,0,0,0-1.79-3.83c-.55-.94-.85-1.56-.89-1.63-.3-.62-.22-1.25.11-1.37s.79.24,1.06.8c0,.07.3.63.83,1.57a17.66,17.66,0,0,1,1.84,4.13c1.06,3.68.4,8.56-.61,13.15-.23,1.16-.56,2.29-.84,3.42a25.06,25.06,0,0,0-.68,3.27,16,16,0,0,0,.27,5.85,28.51,28.51,0,0,0,1.33,4A8.06,8.06,0,0,1,102.31,359.4Z"/><path d="M104.64,370.78c.12,0,0,.94.23,2.28a18.27,18.27,0,0,0,1.61,4.71,34.46,34.46,0,0,0,2.55,4.37c.78,1.15,1.38,1.9,1.41,1.95.15.2,0,.54-.24.76a.57.57,0,0,1-.8,0c0-.06-.62-.86-1.38-2.08a32.74,32.74,0,0,1-2.38-4.65,16.23,16.23,0,0,1-1.27-5A5.45,5.45,0,0,1,104.64,370.78Z"/><path d="M80.48,357.69a8.21,8.21,0,0,1,.26-1.53c.23-1,.58-2.35,1.07-4,.92-3.24,2.59-7.59,2.08-12.06,0-.55-.15-1.1-.22-1.65l-.36-1.62c-.28-1.1-.53-2.19-.75-3.25a44.34,44.34,0,0,1-.83-5.92,21.89,21.89,0,0,1,.4-6.14c.13-.64.56-1.07.9-1s.49.65.37,1.25a21.51,21.51,0,0,0-.48,5.81,43.43,43.43,0,0,0,.7,5.78c.19,1,.42,2.12.67,3.21l.33,1.7c.06.58.17,1.15.19,1.74a19.13,19.13,0,0,1-.08,3.47,24,24,0,0,1-.64,3.27c-.55,2.08-1.25,3.94-1.8,5.55s-1,2.94-1.29,3.88A6.46,6.46,0,0,1,80.48,357.69Z"/><path d="M78.4,366.51a9.34,9.34,0,0,1-.36,3,26.05,26.05,0,0,1-2.28,6.19,20.8,20.8,0,0,1-3.93,5.47,11.45,11.45,0,0,1-2.65,2,.59.59,0,0,1-.83-.31.66.66,0,0,1,.23-.85A10.2,10.2,0,0,0,71,380.25a20.64,20.64,0,0,0,3.95-5,30.16,30.16,0,0,0,2.6-5.89C78.1,367.66,78.3,366.49,78.4,366.51Z"/><path class="cls-3" d="M63.46,320.49a1.39,1.39,0,0,0-1,2.43c15.68,14.76,6.28,17.57,7.09,31.26.58,10-1.71,17.09-8.85,22a1.39,1.39,0,0,0,.23,2.45c2.31.92,1.89,3.4,8.4,4.38,4.38.67,7,2.59,13.71,2.77,8.44.23,11.16-2.37,23.58-1,7.12.79,10.94-3.67,12.72-4.27a1.39,1.39,0,0,0,.48-2.35c-4.9-4.47-6.91-8-8.38-16.26-1.63-9.09,2.31-8.45-.12-22.81-.91-5.4,2.46-11.62,4.5-14.78a1.39,1.39,0,0,0-1.12-2.15Z"/></g><g id="Layer_234" data-name="Layer 234"><path class="cls-4" d="M182,311.51l-22.84-85.66,7,2.08-34.6-105.57,6.33,1L99.78,3.1,56.61,121.18l4.87-.18L23.32,223.1l5.08-.29L1.16,306.67a85.2,85.2,0,0,0,11.51,7.53l3,8.05,9.66-2.6,2.14,5.61,6.15-3.58c13.5,3.52,32.12,6.44,57.48,7.12q8.39.22,15.83.08l6.76,5.26,6.68-5.78.7-.05,4.27,1.41,1.13-1.81c7.49-.65,14.06-1.56,19.79-2.63,2.91-.54,5.6-1.13,8.1-1.74l10,3.36,1.39-6.73C177.8,315.83,182,311.51,182,311.51Z"/><polygon class="cls-5" points="68.21 229.35 58.09 235.71 54.99 229 45.31 232.06 39.45 224.35 32.27 228.39 29.17 222.39 24.09 222.68 73.35 90.61 121.06 91.89 166.17 227.93 159.17 225.85 155.68 232.77 144.66 224.77 140.52 237.92 122.2 228.71 115.28 237.24 105.4 228.9 93.18 236.65 81.95 231.55 74.95 235.41 68.21 229.35"/><polygon class="cls-6" points="120.13 126.54 115.1 132.91 106.25 126.17 101.24 133.87 94.97 127.25 89.38 130.9 84.03 125.57 74.55 130.5 70.3 122.81 63.59 126.42 61.48 121 56.61 121.18 99.78 3.1 137.9 123.35 131.57 122.36 129.05 128.17 120.13 126.54"/><path class="cls-7" d="M95.64,281.73c-7.72-10.67-9-32.5.61-29.46-1.77-4.19-6-10-4.35-16.2a59.73,59.73,0,0,1-6.66-3s-.31-15.71,4.54-15.62C92,211.84,74.65,193,86.3,187c-7.14-15.72-6.84-30.41,0-31.58C80.82,141.53,84,125.57,84,125.57l5.35,5.32,2.33-1.51s-9.36-26-.89-26.08c-3.8-18-7.46-31.84-1.6-30,1-17.15-5.55-9.74,7.68-62.32L56.61,121.18l4.87-.18L23.32,223.1l5.08-.29L1.16,306.67a85.2,85.2,0,0,0,11.51,7.53l3,8.05,9.66-2.6,2.14,5.61,6.15-3.58c11.22,2.92,42.28,5.87,61.51,7,3.9.23-8.21-19,2.42-19.88C99.5,298.46,82.92,283.43,95.64,281.73Z"/><g id="Layer_235" data-name="Layer 235"><path d="M96.82,234.34a13,13,0,0,1,2.46-1.93l2.67-1.86,1.53-1.05,2-1.31,9.71,7.84h0s0,0,0,0,0,0,0,0l.14-.18.3-.39,1.5-1.89,4.1-5.17,2.37,1.13,1.87.91,3.33,1.66a16,16,0,0,1,3.19,1.8,16.6,16.6,0,0,1-3.46-1.19l-6.92-2.8-.06.1a.83.83,0,0,1-.11.17l-.47.66-.93,1.27-1.71,2.37c-1.3,1.77-2.35,3.2-2.92,4l-1-.85-3.19-2.79-2.92-2.58-1.62-1.43-.82-.73-.37-.34-.13-.13-5.73,3.34A12.44,12.44,0,0,1,96.82,234.34Z"/><path d="M68.06,229.55c.12.2-1.78,1.65-3.73,3-1,.7-2,1.4-2.71,1.92l-1.3.9-.58.34-.68.38-1.43.86-.78-1.83c-.15-.37-.3-.76-.45-1.14l-.85-2.26a7.37,7.37,0,0,1-.71-2.57c.15-.07.76.9,1.5,2.2l1.17,2.11.58,1.08c.13.25.1.16.13.21s0,0,.05,0a.36.36,0,0,0,.07-.09l.53-.37.55-.38,1.37-.78,2.91-1.62C65.81,230.45,67.94,229.36,68.06,229.55Z"/><path d="M103.38,130.58c-.1-.07.16-.68.62-1.57l.79-1.49.47-.83.83-1.39,4.78,3.25,1.4,1.13,1.36,1.12.76.63.18.15,0,0,.12.12.11-.08a1.27,1.27,0,0,0,.19-.17l.63-.62,1.14-1.06c.67-.61,1.14-1,1.23-.91s-.23.59-.76,1.33l-.92,1.25-.54.7-.92,1.13-5-3.41-1.28-1-1.26-1-.71-.58-.21-.22a1.34,1.34,0,0,0-.23.24l-.57.76-1,1.34C103.93,130.15,103.48,130.64,103.38,130.58Z"/><path d="M93,128.55c0,.08-.31.42-.91.91l-1.08.85-.65.49-1,.73-3.48-3.17c-.51-.46-1-.89-1.38-1.27-.21-.18-.39-.36-.56-.51h0s0,0,0,0l-3.36,1.6-3,1.37L74.4,131c-.23-.47-.47-1-.58-1.22l-.29-.72c-.15-.41-.22-.66-.16-.69s.24.15.5.5l.45.63c.18.27.26.35.38.51l.33-.23.6-.36,1.38-.82L79.82,127l3.25-1.84,1.12-.56.83.87.53.56,1.28,1.37,1.45,1.58c.46.5,1.12,1.22,1.17,1.32l.16-.07.08,0,.17-.09.71-.4,1.21-.64C92.48,128.66,92.93,128.47,93,128.55Z"/><path d="M37.36,225.53c.07.11-.49.57-1.39,1.2l-1.55,1.05-.89.59-1.49.92-4.12-6.15c-.11-.19.17-.57.63-.85s.92-.36,1-.17L30.66,224l1,1.88q.27.53.57,1.05l.13.25,0,.08.08.19.15-.05a1.2,1.2,0,0,0,.28-.12l1-.45,1.71-.78C36.62,225.66,37.3,225.42,37.36,225.53Z"/><path d="M124.8,127.39c0-.11.53-.13,1.33-.09.4,0,.87,0,1.39.1l.8.07a2.39,2.39,0,0,0,.36,0,17.66,17.66,0,0,1,.59-1.73c.26-.71.52-1.39.74-2l.8-2.08c.07-.18.53-.14,1,.07s.83.53.76.7-.42.87-1,2-1.44,2.89-2.2,4.4l-1.3-.3-.78-.22c-.49-.13-1-.27-1.33-.39C125.25,127.71,124.78,127.51,124.8,127.39Z"/><path d="M68.6,123.58c.06.11-.44.54-1.25,1.12-.41.3-.89.63-1.41,1l-.81.54-1.43.89L60,121.19c-.1-.17.2-.53.67-.79s.93-.35,1-.17l1,1.84.91,1.8.5,1a1.4,1.4,0,0,1,.11.26l.07.19a2.41,2.41,0,0,0,.34-.12l.89-.41c.57-.27,1.1-.51,1.56-.71C67.91,123.68,68.54,123.47,68.6,123.58Z"/><path d="M148.85,227.81a7.82,7.82,0,0,1,2.38,1.24l2.29,1.46,1.27.83.33.21.12.07.19.09.07-.21,0-.08.14-.3.58-1.28c.39-.83.74-1.6,1-2.27.62-1.33,1.05-2.23,1.07-2.29.13-.25.62-.26,1.1,0s.77.65.65.9-2.1,3.85-4.17,7.67l-1.08-.83-.81-.63-1.19-1c-.76-.63-1.47-1.22-2.09-1.72C149.56,228.66,148.77,227.92,148.85,227.81Z"/></g><polyline class="cls-3" points="61.31 121.45 23.32 223.1 29.86 223.13"/><polyline class="cls-3" points="130.11 122.13 137.9 123.35 99.78 3.1 56.61 121.18 61.9 121.32"/><polyline class="cls-3" points="131.57 122.36 166.17 227.93 157.65 225.4"/><path class="cls-3" d="M159.17,225.85,182,311.51s-4.21,4.32-16.34,8.66l-1.39,6.73-10-3.36c-2.5.61-5.19,1.2-8.1,1.74-5.73,1.07-9.32,1-16.8,1.64l-4.12,2.8-5.66-2.21c-.23,0-6,6.63-6,6.63l-6.76-5.26q-7.45.14-15.83-.08c-25.36-.68-44-3.6-57.48-7.12l-6.15,3.58-2.14-5.61-9.66,2.6-3-8.05a85.2,85.2,0,0,1-11.51-7.53L28.4,222.81"/><g id="Layer_236" data-name="Layer 236"><path class="cls-3" d="M61.31,121.45,23.34,223a0,0,0,0,0,0,.06l6.48,0"/><path class="cls-3" d="M130.11,122.13l7.72,1.21s.06,0,0-.06L99.81,3.22a0,0,0,0,0-.08,0l-43.1,117.9a0,0,0,0,0,0,.06l5.21.14"/><path class="cls-3" d="M131.57,122.36l34.57,105.49s0,.07,0,.06l-8.44-2.51"/><path class="cls-3" d="M159.17,225.85,181.86,311a.92.92,0,0,1-.27.93c-1.31,1.13-5.8,4.59-15.43,8.1a.91.91,0,0,0-.59.68l-1.08,5.2a.92.92,0,0,1-1.2.69l-8.72-2.95a.94.94,0,0,0-.5,0c-2.43.59-5,1.16-7.85,1.68-5.67,1.06-9.24,1-16.55,1.62a.91.91,0,0,0-.45.16l-3.52,2.38a.89.89,0,0,1-.85.1l-4.67-1.82a.92.92,0,0,0-1,.22c-1.08,1.12-3.79,4.2-5,5.55a.91.91,0,0,1-1.25.12l-5.83-4.53a.89.89,0,0,0-.57-.19c-4.88.08-10,.06-15.51-.09-25.13-.67-43.65-3.55-57.12-7a.92.92,0,0,0-.69.09l-4.88,2.84a.92.92,0,0,1-1.32-.47l-1.46-3.82a.92.92,0,0,0-1.1-.56l-8,2.17a.92.92,0,0,1-1.1-.58l-2.55-6.93a1,1,0,0,0-.42-.49,86.6,86.6,0,0,1-10.7-7,.91.91,0,0,1-.31-1l27-83.25"/></g></g></g></g></g></g></g></svg>