<svg xmlns="http://www.w3.org/2000/svg" viewBox="0 0 98.93 67.79"><defs><style>.cls-1{fill:#eae428;}.cls-2{fill:#e0d72d;}.cls-3{fill:none;stroke:#000;stroke-miterlimit:10;stroke-width:2px;}.cls-4{fill:#eddabe;}.cls-5{fill:#fff1d7;}.cls-6{fill:#ddc9af;}.cls-7{opacity:0.17;}</style></defs><g id="Layer_2" data-name="Layer 2"><g id="Obstacles"><g id="Trees"><g id="Birch"><g id="Trubble_3" data-name="Trubble 3"><g id="Layer_253" data-name="Layer 253"><path class="cls-1" d="M75.86,42.24S80.55,1,59.19,1c-19.55,0-20.91,13.75-20.91,13.75s-4.8-6-10.88-3c-7.77,3.89-5,10.43-5,10.43S11.17,19.36,6.94,29C1.85,40.64,14.2,47.2,14.2,47.2" transform="translate(-0.13)"/><path class="cls-2" d="M11.88,23.45S8.71,29.4,14.46,35.06c7.31,7.18,25.59,5,25.59,5L14.2,47.2S-2.28,34.3,11.88,23.45Z" transform="translate(-0.13)"/><path class="cls-2" d="M26.14,13.28c-4,4.48,4.43,12,12.83,11.37,2.09-.17,2.17-1.63,1.54-2.76C39,19.2,37.12,13.34,43.18,6.07,38.61,26.22,65.77,24.44,65.77,24.44l.93,9L28.46,37s6.1-11-8-14.49C22,19.7,24.26,14.35,26.14,13.28Z" transform="translate(-0.13)"/><path class="cls-3" d="M74.4,15.81S74.52,1.74,59.19,1C39.66.15,38.28,14.79,38.28,14.79s-4.8-6-10.88-3c-7.77,3.89-5,10.43-5,10.43S11.17,19.36,6.94,29C1.85,40.64,14.2,47.2,14.2,47.2" transform="translate(-0.13)"/><path d="M.13,47.2c.07-.25,1.57,0,3.81,0a46.53,46.53,0,0,0,8.18-.91,86.32,86.32,0,0,1,8.52-1.42,10.47,10.47,0,0,1,4.64.5c.54.23.58,1.06.1,1.82s-1.06,1.31-1.3,1.19l-.22-.1-.63-.17a11,11,0,0,0-2.48-.25c-2.18,0-5.23.43-8.33.7a34.69,34.69,0,0,1-8.59-.1C1.5,48.07.07,47.38.13,47.2Z" transform="translate(-0.13)"/></g><g id="Layer_251" data-name="Layer 251"><path class="cls-4" d="M65.09,28.41a31.2,31.2,0,0,1,2.2-12.19l8-.45,2.74-4,1.8,5a22.26,22.26,0,0,1,8.93,3.33c0,9.11,2.42,19.3,9.07,29.87a1.29,1.29,0,0,1-.07,1.53c-1.56,1.9-5.49,8.62-17.47,6.52-4.31-.75-9.62-.47-15.84-2.24-17,5.41-23,3.69-31.87.58-4.3-1.5-16.24-4-17.16-4.89a1.3,1.3,0,0,1-.29-1.55,110.53,110.53,0,0,0,7.53-20.46,1.38,1.38,0,0,1,1.13-1c3-.43,12.56-1.64,18.84-.22,7.51,1.69,17.05-1.33,23.12.36" transform="translate(-0.13)"/><path class="cls-5" d="M88.84,19.25a59.06,59.06,0,0,0,9.22,31s-2.87,5.24-12.76,6.34c-5.45-2.18-5.72-7.72-3.86-12.45-4.64-5-6.16-9.91-8.51-16.88-1.28-3.78-.66-7.8.86-11.78l1.52.26,2.37-3.48,3.11,4.17" transform="translate(-0.13)"/><path class="cls-6" d="M65.28,32.08C56.54,36.2,31.51,34.75,23.82,29c-5-3.78,26.82-1.18,41.05-1.34" transform="translate(-0.13)"/><path class="cls-3" d="M65.09,28.41a32.46,32.46,0,0,1,2-11.68.85.85,0,0,1,.75-.54l7.48-.42,2.47-3.63a.24.24,0,0,1,.43,0l1.64,4.58a23.76,23.76,0,0,1,8.54,3.06.85.85,0,0,1,.39.71c0,9,2.53,19,9.07,29.43a1.29,1.29,0,0,1-.07,1.53c-1.56,1.9-5.49,8.62-17.47,6.52-4.31-.75-9.62-.47-15.84-2.24-17,5.41-23,3.69-31.87.58-4.3-1.5-16.24-4-17.16-4.89a1.3,1.3,0,0,1-.29-1.55,111.17,111.17,0,0,0,7.54-20.48,1.37,1.37,0,0,1,1.13-1c2.6-.38,4.57-1.67,14.35-.74.64.06,1.47-1,2.18-.87s1.44,1.27,2.3,1.39c1.76.23,3.78-2.41,5.33-2.36.94,0,1.48,2.78,2.36,2.76,6.34-.14,11-1.28,15.43,0" transform="translate(-0.13)"/><path d="M66.66,35.93c-.21,0-.87-2-1.4-4.12a27,27,0,0,1-.79-4.46c0-.16.36-.29.81-.29s.81.11.81.25,0,.56,0,1.36.15,1.87.26,2.94C66.63,33.74,66.89,35.88,66.66,35.93Z" transform="translate(-0.13)"/><path d="M48,34.38a25.51,25.51,0,0,1-4-.06c-2.37-.14-5.53-.39-8.7-.78a55.2,55.2,0,0,1-8.72-1.71,12.9,12.9,0,0,1-2.87-1.2,3.49,3.49,0,0,1-1.12-.94.93.93,0,0,1-.17-.83c.09-.27.31-.36.47-.29.33.2.6.15.75.35a2.29,2.29,0,0,0,.75.63A12.05,12.05,0,0,0,27,30.69a57.44,57.44,0,0,0,8.48,1.94c3.13.5,6.26.9,8.62,1.18A26,26,0,0,1,48,34.38Z" transform="translate(-0.13)"/><path d="M66.66,44c.17,0,.34,3,.06,6A30.66,30.66,0,0,1,65.61,56c-.07.21-.41.28-.74.15s-.56-.37-.49-.56.27-.75.56-1.82a39.15,39.15,0,0,0,.86-4C66.32,47,66.47,44,66.66,44Z" transform="translate(-0.13)"/><path d="M55.3,34.11c0-.19,2.58-.47,5.09-1.09a20,20,0,0,0,3.35-1.09,7.65,7.65,0,0,0,1.4-.77c.12-.09.37.08.63.33s.28.62.1.74a7.87,7.87,0,0,1-1.68.81,19.56,19.56,0,0,1-3.62.89C57.93,34.33,55.31,34.28,55.3,34.11Z" transform="translate(-0.13)"/><g class="cls-7"><path d="M40.35,43.73a11.77,11.77,0,0,1-3.26.12,30.74,30.74,0,0,1-7.15-1.15,26,26,0,0,1-6.76-3,17.71,17.71,0,0,1-2.87-2.16.71.71,0,0,1,.11-1.05.8.8,0,0,1,1-.12A16.39,16.39,0,0,0,24,38.5a26.33,26.33,0,0,0,6.29,3.11C35.14,43.36,40.37,43.45,40.35,43.73Z" transform="translate(-0.13)"/></g><g class="cls-7"><path d="M76.05,43.73c0-.26,4.22.23,8.37-.19a21.17,21.17,0,0,0,5.52-1.24,8.2,8.2,0,0,0,2.23-1.23c.19-.15.55,0,.9.29a.66.66,0,0,1,.09,1,9.76,9.76,0,0,1-2.7,1.35,21.33,21.33,0,0,1-6,1C80.17,44.82,76,43.91,76.05,43.73Z" transform="translate(-0.13)"/></g><path d="M42.78,32.08a20.48,20.48,0,0,1-3.16-.16c-.78-.07-1.57-.16-2.17-.24l-1-.14-1-.2a22,22,0,0,1-2.14-.53c-.2-.07-.37-.12-.58-.21s-.53-.26-.53-.48.34-.32.54-.38l.49-.06a3.26,3.26,0,0,1,1,0,3.81,3.81,0,0,1-.95.21l-.45.11c-.1,0-.18.05-.2.14s.11.07.26.13l.54.16c.75.18,1.53.31,2.12.4l1,.15,1,.19,2.16.36A27.08,27.08,0,0,1,42.78,32.08Z" transform="translate(-0.13)"/></g><g id="Layer_254" data-name="Layer 254"><path class="cls-1" d="M81.58,62.94s5.74-3.72,2.61-8.49-9-.68-9-.68S76,45.38,67.32,44c-6.1-1-13.83,2.26-13.78,8.74v.43s-6.33-1.9-9.81,2.32c-2.65,3.21-.87,6,.85,7.43L61.54,67l14.51-1.73" transform="translate(-0.13)"/><path class="cls-2" d="M46,54.45s-2.63,4.45,3.18,4.63,6.7-.61,6.7-.61-4.35-6.92-.56-9.42c0,0-.52,7.83,6.42,10.23a16.67,16.67,0,0,0,10.52-.17s2.91,4.81,10.89.5c0,0-1.25,6.12-13.8,6.93s-25-3.19-25-3.19S40.26,57.35,46,54.45Z" transform="translate(-0.13)"/><path d="M57.33,60.17c-.18.15-1.89-1.18-3.29-3.05A7.19,7.19,0,0,1,52.74,54a13.22,13.22,0,0,1-.16-1.53c0-.16.44-.29,1-.29s1,.12,1,.27,0,.6,0,1.35a6.13,6.13,0,0,0,.68,2.58C56.17,58.24,57.56,60,57.33,60.17Z" transform="translate(-0.13)"/><path d="M39.35,63.08c0-.31,6.22-.49,12.46.43a46.39,46.39,0,0,1,4.58.89l1.08.29.94.24c.63.13,1.23.25,1.79.32a36,36,0,0,0,4,.29c.09,0,1.66.12,4,0a31.75,31.75,0,0,0,8.23-1.25c1.34-.43,2.84-1.2,4.3-1.55a16.9,16.9,0,0,1,4-.56c1.19,0,2.16.06,2.82.08s1,0,1.06.05-.34.28-1,.4-1.65.19-2.78.34A19.13,19.13,0,0,0,81,64c-1.34.44-2.57,1.22-4.14,1.85a31.58,31.58,0,0,1-8.63,1.82,37.89,37.89,0,0,1-4.19.13,31.09,31.09,0,0,1-4.19-.49c-.61-.1-1.26-.26-1.95-.44l-1-.32-1-.33c-1.36-.42-2.84-.81-4.35-1.13C45.51,63.78,39.34,63.39,39.35,63.08Z" transform="translate(-0.13)"/><path d="M81.51,63.78l-1.8-.57-.71.11,1.88-1.45c.47-.31,4.58-3.15,2.24-6.72a3.48,3.48,0,0,0-2.3-1.65c-2.3-.46-4.93,1.31-4.95,1.33L73.6,56.38l.27-2.73c0-.29.57-7.21-6.75-8.37a13,13,0,0,0-10,2.53,6.28,6.28,0,0,0-2.35,4.94l-2.56,0a8.82,8.82,0,0,1,3.24-6.9,15.36,15.36,0,0,1,12-3.12,9.91,9.91,0,0,1,8.85,8.93A8.6,8.6,0,0,1,81.3,51a6,6,0,0,1,4,2.77,6.21,6.21,0,0,1,1,4.83,8.39,8.39,0,0,1-2.46,4.16C83,63.53,81.31,62.84,81.51,63.78Z" transform="translate(-0.13)"/><path d="M43.75,63.91c-2.43-2.09-4-5.62-1-9.21,4-4.82,10.88-2.83,11.17-2.74l-.73,2.46s-5.58-1.59-8.46,1.91c-1.61,2-1.38,4.89,1.75,6.79Z" transform="translate(-0.13)"/></g></g></g></g></g></g></svg>