<svg xmlns="http://www.w3.org/2000/svg" viewBox="0 0 191.86 381.13"><defs><style>.cls-1{fill:#7f493e;}.cls-2{fill:#724038;}.cls-3{fill:none;stroke:#000;stroke-miterlimit:10;stroke-width:2px;}.cls-4{fill:#8a5546;}.cls-5{fill:#7a4537;}.cls-6{fill:#00752f;}.cls-7{fill:#007c32;}.cls-8{fill:#00873a;}.cls-9{fill:#009444;}.cls-10{opacity:0.07;}.cls-11{fill:#c9c9c9;}.cls-12{fill:#a7a9ac;}</style></defs><g id="Layer_2" data-name="Layer 2"><g id="Obstacles"><g id="Trees"><g id="Pine"><g id="Tree_2" data-name="Tree 2"><g id="Layer_233_copy_2" data-name="Layer 233 copy 2"><path class="cls-1" d="M113.36,291.17a1.6,1.6,0,0,1,1.18,2.8c-18.84,16.92-7.45,20.18-8.3,35.92-.63,11.5,2.21,19.65,10.89,25.26a1.56,1.56,0,0,1-.25,2.82c-2.79,1-2.26,3.9-10.14,5-5.29.75-8.41,2.95-16.56,3.14-10.22.24-13.52-2.76-28.55-1.19-8.6.9-13.27-4.24-15.43-4.93a1.57,1.57,0,0,1-.59-2.7c5.89-5.14,8.28-9.23,10-18.68,1.9-10.45-2.86-9.72-.05-26.23,1.06-6.2-3.08-13.36-5.56-17a1.58,1.58,0,0,1,1.33-2.47Z"/><path class="cls-2" d="M75.91,287s-6,16.29-4.38,23.44,5.4,14.47.26,24.66,3.22,19.27,8,30H57.35l-12.87-6.18,8.05-10s4.7-7.68,3.52-15.54a92.09,92.09,0,0,1-.36-22.22c.64-5.66-7.11-11.22,1.66-14.92S75.91,287,75.91,287Z"/><path d="M83.26,334.51a6,6,0,0,1,0,1.35c0,.86,0,2.08.19,3.54A80.37,80.37,0,0,0,85.34,350a82.5,82.5,0,0,0,3.15,10.41c.29.69.55,1.32.79,1.88l.7,1.42c.45.73.71,1.19.76,1.22a.93.93,0,0,1,.11,1.15c-.23.27-.76.1-1.17-.39-.06-.05-.34-.56-.83-1.39l-.71-1.5-.77-2a80.62,80.62,0,0,1-2.93-10.64A69.72,69.72,0,0,1,83,339.44a26.63,26.63,0,0,1,0-3.59A5,5,0,0,1,83.26,334.51Z"/><path d="M68.94,334.51s.2-.61.51-1.68a21.29,21.29,0,0,0,.7-4.53,32.48,32.48,0,0,0-.35-6.5,56.41,56.41,0,0,0-1.72-7.3c-1.37-5-2.76-10-2.76-14.13a8.4,8.4,0,0,1,.51-2.84,12.09,12.09,0,0,1,1-2c.64-1,.92-1.6,1-1.68.29-.61.77-1,1.11-.89s.38.8,0,1.48a20.42,20.42,0,0,1-1,1.76,7.34,7.34,0,0,0-1.42,4.18c-.08,3.79,1.19,8.89,2.44,13.85a54.06,54.06,0,0,1,1.56,7.45,31.05,31.05,0,0,1,.13,6.62,18.72,18.72,0,0,1-1,4.58,10.65,10.65,0,0,1-.52,1.2C69,334.38,69,334.52,68.94,334.51Z"/><path d="M93.68,317.68a10.32,10.32,0,0,1,.66-1.73A28.54,28.54,0,0,0,96,311.38a17.34,17.34,0,0,0,.3-6.75c-.07-.62-.23-1.23-.35-1.86s-.33-1.26-.5-1.9c-.33-1.29-.74-2.59-1-3.93A53.37,53.37,0,0,1,93,289a20,20,0,0,1,.54-7.17,19.61,19.61,0,0,1,2.19-4.71c.63-1.07,1-1.72,1-1.8.32-.64.8-1.08,1.15-.95s.36.83,0,1.53c0,.09-.4.8-1.06,1.87a19,19,0,0,0-2.13,4.4c-1.23,3.81-.58,9.33.56,14.57.25,1.33.63,2.62.93,3.92.16.65.31,1.3.46,1.94s.26,1.3.31,1.94a17.58,17.58,0,0,1-.53,7,25.18,25.18,0,0,1-1.86,4.55A10.74,10.74,0,0,1,93.68,317.68Z"/><path d="M67.41,341.64a3.15,3.15,0,0,1,.19,1.05,5.81,5.81,0,0,1,0,1.24c0,.23,0,.49-.06.76l-.16.82a37.28,37.28,0,0,1-2.86,8.08c-1.32,2.84-2.83,5.58-4,7.64s-2.09,3.42-2.15,3.51a.72.72,0,0,1-1,.3.73.73,0,0,1-.12-1c.06-.09,1-1.42,2.21-3.42s2.83-4.68,4.23-7.42a41.91,41.91,0,0,0,3.2-7.79l.21-.79c0-.26.08-.5.12-.73a6.32,6.32,0,0,0,.14-1.18A4,4,0,0,1,67.41,341.64Z"/><path d="M84,327.34a8,8,0,0,1,0-1.51,14.45,14.45,0,0,0-.45-3.88,8.66,8.66,0,0,0-1.06-2.34c-.49-.79-1.09-1.59-1.64-2.5a17.92,17.92,0,0,1-2.1-6.24,35.58,35.58,0,0,1,.08-12.36c.34-1.68.72-3,.83-4a6.31,6.31,0,0,0,0-1.55c-.05-.54.07-1.05.43-1.16s.79.33.86,1a7.55,7.55,0,0,1,0,1.86c-.15,1.08-.56,2.45-.92,4.07a35.22,35.22,0,0,0-.34,12,17.2,17.2,0,0,0,1.83,6c.49.88,1,1.7,1.53,2.54a9.08,9.08,0,0,1,1,2.53,13.3,13.3,0,0,1,.22,4A6.64,6.64,0,0,1,84,327.34Z"/><path d="M95.68,344c.11,0,.34,1.35,1,3.31a33.15,33.15,0,0,0,3.2,6.84A24.24,24.24,0,0,0,104.7,360a12.69,12.69,0,0,0,2.94,1.92.71.71,0,0,1,.35.89.65.65,0,0,1-.92.28,13.42,13.42,0,0,1-3.15-2.19,24.24,24.24,0,0,1-4.82-6.22,30.43,30.43,0,0,1-2.9-7.17A11.6,11.6,0,0,1,95.68,344Z"/><path class="cls-3" d="M113.36,291.17a1.6,1.6,0,0,1,1.18,2.8c-18.84,16.92-7.45,20.18-8.3,35.92-.63,11.5,2.21,19.65,10.89,25.26a1.56,1.56,0,0,1-.25,2.82c-2.79,1-2.26,3.9-10.14,5-5.29.75-8.41,2.95-16.56,3.14-10.22.24-13.52-2.76-28.55-1.19-8.6.9-13.27-4.24-15.43-4.93a1.57,1.57,0,0,1-.59-2.7c5.89-5.14,8.28-9.23,10-18.68,1.9-10.45-2.86-9.72-.05-26.23,1.06-6.2-3.08-13.36-5.56-17a1.58,1.58,0,0,1,1.33-2.47Z"/></g><g id="Layer_233_copy" data-name="Layer 233 copy"><path class="cls-4" d="M102.36,304.87c-1-.05-1.49,1.54-.72,2.48,7.43,9.08,3.87,17,4.78,30.92.66,10.21-1.23,20.24-6.88,25.14a1.61,1.61,0,0,0,.23,2.5c1.88.95,2,1.58,7.27,2.64,3.54.72,7,4.15,12.39,4.39,6.81.3,18.14-.77,22.26-.09,3.33.55-2.52-8.94-3.17-9.68-4-4.6.38-10.25.82-17.08.62-9.38,4.73-6.39,2.5-21-.83-5.51,9.29-10.47,10.87-13.67.46-.92-14.45-3.9-15.32-3.94Z"/><path class="cls-5" d="M115.65,347.21c5.08,16.7-3.09,16.91,9.29,25.78-5.42-.23-16.63,3.17-23.4-2.66-4.07-3.5-5.42-2-7.29-3a1.62,1.62,0,0,1-.24-2.5c5.66-4.91,7.7-18.16,8.49-28.35.88-11.39,7.63-16.58-.86-29.17-.68-1-.33-2.53.72-2.48,0,0-5.67-9.11,6-.75C124.94,315.91,108.31,323.05,115.65,347.21Z"/><path class="cls-5" d="M129.21,342.8c-1.62,2.44-3.55-.25-3.3-4,.13-2,1.16-4.47,2.29-4.47,0,0,1,0,1.43,2.33A11.79,11.79,0,0,1,129.21,342.8Z"/><path d="M110.05,343.05a4.9,4.9,0,0,1,.28,1.18c.11.76.35,1.83.47,3.15a44.74,44.74,0,0,1,.13,9.72,22.05,22.05,0,0,1-3,9.43,17.77,17.77,0,0,1-2,2.71c-.55.62-.89,1-.93,1a.82.82,0,0,1-1.08.2.79.79,0,0,1,.14-1.1l.93-1a17.39,17.39,0,0,0,2-2.49A21.3,21.3,0,0,0,110,357a48.65,48.65,0,0,0,.28-9.56A40.14,40.14,0,0,1,110.05,343.05Z"/><path d="M121.35,361.46a11.47,11.47,0,0,1,.13-2,29.83,29.83,0,0,0,.07-5.15,25.16,25.16,0,0,0-1.74-7,28.2,28.2,0,0,1-1.09-4.07,26.23,26.23,0,0,1-.35-4.35,24.66,24.66,0,0,1,.36-4.38,18.82,18.82,0,0,1,1.32-4.09c.57-1.27,1.2-2.41,1.61-3.54a13.08,13.08,0,0,0,.77-3.3,11.31,11.31,0,0,0,.08-1.52,9.1,9.1,0,0,0,0-1.39c0-.44,0-.86-.08-1.24l-.14-1.06c-.14-1.3-.35-2.07-.35-2.17-.14-.77,0-1.46.38-1.54s.75.51.9,1.31c0,.11.2.89.33,2.24l.13,1.1c0,.41,0,.84.07,1.3a10.39,10.39,0,0,1,0,1.48,13.39,13.39,0,0,1-.11,1.63,13.76,13.76,0,0,1-.9,3.57c-.46,1.22-1.13,2.37-1.69,3.58a18.13,18.13,0,0,0-1.32,3.84,23,23,0,0,0-.42,4.18,25.66,25.66,0,0,0,.25,4.22,27.19,27.19,0,0,0,1,4,24.8,24.8,0,0,1,1.56,7.23,26.54,26.54,0,0,1-.32,5.21A12.67,12.67,0,0,1,121.35,361.46Z"/><path d="M129.39,342.5a1.85,1.85,0,0,1-.51,1,1.45,1.45,0,0,1-1.13.5,1.77,1.77,0,0,1-1.22-.76,5.52,5.52,0,0,1-1-2.32,11.58,11.58,0,0,1-.14-1.17,10.57,10.57,0,0,1,.08-1.16,9.9,9.9,0,0,1,.52-2.37,3.27,3.27,0,0,1,1.47-2,1,1,0,0,1,.85,0c.18.09.25.18.24.2s-.45-.19-.93.13a3.16,3.16,0,0,0-1,1.84,11.73,11.73,0,0,0-.3,2.26c0,.63,0,1,0,1.07s0,.45.06,1.06a5.07,5.07,0,0,0,.65,2.07,1.34,1.34,0,0,0,.76.65,1.16,1.16,0,0,0,.83-.27C129.1,342.83,129.32,342.45,129.39,342.5Z"/><path d="M131.5,350.4a4.79,4.79,0,0,1,.35-1.34c.28-.83.73-2,1.2-3.41a22.27,22.27,0,0,0,1-4.93,19.37,19.37,0,0,0-.41-5.74,31.41,31.41,0,0,1-.86-5.94,22.4,22.4,0,0,1,.46-5.31c.31-1.53.67-2.78.87-3.66a12.67,12.67,0,0,0,.27-1.46c.08-.51.34-.91.71-.93s.67.49.58,1.09a12.29,12.29,0,0,1-.32,1.6c-.23.92-.61,2.15-.94,3.61a21.49,21.49,0,0,0-.55,5,29.64,29.64,0,0,0,.69,5.78,19.89,19.89,0,0,1,.22,6,20.83,20.83,0,0,1-1.29,5c-.54,1.41-1.07,2.54-1.42,3.34A7.16,7.16,0,0,1,131.5,350.4Z"/><path class="cls-3" d="M102.22,341c-.1,13.61-2.55,18.94-8.21,23.85a1.62,1.62,0,0,0,.24,2.5c1.87.95,5.46,1.15,9.76,4,6.09,4,15.73,2.44,19.51,1.44,4.72-1.26,13.61.13,15.15.18,8.93.31,2.72-3.74,2.21-4.58a23.61,23.61,0,0,1-3.3-14.79c.57-5.2,3.6-9.62,3.72-24.45.07-9.17,7.35-14,8.93-17.24.46-.92-6.37-2.81-7.24-2.86L105.1,307.2c-1-.05-3.32,1.4-2.88,2.52,3.1,7.85,3.47,12.42,2.79,19.29"/><path class="cls-3" d="M105.45,328a33.08,33.08,0,0,0-3.23,13"/><path d="M112.9,304.6a13.9,13.9,0,0,1-.42,4c-.45,2.37-1.24,5.49-2.14,8.59s-1.93,6.18-2.78,8.5-1.54,3.88-1.6,4a.73.73,0,0,1-.93.46.75.75,0,0,1-.25-1c0-.1.76-1.6,1.66-3.87s2-5.29,3-8.34,1.93-6.11,2.52-8.43S112.8,304.6,112.9,304.6Z"/></g><g id="Layer_299" data-name="Layer 299"><path class="cls-6" d="M166.63,282.16l-23.4-77.5,6.35,1.66L114,106.33l4.58-.44L82.38,3.15,49.23,105.82l4.35-.34L29.85,173.59l4.55-.44-18,55.74L19,230,1.6,293.5A74.84,74.84,0,0,0,12.16,300l2.93,7.25,8.57-2.71,2.1,5.06,5.39-3.48c12.21,2.74,34.73,4.62,57.47,4.37,5-.06,6.87-9.59,11.32-9.84l6.24,4.57,5.78-5.51.62-.07,3.88,1.14,1-1.7c6.69-.85,12.54-1.91,17.63-3.08,2.6-.6,5-1.23,7.2-1.87l9,2.73,1-6.2C163,286.25,166.63,282.16,166.63,282.16Z"/><polyline class="cls-7" points="149.58 225.67 143.23 204.66 149.58 206.32 138.81 176.04 34.4 173.15 16.37 228.89 19.04 230 21.79 230.87 24.12 234.22 29.8 231.82 33.53 239.16 46.03 237.75 49.39 245.59 56.66 241.48 63.16 248.66 72.24 242.83 79.39 246.51 85.12 243.54"/><polygon class="cls-8" points="69.06 181.59 62.2 183.44 55.08 178.62 47.7 180.65 42.4 174.22 37.94 177.01 35.08 173.16 33.07 173.15 30.46 172.91 61.71 84.04 104.49 83.56 149.58 206.32 143.23 204.66 140.35 211.1 130.2 204.18 116.81 195.04 104.25 183.74 97.2 188.47 91.18 183.19 87.08 188.47 78.39 180.65 70.59 185.47 69.06 181.59"/><polygon class="cls-9" points="105.31 110.13 104.17 112.04 95.85 107.22 90.87 111.89 88.07 109.63 82.81 115.76 75.85 110.17 68.76 114.98 61.87 107.03 56.85 109.63 53.19 106 48.84 106.33 82.38 3.15 119.72 107.02 114.02 106.33 112.05 111.04 105.31 110.13"/><path class="cls-10" d="M88.24,257.93C81,248.44,78,223.84,86.73,226.28c-1.8-9.6-17.84-22.86-5.94-26.92,1.75-5.18-14.4-21.77-4.16-27.66-6.94-14.12-7.18-27.56-1.12-28.86-5.35-12.53-2.27-24.41,3-19.29.76-2.32-.19-6.78-1.29-11.49-.15-.64-1.68-.75-1.83-1.39-1.76-7.44-2-15.4,2.37-15.64-4-16.33-7.77-28.84-2.47-27.37C75.61,52,70,59,80.07,10.44L49.81,105.82l4.35-.34L29.34,172.82l4.54-.44L15.63,229.7l3.8.34L1.6,293.5A74.84,74.84,0,0,0,12.16,300l2.93,7.25,8.57-2.71,2.1,5.06,5.39-3.48c10.15,2.28,41.2,4.42,58.47,4.81,3.5.08-8.26-27.14,1.23-28.28C92.27,273.08,76.91,259.92,88.24,257.93Z"/><path d="M62.2,183.44a6.31,6.31,0,0,1,2-.82l2.16-.7,1.26-.4.69-.22,1.1-.32c.33.76.66,1.54,1,2.32l.42,1c.06.13.09.17.12.24s1.17-.79,1.88-1.26l2.15-1.4,2.14-1.38,1.41-.85,2,1.88,2.12,2L85,185.78,86.22,187l.56.54.23.25c.11-.08.87-1,1.35-1.55l1.4-1.61c.81-.9,1.35-1.44,1.42-1.39a6.19,6.19,0,0,1-1,1.72L89,186.66c-.5.71-.81,1.17-1.83,2.53l-8.85-7.52v0l-.08.05-.26.17-7.68,4.51-.64-1.7-.35-1-.35-1-.09-.25,0-.1-.06-.2-4.44,1A6.88,6.88,0,0,1,62.2,183.44Z"/><path d="M87.73,109.63c.06-.09.51.1,1.15.44l1.09.61.61.36a.94.94,0,0,0,.24.1l.08-.11,0,0,0,0,.07-.07.53-.57,1-1,1-1,.55-.47c.37-.33.6-.5,1.68-1.45,1.18.73,1.47,1,2.08,1.36l1.57,1.11c.95.69,1.62,1.24,1.55,1.37s-.9-.18-2-.66l-1.73-.81a11.22,11.22,0,0,0-1.3-.6,7.34,7.34,0,0,1-.77.86l-.5.52c-.06,0-2,1.64-3.76,3.16l-1-.75-.53-.47c-.35-.3-.66-.59-.93-.84C88,110.08,87.66,109.72,87.73,109.63Z"/><path d="M71,113.6c-.1-.17.66-.82,1.58-1.51.45-.34,1-.7,1.39-1l.62-.43.89-.56.64.34c.14.09.42.27.84.57l1.55,1.11c1.11.82,2.18,1.68,2.06,1.89s-1.39-.3-2.66-.86l-1.73-.79c-.47-.23-.81-.4-.71-.34s0,0,0,0a0,0,0,0,0,0,0s0,0-.1,0l-.68.31c-.5.23-1.06.47-1.58.69C72.06,113.44,71.12,113.77,71,113.6Z"/><path d="M42.4,174.22c.07.11-.41.56-1.18,1.17-.38.31-.84.66-1.34,1l-.78.57-1.36.94-4-5.53c-.11-.16.17-.54.63-.83s.9-.4,1-.23l1,1.72,1,1.69.54.94.07.12,0,0,0,.08.07.17.33-.12.85-.45c.55-.29,1.07-.55,1.51-.76C41.72,174.35,42.33,174.11,42.4,174.22Z"/><path d="M29.8,231.82c.05.13-.61.55-1.63,1.11l-1.75.92c-.7.35-1.11.58-2.54,1.23-2-2.62-4-5.23-4-5.32s.14-.57.58-.87.9-.42,1-.24l1.06,1.65c.3.49.65,1,1,1.64l.58.93.14.24c.06.08,0,.06.05.1l.07.15a13.09,13.09,0,0,0,1.62-.53l1.88-.61C29,231.88,29.74,231.7,29.8,231.82Z"/><path d="M107.9,110.48c0-.12.48-.16,1.2-.16l1.25,0,.71,0,.29,0,0-.2,0-.09.07-.26.31-1c.21-.66.41-1.29.58-1.85.36-1.1.62-1.89.64-1.94s.51-.13,1,.06.86.48.8.64l-.82,1.87-.8,1.76-.44,1-.11.24-.17.4-.34.76-1.22-.24-.71-.17L109,111C108.32,110.77,107.89,110.59,107.9,110.48Z"/><path d="M61.19,107.06c.07.11-.36.52-1.06,1.09-.35.29-.76.62-1.22,1l-.74.55-1.27.89-3.62-5.33c-.09-.16.2-.51.66-.79s.91-.38,1-.23l.91,1.66.86,1.61.48.9.13.34.28-.1.75-.38c.51-.26,1-.5,1.39-.69C60.56,107.16,61.12,107,61.19,107.06Z"/><path d="M134.06,206.81c.08-.11.95.32,2.2,1l2.11,1.24,1.17.71a1.53,1.53,0,0,0,.34.18l.17.08.06-.2,0-.08v0l.06-.15.47-1.19.85-2.12c.51-1.23.86-2.07.88-2.13.1-.23.59-.24,1.08,0s.8.58.7.82-1.78,3.63-3.53,7.22l-1.82-1.33-1.09-.83-1.92-1.52C134.7,207.58,134,206.93,134.06,206.81Z"/><polyline class="cls-3" points="54.57 104.67 30.8 172.6 35.67 172.44"/><polyline class="cls-3" points="33.88 173.37 16.01 230.04 21.55 229.68"/><polyline class="cls-3" points="112.75 106.16 119.13 106.33 82.38 3.15 50.23 105.34 54.97 105.29"/><line class="cls-3" x1="149.58" y1="206.32" x2="141.86" y2="204.3"/><path class="cls-3" d="M113.71,105.89l35.84,100.36s0,.06-.05.05l-7.64-2"/><path class="cls-3" d="M143.23,204.66l19.67,86.51a.84.84,0,0,1-.22.85c-1.13,1.08-5,4.4-13.54,7.94a.83.83,0,0,0-.5.64l-.79,4.8a.83.83,0,0,1-1,.66l-7.92-2.39a.86.86,0,0,0-.45,0c-2.15.62-4.47,1.23-7,1.81-5,1.16-8.23,1.23-14.77,2a.79.79,0,0,0-.39.16l-3.07,2.3a.8.8,0,0,1-.76.12l-4.24-1.5a.79.79,0,0,0-.88.23c-.94,1.06-3.25,4-4.27,5.25a.8.8,0,0,1-1.11.15l-5.38-3.94a.8.8,0,0,0-.52-.15c-4.36.24-9,.4-13.9.45-22.53.26-39.22-1.73-51.41-4.44a.77.77,0,0,0-.61.11L25.86,309a.81.81,0,0,1-1.2-.38l-1.43-3.44a.82.82,0,0,0-1-.47L15.09,307a.82.82,0,0,1-1-.48l-2.52-6.25a.84.84,0,0,0-.4-.43,76.79,76.79,0,0,1-9.82-6,.85.85,0,0,1-.31-.91l18.64-62.65"/><path d="M75.48,244.41c0,.05-.36-.09-.93-.38l-2.15-1.14-.3.23-.5.36-1.06.77-2.33,1.66-2.49,1.76-1.26.89-1.77,1.21-4.3-5.27L57,242.84l-.25-.3,0,0h0l-.13.07-1.61.92-5.84,3.3L48,244l-.9-2.13c-.3-.71-.59-1.42-.88-2.12l-.43-1-.18-.46-.09-.23-4.7.43a7.51,7.51,0,0,1-2.06,0,6.85,6.85,0,0,1,2-.52L43,237.6l1.33-.24,1.77-.29,3.75,7.77.13-.09.64-.4,1.33-.82,2.29-1.41L57,240.46l.22-.13,2.45,3.2c.51.67,1.09,1.45,1.73,2.28l1,1.29.51.68c.06.07.06.08.06.09l0,0,0,.08.14-.07.64-.4,1.3-.83,2.59-1.62,4.73-2.93,1.41,1,.93.67C75.24,244.13,75.51,244.36,75.48,244.41Z"/></g><g id="Layer_234_copy" data-name="Layer 234 copy"><path class="cls-7" d="M190.92,311.82,181,249.9l4.7,1.93L169,175.09l4.31,1.12-18.1-87.33-37.94,80.38,3.37.2L87.29,238.92l3.54.13L66.24,296.37a58.5,58.5,0,0,0,7.43,6.07L72.78,305l5.39-.89,9.24,4.54,3.83,3.9c1.52.56,2.72-.55,4.27-.16A245,245,0,0,0,126.86,318c3.86.47,2.22.36,5.66.63l4.32,3.35,5.48-2.8,5.29.47,10.91.12-7.15-.05c5.22,0,9.83-.16,13.86-.53,2.05-.19,6-1,7.81-1.26l4.57,3.6,4.37-4.86C189.05,314.7,190.92,311.82,190.92,311.82Z"/><polygon class="cls-8" points="81.18 250.77 130.97 148.83 163.87 152.91 188.57 268.26 183.86 267.31 181.11 269.92 175.55 267.99 172.07 273.44 163.14 269.82 160.41 271.55 156.33 269.24 149.92 272.77 147.87 269.57 143.39 272.54 138.65 267.98 132.95 273.25 127 266.78 120.22 270.87 114.89 265.42 108.76 269.34 104.2 261.13 97.57 262.36 97.06 258.04 92.71 259.34 90.31 253.71 86.81 254.78 84.89 251.37 81.18 250.77"/><polygon class="cls-9" points="177.52 193.56 155.25 88.88 108.76 186.28 112.08 186.63 113.19 190.06 118.65 188.41 120.68 192.53 124.09 191.79 125.89 196.12 129.53 193.92 134.98 198.84 137.71 195.78 140.58 198.13 143.64 196.4 147.05 199.37 150.09 196.62 152.72 200.74 159.39 196.09 164.7 199.97 168.09 195.26 171.11 195.86 172.4 193.83 177.52 193.56"/><path class="cls-10" d="M133.26,285.07c-4.61-8-4-23.51,2.44-20.73.76-8-13.15-26.34-2.07-25,1.88-3.8-8.79-18.22-.32-21.67-3.86-11.56-3.05-19.16,1.73-19.53-2.8-10.18-.26-18.31,3.73-14.3,1-2.52-2.45-25.38,3.41-24.9-1.39-12.95-3-22.95.95-21.27,1.85-12-3.16-7.24,9.59-43.43l-44.93,92.53,3.38.2-30,64.73,3.54.13L66.24,296.37a58.5,58.5,0,0,0,7.43,6.07L72.78,305l5.39-.89,9.24,4.54,3.83,3.9c1.27.47,3-.86,4.78-.49,8.76,1.83,22.63,4.35,33.63,6.09,2.68.43-4.37-14,3-13.86C134.78,297.12,124.35,285.42,133.26,285.07Z"/><g id="Layer_235_copy" data-name="Layer 235 copy"><path d="M97.3,262.42a6.44,6.44,0,0,1,2.06-.75l2.19-.61,1.26-.32.65-.17,1.08-.26c1.11,1.9,2.25,3.87,3.12,5.38.4.7.74,1.3,1,1.72l.16.29c0,.08,0,0,0,0h0s0,.05.23-.13l1.46-.86,4.13-2.44.85.9.5.56,1,1.08,1.7,1.95c1,1.16,1.62,2,1.53,2.05a8.74,8.74,0,0,1-2-1.58l-3.72-3.41-.13.11-.16.11-.23.16-.92.63-1.7,1.15-1.41.95-1.72,1.13-.44-.8-.58-1.13-.9-1.77L105.09,264l-.67-1.36-.34-.69a1,1,0,0,1-.09-.2l0-.12-4.45.68A6.26,6.26,0,0,1,97.3,262.42Z"/><path d="M159.27,196.12c.14.19-1.07,1.35-2.33,2.48l-1.76,1.54-.84.72-.39.25-1.62,1.12-.67-1.36-.15-.32-.09-.2-.17-.4c-.23-.54-.46-1.08-.66-1.58-.39-1-.64-1.77-.5-1.84s.66.55,1.28,1.42c.31.43.64.92,1,1.41l.24.37.12.18,0,.05.1,0,0-.08s0,0,0,0,0,0,0,0l.08-.07.36-.29.92-.61,2-1.25C157.66,196.76,159.13,195.93,159.27,196.12Z"/><path d="M125.89,196.12c-.07-.11.32-.54.93-1.12.3-.29.66-.61,1-.94l.59-.51,1-.82,2.92,2.42,1,1,.92,1,.49.52a1.52,1.52,0,0,0,.14.21l.19-.1a1.13,1.13,0,0,0,.19-.14l.25-.18c.32-.25.62-.47.88-.65.52-.37.89-.57,1-.49s-.15.43-.55.94c-.19.25-.43.54-.69.84l-.2.24-.27.3-.76.79-3.67-3-.71-.74-.71-.74c-.11-.12-.31-.32-.36-.39l-.09-.13-.08,0,0,0a.28.28,0,0,0-.11.06l-.66.4c-.44.25-.86.5-1.23.7C126.51,196,126,196.22,125.89,196.12Z"/><path d="M162.54,270.24c.06.08-.15.36-.52.76-.19.21-.42.44-.67.69l-.44.43-.72.64-.92-.7-.62-.45-1.21-.9-1.05-.79-.22-.17c-.08-.07,0,0-.06,0h0s0,0,0,0l0,0-.48.28L154,271l-2,1.11-2.21,1.22-.49-.9a5.33,5.33,0,0,1-.25-.55c-.12-.28-.16-.47-.11-.51s.21.08.43.3.27.28.35.36l.28.27.22-.21a3.14,3.14,0,0,1,.27-.23l.89-.69,1.82-1.36,1.47-1.07.45-.33.34-.23.75-.46.63.56.54.49.95.9,1.09,1.05.55.53c.1.12.13.17.22.27l.22-.11.44-.28.82-.5C162.16,270.31,162.48,270.17,162.54,270.24Z"/><path d="M90.47,253.64c.06.12-.35.43-1,.85l-1.12.68-.32.19-.17.09-.26.14-1.18.61c-1.24-2.29-2.55-4.68-2.59-4.76s.28-.44.76-.67.94-.31,1-.17l.59,1.44.56,1.41.15.39L87,254l0,.1v0a2,2,0,0,0,.06.28l.24,0,.08,0,.17-.06.35-.12,1.26-.39C89.92,253.61,90.42,253.52,90.47,253.64Z"/><path d="M168.09,195.26c0-.11.4-.12,1-.07l1,.12a2,2,0,0,0,.67.05l.08-.31.33-.75.62-1.37.67-1.44c.06-.11.49,0,1,.26s.8.56.74.68l-.85,1.34-.81,1.26-.45.68-.7,1.1c-.63-.23-1.29-.46-1.53-.58s-.63-.28-.88-.41C168.37,195.57,168.06,195.37,168.09,195.26Z"/><path d="M117.91,188.67c0,.13-.52.44-1.38.82l-1.46.61-.83.32-1.45.5c-1.13-2.27-2.23-4.45-2.27-4.53s.29-.44.78-.65,1-.28,1-.13l.5,1.32.49,1.32.26.72c0,.06,0,.14,0,.23a1.56,1.56,0,0,0,.29,0l.87-.18c.56-.11,1.1-.21,1.56-.28C117.23,188.58,117.87,188.53,117.91,188.67Z"/><path d="M175.55,268c0-.13.78,0,1.84.32.52.15,1.13.33,1.79.54l1,.32.24.08h.09l.15,0,.05-.15,0-.06.11-.2.47-.9.86-1.58.88-1.6c.11-.17.56-.08,1,.2s.75.64.65.81L181.24,271l-.86-.38-.42-.19-.25-.12-1-.46c-.61-.3-1.18-.59-1.66-.85C176.13,268.51,175.5,268.11,175.55,268Z"/></g><polyline class="cls-3" points="111.97 187.42 81.18 251.31 85.7 251.76"/><polyline class="cls-3" points="172.22 192.7 177.52 194.08 155.25 88.88 108.76 186.28 112.4 186.74"/><polyline class="cls-3" points="172.88 192.7 188.57 268.26 182.85 265.91"/><g id="Layer_236_copy" data-name="Layer 236 copy"><path class="cls-3" d="M183.66,266.45l7.19,45a.65.65,0,0,1-.25.64,21.7,21.7,0,0,1-3.12,1.25h0c-.92,1.55-2.13,3.69-2.22,3.85h0c-.13-.05-1.54-.57-3-1.25h0c-1.36,1.48-3.63,4.65-3.76,4.84,0,0,0,0,0,0-.19-.12-3.85-2.3-5.93-3.59h0a81.66,81.66,0,0,1-10.15,1.48h0l-2,2.36h0c-.14-.1-1.63-1.14-2.58-1.95h0a141.8,141.8,0,0,1-16.51.21h0c-1.84,1.19-4.5,2.77-4.63,2.85h0c-.14-.11-2.75-2.2-4.54-3.59h0a199.66,199.66,0,0,1-36.8-7.36h0L91,312.52h0c-.09-.11-1.85-2.19-3-3.82h0a95.14,95.14,0,0,1-10.46-4.64h0c-2,.28-4.3.77-4.47.81h0a21.36,21.36,0,0,1-.84-3.87v0a33.86,33.86,0,0,1-5.57-4.29.64.64,0,0,1-.14-.73l19-44.19"/></g></g><g id="Layer_301" data-name="Layer 301"><polyline class="cls-11" points="70.47 372.32 71.65 362.78 78.7 361.26 78.19 355.56 87.44 352.64 93.55 353.87 97.57 360.96 97.57 374.81"/><polyline class="cls-11" points="108.22 377.25 105.58 365.76 100.04 363.64 92.35 365.32 86.93 377.25 98.5 380.28"/><polyline class="cls-12" points="80.2 355.9 87.49 358.42 87.97 364.02 88.99 366.68 91.44 367.34 92.81 366.05 97.92 368.9 99.05 379.09 87.73 377.74 89.02 372.65 79.78 373.96 70.87 371.96 71.63 364.28 80.71 367.82 86.28 366.15 79.28 362.78"/><polyline class="cls-3" points="70.53 371.77 71.59 363.28 79.02 361.93 79.39 355.18 87.44 352.64 93.55 353.87 97.57 360.96 97.45 364.77"/><path d="M63.19,371.77a3.29,3.29,0,0,1,1.07-.31,14,14,0,0,1,2.94-.19,19.38,19.38,0,0,1,4.12.64c1.48.36,3,.78,4.56,1a19.61,19.61,0,0,0,4.58.12c1.47-.11,2.83-.4,4.07-.59a10.67,10.67,0,0,1,3.22-.13,8.33,8.33,0,0,1,1.36.33.79.79,0,0,1,.47,1.08.84.84,0,0,1-1,.45,6.45,6.45,0,0,0-1-.29,9.59,9.59,0,0,0-2.77,0c-1.19.15-2.63.4-4.19.46a20.75,20.75,0,0,1-4.87-.34c-1.62-.32-3.17-.83-4.6-1.26a21,21,0,0,0-3.93-.89C64.81,371.62,63.21,371.92,63.19,371.77Z"/><polyline class="cls-3" points="108.22 377.25 105.58 365.76 100.04 363.64 92.35 365.32 86.93 377.25"/><path d="M113.43,377.17c-.07.18-1-.16-2.41.1a23.54,23.54,0,0,0-5,1.88,24.57,24.57,0,0,1-5.49,1.78,15.31,15.31,0,0,1-2.83.19,13.11,13.11,0,0,1-2.79-.49l-1.25-.4c-.43-.16-.87-.37-1.32-.57l-.69-.32L91,379a11.27,11.27,0,0,0-1.3-.5,17.44,17.44,0,0,0-5.23-.61c-1.49,0-2.51,0-2.52-.16s.94-.43,2.44-.71a15.14,15.14,0,0,1,5.7-.06,13.83,13.83,0,0,1,1.56.43l.73.28.65.22c.42.15.83.31,1.22.43l1.12.25a12.59,12.59,0,0,0,2.42.27,15.67,15.67,0,0,0,2.44,0,24.81,24.81,0,0,0,5.19-1.21,19.31,19.31,0,0,1,5.51-1.27C112.58,376.4,113.5,377.08,113.43,377.17Z"/></g></g></g></g></g></g></svg>