<svg xmlns="http://www.w3.org/2000/svg" viewBox="0 0 168.44 31.61"><defs><style>.cls-1{fill:#d1d3d4;opacity:0.58;}.cls-2{fill:#090909;}.cls-3{fill:#c9c9c9;}.cls-4{fill:#a7a9ac;}.cls-5{fill:none;stroke:#000;stroke-miterlimit:10;stroke-width:1.5px;}</style></defs><g id="Layer_2" data-name="Layer 2"><g id="Obstacles"><g id="Rocks"><g id="Rubble_3" data-name="Rubble 3"><path class="cls-1" d="M164.58,19c-3.61,2.07-16.5,3.87-28.32,1.94-21.36-3.49-34.65,19.8-67.06,5.31C53,19.05,45,31,28.26,23.3c-7-3.26-14.16-5.81-18.93-5.74-16.52.27-9.12-10,12.06-8.8C44,10.08,35.52,3.35,70.49,6.61c17.8,1.67,44.11-3.28,59.45,1.47S180,10.15,164.58,19Z"/><path class="cls-2" d="M150.83,11.21a7.74,7.74,0,0,1-1.52,0c-1-.06-2.34-.15-4-.28A108.81,108.81,0,0,1,133.2,9.34c-1.09-.24-2.19-.49-3.25-.8s-2.08-.57-3.1-.77A55.08,55.08,0,0,0,121.22,7l-2.29-.2-1.81-.08c-1-.06-1.62-.07-1.69-.07s-2.43-.11-5.81-.12-7.82.12-12.26.27-8.85.31-12.17.34c-1.66,0-3,0-4,0A8.14,8.14,0,0,1,79.67,7a8.23,8.23,0,0,1,1.51-.13l4-.19L97.33,6c4.43-.26,8.89-.46,12.29-.51s5.71,0,5.85,0,.69,0,1.71.09l1.82.11,2.33.24a54.57,54.57,0,0,1,5.72.94c1,.22,2.09.56,3.15.85s2.1.59,3.17.85c4.31,1,8.7,1.5,12,1.91l4,.49A7.6,7.6,0,0,1,150.83,11.21Z"/><path class="cls-2" d="M52.07,5.73c0,.11-2,.17-4.92.52-1.46.19-3.17.45-5,.85S38.46,8,36.5,8.45a49.5,49.5,0,0,1-11,1c-3.05,0-5.12-.17-5.24-.16S18,9.13,15,9.26A40.05,40.05,0,0,0,10,9.78a25.46,25.46,0,0,0-5.54,1.5,11.24,11.24,0,0,0-2.51,1.37C1.22,13.21.56,14,.64,14.71a1.45,1.45,0,0,0,.55,1,2.21,2.21,0,0,0,.49.36,2.81,2.81,0,0,0,.54.29A9.76,9.76,0,0,0,4.44,17c2.89.54,4.89.42,4.89.54A6,6,0,0,1,8,17.67a21.11,21.11,0,0,1-3.6-.22A9.84,9.84,0,0,1,2,16.82a2.65,2.65,0,0,1-.61-.3,2.79,2.79,0,0,1-.59-.4,3.14,3.14,0,0,1-.51-.57A1.87,1.87,0,0,1,0,14.78a2.21,2.21,0,0,1,.41-1.55,5.22,5.22,0,0,1,1.06-1.14,11.93,11.93,0,0,1,2.63-1.54,25.53,25.53,0,0,1,5.7-1.69A41.23,41.23,0,0,1,15,8.23C18,8,20.13,8.15,20.26,8.15s2.2.14,5.21.24a50,50,0,0,0,10.87-.72c1.94-.36,3.87-.85,5.71-1.19a47.59,47.59,0,0,1,5.06-.67c1.49-.1,2.73-.15,3.59-.13A7.88,7.88,0,0,1,52.07,5.73Z"/><path class="cls-3" d="M149.44,17.87l-.19-.6L146,13.59l-10.05,2.54-.11.39c-1.25.08,3.55.31,4.12.4l4.67.74,4.95.55h0l1.19.13c1.46.14-1.39-.15-.61-.44Z"/><path class="cls-2" d="M55,24a5.87,5.87,0,0,1,1.4-.23,23.89,23.89,0,0,1,3.77-.09,25,25,0,0,1,5.29.85c.95.26,1.92.59,2.88,1s1.92.77,2.89,1.15a54.46,54.46,0,0,0,10.93,3.18,45.11,45.11,0,0,0,5.37.58,37.35,37.35,0,0,0,5.39,0,48,48,0,0,0,11.17-2.14c4-1.2,7.81-2.74,10.73-3.8,1.46-.53,2.68-.95,3.55-1.21a6.71,6.71,0,0,1,1.37-.37,8.29,8.29,0,0,1-1.3.58l-3.47,1.41c-2.86,1.18-6.67,2.83-10.64,4.15A47.7,47.7,0,0,1,93,31.45a36,36,0,0,1-5.53.1A41.33,41.33,0,0,1,82,30.87,53.49,53.49,0,0,1,70.89,27.4c-1-.4-1.93-.81-2.85-1.22a29.18,29.18,0,0,0-2.78-1,26.11,26.11,0,0,0-5.15-1C57,23.87,55,24.14,55,24Z"/><path class="cls-3" d="M114.1,12.4l-3.95.32L108,1l-7.61,1.42L96.79,13c-1.53.21,5.95-.89,4.21-.24l4.25.39h5v0h.64A7.48,7.48,0,0,0,114.1,12.4Z"/><path d="M114.1,12.4c0,.06-.28.34-1,.6a9.37,9.37,0,0,1-2.92.51l.42-.51v0l.11.49-.54,0c-1.44.08-3.11.16-5,.23l-2.39-.14-1.3-.08-1-.08h-.16l.27-.3h0v0l0,.08-.06.16s0,0,.06,0h0l.31-.09.08,0h0c-.12.47.17-.64.14-.52v0l0,.16a1.32,1.32,0,0,0,0,.32h0a10.06,10.06,0,0,0-1.08.1l-1.16.16-1.15.17-.57.1-.27,0h0s-.05,0,0,0a.89.89,0,0,0,.52-.3.83.83,0,0,0,.18-.33c.15-.09-.27-.27-.48-.29a1.21,1.21,0,0,0-.38,0,1.67,1.67,0,0,0,.3-.08,1.22,1.22,0,0,0,.36-.18c.15-.1.19-.18.12-.21a1,1,0,0,0-.53-.43,1,1,0,0,0-.27,0h-.08l.14,0-.77.63c1.35-4.23,2.43-7.6,2.47-7.74L99.6,1.5,108.72,0l.4,2.43L109.36,4l.46,3.12.41,2.93.18,1.34,0,.47,0,.38H113c.7,0,1.1.05,1.1.13s-.38.18-1.06.31l-1.24.21L111,13l-1.19.14c-.65-2.95-1.6-7.21-2.48-11.14l-.23.08-1,.22-2,.42-1.84.39-.83.17c-.19,0-.12,0-.14,0h0v0l-.16.52-.29.89-.27.83-2.81,7.62-.21.57-.55.06-.14,0h-.17a1.11,1.11,0,0,1-.29,0,1,1,0,0,1-.55-.43.87.87,0,0,1-.13-.46,1,1,0,0,1,.24-.62.93.93,0,0,1,.54-.31h.1l.29,0,.58-.06,1.18-.12,1.22-.09a11,11,0,0,1,1.33,0,.87.87,0,0,1,.38.09l.23.13h0l0,0s-.09,0,0,0l.17,0,1.11.14,2.32.3,4.94.22-.43.51v0l-.07-.55.49,0a12.08,12.08,0,0,0,2.81-.08C113.69,12.47,114.07,12.33,114.1,12.4Z"/><polyline class="cls-4" points="143.54 14.59 145.32 17.83 137.03 16.21"/><polyline class="cls-4" points="101.19 2.37 103.02 1.94 104.86 12.8 96.74 13.12"/><polyline class="cls-5" points="110.22 13.12 108.02 1.02 100.28 2.85 96.74 13.12"/><path d="M91.91,14.21a14.71,14.71,0,0,1,5.34-1.7,26.11,26.11,0,0,1,3.91-.29c1.07,0,1.8,0,1.85,0l1.83.15c1,.1,2.44.22,3.82.3a25,25,0,0,0,3.76,0c1-.1,1.65-.38,1.68-.31a3,3,0,0,1-1.6.74,19.94,19.94,0,0,1-3.86.35c-1.4,0-2.81,0-3.87-.06L103,13.36l-1.81-.11a30.81,30.81,0,0,0-3.8.05C94.6,13.48,92,14.37,91.91,14.21Z"/><path d="M131.8,17.12a14.45,14.45,0,0,1,5.5-1,27.19,27.19,0,0,1,3.91.19c1.07.13,1.79.25,1.83.26l1.8.37c1,.23,2.4.52,3.76.77a25.75,25.75,0,0,0,3.73.49c1,0,1.68-.18,1.71-.1a3,3,0,0,1-1.69.53,18.45,18.45,0,0,1-3.86-.13c-1.4-.15-2.79-.37-3.84-.54l-1.8-.29-1.79-.33a26.9,26.9,0,0,0-3.76-.42C134.55,16.73,131.83,17.28,131.8,17.12Z"/><polyline class="cls-5" points="135.76 16.68 135.91 16.13 145.96 13.59 149.25 17.27 149.54 18.21"/><path class="cls-3" d="M68.31,19.9l.1-.54,1.82-3.31,5.23,1.2.38,1.44c.69.06-2,.27-2.28.35L71,19.71l-2.74.49h0c-.22.05-.43.09-.66.12-.81.12.77-.14.34-.4Z"/><polyline class="cls-4" points="68.91 18.41 68.67 20.2 72.17 19.3"/><path d="M78.05,19.22c0,.16-1.55-.32-3-.17a10.77,10.77,0,0,0-2,.39l-1,.3L71,20c-.58.15-1.36.34-2.15.48a6.54,6.54,0,0,1-2.22.1c-.64-.12-1-.44-.9-.5s.39.09.94.07a8.78,8.78,0,0,0,2-.45c.74-.22,1.46-.48,2-.69l1-.34s.42-.11,1-.23A9.62,9.62,0,0,1,75,18.26,5.12,5.12,0,0,1,78.05,19.22Z"/><polyline class="cls-5" points="75.86 18.83 75.51 16.75 70.23 16.05 68.41 19.36 68.25 20.2"/><path class="cls-3" d="M43.32,7.71l-6.91-2L27.72,7.54,23.86,9.73l-3.18,3.79c.8-.67,6.08,3.09,17.22-.42,6.16-1.95,7.56-2.44,7.56-2.44Z"/><path d="M43.32,7.71c.06,0,.37.25.86.8l.4.47.54.64.69.87.2.24.1.13s-.08,0-.11.06l-.57.21L41,12.75c-1.49.54-3.06,1.15-4.73,1.64a27.85,27.85,0,0,1-9.56,1.18,23.45,23.45,0,0,1-3.27-.44l-.92-.21L22,14.8l-.15,0-.23-.06-.19,0c-.05,0,0-.17-.06-.27.18.19-.44-.46-.79-.8l0,0-.68-.75,1.81-2.11L23.22,9l4.19-2.25,9-1.6,2.85,1,2.15.77c1.21.45,1.92.76,1.89.86a5.72,5.72,0,0,1-2.06-.28L39,6.93,36.39,6.3c-2.3.6-5.77,1.43-8.36,2.06L24.5,10.5,23.29,12l-.51.63s0,0,0,0,0,0,.05,0h0l.23.07.86.22a21.69,21.69,0,0,0,2.95.52,27.11,27.11,0,0,0,9-.65c1.6-.37,3.22-.87,4.74-1.29L42.81,11l1-.28.6-.14.3-.07.07,0,0-.06-.07-.11-.26-.45-.62-1C43.44,8.14,43.26,7.76,43.32,7.71Z"/><path class="cls-4" d="M21.55,10.17l12,2.05L35,14S20.82,15.33,20.68,12.1"/><polyline class="cls-5" points="20.88 13.12 22.55 9.66 36.41 5.71 43.32 7.71 45.46 10.66"/><path d="M14.53,11.87a10.74,10.74,0,0,1,2.81.32c1.67.31,3.85.9,6.05,1.33a27.08,27.08,0,0,0,6.13.51,18.59,18.59,0,0,0,2.05-.15c.51-.05.81-.1.85-.11.35.64,17.44-4.95,17.56-4.6a15.32,15.32,0,0,1-2.61,1.07l-5.85,2.1c-2.13.75-4.28,1.51-6,1.94s-2.89.58-3,.61-.35,0-.88.08a20,20,0,0,1-2.15.1,26.86,26.86,0,0,1-6.31-.77c-2.23-.54-4.37-1.25-6-1.69A28,28,0,0,1,14.53,11.87Z"/><path d="M43.32,7.71c.06,0,.37.25.86.8l.4.47.54.64.69.87.2.24.1.13s-.08,0-.11.06l-.57.21L41,12.75c-1.49.54-3.06,1.15-4.73,1.64a27.85,27.85,0,0,1-9.56,1.18,23.45,23.45,0,0,1-3.27-.44l-.92-.21L22,14.8l-.15,0-.23-.06-.19,0c-.05,0,0-.17-.06-.27.18.19-.44-.46-.79-.8l0,0-.68-.75,1.81-2.11L23.22,9l4.19-2.25,9-1.6,2.85,1,2.15.77c1.21.45,1.92.76,1.89.86a5.72,5.72,0,0,1-2.06-.28L39,6.93,36.39,6.3c-2.3.6-5.77,1.43-8.36,2.06L24.5,10.5,23.29,12l-.51.63s0,0,0,0,0,0,.05,0h0l.23.07.86.22a21.69,21.69,0,0,0,2.95.52,27.11,27.11,0,0,0,9-.65c1.6-.37,3.22-.87,4.74-1.29L42.81,11l1-.28.6-.14.3-.07.07,0,0-.06-.07-.11-.26-.45-.62-1C43.44,8.14,43.26,7.76,43.32,7.71Z"/></g></g></g></g></svg>