<svg xmlns="http://www.w3.org/2000/svg" viewBox="0 0 103.24 51.07"><defs><style>.cls-1{fill:#007c32;}.cls-2{fill:none;stroke:#000;stroke-width:2px;}.cls-2,.cls-4{stroke-miterlimit:10;}.cls-3{opacity:0.07;}.cls-4,.cls-7{fill:#8a5546;}.cls-4{stroke:#a16d45;}.cls-5{fill:#603128;}.cls-6{fill:#7a4537;}</style></defs><g id="Layer_2" data-name="Layer 2"><g id="Obstacles"><g id="Trees"><g id="Pine"><g id="Trubble_1" data-name="Trubble 1"><g id="Layer_248" data-name="Layer 248"><polyline class="cls-1" points="7.86 38.22 29.45 16.33 30.21 22.72 50.2 7.25 50.35 12.79 72.32 0.92 70.38 41.69"/><path d="M.05,39c0-.09.47-.13,1.25-.15s1.89-.14,3.23-.35c2.66-.37,6.21-1.19,9.92-1.56A25.82,25.82,0,0,1,20,37a16.39,16.39,0,0,1,2.6.51l1.18.4.5.19.44.14a12.28,12.28,0,0,0,3.06.4c.78,0,1.27,0,1.33,0,.47,0,.9.5.95,1.18A1.08,1.08,0,0,1,29.19,41c-.07,0-.6,0-1.49,0a14.2,14.2,0,0,1-3.65-.65l-.57-.22L23.19,40,23,39.9l-1-.4a17.78,17.78,0,0,0-2.26-.56,25.41,25.41,0,0,0-5.15-.3c-3.57.13-7.19.69-9.95.78a19.5,19.5,0,0,1-3.33-.1C.48,39.18,0,39.06.05,39Z" transform="translate(-0.05)"/><polyline class="cls-1" points="62.46 36.66 80.63 13.33 84.04 19.01 92.94 15.22 91.8 26.82 96.92 26.35 94.64 37.6"/><path class="cls-2" d="M71.23,20,72.36,1.11A.11.11,0,0,0,72.2,1L50.55,12.71a.11.11,0,0,1-.16-.09l-.14-5.18a.1.1,0,0,0-.16-.08L30.21,21.22a.1.1,0,0,1-.16,0l-1.2-4a.1.1,0,0,0-.17-.05L7.91,37.71l-.4,1" transform="translate(-0.05)"/><path class="cls-2" d="M74.44,21.64l6.14-8.19a.11.11,0,0,1,.18,0L84,18.93a.1.1,0,0,0,.13,0l8.66-3.68a.1.1,0,0,1,.14.11L91.86,26.69a.11.11,0,0,0,.12.12l4.85-.45a.11.11,0,0,1,.11.13L94.69,37.6" transform="translate(-0.05)"/><path d="M103.29,38.69c0,.15-1.23.44-3.17.37a11.55,11.55,0,0,1-1.57-.19c-.28-.06-.57-.12-.86-.21l-.84-.28a15.6,15.6,0,0,0-3.42-.7,30.48,30.48,0,0,0-6.7.28c-1.86.26-3.14.49-3.23.49-.34,0-.7-.45-.79-1.12s.11-1.24.46-1.29c.09,0,1.39-.17,3.34-.32a29.18,29.18,0,0,1,7.16.26,15.16,15.16,0,0,1,3.68,1.13,10.88,10.88,0,0,0,2.89,1C102,38.47,103.28,38.51,103.29,38.69Z" transform="translate(-0.05)"/><polyline class="cls-3" points="7.86 38.22 23.15 22.72 27.16 27.69 33.08 23.71 40.94 29.49 49.79 19.75 71.45 19.12 70.38 41.69"/><polyline class="cls-3" points="62.46 37.82 77.75 22.32 81.76 27.29 87.68 23.31 90.27 31.79 96.89 27.61 95.48 31.38 94.26 37.6"/></g><g id="Layer_249" data-name="Layer 249"><path class="cls-4" d="M77.8,21.48c.08.62.2,1.28.35,2,1.69,8.18,3.79,11.69,8.81,16a1.39,1.39,0,0,1-.42,2.36c-1.76.65-5.47,5.21-12.6,4.6-12.46-1-15.1,1.62-23.55,1.62-6.74,0-9.38-1.85-13.77-2.4-6.54-.81-6.19-3.3-8.52-4.16a1.38,1.38,0,0,1-.29-2.44c5.8-4.19,8.24-9.81,8.42-17.29,0,0,2.55-1.16,3-1.22a46.63,46.63,0,0,1,13.45-.7,8.72,8.72,0,0,0,4.16,1.29,11,11,0,0,0,3-1.79C70.84,19,77.8,21.48,77.8,21.48Z" transform="translate(-0.05)"/><path class="cls-5" d="M36.21,22.48c0-.22,0-.45,0-.67,0,0,2.55-1.16,3-1.22a46.63,46.63,0,0,1,13.45-.7,8.72,8.72,0,0,0,4.16,1.29,11,11,0,0,0,3-1.79c11-.35,18,2.09,18,2.09.08.62-1.46,3.51-19.55,3.81C43.72,25.53,36.21,22.48,36.21,22.48Z" transform="translate(-0.05)"/><path class="cls-6" d="M36.23,21.87c-.14,7.57-2.58,13.24-8.42,17.46a1.38,1.38,0,0,0,.29,2.44c2.33.86,2,3.35,8.52,4.16,4.39.55,7,2.4,13.77,2.4,2-2.32,5.28-11.61,6.1-23.15l-7.83-.07L45.1,19.36l-2.27,4" transform="translate(-0.05)"/><path class="cls-2" d="M77.8,21.48c.08.62.2,1.28.35,2,1.69,8.18,3.79,11.69,8.81,16a1.39,1.39,0,0,1-.42,2.36c-1.76.65-5.47,5.21-12.6,4.6-12.46-1-15.1,1.62-23.55,1.62-6.74,0-9.38-1.85-13.77-2.4-6.54-.81-6.19-3.3-8.52-4.16a1.38,1.38,0,0,1-.29-2.44c5.8-4.19,8.24-9.81,8.42-17.29,0,0,2.55-1.16,3-1.22a46.63,46.63,0,0,1,13.45-.7,8.72,8.72,0,0,0,4.16,1.29,11,11,0,0,0,3-1.79C70.84,19,77.8,21.48,77.8,21.48Z" transform="translate(-0.05)"/><path class="cls-7" d="M66.93,25.47s-6.69-.13-.88-1.14L68,20l2.47,4.36,4-.7" transform="translate(-0.05)"/><path d="M50.68,25.11s-.17.07-.46.09l-.54,0h-.83L47,22.62c-.35-.49-.71-1-1.08-1.55l-.28-.41-.13-.19-.06-.07-.2-.25c-.15.27-.07.18-.5.89l-.94,1.61-.46.77-.4.65c-.08.09-.12.27-.23.29l-.38-.08-1.87-.38A31.08,31.08,0,0,1,37,23a.7.7,0,0,1-.27-1c.19-.41.54-.65.84-.54a32.56,32.56,0,0,0,3.22,1l.75.19.39.1c.09,0,.08,0,.09,0h0s0,0,.06,0l.07-.09.49-.74,2.55-3.85c.51.83,1,1.65,1.49,2.45l1,1.63.83,1.46c.25.44.51.91.61,1.12l.59.1.53.1C50.52,25,50.68,25.07,50.68,25.11Z" transform="translate(-0.05)"/><path d="M74.44,23.63a3.28,3.28,0,0,1-1.13.38l-1.25.29-.74.17-1,.21-1.44-2.35-.66-1.09-.07-.11,0,0,0-.05,0,.1v0s0,0,0,0l-.05.13-.4.95-.39.9-.25.53-.27.57-.15.33-.08.17s-.12,0-.18,0l-.61.09c-1.16.17-2.7.33-4.24.41a24.83,24.83,0,0,1-6.1-.16c0-.15,3-.24,6-.63,1.51-.18,3-.43,4.14-.64l.2,0h0v0l.24-.56.23-.54c0-.08.8-1.7,1.8-3.83.34.6.68,1.24,1,1.9l.59,1.12.59,1.14c.19.35.45.84.47.91l2.61-.3A3.27,3.27,0,0,1,74.44,23.63Z" transform="translate(-0.05)"/><path d="M55.21,34.87c.17,0-.42,3.35-1.54,6.57a33.36,33.36,0,0,1-1.82,4.38,11.41,11.41,0,0,1-1.23,2c-.17.2-.52.16-.78-.09s-.36-.59-.22-.74a10.68,10.68,0,0,0,1.18-1.74,35.4,35.4,0,0,0,2-4.12C54.13,38,55,34.82,55.21,34.87Z" transform="translate(-0.05)"/><path d="M72.82,38.59c.16-.07,1.15,1.79,2.38,3.5.61.86,1.25,1.71,1.75,2.33l.87,1.07c.09.11-.06.38-.33.61s-.59.32-.68.2-.37-.49-.83-1.17-1-1.61-1.56-2.56C73.36,40.69,72.65,38.65,72.82,38.59Z" transform="translate(-0.05)"/><path d="M42.1,38.22a11.4,11.4,0,0,1-2.25,4.12,13.53,13.53,0,0,1-2.35,2.37,8.6,8.6,0,0,1-1.36.9c-.15.08-.4-.12-.55-.45s-.17-.64,0-.71a9.41,9.41,0,0,0,1.25-.71,14.25,14.25,0,0,0,2.35-2C40.73,40.1,41.93,38.13,42.1,38.22Z" transform="translate(-0.05)"/></g><g id="Layer_250" data-name="Layer 250"><polyline class="cls-1" points="66.38 49 61.96 39.8 56.4 42.73 49.79 38.59 45.15 42.73 36.16 42.34 29.13 49.79"/><path class="cls-2" d="M65.43,48.56,62.06,39.9a.11.11,0,0,0-.15,0l-5.4,2.85a.11.11,0,0,1-.11,0l-6.49-4.07a.12.12,0,0,0-.13,0L45.23,42.7a.11.11,0,0,1-.07,0l-8.9-.38a.08.08,0,0,0-.08,0l-7,7.41" transform="translate(-0.05)"/><path d="M70.72,50.28c-.1.15-1.39-.54-3.52-.91a39.52,39.52,0,0,0-8-.47c-2.93.08-5.86.35-8.09.6L47.31,50c-.1,0-1.62.15-3.85.41a65.36,65.36,0,0,1-8.27.68,20.77,20.77,0,0,1-4.45-.55,19.27,19.27,0,0,1-3.64-1.33c-2-1-3.36-1.31-3.35-1.47s.39-.11,1.05,0a13.74,13.74,0,0,1,2.62.68,21.3,21.3,0,0,0,3.57.92,21.22,21.22,0,0,0,4.18.19,73.38,73.38,0,0,0,8-1.15c2.24-.37,3.78-.58,3.88-.59s1.64-.16,3.91-.31,5.28-.24,8.29-.12a32.12,32.12,0,0,1,8.16,1.22C69.6,49.18,70.8,50.18,70.72,50.28Z" transform="translate(-0.05)"/><polyline class="cls-3" points="29.13 49.79 36.87 41.69 40.88 46.66 48.7 45.16 50.34 48.1 58.74 45.16 65.38 48.56 49.79 49.44"/></g></g></g></g></g></g></svg>