<svg xmlns="http://www.w3.org/2000/svg" viewBox="0 0 191.21 34.19"><defs><style>.cls-1{fill:#d1d3d4;opacity:0.58;}.cls-2{fill:#090909;}.cls-3{fill:#c9c9c9;}.cls-4{fill:#a7a9ac;}.cls-5{fill:none;stroke:#000;stroke-miterlimit:10;stroke-width:1.5px;}</style></defs><g id="Layer_2" data-name="Layer 2"><g id="Obstacles"><g id="Rocks"><g id="Rubble_1" data-name="Rubble 1"><g id="Layer_219" data-name="Layer 219"><path class="cls-1" d="M12.53,21.11c11.3-1.14,19.59,5,28.73,7.5,30.32,8.17,22.47-3.69,60.76,4.51,18.32,3.93,35.24-4.44,53.35-1.29,9.9,1.72,13.34-13.37,26.89-13.46s10-8.09-4.08-8.59c-8.88-.32-11.56-6-24-4.57-10.82,1.24-33.63-3.54-45.24-1.47S84.17.6,67.82,3.74s-41.11,3.7-55.93,5.4C-2.56,10.79-5.54,22.92,12.53,21.11Z"/><path class="cls-2" d="M56.74,5.21a25.6,25.6,0,0,1,3.43-.59c2.06-.3,4.82-.7,7.54-1.27A59.25,59.25,0,0,1,75.44,2.3c2.15-.16,3.62-.14,3.71-.15s1.55,0,3.7.12,5,.38,7.73.71,5.54.66,7.61.87a30,30,0,0,1,3.46.38,3.43,3.43,0,0,1-1,.08c-.61,0-1.48,0-2.53,0-2.09-.07-4.87-.29-7.66-.51s-5.58-.4-7.7-.46-3.56,0-3.65,0-1.54,0-3.65.06a63,63,0,0,0-7.64.8c-2.78.48-5.56.75-7.64.93A20.19,20.19,0,0,1,56.74,5.21Z"/><path class="cls-2" d="M169.75,7.73a9.85,9.85,0,0,1,1.45.45,29.07,29.07,0,0,0,3.82,1,20.57,20.57,0,0,0,2.62.29c.93,0,2,.06,3,.16a23.49,23.49,0,0,1,6.42,1.42,10.06,10.06,0,0,1,3,1.75,3.91,3.91,0,0,1,1,1.48,2.25,2.25,0,0,1-.16,1.91,4.9,4.9,0,0,1-2.69,1.88,15.25,15.25,0,0,1-2.75.61c-1.7.23-3.19.2-4.14.27a16.23,16.23,0,0,0-1.63.19A16.47,16.47,0,0,0,174.41,21a25.63,25.63,0,0,0-4.57,3.25c-1.57,1.34-3.15,2.9-4.84,4.35a15,15,0,0,1-5.67,3.35,8.73,8.73,0,0,1-3.06.28c-1-.12-1.83-.31-2.64-.43-1.63-.25-3-.39-3.95-.47a9.33,9.33,0,0,1-1.5-.18,6.51,6.51,0,0,1,1.52-.05c1,0,2.34.08,4,.27.83.09,1.73.25,2.63.33a8.49,8.49,0,0,0,2.84-.35A14.61,14.61,0,0,0,164.47,28c1.63-1.47,3.18-3.06,4.75-4.46a26.73,26.73,0,0,1,4.68-3.46,17.45,17.45,0,0,1,5.62-2,16.86,16.86,0,0,1,1.74-.18c1.08-.06,2.44,0,4.08-.2a14.54,14.54,0,0,0,2.56-.52,4,4,0,0,0,2.2-1.41c.46-.68.06-1.61-.68-2.29a9.13,9.13,0,0,0-2.67-1.64,23.43,23.43,0,0,0-6.18-1.54c-1-.12-2-.18-3-.24a18.55,18.55,0,0,1-2.67-.4,22.37,22.37,0,0,1-3.82-1.23A7.13,7.13,0,0,1,169.75,7.73Z"/><path class="cls-2" d="M86.94,30.57a8.28,8.28,0,0,1-1.61,0c-1-.06-2.48-.16-4.24-.18-.87,0-1.82,0-2.83,0s-2.06.05-3.15.13c-2.19.15-4.51.46-6.84.82s-4.69.66-6.94.77a46.28,46.28,0,0,1-6.16-.19c-.9-.1-1.73-.16-2.47-.27l-1.91-.31C49.71,31.15,49.07,31,49,31s-2.57-.48-6.05-1.44a56.88,56.88,0,0,1-5.87-1.79c-2.1-.75-4.29-1.64-6.48-2.51a61,61,0,0,0-12.25-3.79,35.4,35.4,0,0,0-5.81-.36,8.94,8.94,0,0,1,1.6-.23c.52,0,1.14,0,1.86,0s1.53.07,2.41.19a57.39,57.39,0,0,1,12.48,3.49,93.54,93.54,0,0,0,12.32,4c3.46.89,5.87,1.27,6,1.34s.7.15,1.76.33l1.89.32c.72.12,1.53.2,2.42.31a46.33,46.33,0,0,0,6,.29c2.2-.07,4.53-.33,6.86-.63s4.7-.57,6.91-.65c1.11-.05,2.18-.08,3.19-.05s2,0,2.85.1c1.76.09,3.22.26,4.24.4A8.23,8.23,0,0,1,86.94,30.57Z"/></g><g id="Layer_220" data-name="Layer 220"><g id="Layer_221" data-name="Layer 221"><path class="cls-3" d="M141.13,7.22l3.45-.56h.86l-.09-.13,2.39-.4-2.62,0-3.3-5.06h-7.89l-3.5,5.31-1.56,0C133.22,6.54,134.23,8.3,141.13,7.22Z"/><path d="M141.13,7.22c0,.13-1.54.66-3.95.82a16.31,16.31,0,0,1-4.09-.27,20.6,20.6,0,0,0-4.24-.46V5.61l.79,0h.3l0-.09v0l.06-.1.12-.2.48-.79.91-1.46.8-1.29,1-1.55,2.19,0,6.81.17,1,1.67.78,1.29.8,1.32.39.67c.09.14.09.16.11.19l.06.12a1.61,1.61,0,0,0,.26,0l.66,0,1.29,0,.11,1.26L145.43,7l.35-.78.08.14.47.83-.9-.06-.86-.06-.82.07-1.38.1c-.77,0-1.23,0-1.24-.06s.41-.25,1.16-.45l1.34-.34.83-.2c.23,0,.35,0,.51,0l.47,0-.42.77-.09-.13-.45-.6.79-.18,2.36-.51.12,1.25-1.29.08-.66,0-1.08.05-2-2.87-.87-1.23-.42-.6c-.09-.14-.06-.09-.09-.12l0,0a.29.29,0,0,1-.12,0l-.62,0-1.17,0-2,.06-1.89,0h-.95c-.08,0,0,0-.06,0h0l-.37.53L133.25,4l-2.33,3.34-2,0V5.61a19.94,19.94,0,0,1,4.5.83,17.6,17.6,0,0,0,3.8.65C139.48,7.22,141.1,7,141.13,7.22Z"/><path class="cls-3" d="M93.73,19.12l-10.67-4-3.74.44h0l-5.49-3.8-7.3.84-5.66,4.25-1.35,3.35,1.89.34a21.71,21.71,0,0,0,7.26.3,21.51,21.51,0,0,1,3.08-.19l-.18.19,2.25-.05c5.53.69,8.06,3.58,16.15,1l4.6-1.48h0c2.51-.82.42-.14.42-.14Z"/><path d="M93.73,19.12s.17,0,.41.19l.91.62.35-.15.2-.08.06,0h0l.06,0s.08-.05.25.11a.28.28,0,0,1,0,.27.21.21,0,0,1,0,.08c-.12.11-.15.08-.16.1l-.07,0-1.1.42.14-.56-.24.58h0l.1,0-4.52,1.64a19.77,19.77,0,0,1-6,1.22,15,15,0,0,1-3.34-.25c-1.11-.21-2.19-.52-3.23-.79a27.3,27.3,0,0,0-3.06-.69l-.74-.09h-.27l-.39,0-1.55.06-2.22.09,1.52-1.67.17-.2.68,1.6a19.58,19.58,0,0,0-2.33.14c-.72.1-1.57.23-2.31.27a20.87,20.87,0,0,1-4-.11c-.57-.07-1.08-.15-1.53-.22l-1.41-.24L58,21.05h0c.06-.15.83-2,2-4.9l6.18-4.5,7.89-.77,5,3.58c.17.1.32.33.55.37l3.55-.34,4.29,1.77,3.34,1.41a13.49,13.49,0,0,1,3,1.46,14.52,14.52,0,0,1-3.19-.86l-3.43-1.14L83,15.71l-3.5.51-.1-.31-.06-.16s0-.15-.07-.07l-.24.23c-.07.06-.17.21-.21.13a3.65,3.65,0,0,1-.55-.44l-1-.91-3.63-2.08-6.7.9-5.15,4-.7,1.81h0l.24.05.61.12c.42.08.9.17,1.42.24A18.59,18.59,0,0,0,67,20c.71,0,1.37-.1,2.22-.18a19.47,19.47,0,0,1,2.55-.08l2.17.06-1.49,1.53-.18.18-.71-1.58H73.7a1.77,1.77,0,0,1,.33,0l.82.14a28.17,28.17,0,0,1,3.22.85,19.89,19.89,0,0,0,6.1,1.26,19.93,19.93,0,0,0,5.68-.85L94.47,20l.07,0h0l-.25.58.14-.57,1.14-.31h.06s.07-.05-.07.06a.38.38,0,0,0,0,.08.27.27,0,0,0,0,.27c.17.17.22.1.25.11s0,0,0,0h-.11l-.27.08-.54.14c-.5-.46-.77-.74-1-.95S93.71,19.15,93.73,19.12Z"/><path class="cls-3" d="M41.26,10.89h0L39.1,6.23l-8.83-1-6.45,4-.37,1.65h1.37a26.14,26.14,0,0,1-4.84.44l14.38-1.14S45.25,11.8,41.26,10.89Z"/><path d="M41.26,10.89c0-.06.26-.07.72,0l.2,0a.3.3,0,0,1,.15.18c.06.08-.09.26-.19.26l-.14,0h-.46l-1.08,0c-.8,0-1.75-.11-2.79-.2l-3.33-.33-7.62.85-6.65.69L20,10.26a21.07,21.07,0,0,0,2.15-.13l.33,0h0s.11,0,.05,0h0l0-.06.35-1.47,7.16-4.24c3.8.53,6.16.92,9.35,1.41L40,7l.37.92.57,1.52c.3.86.45,1.37.37,1.41s-.38-.41-.84-1.19l-.79-1.42-.47-.88L38.92,7l-.15-.27c-1.87-.09-5.87-.44-8.3-.62L24.73,9.89s0,.12,0-.12c-.06.33-.11.65-.17,1l-.05.23a.37.37,0,0,0,0,.29l.22.72h0q0-.42.06-.78v-.3h0l.1,0h0v0l0,.24c0,.33.07.84.07.8l-1.16.19-.54.07-.56.06-.4,0a23.65,23.65,0,0,1-2.38.05l-.07-2.12,6.68-.37,7.81-.37,6.15,1.15,1.05.2L42,11h.07s0,.12,0,.16a.09.09,0,0,0,.07,0s0,0-.06,0-.08.08-.07.14,0,0,0,0l-.13-.06C41.48,11.05,41.24,11,41.26,10.89Z"/><polyline class="cls-4" points="24.73 8.68 35.35 8.27 36.17 9.94 23.04 11.03"/><path class="cls-4" d="M60.52,16.83l13.75.7,1.94-1.62,10,5.07,4.9.37s-4.72,3-14.42,0c-7.93-2.46-5.16,1.47-16.61-1.17"/><path class="cls-4" d="M132,4.62l2.47-1.92L142,7.48s-10.49.95-10.6-1.43"/><path d="M93.73,19.12s.17,0,.41.19l.91.62.35-.15.2-.08.06,0h0l.06,0s.08-.05.25.11a.28.28,0,0,1,0,.27.21.21,0,0,1,0,.08c-.12.11-.15.08-.16.1l-.07,0-1.1.42.14-.56-.24.58h0l.1,0-4.52,1.64a19.77,19.77,0,0,1-6,1.22,15,15,0,0,1-3.34-.25c-1.11-.21-2.19-.52-3.23-.79a27.3,27.3,0,0,0-3.06-.69l-.74-.09h-.27l-.39,0-1.55.06-2.22.09,1.52-1.67.17-.2.68,1.6a19.58,19.58,0,0,0-2.33.14c-.72.1-1.57.23-2.31.27a20.87,20.87,0,0,1-4-.11c-.57-.07-1.08-.15-1.53-.22l-1.41-.24L58,21.05h0c.06-.15.83-2,2-4.9l6.18-4.5,7.89-.77,5,3.58c.17.1.32.33.55.37l3.55-.34,4.29,1.77,3.34,1.41a13.49,13.49,0,0,1,3,1.46,14.52,14.52,0,0,1-3.19-.86l-3.43-1.14L83,15.71l-3.5.51-.1-.31-.06-.16s0-.15-.07-.07l-.24.23c-.07.06-.17.21-.21.13a3.65,3.65,0,0,1-.55-.44l-1-.91-3.63-2.08-6.7.9-5.15,4-.7,1.81h0l.24.05.61.12c.42.08.9.17,1.42.24A18.59,18.59,0,0,0,67,20c.71,0,1.37-.1,2.22-.18a19.47,19.47,0,0,1,2.55-.08l2.17.06-1.49,1.53-.18.18-.71-1.58H73.7a1.77,1.77,0,0,1,.33,0l.82.14a28.17,28.17,0,0,1,3.22.85,19.89,19.89,0,0,0,6.1,1.26,19.93,19.93,0,0,0,5.68-.85L94.47,20l.07,0h0l-.25.58.14-.57,1.14-.31h.06s.07-.05-.07.06a.38.38,0,0,0,0,.08.27.27,0,0,0,0,.27c.17.17.22.1.25.11s0,0,0,0h-.11l-.27.08-.54.14c-.5-.46-.77-.74-1-.95S93.71,19.15,93.73,19.12Z"/></g><polyline class="cls-5" points="79.33 15.54 73.84 11.74 66.55 12.58 60.88 16.83 59.52 20.18"/><polyline class="cls-5" points="94.58 20.32 93.74 19.12 83.06 15.1 76.21 15.91 72.17 19.29 72.04 20.4"/><polyline class="cls-5" points="130.86 6.76 131.44 4.9 134.21 2.06 141.82 1.13 144.93 6.6"/><polyline class="cls-5" points="41.26 10.89 39.1 6.23 30.27 5.21 23.82 9.24 23.28 11.13"/><path d="M127.52,6.48a4.07,4.07,0,0,1,1.57-.24,15.84,15.84,0,0,1,3.52.32A23.31,23.31,0,0,0,136,7c.93,0,1.57,0,1.61,0,.12.27,10.06-1.17,10.12-.86a28.94,28.94,0,0,1-4.92,1.2c-1.23.26-2.49.51-3.47.62s-1.66.15-1.7.16A14.54,14.54,0,0,1,135.94,8a19.94,19.94,0,0,1-3.5-.71,20.44,20.44,0,0,0-3.36-.65A6.16,6.16,0,0,1,127.52,6.48Z"/><path d="M54.4,20.83a2.75,2.75,0,0,1,.84-.5,6.49,6.49,0,0,1,2.53-.54c2.19,0,4.91.84,7.68.8a20.22,20.22,0,0,0,2.07-.09l2-.23a19.86,19.86,0,0,1,3.74-.08,21.15,21.15,0,0,1,3.74.65c.22-.16,5.55,2.56,11.06,1.07,1.35-.33,2.7-.73,4-1.12l3.45-1a23.86,23.86,0,0,1,3.4-.88,22.65,22.65,0,0,1-3.26,1.29l-3.4,1.21c-1.24.45-2.57.9-4,1.29a18.12,18.12,0,0,1-4.21.6,15.13,15.13,0,0,1-3.73-.4c-2.15-.51-3.51-.95-3.6-.95a19.71,19.71,0,0,0-3.55-.71,19.06,19.06,0,0,0-3.56,0l-2,.17c-.71,0-1.44.05-2.16,0-2.9-.07-5.62-1.06-7.66-1.15A9.41,9.41,0,0,0,54.4,20.83Z"/><path d="M18.52,11.26a17.65,17.65,0,0,1,2.35-.16,36.4,36.4,0,0,0,5.1-.83,44.32,44.32,0,0,1,5.22-.91,23.06,23.06,0,0,1,2.55-.13c.06,0,1.07,0,2.53.2a42.77,42.77,0,0,1,5.19,1.1,66.36,66.36,0,0,1,7.28,2.11,65.93,65.93,0,0,1-7.45-1.33,46.55,46.55,0,0,0-5.13-.85c-1.42-.11-2.38-.11-2.44-.11a24.42,24.42,0,0,0-2.45,0,48,48,0,0,0-5.16.67,28.65,28.65,0,0,1-5.23.47A7.43,7.43,0,0,1,18.52,11.26Z"/></g></g></g></g></g></svg>