<svg xmlns="http://www.w3.org/2000/svg" viewBox="0 0 166 346.52"><defs><style>.cls-1{fill:#8a5546;}.cls-2{fill:#7a4537;}.cls-3{fill:#68372d;}.cls-4{fill:none;stroke:#000;stroke-miterlimit:10;stroke-width:2px;}.cls-5{fill:#00752f;}.cls-6{fill:#007c32;}.cls-7{fill:#00873a;}.cls-8{fill:#009444;}.cls-9{opacity:0.07;}.cls-10{fill:#c9c9c9;}.cls-11{fill:#a7a9ac;}</style></defs><g id="Layer_2" data-name="Layer 2"><g id="Obstacles"><g id="Trees"><g id="Pine"><g id="Tree_3" data-name="Tree 3"><g id="Layer_233_copy_3" data-name="Layer 233 copy 3"><path class="cls-1" d="M125,241.73c1.31,0,1.8,2.3.81,3.61-9.61,12.8-13.38,25.08-15.05,45.23-1.23,14.73,1.9,30.93,8.75,38.29.89.95.69,3-.38,3.59-2.38,1.3-2.57,2.21-9.16,3.5-4.43.87-8.72,5.18-22.42,3.46-8.41-1.06-22.54-1.94-27.7-1.14-4.17.65,3.49-12.82,4.32-13.85,5.2-6.47-.07-14.84-.36-24.75-.39-13.6-3.22-6.61-2.28-20-14.68-16.1-11.17-26.1-13-30.8-.53-1.36,18.14-5,19.23-5Z"/><path class="cls-2" d="M62.68,296.63c6.44,32.63-7.25,38.77-5.34,40.87s16.84-1.55,27,2.1c6.83,1.53,18.76.37,21.13-.92,1.08-.59-6.17,2.81-11.32-9.66s-8.33-15.68-6.09-36c1.81-16.42-12.27-31-1.21-48.83.88-1.41.5-3.64-.81-3.61,0,0-23.2,5.95-38.11,17.51C55.79,274.49,56.88,267.25,62.68,296.63Z"/><path class="cls-3" d="M67.71,295.21c1.58,3.61,3.58-.17,3.38-5.56-.1-2.87-1.09-6.52-2.24-6.59,0,0-1-.1-1.47,3.29A24,24,0,0,0,67.71,295.21Z"/><path d="M100.38,296.61a10,10,0,0,1-.1,1.72c-.08,1.08-.31,2.63-.43,4.49a83.29,83.29,0,0,0-.1,13.7,35.61,35.61,0,0,0,3.43,13.17,25.43,25.43,0,0,0,2.43,3.89l1.17,1.52c.43.56.54,1.2.25,1.41s-.86-.06-1.28-.61c0-.07-.48-.62-1.17-1.57a27.15,27.15,0,0,1-2.47-4.1,36.29,36.29,0,0,1-3.27-13.64,74.92,74.92,0,0,1,.51-13.82c.19-1.87.51-3.4.67-4.48A9.3,9.3,0,0,1,100.38,296.61Z"/><path d="M76.26,323.87a3.14,3.14,0,0,1-.13-.73c-.06-.48-.15-1.18-.26-2.08s-.14-2-.23-3.25,0-2.68.07-4.24a31.39,31.39,0,0,1,.71-5c.37-1.75,1-3.54,1.52-5.39a45.67,45.67,0,0,0,1.38-5.76,42.28,42.28,0,0,0,.48-6.09,39.75,39.75,0,0,0-.34-6.1,29.56,29.56,0,0,0-1.5-5.71c-.66-1.81-1.45-3.55-2-5.32A23.45,23.45,0,0,1,75,269.1a23.07,23.07,0,0,1-.07-2.32,20.26,20.26,0,0,1,.07-2.1c0-.65.08-1.28.14-1.85l.2-1.57c.22-1.92.5-3.05.51-3.2.21-1.14.67-2,1-1.93s.47,1,.26,2.17c0,.14-.29,1.26-.52,3.13-.07.47-.14,1-.22,1.54s-.09,1.15-.15,1.79a18.85,18.85,0,0,0-.09,2,20.85,20.85,0,0,0,0,2.22l.08,1.18.19,1.21a19.74,19.74,0,0,0,.57,2.49c.48,1.69,1.24,3.42,1.9,5.29a31.38,31.38,0,0,1,1.48,5.93,40.83,40.83,0,0,1,.26,6.26,42.67,42.67,0,0,1-.58,6.21,47,47,0,0,1-1.5,5.84c-.6,1.85-1.21,3.6-1.62,5.32a32.73,32.73,0,0,0-.81,4.87c-.16,1.53-.15,2.94-.18,4.19s0,2.35.1,3.24.1,1.6.13,2.09A3.5,3.5,0,0,1,76.26,323.87Z"/><path d="M67.52,294.75c.07,0,.28.51.76,1.15.24.31.64.63,1,.43a2.25,2.25,0,0,0,.79-1.17,11.55,11.55,0,0,0,.57-3c.06-.83.05-1.41.05-1.44s0-.61,0-1.45a24.06,24.06,0,0,0-.23-3.07,7,7,0,0,0-.89-2.81.8.8,0,0,0-.72-.41c-.22,0-.34.12-.37.08s.06-.16.33-.26a1,1,0,0,1,1,.36,6.67,6.67,0,0,1,1.25,2.93,23.12,23.12,0,0,1,.43,3.14c.07.87.06,1.47.06,1.51a13.47,13.47,0,0,1-.13,1.51,10.94,10.94,0,0,1-.81,3.11,2.58,2.58,0,0,1-1.18,1.39.92.92,0,0,1-.93-.12,1.87,1.87,0,0,1-.5-.57A2.76,2.76,0,0,1,67.52,294.75Z"/><path class="cls-4" d="M108.38,258.13c1-3.46,2-6.67,3-9.37.59-1.61-2.17-3.81-3.49-3.78L60.7,246c-1.09,0-9.66,2.46-9.13,3.81,1.84,4.71,12,12.15,10.45,25.35-2.25,19.51,3.17,28,3.67,35.53A38.5,38.5,0,0,1,61,331.88c-.67,1.19-8.55,6.76,2.58,6.72,1.91,0,13-1.61,18.86.41,4.67,1.63,16.6,4.35,24.35-1.19,5.46-3.91,9.93-4,12.31-5.34,1.07-.58,1.27-2.64.38-3.59-6.85-7.36-7.56-15.55-8.43-27.14-.59-7.94,1.8-13.66,1.67-21.78-.24-15.13,7.32-21.9,7.32-21.9"/><path d="M101.26,287.85a4.76,4.76,0,0,1-.15-1.26,24.58,24.58,0,0,1,.12-3.34,66.42,66.42,0,0,1,2-9.94c1-3.58,2.07-7.12,2.87-9.81s1.32-4.54,1.36-4.67c.14-.49.54-.8.88-.7s.51.57.36,1.07c0,.12-.59,2-1.46,4.65s-2,6.19-3.12,9.71a75.53,75.53,0,0,0-2.43,9.76C101.29,286,101.37,287.85,101.26,287.85Z"/><path class="cls-4" d="M44.92,262.61s15.63,8.6,16.59,23.77"/></g><g id="Layer_307" data-name="Layer 307"><path class="cls-5" d="M5.29,243.06l8.28-29,.65-2.48L12,211.51l14.18-53.45L22,158,42.57,93.74l-4.56,0L68,2.77l38.64,85.58-4.32.05L129.66,145l-4.52,0,21,46.46-2.58,1.16,20.87,53.17a77.78,77.78,0,0,1-10.08,6.36l-2.48,6.45-8.64-1.67-1.79,4.49-5.53-2.57c-11.92,3.29-34.09,6.62-56.6,8.13-5,.34-10.83,3-15.25,3.13l-3.48-3.52-4.33,1.53h-.62l-3.52-1.22-22.49-1c-6.66-.22-3,2.41-8.12,1.79-2.6-.31-3.07-5.45-5.3-5.83L3.37,256.55,1,255C1.91,252.21,5.29,243.06,5.29,243.06Z"/><polygon class="cls-6" points="78.96 209.28 84.8 211.39 91.66 207.69 100.98 212 107 205.34 114.42 208.31 117.3 201.33 125.41 204.25 133.25 206.66 135.88 200.8 141.03 202.53 143.74 198.12 148.89 197.92 146.14 191.46 125.14 145 26.63 156.04 13.57 211.14 17.14 212.19 20.36 215.46 26.34 211.29 31.9 214.16 36.06 212.16 43.09 217.16 49.42 212.16 53.69 214.74 63.25 209.7 70.39 214.74 78.96 209.28"/><polygon class="cls-7" points="91.32 154.89 98.22 155.95 104.99 151.28 112.4 152.45 117.28 146.53 121.85 148.59 124.46 145.06 126.45 144.9 129.02 144.5 93.05 70.62 50.69 73.47 22.57 158.23 29.15 157.31 31.26 160.35 37.42 156.16 40.57 161.33 46.86 159.52 48.14 165 56.63 159.42 63.88 162.94 69.53 157.96 73.89 162.17 82.05 154.79 90.04 158.34 91.32 154.89"/><polygon class="cls-8" points="51.4 96.33 52.63 97.89 60.59 93.11 65.78 96.74 68.42 94.59 73.98 99.44 80.55 94.12 87.83 97.71 94.19 90.36 99.31 92.2 102.72 88.81 107.04 88.76 67.99 2.77 36.97 94.76 42.57 93.74 44.79 97.63 51.4 96.33"/><path class="cls-9" d="M88.27,222.62c-7.51-8-12.6-23.36-3.85-21.47-1.69-16.22-17-24.92-5.32-28.69,1.58-4.5-14.95-18.37-5-23.68-7.31-12-8-23.51-2-24.77-5.69-10.64-3-20.93,2.43-16.66.68-2-.46-4.82-1.7-8.84a45.21,45.21,0,0,0-4.11-3.62s-.87.48-.91.34c-2-6.35.58-11.9,5.31-7.18-4.49-13.93-8.79-29.79-3.48-28.66-.2-13.5-9.41-13.92-.92-55.85L37.51,94.32l4.3-.39L21.6,158l4.5-.48L11.68,211.16l3.79.2L1.29,255.73s10.43,4,16.44,6.46l3.12,6.16,8.42-2.53,4.6-.38L36.75,267c3,.51,9.29-.57,14.63-.38,1.29,0,.89,1.47,2.26,1.51,2.2.05,3.46-1.44,5.81-1.41,1,0,6.68,4.7,7.68,4.7,2.69-.67,1.29-3,4.8-4.13,4.54-1.46,15.36-1.11,19.86-1.13,3.48,0-15.06-20.53-.18-22.37C92.73,235.55,77.09,224.61,88.27,222.62Z"/><path d="M98.22,156a6.49,6.49,0,0,1-2.1,0l-4.46-.45,0,.18,0,.08-.07.21-.3.87-.29.88-.54,1.52L82.77,156l-.31-.14-.15-.07-.1-.05v0l-8.32,7.08-1.17-1.21-.78-.83-1.3-1.42c-.73-.82-1.16-1.36-1.1-1.42s.62.34,1.46,1l2.91,2.49.22-.23.53-.53,1.13-1.09L78,157.51l2-1.89,1.9-1.79,1.56.66,2.14,1,2.16,1,1.24.6.33.15.16.08,0,0,.15.09.11-.2.35-.86.85-2.09,1.11.2.66.13,1.27.25,2.18.47A6.8,6.8,0,0,1,98.22,156Z"/><path d="M68.76,94.56c.07.09-.23.45-.73.93l-.87.81-.51.45-.86.71-3.9-2.41-.52-.4-.53-.42-.16-.13L60.61,94h0l0-.06h-.07l-.13.06-.21.11-.86.43c-.57.29-1.15.57-1.67.8-1,.48-1.82.79-1.9.66s.56-.69,1.47-1.38l1.49-1.1.79-.55.19-.13.26-.18.7-.45,1.1.71.58.36.55.34,1.07.84,1,.82.57.47a1,1,0,0,1,.16.14l.08.1a1.14,1.14,0,0,0,.27-.12l.58-.35c.37-.22.73-.42,1-.58C68.27,94.65,68.7,94.47,68.76,94.56Z"/><path d="M117.6,146.26c.05-.12.67,0,1.57.3.45.14,1,.31,1.53.51l.86.31.15,0,.07,0,.14,0,.06-.15a.87.87,0,0,1,.12-.24l.48-.86.88-1.53.91-1.56c.1-.15.55,0,1,.25s.74.66.64.81l-3.58,5-1.37-.69-.8-.44c-.52-.29-1-.56-1.4-.8C118.06,146.75,117.55,146.38,117.6,146.26Z"/><path d="M135.16,200.59c0-.13.8-.06,1.92.14.56.09,1.2.21,1.89.35l1.05.22.27.06.2,0h.15a13,13,0,0,1,.81-1.23l1-1.39c.57-.81,1-1.36,1-1.39s.56,0,1,.31.67.72.55.88L141.17,203l-.91-.3-.59-.2-1-.37-1.8-.68C135.81,201.06,135.12,200.73,135.16,200.59Z"/><path d="M48.85,96.83c0,.12-.4.32-1.07.57-.34.12-.73.26-1.17.4l-.68.21-1.19.31L44,97.11l-.48-.79-.88-1.44-.89-1.51c-.08-.14.25-.46.73-.71s.92-.34,1-.2l.74,1.6.68,1.54.37.85a1.13,1.13,0,0,1,.08.19l0,.07,0,.17.27,0,.71-.08,1.23-.1C48.36,96.69,48.83,96.71,48.85,96.83Z"/><path d="M94.87,90.33c0-.12.61,0,1.44.25.41.13.89.28,1.4.46l.8.28.27.05c.06-.14,0-.16.12-.33l.42-.81.77-1.46.81-1.49c.09-.15.53,0,1,.24s.77.62.68.76l-3.25,4.8L98,92.42,97.28,92c-.47-.26-.91-.52-1.27-.75C95.27,90.8,94.81,90.45,94.87,90.33Z"/><path d="M26.34,211.29c.08.12-.61.78-1.68,1.67l-1.82,1.48-1,.81-1.74,1.29-3.17-5.86c-.1-.2.21-.56.69-.8s.95-.27,1-.07l.76,1.68.75,1.68.41.93.07.27.14-.06.09,0,.06,0,.14-.09,1.1-.68,2-1.19C25.4,211.6,26.25,211.17,26.34,211.29Z"/><path d="M36.64,156.47c.08.12-.61.77-1.67,1.66l-1.82,1.47-1,.81-.64.49-.93.69c-2.44-2.46-4.75-4.8-4.84-4.88s0-.61.43-1,.85-.52,1-.35l1.29,1.5,1.28,1.51.72.86.18.22a.23.23,0,0,1,.05.07l.09.14.15-.07,0,0,.13-.08.28-.18,1.12-.68,2-1.19C35.71,156.78,36.56,156.36,36.64,156.47Z"/><polyline class="cls-4" points="101.28 87.78 128.66 144.26 123.83 144.49"/><polyline class="cls-4" points="125.66 145.15 148.89 198.32 143.39 198.44"/><polyline class="cls-4" points="43.81 93.49 37.51 94.13 67.99 2.77 105.62 88.02 100.93 88.34"/><polyline class="cls-4" points="42.85 93.34 21.98 158.02 27.45 156.34"/><polyline class="cls-4" points="26.63 156.04 11.97 211.26 18.59 210.79"/><path class="cls-4" d="M14.89,211.19,1,255a.67.67,0,0,0,.27.72c1.18.84,8.93,4.47,17.55,6.85a.76.76,0,0,1,.53.51l1.06,4.06a.81.81,0,0,0,1.07.49L29.2,265a.93.93,0,0,1,.44,0c2.17.37,4.49.72,7,1,5.05.61,8.22.43,14.73.64a.91.91,0,0,1,.4.1l3.16,1.74a.92.92,0,0,0,.76.05l4.11-1.61a.88.88,0,0,1,.89.12c1,.85,3.44,3.17,4.51,4.18a.89.89,0,0,0,1.12.05l5.09-3.79a.85.85,0,0,1,.51-.17c4.33-.13,8.91-.35,13.77-.67,22.31-1.5,38.71-4.49,50.61-7.74a.91.91,0,0,1,.61.05l4.39,2.05a.88.88,0,0,0,1.16-.42l1.23-3.06a.85.85,0,0,1,1-.49l7.19,1.39a.85.85,0,0,0,1-.49l2.14-5.55a.81.81,0,0,1,.37-.41,79.56,79.56,0,0,0,9.37-5.89.69.69,0,0,0,.26-.81l-19.68-46.8"/><path d="M88.54,209.29s.24-.28.72-.65l.89-.65.56-.4.77-.52,4.81,2.11,4.83,2.16.09-.14.41-.55.81-1.07c.52-.7,1-1.36,1.48-2,1.08-1.43,2-2.59,2.52-3.31l1.38.56,2.06.91,2.13.94,1.26.55.59.27.11.06,0-.06,0,0,.07-.14.42-.9.85-1.84,1.91-4.12,2,.85,1.45.63,2.46,1.11a10,10,0,0,1,2.23,1.16,9.6,9.6,0,0,1-2.42-.66l-5.19-1.79-.06.19c0,.07,0,.09-.11.28l-.38.94-.76,1.9-.77,1.88c-.35.83-.69,1.66-1,2.45l-7.54-3-.2-.09h0L101.5,213l-1.77-.9-1.31-.67-2.57-1.33-2.4-1.26-1.09-.58-.52-.27-.32-.19-1.11.61-1,.52C88.9,209.2,88.57,209.34,88.54,209.29Z"/></g><g id="Layer_308" data-name="Layer 308"><path class="cls-10" d="M133.28,328l-2.91-1.47L126.57,316l-8.79-7.25-5.57.55-10.58,1.06-4.58,12.75-5.14,4.27s-9.38,15.11,5.28,15.85c11.93.6,18.79-1.88,28-.23,5.08.91,7.18-1.64,8.74-2.46l-1.08-1.79Z"/><path class="cls-11" d="M119.44,341.06l-2.92-6.87,1.56-4-2.48-12.8-14.39-6.67-.63,1.35-2.44,3-.78,7.78L90.66,329S85.15,339.43,92,342.52c10.81,4.84,21.66,1.93,27.69.51Z"/><polyline class="cls-4" points="134.36 340.57 133.28 328.97 130.37 326.48 126.3 314.57 117.78 308.78 100.58 312.04 97.08 323.78 90.67 328.28 88.34 341.91"/><path d="M141.73,340.08c0,.28-1.75.31-3.41.6a14.44,14.44,0,0,0-2.2.51,5.67,5.67,0,0,0-.65.25l-.24.12c-.07,0-.34-.35-.61-.85s-.37-1-.22-1a5.89,5.89,0,0,1,1.29-.34,13.72,13.72,0,0,1,2.55-.12C140.06,339.31,141.77,339.8,141.73,340.08Z"/><path class="cls-4" d="M89.81,341.76a12,12,0,0,1,5.65,1.1c13.8,6.18,19.82-.57,29,1.08,5.08.91,8.93-2.55,10.5-3.37"/><path d="M79.75,343c0-.29,2.56-.43,5-1.07,1.22-.31,2.44-.7,3.45-.95a10.38,10.38,0,0,1,1.82-.3c.21,0,.37.45.37,1s-.14,1-.29,1a8.55,8.55,0,0,0-1.55.11c-.93.12-2.23.38-3.55.51C82.33,343.68,79.73,343.29,79.75,343Z"/><path d="M117.67,317.36c-.1-.34,8.29-3.17,8.44-3.21s.35.2.46.54.06.66-.08.7S117.78,317.71,117.67,317.36Z"/><path d="M122.44,331.34c-.08-.35,10.19-2.89,10.37-2.93s.39.21.47.56,0,.67-.19.71S122.52,331.69,122.44,331.34Z"/></g></g></g></g></g></g></svg>