<svg xmlns="http://www.w3.org/2000/svg" viewBox="0 0 120.29 42.69"><defs><style>.cls-1{fill:#aadf0a;}.cls-2{fill:none;stroke:#000;stroke-miterlimit:10;stroke-width:2px;}.cls-3{fill:#a57546;}.cls-4{fill:#895d31;}.cls-5{fill:#9e6f3c;}</style></defs><g id="Layer_2" data-name="Layer 2"><g id="Obstacles"><g id="Trees"><g id="Willow"><g id="Trubble_2" data-name="Trubble 2"><g id="Layer_258" data-name="Layer 258"><path class="cls-1" d="M97.82,13C94,8,93.37,3,78.51,4.37,61.06,6,50.29-2.37,44.19,4.2c-13.11.74-17.5,3.32-22.58,10.64s-8.39,3.81-15,8.86l27.88,3.58" transform="translate(-0.17)"/><path class="cls-2" d="M44.19,4.91C29.51,3.43,24.5,11.44,21.61,14.84,15.84,21.64,10.51,20.11,6,24" transform="translate(-0.17)"/><path d="M43.41,8c-.24,0-.29-1-.08-2a10.93,10.93,0,0,1,.59-2c0-.07.38.06.78.27s.69.44.66.49l-.32.5c-.18.29-.41.7-.63,1.1C44,7.11,43.62,8,43.41,8Z" transform="translate(-0.17)"/><path class="cls-2" d="M97.82,13c-3.87-5-7-9-19.31-8.65-16,.46-29.79-8.28-34.67.71" transform="translate(-0.17)"/><path class="cls-1" d="M102.73,21.44s10.53-.57,12.71,2.26-.48,4.15-.48,4.15h-10" transform="translate(-0.17)"/><path d="M.18,24.14c0-.09.31-.38,1.05-.63a10,10,0,0,1,3.16-.37c2.61.06,5.94.56,9.3.93a48.74,48.74,0,0,0,9.11.26,37.4,37.4,0,0,0,4.27-.49c.44-.06.9.59,1.08,1.47S28,27,27.54,27.06a37,37,0,0,1-4.64.26,46.49,46.49,0,0,1-9.57-1C10,25.68,6.7,24.83,4.27,24.4a14.35,14.35,0,0,0-2.92-.25C.64,24.18.22,24.25.18,24.14Z" transform="translate(-0.17)"/><path d="M120.45,28.82c-.07.1-.41-.05-1-.21a11.14,11.14,0,0,0-2.48-.29c-2.11,0-5,.2-8,.22a34.62,34.62,0,0,1-8.35-.81,30.52,30.52,0,0,1-3.91-1.13c-.41-.17-.45-1-.07-1.8s.94-1.36,1.29-1.22a31.1,31.1,0,0,0,3.44,1.25,36.22,36.22,0,0,0,7.68,1.42c2.9.26,5.81.39,8,.82a7.22,7.22,0,0,1,2.62.95C120.29,28.41,120.51,28.74,120.45,28.82Z" transform="translate(-0.17)"/><path class="cls-2" d="M102.73,21.44S112.84,20.16,115,23s1.28,4.87,1.28,4.87" transform="translate(-0.17)"/></g><g id="Layer_256" data-name="Layer 256"><path class="cls-3" d="M107.5,27.57a55.14,55.14,0,0,0-5.9-12.92c-.1-.63-6.14-2-15.76-.57,2.12-5.29-11.47-5.6-25.7-5.6-.36,0-1.55,1.48-1.91,1.5-1,.08-2.75-1.89-3.77-1.81-.6,0-2.31,2.22-2.92,2.28-4.29-1-18.91-1.12-19,.33a42.8,42.8,0,0,1-7,14.2,2.8,2.8,0,0,0,1,4.19,33.31,33.31,0,0,1,5.63,3.35c5,4.45,14,4.78,22.67,3.45s14.48,3.35,21.77.68,19,1.08,23.88-2.75A16.1,16.1,0,0,1,105.64,31,2.8,2.8,0,0,0,107.5,27.57Z" transform="translate(-0.17)"/><path class="cls-4" d="M44,17.56c18.48,10.81,43.13,2.28,43.13,2.28,15.76-.46,14.45-5.19,14.45-5.19a55.14,55.14,0,0,1,5.9,12.92A2.8,2.8,0,0,1,105.64,31a16.1,16.1,0,0,0-5.18,2.89c-4.84,3.83-16.6.09-23.88,2.75s-13.06-2-21.77-.68-17.7,1-22.67-3.45a33.31,33.31,0,0,0-5.63-3.35,2.8,2.8,0,0,1-1-4.19,42.8,42.8,0,0,0,7-14.2S31.44,15.48,44,17.56Z" transform="translate(-0.17)"/><path class="cls-5" d="M85.05,17.47C86.35,16.38,82,16.4,82,16.4c.06-3.62-.51-2.71-.6-3.22-4.9.21-10.84,1.66-22.25-.16-2.36.16-16.17,0-7.63,4.18C57.67,20.23,75,22.2,85.05,17.47Z" transform="translate(-0.17)"/><path d="M41.82,22.1c.17.07-1.08,3.13-2.81,6-.84,1.43-1.77,2.82-2.5,3.86s-1.26,1.72-1.3,1.76c-.15.19-.49.15-.77-.08s-.38-.56-.24-.73.58-.69,1.35-1.67,1.76-2.29,2.69-3.63C40.14,24.91,41.66,22,41.82,22.1Z" transform="translate(-0.17)"/><path class="cls-2" d="M86.81,13.86a43.69,43.69,0,0,1,14.59,0,.92.92,0,0,1,.62.45,62.43,62.43,0,0,1,5.49,13.29A2.8,2.8,0,0,1,105.65,31a16.22,16.22,0,0,0-5.19,2.89c-4.84,3.83-16.6.09-23.88,2.75s-13.06-2-21.77-.68-17.7,1-22.67-3.45a32.8,32.8,0,0,0-5.64-3.35,2.82,2.82,0,0,1-.95-4.23A34.75,34.75,0,0,0,32,11.73a.91.91,0,0,1,.55-.61c1.61-.61,3.23-1.57,19-.67l2.79-1.9a.41.41,0,0,1,.46,0l3,1.87a.42.42,0,0,0,.5,0L59.82,9a52.1,52.1,0,0,1,11.49-.45c.56,0,3.49,1.26,4,1.3s3.11-.54,3.61-.49c4.38.45,5.29.72,6.52,1.11a1,1,0,0,1,.66.84l.29,4.34" transform="translate(-0.17)"/><path d="M65.36,26.81c.17,0,.84,2.84,2.06,5.53C68,33.69,68.69,35,69.24,36s1,1.62,1,1.67-.07.46-.37.65-.65.19-.75,0c0,0-.42-.73-.93-1.77a36.12,36.12,0,0,1-1.62-3.85C65.53,29.82,65.17,26.83,65.36,26.81Z" transform="translate(-0.17)"/><path d="M85.51,27.05c.18,0,.78,2.36,1.86,4.53a11.93,11.93,0,0,0,1.81,2.74,7,7,0,0,0,1.11,1c.12.09,0,.41-.15.7s-.5.44-.65.32a7.46,7.46,0,0,1-1.23-1.26A12.08,12.08,0,0,1,86.53,32C85.61,29.56,85.34,27.08,85.51,27.05Z" transform="translate(-0.17)"/><path d="M67.61,22.83A7.29,7.29,0,0,1,66,23L64.11,23l-2.43,0a45.71,45.71,0,0,1-13-2,16.82,16.82,0,0,1-3.35-1.52,8,8,0,0,1-1.51-1.13l-.09-.08,0,0s0-.05-.05-.05h0l-.18,0-.84-.18a49.69,49.69,0,0,1-6-1.57,13.37,13.37,0,0,1-4.22-2.09,5.43,5.43,0,0,1-.63-.65,4.23,4.23,0,0,1-.39-.7,4.3,4.3,0,0,1-.13-.58v-.29a1.24,1.24,0,0,1,.7-1.07.55.55,0,0,1,.69.13,2.77,2.77,0,0,1,.23,1.07.13.13,0,0,1,0,.05.49.49,0,0,1,0,.15l.16.28a4.57,4.57,0,0,0,.39.41A12.14,12.14,0,0,0,37.06,15a53.15,53.15,0,0,0,5.84,1.67l.82.19.62.15a1.39,1.39,0,0,1,.24.25l.11.13.07.06a7.07,7.07,0,0,0,1.26,1,16.19,16.19,0,0,0,3.07,1.5,48,48,0,0,0,12.63,2.47l2.4.18,1.86.1A6.13,6.13,0,0,1,67.61,22.83Z" transform="translate(-0.17)"/><path d="M76.39,22.2c0-.16,2.28-.26,4.51-.73a23.6,23.6,0,0,0,3-.8c.81-.27,1.34-.52,1.37-.53l.49-.19.5-.22.29-.15a3.22,3.22,0,0,0,.43-.25h.65l.56,0,1.2-.07,2.42-.17a10.31,10.31,0,0,1,2.73,0,10.55,10.55,0,0,1-2.66.6l-2.4.4-1.21.17-.58.06-.4,0-.23.15-.31.18-.54.28a4.82,4.82,0,0,1-.51.23,12.46,12.46,0,0,1-1.49.48,22,22,0,0,1-3.21.6A13.72,13.72,0,0,1,76.39,22.2Z" transform="translate(-0.17)"/><path d="M98.11,18.08c-.08-.23,1.35-.81,2.33-1.75a2.3,2.3,0,0,0,.77-1.37,1.34,1.34,0,0,0-.1-.59c0-.06.32-.21.71-.43s.8-.22.84-.07a2.81,2.81,0,0,1,0,1.37,3.47,3.47,0,0,1-1.53,2C99.71,18.14,98.17,18.26,98.11,18.08Z" transform="translate(-0.17)"/><path d="M59.87,14.84a29.35,29.35,0,0,1,4.16.59,67.93,67.93,0,0,0,9.17.8,50.64,50.64,0,0,0,9.2-.65,32.5,32.5,0,0,0,4.24-1,.84.84,0,0,1,1,.51.8.8,0,0,1-.57,1,30.61,30.61,0,0,1-4.48.91,49.33,49.33,0,0,1-9.48.32,55.69,55.69,0,0,1-9.24-1.33A19.12,19.12,0,0,1,59.87,14.84Z" transform="translate(-0.17)"/></g><g id="Layer_257" data-name="Layer 257"><path class="cls-1" d="M69.86,41.06c2.78-1.22,3-2.91,7.81-6.78s14.52-.37,18.76-2.74,10,3.28,13.89,3.16a19.91,19.91,0,0,1-13.86,6.83c-9.12.6-17.18-1.22-23,.14A4.36,4.36,0,0,1,69.86,41.06Z" transform="translate(-0.17)"/><path d="M68.67,41c-.11,0-1.67-.18-1.78-.18l-1.51-.69c4,.11,5.55-1.43,8.19-3.93.93-.89,2-1.9,3.3-2.94,3.1-2.48,5.86-2.39,9.36-2.29a40,40,0,0,0,10-.69c6.88-1.4,10.36.81,12.9,2.43A10,10,0,0,0,111.41,34c.28.08-.74.37-.46.36l-1.18,1.18c-1.36,0,.08.66-1,0-.35-.2-.69-.42-1-.64-2.41-1.54-5.14-3.28-11-2.08a42.4,42.4,0,0,1-10.54.74c-3.32-.1-5.32-.16-7.68,1.74-1.22,1-2.2,1.89-3.14,2.79a21.39,21.39,0,0,1-4,3.22C69.85,42.15,71.09,41,68.67,41Z" transform="translate(-0.17)"/><path d="M62.29,40.57c0-.11,1.58-.61,4.13-.47,1.27.07,2.72.5,4.15.69a12.94,12.94,0,0,0,4.55-.33,31.67,31.67,0,0,1,9.24-1.17,33.24,33.24,0,0,1,4.43.57l1.24.29c.37.1.79.19,1.24.27a13.54,13.54,0,0,0,1.6.19,25.7,25.7,0,0,0,8.66-1,10.45,10.45,0,0,0,4-2A28.44,28.44,0,0,1,109,35.07a12.73,12.73,0,0,1,2.72-1.35c.7-.23,1.16-.18,1.16-.11s-.38.18-1,.53a18.22,18.22,0,0,0-2.39,1.64,37.24,37.24,0,0,0-3.09,2.74A11.59,11.59,0,0,1,102,41.15a26.44,26.44,0,0,1-9.27,1.53c-.66,0-1.27-.07-1.82-.13s-1-.17-1.39-.24l-1.23-.24a33.7,33.7,0,0,0-4.11-.72,32.41,32.41,0,0,0-8.81.67,14,14,0,0,1-5,0c-1.6-.36-2.88-.87-4.06-1.07C64,40.57,62.3,40.77,62.29,40.57Z" transform="translate(-0.17)"/><path d="M90.86,35.36c0,.11-.5.13-1.15.35a2.62,2.62,0,0,0-.95.57,2,2,0,0,0-.57,1,3.14,3.14,0,0,0,.48,2.22,4.76,4.76,0,0,0,.69.93c.07.1-.09.37-.35.61s-.57.34-.66.22a6.2,6.2,0,0,1-.75-1.21,4.11,4.11,0,0,1-.29-3,2.74,2.74,0,0,1,1-1.33,3,3,0,0,1,1.29-.49C90.38,35.13,90.87,35.29,90.86,35.36Z" transform="translate(-0.17)"/></g></g></g></g></g></g></svg>