<svg xmlns="http://www.w3.org/2000/svg" viewBox="0 0 199.08 135.03"><defs><style>.cls-1{fill:#c9c9c9;}.cls-2{fill:#a7a9ac;}.cls-3{fill:none;stroke:#000;stroke-miterlimit:10;stroke-width:2px;}</style></defs><g id="Layer_2" data-name="Layer 2"><g id="Obstacles"><g id="Rocks"><g id="Rock_3" data-name="Rock 3"><path class="cls-1" d="M195,90.28,179.2,87.7l-7.51-38.05-23.92-6.16-13.92,1.38-10-39L67,.93,28.49,28.12l-7,37L1.88,77.39l28.65,37,.11-.07s10.2,7.13,17.68,10.6c17.75,8.23,22.94-4.87,48,4.67,27.89,10.61,46.14-8.79,69-4.67,12.68,2.28,16.47-4.45,20.37-6.5h-.46Z"/><path class="cls-2" d="M151.9,124.12,144,102.27l-26.7-8.17L132,91.55l15.62.91-6.54-33.78L106.37,48.27l-1.56,3.36-6.1,7.58L92,35.8,29.21,28.12,21.67,65.39l-.22.09,1.35,4.87L37,74.11,47.3,66.4l38.23,6,5.18,23-19.23,9.37L59.92,88.47,29.13,82.41l5.48-5.8-4.08,4-28.16-3L19.67,66.4l.17-.3-18,10.79,24.34,33.43,2.57,7.85,3.24.9a63.88,63.88,0,0,1,16.29,4.58c17.75,8.24,29.53-1.75,46.73,6,27,12.1,41.8-1.94,56.85-5.49Z"/><polyline class="cls-3" points="21.67 65.39 28.63 27.32 67.02 1.03 123.81 5.89 133.85 44.87"/><path d="M30.25,72.39a10.76,10.76,0,0,1-2.95-.56l-2.88-.76-1.59-.43-.8-.23L20.73,70l.9-7.53c0-.28.43-.45.87-.39s.78.34.73.62l-.37,2.19-.38,2.2-.22,1.26-.11.63,0,.16,5.41,2A11.71,11.71,0,0,1,30.25,72.39Z"/><polyline class="cls-3" points="21.67 65.6 1.46 77.75 25.68 110.38 27.79 119.06"/><path d="M92,68.19c-.13-.1,1.65-2.77,4.42-6.73,1.4-2,3-4.28,4.77-6.75l5.75-8,26.6-3.27a1.47,1.47,0,0,1,1.75,1c.07.67-.59,1.29-1.49,1.39l-25.93,2.47-5.59,7.2c-1.86,2.39-3.6,4.6-5.1,6.51C94.2,65.81,92.16,68.29,92,68.19Z"/><polyline class="cls-3" points="185.28 118.44 194.99 90.28 179.21 87.7 171.69 49.65 147.77 43.49 133.85 44.87"/><path d="M199.08,119.1c0,.28-3.53.75-7.14.5-1.79-.09-3.57-.29-4.79-.2a4.67,4.67,0,0,0-1.91.46c-.18.08-.54-.26-.81-.76s-.26-1,0-1.13a4.76,4.76,0,0,1,.78-.25,7.45,7.45,0,0,1,1.88-.2,37.22,37.22,0,0,1,5,.64C195.56,118.77,199.06,118.81,199.08,119.1Z"/><path class="cls-3" d="M27.79,118.13c5.14.39,12.75,2.82,20.22,6.29,17.76,8.23,26.81-3.52,44,4.19,34.46,15.44,49.51-7.45,72.4-3.34,12.68,2.28,17.42-4.78,21.32-6.83"/><path d="M12.33,120c0-.16,1-.22,2.45-.42s3.38-.59,5.31-1.06,3.9-.94,5.47-1.17a18.37,18.37,0,0,1,2.77-.21c.3,0,.51.48.46,1s-.29,1-.54,1a15.69,15.69,0,0,0-2.48,0c-1.46.1-3.42.43-5.41.72a36.15,36.15,0,0,1-5.53.42A5.54,5.54,0,0,1,12.33,120Z"/><path d="M33.18,93a14.59,14.59,0,0,1-1.41-2.88l-1.41-3.29-1.87-4.52c2.64-2.51,5.67-5.39,8.73-8.32l9.08-8.56,14.1,2.05,26,4.43,1.8,8.86,1.4,7.19c.8,4.2,1.27,7,1.12,7s-.89-2.68-1.95-6.82C88.25,86,87.64,83.6,87,81L85.1,73.22,68.36,70.86l-8.3-1.21L46.92,67.42l-8.65,7.67-4.54,4L31.55,81l-1,.91-.75.64,1.38,3.92,1.16,3.39A14.84,14.84,0,0,1,33.18,93Z"/><path d="M98.62,28.66c-.45-.5,23.19-22.6,23.61-23a1.14,1.14,0,0,1,1.58.21,1.15,1.15,0,0,1,0,1.6C123.44,7.87,99.07,29.16,98.62,28.66Z"/><path d="M149.47,56.32c-.19-.64,20.83-7.53,21.2-7.64s.83.32,1,1,.05,1.26-.32,1.37S149.67,57,149.47,56.32Z"/><path d="M159.4,99.85c-.17-.65,33.61-10.29,34.2-10.45a1.22,1.22,0,0,1,.63,2.35C193.64,91.91,159.58,100.5,159.4,99.85Z"/></g></g></g></g></svg>