<svg xmlns="http://www.w3.org/2000/svg" viewBox="0 0 188.01 34.5"><defs><style>.cls-1{fill:#d1d3d4;opacity:0.58;}.cls-2{fill:#090909;}.cls-3{fill:#c9c9c9;}.cls-4{fill:#a7a9ac;}.cls-5{fill:none;stroke:#000;stroke-miterlimit:10;stroke-width:1.5px;}</style></defs><g id="Layer_2" data-name="Layer 2"><g id="Obstacles"><g id="Rocks"><g id="Rubble_2" data-name="Rubble 2"><path class="cls-1" d="M2.81,16.25c-13.11,5.11,23,11.58,39.61,9.47,23.62-3,28.53,4.56,44.17,7.5,30.19,5.69,36.67-9.69,56.93-5.75,21.53,4.18,31.9-6.79,40.28-8.26,3.62-.64,8.82-3.73-14.48-6.07-40-4-37.76,1-48.24,1-10.84,0-22-7.22-43.59-3.24-19,3.5-25.33-.11-39.71,1.61C14.52,15.33,9.8,13.52,2.81,16.25Z"/><path class="cls-2" d="M85.19,32.8a2.1,2.1,0,0,1-.53-.07l-1.49-.32c-1.28-.29-3.09-.79-5.23-1.48-4.28-1.38-9.83-3.73-15.73-4.72A61.19,61.19,0,0,0,45.74,26c-2.26.24-4.2.51-5.6.59s-2.22.11-2.32.11-3.35.11-7.95-.17a124.75,124.75,0,0,1-16.55-2.14A56.73,56.73,0,0,1,4.77,22a11.61,11.61,0,0,1-3.63-2,2.58,2.58,0,0,1-.63-.85,1.4,1.4,0,0,1,0-1.08,3,3,0,0,1,1.34-1.31A18.13,18.13,0,0,1,7,15.07c.65-.11,1.16-.17,1.51-.21a1.72,1.72,0,0,1,.54,0s-.73.15-2,.44a19.89,19.89,0,0,0-5,1.86A2.61,2.61,0,0,0,1,18.26a1.27,1.27,0,0,0,.55,1.36A11.39,11.39,0,0,0,5,21.42a58.21,58.21,0,0,0,8.49,2.15,127.9,127.9,0,0,0,16.45,1.88c4.56.23,7.67.09,7.86.09s.92,0,2.28-.09,3.25-.3,5.56-.52a60.71,60.71,0,0,1,16.72.5c6,1.11,11.53,3.59,15.73,5.09,2.11.75,3.89,1.32,5.15,1.67l1.45.43A1.81,1.81,0,0,1,85.19,32.8Z"/><path class="cls-2" d="M38.42,12.54A8.45,8.45,0,0,1,40,12.27c1-.15,2.39-.28,4.1-.39,3.4-.22,8-.06,12.5.12,2.27.08,4.54.1,6.67,0s4.13-.2,5.85-.37l2.34-.26,1.84-.26c1-.14,1.64-.24,1.71-.26L80.87,10A67.62,67.62,0,0,1,93.51,9.4a73.29,73.29,0,0,1,12.38,1.83c1.66.38,3,.74,4,1a8.94,8.94,0,0,1,1.49.45,8.54,8.54,0,0,1-1.54-.23l-4-.78A79,79,0,0,0,93.48,10.2,67.46,67.46,0,0,0,81,11l-5.88,1-1.74.23-1.86.24-2.38.22c-1.74.14-3.76.25-5.92.28s-4.45-.06-6.73-.18c-4.55-.28-9.06-.57-12.45-.48-1.69,0-3.1.1-4.09.18A8.33,8.33,0,0,1,38.42,12.54Z"/><path class="cls-2" d="M162.35,12.44a2.24,2.24,0,0,1,.59,0l1.63.09,5.85.44c2.42.21,5.24.51,8.26,1,1.5.23,3.06.5,4.63.87a20.86,20.86,0,0,1,2.35.69,8,8,0,0,1,1.17.52,2.55,2.55,0,0,1,1.06,1,1,1,0,0,1,0,.92,1.73,1.73,0,0,1-.5.61,4.87,4.87,0,0,1-1.18.64,18.65,18.65,0,0,1-2.39.65,24,24,0,0,0-4.35,1.57c-2.76,1.27-5.33,2.58-7.62,3.57a49.32,49.32,0,0,1-8.16,2.81,41.63,41.63,0,0,1-8.55,1.15c-1.26,0-2.61,0-4-.08s-2.92-.18-4.44-.48L142,27.57c-.78-.12-1.58-.17-2.37-.26s-1.6-.07-2.4-.09A37.32,37.32,0,0,0,128,28.56c-2.91.78-5.59,1.73-7.9,2.46s-4.26,1.28-5.63,1.63l-1.6.35a2.05,2.05,0,0,1-.58.09,2.32,2.32,0,0,1,.55-.2l1.57-.46c1.35-.42,3.27-1,5.55-1.83s4.94-1.8,7.88-2.64a37.14,37.14,0,0,1,9.47-1.54c.82,0,1.64,0,2.46,0s1.64.12,2.44.24l4.66.7c1.5.28,3,.3,4.36.43s2.72,0,3.94,0a41.83,41.83,0,0,0,8.33-1.21,48.93,48.93,0,0,0,8-2.67c2.27-.95,4.83-2.22,7.65-3.48A25.53,25.53,0,0,1,183.65,19a18.06,18.06,0,0,0,2.28-.58,3.85,3.85,0,0,0,1-.5,1,1,0,0,0,.28-.3.25.25,0,0,0,0-.25,1.84,1.84,0,0,0-.72-.64,9.1,9.1,0,0,0-1-.48,17.89,17.89,0,0,0-2.26-.7c-1.54-.4-3.07-.69-4.57-.95-3-.51-5.79-.86-8.2-1.14l-5.82-.65-1.62-.21A2.17,2.17,0,0,1,162.35,12.44Z"/><path class="cls-3" d="M106.06,15.65l-.65-1.27L98.47.91l-7.08,2V10l-7.63,2.78-2.33,3.56v1h.06c-1.29.27,3.66-.74,2.3-.2l2.68,0L92,17c3,.22,6.2.41,9.71.39C108.67,17.39,106.06,15.65,106.06,15.65Z"/><path d="M106.06,15.65s.33,0,.61.52a.61.61,0,0,1,0,.52,1,1,0,0,1-.43.39,3.88,3.88,0,0,1-1.16.42,36,36,0,0,1-6.94.45c-1.39,0-2.85,0-4.35-.1l-1.13,0-.57,0-.49,0-2.29.13c-1.53.09-3.06.18-4.55.16H83.54s0,0,0,0l.1-.14c.65-1.63.17-.43.31-.77l0,.05a.49.49,0,0,0,0,.12c0,.05,0,.22,0,.33V18s0,0,0,0l-.18,0-.49.07-1,.19-.56.11a2.44,2.44,0,0,1-.46.07s0,0,0,0h.17l.23,0h-.11l-1-.06v-.93l0-1.34c1-1.58,1.9-3,2.63-4.15l3.41-1.29,1.33-.47,1.41-.49.87-.3.21-.07h0l0,0V8.43l0-1.73.07-4.51L98.87,0l1.66,3.4c.44.93.88,1.84,1.31,2.72.83,1.77,1.6,3.41,2.26,4.8,1.3,2.8,2.1,4.67,2,4.73s-1.18-1.66-2.71-4.34l-2.59-4.63L99.3,4c-.25-.46-.5-.91-.75-1.38L98.2,2l-.13-.21-.28.1-.9.27-1.78.54-1.75.54-.87.26-.18.06v.29l0,1,0,1.85.06,4.05-5.21,2-2.76,1-2,3a7,7,0,0,0,0,.74l-1-1h0s0,0,0,0l.45-.08,1.06-.15.57-.07.35,0a1,1,0,0,1,.5.08c.08.1,0,0,0,.07h0s0,0,0,0h.3c1.45.08,3,0,4.49,0l2.28,0h.65l.56.05,1.12.11c1.49.13,2.93.25,4.29.34a45.54,45.54,0,0,0,6.8.1c.81-.08,1.53-.31,1.45-.63S106,15.7,106.06,15.65Z"/><path class="cls-3" d="M45.6,21h0v-.88l-1.73-2.88-9.81-1-4.66,2.91L29,20.26l-3.13-.38a11.49,11.49,0,0,0,3,.64l-.07.18,4.61.08,7.37-.16C39.4,19.8,47,21.36,45.6,21Z"/><path d="M45.6,21s.06-.05.15-.05h.08l0,0s0,.17-.05.15h-.37c-.32,0-.78,0-1.34-.08l-2-.16a10.73,10.73,0,0,0-1.13,0h-.1a2.25,2.25,0,0,0,0-.22,1.07,1.07,0,0,0-.06-.17v0c.41.75.13.23.23.4L41,21l.06.07s0,0,0,0,0,.05.05.07.17,0,0,0l-1,.06-5.79.35c-2,.11-3.89.08-5.55.11l-1.42,0,.5-1.4.07-.17.83,1.37a12.81,12.81,0,0,1-3.32-.63L17.68,18l8.34.8,1.53.15.38.05.21,0h.13s0,0,0,0h0s0,0,0,0,0,0,0,0c-.07.19.18-.42.27-.66l5.31-3.12,2.85.38,2.55.36,4.91.73.36.66.24.45.41.82.65,1.35a6,6,0,0,1-.09.64,1.08,1.08,0,0,1-.09.3l0,0h0s0,0,0,0,0,0,0-.05l0,.05a1.22,1.22,0,0,1-.09-.3l-.09-.52c-.17-.2-.5-.66-.81-1.1l-.53-.75L43.81,18l-.18-.24h-.3l-.54,0-1.16-.06-2.47-.14-4.83-.3-4,2.69c0,.09.09-.21-.09.26l-.29.77-.17.46c0,.12-.08.07,0,.09l-2.45-.27L25.76,21l.53-2.1a11.26,11.26,0,0,0,2.73.65l1.34.18-.5,1.19-.08.18-.91-1.37c1.64.06,3.55.2,5.51.23l5.7.11.33,0c.06,0-.08,0-.06-.08a.91.91,0,0,1,.61-.14,10.3,10.3,0,0,1,1.26.18c.76.15,1.42.31,2,.45s1,.28,1.29.38l.2.07.07,0s0,0,0,.09,0,0,0,.07,0,0,0,0h0C45.63,21.07,45.59,21,45.6,21Z"/><path class="cls-3" d="M155.7,15.73l-2.61.21-1.41-7.72H146.6l-2.33,7.89a14.94,14.94,0,0,0-3.22.82l8.8-.72h3.29v0c.14,0,.28,0,.43,0A5,5,0,0,0,155.7,15.73Z"/><path d="M155.7,15.73c0,.06-.17.26-.61.45a6.19,6.19,0,0,1-2,.4l.38-.47v0l.11.43-.5,0-3.26.2c-2.7.36-6,.75-8.76,1.06l-6.87.79L140.72,16a15.41,15.41,0,0,1,1.77-.6l.84-.21.08,0h0v-.06s0-.07,0-.16l.07-.26.23-.85.21-.8,1.88-5.82,1.93,0,1.26,0,3.29.1.27,1.74.15,1.07.28,2.08c.17,1.3.35,2.72.36,3.21l1.56.07c.46,0,.73.07.73.14s-.24.16-.69.26l-.82.17-1.43.21L151,9l-.19,0-.13,0h-.33l-1.3,0-1.26.05h-.3c-.12,0-.06,0-.1,0l-.07,0v.11l-.06.24-.26,1c-.16.61-.31,1.16-.43,1.63l-.42,1.54-1.07,3.36-.71.09-.65.1-.74.14a13.8,13.8,0,0,0-1.6.44L141,16c2.8-.14,6-.28,8.86-.37,1.27.06,2.36.13,3.31.2l-.4.47v0l-.05-.51.43,0A17.1,17.1,0,0,0,155.7,15.73Z"/><path class="cls-4" d="M32.06,17.53,40,19.17l.84,1.45s-14.47.76-11.38-1.46"/><polyline class="cls-4" points="91.57 6.83 95.99 6.46 100.74 17.44 81.43 17.39 81.95 15.56 91.08 14.5 90.16 10.99 91.08 10.76"/><polyline class="cls-4" points="107 26.36 108 29 104.7 28.5"/><polyline class="cls-4" points="147.12 8.17 148.38 8.82 149.59 16 144.24 16.21"/><polyline class="cls-5" points="106.52 16.54 98.47 0.91 91.39 2.89 91.39 10.01 83.76 12.79 81.58 15.45 81.43 17.39"/><polyline class="cls-5" points="45.64 21.01 45.65 20.13 43.92 17.25 34.12 16.25 29.45 19.16 28.85 20.7"/><polyline class="cls-5" points="153.13 16.21 151.68 8.22 146.6 8.22 144.24 16.21"/><path d="M77.52,18.56a8.55,8.55,0,0,1,2.3-1,23.26,23.26,0,0,1,5.43-1.08,46,46,0,0,1,5.58-.06l2.63.14,2.61.22c1.51.12,3.5.25,5.48.24s4-.06,5.26-.63c.3-.13.37-.36.25-.57a1.93,1.93,0,0,0-.47-.54c-.33-.27-.54-.41-.52-.44s.26,0,.65.25a2.08,2.08,0,0,1,.63.56.74.74,0,0,1,.11.59,1,1,0,0,1-.41.52c-1.44.82-3.47.9-5.48,1.05s-4,.07-5.56,0l-2.63-.14-2.61-.23a53.79,53.79,0,0,0-5.47-.18,27.23,27.23,0,0,0-5.36.71A21.31,21.31,0,0,1,77.52,18.56Z"/><path d="M49.78,22.72c-.08.16-2.73-1.31-5.7-1.63a24.77,24.77,0,0,0-4.1-.17c-1.13,0-1.91.1-2,.11l-2,.06c-1.16,0-2.69.06-4.22,0a24.61,24.61,0,0,1-4.16-.51,4,4,0,0,1-1.77-.7c0-.07.74.15,1.85.27a32.1,32.1,0,0,0,4.09.14c1.5,0,3-.15,4.15-.24l2-.15s.83,0,2,0a22.7,22.7,0,0,1,4.24.41,15.25,15.25,0,0,1,4,1.38A5.4,5.4,0,0,1,49.78,22.72Z"/><path d="M141.05,16.93a7.93,7.93,0,0,1,3.51-1.26,17.42,17.42,0,0,1,2.59-.24c.72,0,1.2,0,1.23,0l3.73.35a18,18,0,0,0,2.47.07,9.27,9.27,0,0,1,1.12-.13c0,.07-.35.38-1,.56a12.06,12.06,0,0,1-2.57.29c-.93,0-1.86,0-2.56,0l-1.21,0-1.19-.09a18.43,18.43,0,0,0-2.48,0C142.85,16.54,141.11,17.08,141.05,16.93Z"/><path class="cls-3" d="M108.92,28.84l1.57-.25h.39l0-.06,1.08-.18-1.19,0-1.49-2.29h-3.58l-1.58,2.41h-.71C105.34,28.53,105.8,29.33,108.92,28.84Z"/><path d="M108.92,28.84c0,.15-.66.48-1.79.64a7.38,7.38,0,0,1-1.93,0,8.46,8.46,0,0,0-1.85-.11v-1.7l.22-.06a.89.89,0,0,1,.16-.34l.39-.68.36-.63.59-1,1.31,0,.85,0,.9.05.56,0,1.06,0,.6,1,.33.6.34.61a1.34,1.34,0,0,1,.1.27l.2.05.58,0L112,29l-1.1.05.34-.77,0,.06.48,1-.9-.22a11.66,11.66,0,0,0-1.36-.08c-.36,0-.57-.08-.59-.17s.18-.21.51-.34a5.38,5.38,0,0,1,.59-.22l.39-.13.47-.06-.42.78,0-.06-.46-.55.8-.23,1.06-.3.12,1.26-.6.07-1,.07-.65-.9-.43-.55-.42-.55c-.08-.09-.08-.06-.11-.09l-.09,0-.49,0-.9.05-.85.05h-.12l0,0s0,0,0,0l-.39.52-.47.62c-.11.13-.51.69-.78,1.07l-1.19,0v-1.7a8.19,8.19,0,0,1,2.1.48,8.21,8.21,0,0,0,1.64.39C108.14,28.66,108.9,28.66,108.92,28.84Z"/><polyline class="cls-5" points="104.28 28.86 105.79 26.51 109.24 26.08 110.94 28.8"/><path d="M101.31,28.51a6,6,0,0,1,3-.18,17.66,17.66,0,0,0,2,.13c.55,0,.93,0,1,0s6-.39,6-.08-5.84,1.33-6,1.21c0,0-.43,0-1-.06a14.34,14.34,0,0,1-2.1-.39C102.8,28.72,101.33,28.67,101.31,28.51Z"/></g></g></g></g></svg>